<?xml version="1.0" encoding="UTF-8" standalone="no"?>
<!DOCTYPE svg PUBLIC "-//W3C//DTD SVG 1.1//EN"
 "http://www.w3.org/Graphics/SVG/1.1/DTD/svg11.dtd">
<!-- Generated by graphviz version 12.2.1 (0)
 -->
<!-- Title: architecture Pages: 1 -->
<svg width="1564pt" height="345pt"
 viewBox="0.00 0.00 1564.02 344.68" xmlns="http://www.w3.org/2000/svg" xmlns:xlink="http://www.w3.org/1999/xlink">
<g id="graph0" class="graph" transform="scale(1 1) rotate(0) translate(28.8 315.88)">
<title>architecture</title>
<polygon fill="#1e1e2e" stroke="none" points="-28.8,28.8 -28.8,-315.88 1535.22,-315.88 1535.22,28.8 -28.8,28.8"/>
<g id="clust1" class="cluster">
<title>cluster_kernel</title>
<path fill="#181825" stroke="#b4befe" stroke-width="1.5" d="M20,-8C20,-8 1258,-8 1258,-8 1264,-8 1270,-14 1270,-20 1270,-20 1270,-224.06 1270,-224.06 1270,-230.06 1264,-236.06 1258,-236.06 1258,-236.06 20,-236.06 20,-236.06 14,-236.06 8,-230.06 8,-224.06 8,-224.06 8,-20 8,-20 8,-14 14,-8 20,-8"/>
<text text-anchor="middle" x="639" y="-219.71" font-family="JetBrains Mono,Fira Code,monospace" font-size="13.00" fill="#b4befe">Kernel &#160;(pure ABI; no orchestrator)</text>
</g>
<!-- host_api -->
<g id="node1" class="node">
<title>host_api</title>
<polygon fill="#45475a" stroke="#89b4fa" stroke-width="1.2" points="719.55,-210.06 456.45,-210.06 456.45,-122.04 719.55,-122.04 719.55,-210.06"/>
<text text-anchor="middle" x="588" y="-195.75" font-family="JetBrains Mono,Fira Code,monospace" font-size="9.00" fill="#89b4fa">host_api_t &#160;(C ABI)</text>
<text text-anchor="middle" x="588" y="-183" font-family="JetBrains Mono,Fira Code,monospace" font-size="9.00" fill="#89b4fa">register_vtable / unregister_vtable</text>
<text text-anchor="middle" x="588" y="-170.25" font-family="JetBrains Mono,Fira Code,monospace" font-size="9.00" fill="#89b4fa">register_security / register_extension</text>
<text text-anchor="middle" x="588" y="-157.5" font-family="JetBrains Mono,Fira Code,monospace" font-size="9.00" fill="#89b4fa">send / inject / config_get / log</text>
<text text-anchor="middle" x="588" y="-144.75" font-family="JetBrains Mono,Fira Code,monospace" font-size="9.00" fill="#89b4fa">subscribe_conn_state / subscribe_config_reload</text>
<text text-anchor="middle" x="588" y="-132" font-family="JetBrains Mono,Fira Code,monospace" font-size="9.00" fill="#89b4fa">set_timer / for_each_connection / emit_counter</text>
</g>
<!-- reg_handler -->
<g id="node2" class="node">
<title>reg_handler</title>
<polygon fill="#45475a" stroke="#a6e3a1" stroke-width="1.2" points="417.68,-63.53 296.32,-63.53 296.32,-26.51 417.68,-26.51 417.68,-63.53"/>
<text text-anchor="middle" x="357" y="-49.22" font-family="JetBrains Mono,Fira Code,monospace" font-size="9.00" fill="#a6e3a1">HandlerRegistry</text>
<text text-anchor="middle" x="357" y="-36.47" font-family="JetBrains Mono,Fira Code,monospace" font-size="9.00" fill="#a6e3a1">GN_REGISTER_HANDLER</text>
</g>
<!-- host_api&#45;&gt;reg_handler -->
<g id="edge1" class="edge">
<title>host_api&#45;&gt;reg_handler</title>
<path fill="none" stroke="#585b70" stroke-dasharray="5,2" d="M503.62,-121.57C464.96,-101.65 421.26,-79.13 391.71,-63.91"/>
</g>
<!-- reg_link -->
<g id="node3" class="node">
<title>reg_link</title>
<polygon fill="#45475a" stroke="#a6e3a1" stroke-width="1.2" points="113.8,-63.53 8.2,-63.53 8.2,-26.51 113.8,-26.51 113.8,-63.53"/>
<text text-anchor="middle" x="61" y="-49.22" font-family="JetBrains Mono,Fira Code,monospace" font-size="9.00" fill="#a6e3a1">LinkRegistry</text>
<text text-anchor="middle" x="61" y="-36.47" font-family="JetBrains Mono,Fira Code,monospace" font-size="9.00" fill="#a6e3a1">GN_REGISTER_LINK</text>
</g>
<!-- host_api&#45;&gt;reg_link -->
<g id="edge2" class="edge">
<title>host_api&#45;&gt;reg_link</title>
<path fill="none" stroke="#585b70" stroke-dasharray="5,2" d="M456.24,-151.31C363.78,-139.21 238.19,-117.8 132,-82.04 118.25,-77.41 103.83,-70.52 91.61,-64"/>
</g>
<!-- reg_security -->
<g id="node4" class="node">
<title>reg_security</title>
<polygon fill="#45475a" stroke="#a6e3a1" stroke-width="1.2" points="260.43,-63.53 149.57,-63.53 149.57,-26.51 260.43,-26.51 260.43,-63.53"/>
<text text-anchor="middle" x="205" y="-49.22" font-family="JetBrains Mono,Fira Code,monospace" font-size="9.00" fill="#a6e3a1">SecurityRegistry</text>
<text text-anchor="middle" x="205" y="-36.47" font-family="JetBrains Mono,Fira Code,monospace" font-size="9.00" fill="#a6e3a1">register_security</text>
</g>
<!-- host_api&#45;&gt;reg_security -->
<g id="edge3" class="edge">
<title>host_api&#45;&gt;reg_security</title>
<path fill="none" stroke="#585b70" stroke-dasharray="5,2" d="M456.11,-135.82C400.36,-121.91 335.23,-103.58 278,-82.04 264.51,-76.96 250.18,-70.21 237.82,-63.93"/>
</g>
<!-- reg_extension -->
<g id="node5" class="node">
<title>reg_extension</title>
<polygon fill="#45475a" stroke="#a6e3a1" stroke-width="1.2" points="1270.05,-63.53 1153.95,-63.53 1153.95,-26.51 1270.05,-26.51 1270.05,-63.53"/>
<text text-anchor="middle" x="1212" y="-49.22" font-family="JetBrains Mono,Fira Code,monospace" font-size="9.00" fill="#a6e3a1">ExtensionRegistry</text>
<text text-anchor="middle" x="1212" y="-36.47" font-family="JetBrains Mono,Fira Code,monospace" font-size="9.00" fill="#a6e3a1">register_extension</text>
</g>
<!-- host_api&#45;&gt;reg_extension -->
<g id="edge4" class="edge">
<title>host_api&#45;&gt;reg_extension</title>
<path fill="none" stroke="#585b70" stroke-dasharray="5,2" d="M719.93,-155.93C832.45,-145.6 997.5,-124.35 1136,-82.04 1150.8,-77.52 1166.38,-70.57 1179.55,-63.97"/>
</g>
<!-- conn_reg -->
<g id="node6" class="node">
<title>conn_reg</title>
<polygon fill="#45475a" stroke="#94e2d5" stroke-width="1.2" points="570.05,-63.53 453.95,-63.53 453.95,-26.51 570.05,-26.51 570.05,-63.53"/>
<text text-anchor="middle" x="512" y="-49.22" font-family="JetBrains Mono,Fira Code,monospace" font-size="9.00" fill="#94e2d5">ConnectionRegistry</text>
<text text-anchor="middle" x="512" y="-36.47" font-family="JetBrains Mono,Fira Code,monospace" font-size="9.00" fill="#94e2d5">3 keys / 16 shards</text>
</g>
<!-- host_api&#45;&gt;conn_reg -->
<g id="edge5" class="edge">
<title>host_api&#45;&gt;conn_reg</title>
<path fill="none" stroke="#585b70" stroke-dasharray="5,2" d="M560.35,-121.74C547.61,-101.8 533.2,-79.23 523.45,-63.96"/>
</g>
<!-- executor -->
<g id="node7" class="node">
<title>executor</title>
<polygon fill="#45475a" stroke="#94e2d5" stroke-width="1.2" points="753.8,-63.53 606.2,-63.53 606.2,-26.51 753.8,-26.51 753.8,-63.53"/>
<text text-anchor="middle" x="680" y="-49.22" font-family="JetBrains Mono,Fira Code,monospace" font-size="9.00" fill="#94e2d5">ServiceExecutor</text>
<text text-anchor="middle" x="680" y="-36.47" font-family="JetBrains Mono,Fira Code,monospace" font-size="9.00" fill="#94e2d5">set_timer / posted tasks</text>
</g>
<!-- host_api&#45;&gt;executor -->
<g id="edge6" class="edge">
<title>host_api&#45;&gt;executor</title>
<path fill="none" stroke="#585b70" stroke-dasharray="5,2" d="M621.47,-121.74C636.89,-101.8 654.33,-79.23 666.13,-63.96"/>
</g>
<!-- signal_bus -->
<g id="node8" class="node">
<title>signal_bus</title>
<polygon fill="#45475a" stroke="#94e2d5" stroke-width="1.2" points="1117.91,-82.04 857.17,-82.04 790.09,-8 1050.83,-8 1117.91,-82.04"/>
<text text-anchor="middle" x="954" y="-49.22" font-family="JetBrains Mono,Fira Code,monospace" font-size="9.00" fill="#94e2d5">SignalChannel</text>
<text text-anchor="middle" x="954" y="-36.47" font-family="JetBrains Mono,Fira Code,monospace" font-size="9.00" fill="#94e2d5">conn_state / config_reload</text>
</g>
<!-- host_api&#45;&gt;signal_bus -->
<g id="edge7" class="edge">
<title>host_api&#45;&gt;signal_bus</title>
<path fill="none" stroke="#585b70" stroke-dasharray="5,2" d="M719.88,-122.16C763.92,-107.84 812.26,-92.12 853.52,-78.7"/>
</g>
<!-- p_heartbeat -->
<g id="node9" class="node">
<title>p_heartbeat</title>
<polygon fill="#1e1e2e" stroke="#fab387" stroke-width="1.2" points="1366.42,-287.08 1255.58,-287.08 1255.58,-283.08 1251.58,-283.08 1251.58,-279.08 1255.58,-279.08 1255.58,-258.06 1251.58,-258.06 1251.58,-254.06 1255.58,-254.06 1255.58,-250.06 1366.42,-250.06 1366.42,-287.08"/>
<polyline fill="none" stroke="#fab387" stroke-width="1.2" points="1255.58,-283.08 1259.58,-283.08 1259.58,-279.08 1255.58,-279.08"/>
<polyline fill="none" stroke="#fab387" stroke-width="1.2" points="1255.58,-258.06 1259.58,-258.06 1259.58,-254.06 1255.58,-254.06"/>
<text text-anchor="middle" x="1311" y="-272.77" font-family="JetBrains Mono,Fira Code,monospace" font-size="9.00" fill="#fab387">handler&#45;heartbeat</text>
<text text-anchor="middle" x="1311" y="-260.02" font-family="JetBrains Mono,Fira Code,monospace" font-size="9.00" fill="#fab387">.so &#160;· &#160;own .git</text>
</g>
<!-- p_heartbeat&#45;&gt;host_api -->
<g id="edge8" class="edge">
<title>p_heartbeat&#45;&gt;host_api</title>
<path fill="none" stroke="#fab387" d="M1247.28,-258.71C1131.56,-242.62 884.4,-208.26 727.76,-186.48"/>
<polygon fill="#fab387" stroke="#fab387" points="1253.96,-259.64 1246.59,-261.8 1251.7,-259.33 1247.03,-258.68 1247.03,-258.68 1247.03,-258.68 1251.7,-259.33 1247.46,-255.56 1253.96,-259.64"/>
<polygon fill="#fab387" stroke="#fab387" points="721.11,-185.56 728.47,-183.4 723.37,-185.87 728.04,-186.52 728.04,-186.52 728.04,-186.52 723.37,-185.87 727.61,-189.64 721.11,-185.56"/>
</g>
<!-- ext_note -->
<g id="node17" class="node">
<title>ext_note</title>
<polygon fill="#181825" stroke="#cba6f7" stroke-width="1.2" points="1500.42,-190.94 1269.58,-190.94 1269.58,-141.17 1506.42,-141.17 1506.42,-184.94 1500.42,-190.94"/>
<polyline fill="none" stroke="#cba6f7" stroke-width="1.2" points="1500.42,-190.94 1500.42,-184.94"/>
<polyline fill="none" stroke="#cba6f7" stroke-width="1.2" points="1506.42,-184.94 1500.42,-184.94"/>
<text text-anchor="middle" x="1388" y="-176.62" font-family="JetBrains Mono,Fira Code,monospace" font-size="9.00" fill="#cba6f7">plugin↔plugin coordination</text>
<text text-anchor="middle" x="1388" y="-163.88" font-family="JetBrains Mono,Fira Code,monospace" font-size="9.00" fill="#cba6f7">register_extension(name, version, vtable)</text>
<text text-anchor="middle" x="1388" y="-151.12" font-family="JetBrains Mono,Fira Code,monospace" font-size="9.00" fill="#cba6f7">query_extension_checked(name, version)</text>
</g>
<!-- p_heartbeat&#45;&gt;ext_note -->
<g id="edge16" class="edge">
<title>p_heartbeat&#45;&gt;ext_note</title>
<path fill="none" stroke="#cba6f7" stroke-dasharray="5,2" d="M1324.77,-249.6C1337.22,-233.34 1355.67,-209.25 1369.43,-191.29"/>
</g>
<!-- p_tcp -->
<g id="node10" class="node">
<title>p_tcp</title>
<polygon fill="#1e1e2e" stroke="#fab387" stroke-width="1.2" points="214.8,-287.08 109.2,-287.08 109.2,-283.08 105.2,-283.08 105.2,-279.08 109.2,-279.08 109.2,-258.06 105.2,-258.06 105.2,-254.06 109.2,-254.06 109.2,-250.06 214.8,-250.06 214.8,-287.08"/>
<polyline fill="none" stroke="#fab387" stroke-width="1.2" points="109.2,-283.08 113.2,-283.08 113.2,-279.08 109.2,-279.08"/>
<polyline fill="none" stroke="#fab387" stroke-width="1.2" points="109.2,-258.06 113.2,-258.06 113.2,-254.06 109.2,-254.06"/>
<text text-anchor="middle" x="162" y="-272.77" font-family="JetBrains Mono,Fira Code,monospace" font-size="9.00" fill="#fab387">link&#45;tcp</text>
<text text-anchor="middle" x="162" y="-260.02" font-family="JetBrains Mono,Fira Code,monospace" font-size="9.00" fill="#fab387">.so &#160;· &#160;own .git</text>
</g>
<!-- p_tcp&#45;&gt;host_api -->
<g id="edge9" class="edge">
<title>p_tcp&#45;&gt;host_api</title>
<path fill="none" stroke="#fab387" d="M223.01,-252.47C226.39,-251.65 229.74,-250.84 233,-250.06 303.82,-233.05 382.7,-214.56 448.09,-199.36"/>
<polygon fill="#fab387" stroke="#fab387" points="216.28,-254.11 222.34,-249.39 218.5,-253.57 223.08,-252.46 223.08,-252.46 223.08,-252.46 218.5,-253.57 223.83,-255.52 216.28,-254.11"/>
<polygon fill="#fab387" stroke="#fab387" points="454.81,-197.79 448.7,-202.45 452.58,-198.31 447.99,-199.38 447.99,-199.38 447.99,-199.38 452.58,-198.31 447.27,-196.31 454.81,-197.79"/>
</g>
<!-- p_udp -->
<g id="node11" class="node">
<title>p_udp</title>
<polygon fill="#1e1e2e" stroke="#fab387" stroke-width="1.2" points="356.8,-287.08 251.2,-287.08 251.2,-283.08 247.2,-283.08 247.2,-279.08 251.2,-279.08 251.2,-258.06 247.2,-258.06 247.2,-254.06 251.2,-254.06 251.2,-250.06 356.8,-250.06 356.8,-287.08"/>
<polyline fill="none" stroke="#fab387" stroke-width="1.2" points="251.2,-283.08 255.2,-283.08 255.2,-279.08 251.2,-279.08"/>
<polyline fill="none" stroke="#fab387" stroke-width="1.2" points="251.2,-258.06 255.2,-258.06 255.2,-254.06 251.2,-254.06"/>
<text text-anchor="middle" x="304" y="-272.77" font-family="JetBrains Mono,Fira Code,monospace" font-size="9.00" fill="#fab387">link&#45;udp</text>
<text text-anchor="middle" x="304" y="-260.02" font-family="JetBrains Mono,Fira Code,monospace" font-size="9.00" fill="#fab387">.so &#160;· &#160;own .git</text>
</g>
<!-- p_udp&#45;&gt;host_api -->
<g id="edge10" class="edge">
<title>p_udp&#45;&gt;host_api</title>
<path fill="none" stroke="#fab387" d="M362.19,-246.98C389.92,-237.16 424.29,-224.99 457.79,-213.14"/>
<polygon fill="#fab387" stroke="#fab387" points="355.92,-249.19 361.47,-243.89 358.07,-248.43 362.52,-246.86 362.52,-246.86 362.52,-246.86 358.07,-248.43 363.57,-249.83 355.92,-249.19"/>
<polygon fill="#fab387" stroke="#fab387" points="464.22,-210.86 458.67,-216.17 462.07,-211.62 457.62,-213.2 457.62,-213.2 457.62,-213.2 462.07,-211.62 456.57,-210.23 464.22,-210.86"/>
</g>
<!-- p_ws -->
<g id="node12" class="node">
<title>p_ws</title>
<polygon fill="#1e1e2e" stroke="#fab387" stroke-width="1.2" points="498.8,-287.08 393.2,-287.08 393.2,-283.08 389.2,-283.08 389.2,-279.08 393.2,-279.08 393.2,-258.06 389.2,-258.06 389.2,-254.06 393.2,-254.06 393.2,-250.06 498.8,-250.06 498.8,-287.08"/>
<polyline fill="none" stroke="#fab387" stroke-width="1.2" points="393.2,-283.08 397.2,-283.08 397.2,-279.08 393.2,-279.08"/>
<polyline fill="none" stroke="#fab387" stroke-width="1.2" points="393.2,-258.06 397.2,-258.06 397.2,-254.06 393.2,-254.06"/>
<text text-anchor="middle" x="446" y="-272.77" font-family="JetBrains Mono,Fira Code,monospace" font-size="9.00" fill="#fab387">link&#45;ws</text>
<text text-anchor="middle" x="446" y="-260.02" font-family="JetBrains Mono,Fira Code,monospace" font-size="9.00" fill="#fab387">.so &#160;· &#160;own .git</text>
</g>
<!-- p_ws&#45;&gt;host_api -->
<g id="edge11" class="edge">
<title>p_ws&#45;&gt;host_api</title>
<path fill="none" stroke="#fab387" d="M477.8,-245.06C490.48,-236.09 505.58,-225.4 520.47,-214.85"/>
<polygon fill="#fab387" stroke="#fab387" points="472.38,-248.9 476.27,-242.28 474.24,-247.58 478.09,-244.85 478.09,-244.85 478.09,-244.85 474.24,-247.58 479.91,-247.42 472.38,-248.9"/>
<polygon fill="#fab387" stroke="#fab387" points="525.84,-211.05 521.95,-217.67 523.98,-212.37 520.13,-215.1 520.13,-215.1 520.13,-215.1 523.98,-212.37 518.31,-212.52 525.84,-211.05"/>
</g>
<!-- p_ipc -->
<g id="node13" class="node">
<title>p_ipc</title>
<polygon fill="#1e1e2e" stroke="#fab387" stroke-width="1.2" points="640.8,-287.08 535.2,-287.08 535.2,-283.08 531.2,-283.08 531.2,-279.08 535.2,-279.08 535.2,-258.06 531.2,-258.06 531.2,-254.06 535.2,-254.06 535.2,-250.06 640.8,-250.06 640.8,-287.08"/>
<polyline fill="none" stroke="#fab387" stroke-width="1.2" points="535.2,-283.08 539.2,-283.08 539.2,-279.08 535.2,-279.08"/>
<polyline fill="none" stroke="#fab387" stroke-width="1.2" points="535.2,-258.06 539.2,-258.06 539.2,-254.06 535.2,-254.06"/>
<text text-anchor="middle" x="588" y="-272.77" font-family="JetBrains Mono,Fira Code,monospace" font-size="9.00" fill="#fab387">link&#45;ipc</text>
<text text-anchor="middle" x="588" y="-260.02" font-family="JetBrains Mono,Fira Code,monospace" font-size="9.00" fill="#fab387">.so &#160;· &#160;own .git</text>
</g>
<!-- p_ipc&#45;&gt;host_api -->
<g id="edge12" class="edge">
<title>p_ipc&#45;&gt;host_api</title>
<path fill="none" stroke="#fab387" d="M588,-241.66C588,-234.49 588,-226.46 588,-218.4"/>
<polygon fill="#fab387" stroke="#fab387" points="588,-248.38 584.85,-241.38 588,-246.1 588,-241.38 588,-241.38 588,-241.38 588,-246.1 591.15,-241.38 588,-248.38"/>
<polygon fill="#fab387" stroke="#fab387" points="588,-211.57 591.15,-218.57 588,-213.85 588,-218.57 588,-218.57 588,-218.57 588,-213.85 584.85,-218.57 588,-211.57"/>
</g>
<!-- p_tls -->
<g id="node14" class="node">
<title>p_tls</title>
<polygon fill="#1e1e2e" stroke="#fab387" stroke-width="1.2" points="782.8,-287.08 677.2,-287.08 677.2,-283.08 673.2,-283.08 673.2,-279.08 677.2,-279.08 677.2,-258.06 673.2,-258.06 673.2,-254.06 677.2,-254.06 677.2,-250.06 782.8,-250.06 782.8,-287.08"/>
<polyline fill="none" stroke="#fab387" stroke-width="1.2" points="677.2,-283.08 681.2,-283.08 681.2,-279.08 677.2,-279.08"/>
<polyline fill="none" stroke="#fab387" stroke-width="1.2" points="677.2,-258.06 681.2,-258.06 681.2,-254.06 677.2,-254.06"/>
<text text-anchor="middle" x="730" y="-272.77" font-family="JetBrains Mono,Fira Code,monospace" font-size="9.00" fill="#fab387">link&#45;tls</text>
<text text-anchor="middle" x="730" y="-260.02" font-family="JetBrains Mono,Fira Code,monospace" font-size="9.00" fill="#fab387">.so &#160;· &#160;own .git</text>
</g>
<!-- p_tls&#45;&gt;host_api -->
<g id="edge13" class="edge">
<title>p_tls&#45;&gt;host_api</title>
<path fill="none" stroke="#fab387" d="M698.2,-245.06C685.52,-236.09 670.42,-225.4 655.53,-214.85"/>
<polygon fill="#fab387" stroke="#fab387" points="703.62,-248.9 696.09,-247.42 701.76,-247.58 697.91,-244.85 697.91,-244.85 697.91,-244.85 701.76,-247.58 699.73,-242.28 703.62,-248.9"/>
<polygon fill="#fab387" stroke="#fab387" points="650.16,-211.05 657.69,-212.52 652.02,-212.37 655.87,-215.1 655.87,-215.1 655.87,-215.1 652.02,-212.37 654.05,-217.67 650.16,-211.05"/>
</g>
<!-- p_noise -->
<g id="node15" class="node">
<title>p_noise</title>
<polygon fill="#1e1e2e" stroke="#fab387" stroke-width="1.2" points="924.8,-287.08 819.2,-287.08 819.2,-283.08 815.2,-283.08 815.2,-279.08 819.2,-279.08 819.2,-258.06 815.2,-258.06 815.2,-254.06 819.2,-254.06 819.2,-250.06 924.8,-250.06 924.8,-287.08"/>
<polyline fill="none" stroke="#fab387" stroke-width="1.2" points="819.2,-283.08 823.2,-283.08 823.2,-279.08 819.2,-279.08"/>
<polyline fill="none" stroke="#fab387" stroke-width="1.2" points="819.2,-258.06 823.2,-258.06 823.2,-254.06 819.2,-254.06"/>
<text text-anchor="middle" x="872" y="-272.77" font-family="JetBrains Mono,Fira Code,monospace" font-size="9.00" fill="#fab387">security&#45;noise</text>
<text text-anchor="middle" x="872" y="-260.02" font-family="JetBrains Mono,Fira Code,monospace" font-size="9.00" fill="#fab387">.so &#160;· &#160;own .git</text>
</g>
<!-- p_noise&#45;&gt;host_api -->
<g id="edge14" class="edge">
<title>p_noise&#45;&gt;host_api</title>
<path fill="none" stroke="#fab387" d="M813.81,-246.98C786.08,-237.16 751.71,-224.99 718.21,-213.14"/>
<polygon fill="#fab387" stroke="#fab387" points="820.08,-249.19 812.43,-249.83 817.93,-248.43 813.48,-246.86 813.48,-246.86 813.48,-246.86 817.93,-248.43 814.53,-243.89 820.08,-249.19"/>
<polygon fill="#fab387" stroke="#fab387" points="711.78,-210.86 719.43,-210.23 713.93,-211.62 718.38,-213.2 718.38,-213.2 718.38,-213.2 713.93,-211.62 717.33,-216.17 711.78,-210.86"/>
</g>
<!-- p_null -->
<g id="node16" class="node">
<title>p_null</title>
<polygon fill="#1e1e2e" stroke="#fab387" stroke-width="1.2" points="1066.8,-287.08 961.2,-287.08 961.2,-283.08 957.2,-283.08 957.2,-279.08 961.2,-279.08 961.2,-258.06 957.2,-258.06 957.2,-254.06 961.2,-254.06 961.2,-250.06 1066.8,-250.06 1066.8,-287.08"/>
<polyline fill="none" stroke="#fab387" stroke-width="1.2" points="961.2,-283.08 965.2,-283.08 965.2,-279.08 961.2,-279.08"/>
<polyline fill="none" stroke="#fab387" stroke-width="1.2" points="961.2,-258.06 965.2,-258.06 965.2,-254.06 961.2,-254.06"/>
<text text-anchor="middle" x="1014" y="-272.77" font-family="JetBrains Mono,Fira Code,monospace" font-size="9.00" fill="#fab387">security&#45;null</text>
<text text-anchor="middle" x="1014" y="-260.02" font-family="JetBrains Mono,Fira Code,monospace" font-size="9.00" fill="#fab387">.so &#160;· &#160;own .git</text>
</g>
<!-- p_null&#45;&gt;host_api -->
<g id="edge15" class="edge">
<title>p_null&#45;&gt;host_api</title>
<path fill="none" stroke="#fab387" d="M952.99,-252.47C949.61,-251.65 946.26,-250.84 943,-250.06 872.18,-233.05 793.3,-214.56 727.91,-199.36"/>
<polygon fill="#fab387" stroke="#fab387" points="959.72,-254.11 952.17,-255.52 957.5,-253.57 952.92,-252.46 952.92,-252.46 952.92,-252.46 957.5,-253.57 953.66,-249.39 959.72,-254.11"/>
<polygon fill="#fab387" stroke="#fab387" points="721.19,-197.79 728.73,-196.31 723.42,-198.31 728.01,-199.38 728.01,-199.38 728.01,-199.38 723.42,-198.31 727.3,-202.45 721.19,-197.79"/>
</g>
<!-- ext_note&#45;&gt;reg_extension -->
<g id="edge17" class="edge">
<title>ext_note&#45;&gt;reg_extension</title>
<path fill="none" stroke="#cba6f7" stroke-dasharray="5,2" d="M1351.96,-140.68C1320.64,-119.49 1275.63,-89.06 1245.18,-68.46"/>
<polygon fill="#cba6f7" stroke="#cba6f7" points="1239.55,-64.65 1247.11,-65.96 1241.44,-65.93 1245.34,-68.57 1245.34,-68.57 1245.34,-68.57 1241.44,-65.93 1243.58,-71.18 1239.55,-64.65"/>
</g>
</g>
</svg>
