<?xml version="1.0" encoding="UTF-8" standalone="no"?>
<!DOCTYPE svg PUBLIC "-//W3C//DTD SVG 1.1//EN"
 "http://www.w3.org/Graphics/SVG/1.1/DTD/svg11.dtd">
<!-- Generated by graphviz version 12.2.1 (0)
 -->
<!-- Title: architecture Pages: 1 -->
<svg width="1564pt" height="549pt"
 viewBox="0.00 0.00 1564.02 548.68" xmlns="http://www.w3.org/2000/svg" xmlns:xlink="http://www.w3.org/1999/xlink">
<g id="graph0" class="graph" transform="scale(1 1) rotate(0) translate(28.8 519.88)">
<title>architecture</title>
<polygon fill="#1e1e2e" stroke="none" points="-28.8,28.8 -28.8,-519.88 1535.22,-519.88 1535.22,28.8 -28.8,28.8"/>
<g id="clust1" class="cluster">
<title>cluster_kernel</title>
<path fill="#181825" stroke="#b4befe" stroke-width="1.5" d="M20,-8C20,-8 1258,-8 1258,-8 1264,-8 1270,-14 1270,-20 1270,-20 1270,-428.06 1270,-428.06 1270,-434.06 1264,-440.06 1258,-440.06 1258,-440.06 20,-440.06 20,-440.06 14,-440.06 8,-434.06 8,-428.06 8,-428.06 8,-20 8,-20 8,-14 14,-8 20,-8"/>
<text text-anchor="middle" x="639" y="-423.71" font-family="JetBrains Mono,Fira Code,monospace" font-size="13.00" fill="#b4befe">Kernel &#160;(pure ABI; no orchestrator)</text>
</g>
<!-- host_api -->
<g id="node1" class="node">
<title>host_api</title>
<polygon fill="#45475a" stroke="#89b4fa" stroke-width="1.2" points="761.55,-414.06 414.45,-414.06 414.45,-122.04 761.55,-122.04 761.55,-414.06"/>
<text text-anchor="middle" x="588" y="-399.75" font-family="JetBrains Mono,Fira Code,monospace" font-size="9.00" fill="#89b4fa">host_api_t &#160;(C ABI)</text>
<text text-anchor="middle" x="588" y="-387" font-family="JetBrains Mono,Fira Code,monospace" font-size="9.00" fill="#89b4fa">41 named slots + 8 reserved</text>
<text text-anchor="middle" x="588" y="-374.25" font-family="JetBrains Mono,Fira Code,monospace" font-size="9.00" fill="#89b4fa"> &#160;· Capability TLV transport: present_capability_blob + 1</text>
<text text-anchor="middle" x="588" y="-361.5" font-family="JetBrains Mono,Fira Code,monospace" font-size="9.00" fill="#89b4fa"> &#160;· Channel subscription: subscribe_conn_state + 2</text>
<text text-anchor="middle" x="588" y="-348.75" font-family="JetBrains Mono,Fira Code,monospace" font-size="9.00" fill="#89b4fa"> &#160;· Configuration: config_get</text>
<text text-anchor="middle" x="588" y="-336" font-family="JetBrains Mono,Fira Code,monospace" font-size="9.00" fill="#89b4fa"> &#160;· Connection iteration: for_each_connection + 1</text>
<text text-anchor="middle" x="588" y="-323.25" font-family="JetBrains Mono,Fira Code,monospace" font-size="9.00" fill="#89b4fa"> &#160;· Cooperative cancellation: is_shutdown_requested</text>
<text text-anchor="middle" x="588" y="-310.5" font-family="JetBrains Mono,Fira Code,monospace" font-size="9.00" fill="#89b4fa"> &#160;· Extension API: query_extension_checked + 2</text>
<text text-anchor="middle" x="588" y="-297.75" font-family="JetBrains Mono,Fira Code,monospace" font-size="9.00" fill="#89b4fa"> &#160;· Foreign&#45;payload injection: inject + 1</text>
<text text-anchor="middle" x="588" y="-285" font-family="JetBrains Mono,Fira Code,monospace" font-size="9.00" fill="#89b4fa"> &#160;· Identity primitives: register_local_key + 4</text>
<text text-anchor="middle" x="588" y="-272.25" font-family="JetBrains Mono,Fira Code,monospace" font-size="9.00" fill="#89b4fa"> &#160;· Identity rotation: announce_rotation</text>
<text text-anchor="middle" x="588" y="-259.5" font-family="JetBrains Mono,Fira Code,monospace" font-size="9.00" fill="#89b4fa"> &#160;· Limits read access: limits</text>
<text text-anchor="middle" x="588" y="-246.75" font-family="JetBrains Mono,Fira Code,monospace" font-size="9.00" fill="#89b4fa"> &#160;· Link&#45;side notifications: notify_connect + 2</text>
<text text-anchor="middle" x="588" y="-234" font-family="JetBrains Mono,Fira Code,monospace" font-size="9.00" fill="#89b4fa"> &#160;· Messaging: send + 1</text>
<text text-anchor="middle" x="588" y="-221.25" font-family="JetBrains Mono,Fira Code,monospace" font-size="9.00" fill="#89b4fa"> &#160;· Metrics: emit_counter + 1</text>
<text text-anchor="middle" x="588" y="-208.5" font-family="JetBrains Mono,Fira Code,monospace" font-size="9.00" fill="#89b4fa"> &#160;· Path observability: notify_rtt_sample</text>
<text text-anchor="middle" x="588" y="-195.75" font-family="JetBrains Mono,Fira Code,monospace" font-size="9.00" fill="#89b4fa"> &#160;· Peer identity readers: get_peer_user_pk + 2</text>
<text text-anchor="middle" x="588" y="-183" font-family="JetBrains Mono,Fira Code,monospace" font-size="9.00" fill="#89b4fa"> &#160;· Peer&#45;addressed messaging: send_to</text>
<text text-anchor="middle" x="588" y="-170.25" font-family="JetBrains Mono,Fira Code,monospace" font-size="9.00" fill="#89b4fa"> &#160;· Registry queries: find_conn_by_pk + 1</text>
<text text-anchor="middle" x="588" y="-157.5" font-family="JetBrains Mono,Fira Code,monospace" font-size="9.00" fill="#89b4fa"> &#160;· Security registration: register_security + 1</text>
<text text-anchor="middle" x="588" y="-144.75" font-family="JetBrains Mono,Fira Code,monospace" font-size="9.00" fill="#89b4fa"> &#160;· Service executor: set_timer + 1</text>
<text text-anchor="middle" x="588" y="-132" font-family="JetBrains Mono,Fira Code,monospace" font-size="9.00" fill="#89b4fa"> &#160;· Universal handler / link registration: register_vtable + 1</text>
</g>
<!-- reg_handler -->
<g id="node2" class="node">
<title>reg_handler</title>
<polygon fill="#45475a" stroke="#a6e3a1" stroke-width="1.2" points="417.68,-63.53 296.32,-63.53 296.32,-26.51 417.68,-26.51 417.68,-63.53"/>
<text text-anchor="middle" x="357" y="-49.22" font-family="JetBrains Mono,Fira Code,monospace" font-size="9.00" fill="#a6e3a1">HandlerRegistry</text>
<text text-anchor="middle" x="357" y="-36.47" font-family="JetBrains Mono,Fira Code,monospace" font-size="9.00" fill="#a6e3a1">GN_REGISTER_HANDLER</text>
</g>
<!-- host_api&#45;&gt;reg_handler -->
<g id="edge1" class="edge">
<title>host_api&#45;&gt;reg_handler</title>
<path fill="none" stroke="#585b70" stroke-dasharray="5,2" d="M436.17,-121.78C412.1,-98.74 390.38,-77.96 375.8,-64.01"/>
</g>
<!-- reg_link -->
<g id="node3" class="node">
<title>reg_link</title>
<polygon fill="#45475a" stroke="#a6e3a1" stroke-width="1.2" points="113.8,-63.53 8.2,-63.53 8.2,-26.51 113.8,-26.51 113.8,-63.53"/>
<text text-anchor="middle" x="61" y="-49.22" font-family="JetBrains Mono,Fira Code,monospace" font-size="9.00" fill="#a6e3a1">LinkRegistry</text>
<text text-anchor="middle" x="61" y="-36.47" font-family="JetBrains Mono,Fira Code,monospace" font-size="9.00" fill="#a6e3a1">GN_REGISTER_LINK</text>
</g>
<!-- host_api&#45;&gt;reg_link -->
<g id="edge2" class="edge">
<title>host_api&#45;&gt;reg_link</title>
<path fill="none" stroke="#585b70" stroke-dasharray="5,2" d="M414.13,-200.48C328.45,-166.68 224.03,-123.97 132,-82.04 119.8,-76.48 106.65,-69.96 95.02,-64.01"/>
</g>
<!-- reg_security -->
<g id="node4" class="node">
<title>reg_security</title>
<polygon fill="#45475a" stroke="#a6e3a1" stroke-width="1.2" points="260.43,-63.53 149.57,-63.53 149.57,-26.51 260.43,-26.51 260.43,-63.53"/>
<text text-anchor="middle" x="205" y="-49.22" font-family="JetBrains Mono,Fira Code,monospace" font-size="9.00" fill="#a6e3a1">SecurityRegistry</text>
<text text-anchor="middle" x="205" y="-36.47" font-family="JetBrains Mono,Fira Code,monospace" font-size="9.00" fill="#a6e3a1">register_security</text>
</g>
<!-- host_api&#45;&gt;reg_security -->
<g id="edge3" class="edge">
<title>host_api&#45;&gt;reg_security</title>
<path fill="none" stroke="#585b70" stroke-dasharray="5,2" d="M414.15,-166.72C346.32,-127.57 275.5,-86.71 236.15,-63.99"/>
</g>
<!-- reg_extension -->
<g id="node5" class="node">
<title>reg_extension</title>
<polygon fill="#45475a" stroke="#a6e3a1" stroke-width="1.2" points="1270.05,-63.53 1153.95,-63.53 1153.95,-26.51 1270.05,-26.51 1270.05,-63.53"/>
<text text-anchor="middle" x="1212" y="-49.22" font-family="JetBrains Mono,Fira Code,monospace" font-size="9.00" fill="#a6e3a1">ExtensionRegistry</text>
<text text-anchor="middle" x="1212" y="-36.47" font-family="JetBrains Mono,Fira Code,monospace" font-size="9.00" fill="#a6e3a1">register_extension</text>
</g>
<!-- host_api&#45;&gt;reg_extension -->
<g id="edge4" class="edge">
<title>host_api&#45;&gt;reg_extension</title>
<path fill="none" stroke="#585b70" stroke-dasharray="5,2" d="M762.05,-214.03C870.72,-179.52 1012.88,-131.8 1136,-82.04 1149.4,-76.62 1163.8,-70.01 1176.43,-63.93"/>
</g>
<!-- conn_reg -->
<g id="node6" class="node">
<title>conn_reg</title>
<polygon fill="#45475a" stroke="#94e2d5" stroke-width="1.2" points="570.05,-63.53 453.95,-63.53 453.95,-26.51 570.05,-26.51 570.05,-63.53"/>
<text text-anchor="middle" x="512" y="-49.22" font-family="JetBrains Mono,Fira Code,monospace" font-size="9.00" fill="#94e2d5">ConnectionRegistry</text>
<text text-anchor="middle" x="512" y="-36.47" font-family="JetBrains Mono,Fira Code,monospace" font-size="9.00" fill="#94e2d5">3 keys / 16 shards</text>
</g>
<!-- host_api&#45;&gt;conn_reg -->
<g id="edge5" class="edge">
<title>host_api&#45;&gt;conn_reg</title>
<path fill="none" stroke="#585b70" stroke-dasharray="5,2" d="M538.05,-121.78C530.13,-98.74 522.98,-77.96 518.18,-64.01"/>
</g>
<!-- executor -->
<g id="node7" class="node">
<title>executor</title>
<polygon fill="#45475a" stroke="#94e2d5" stroke-width="1.2" points="753.8,-63.53 606.2,-63.53 606.2,-26.51 753.8,-26.51 753.8,-63.53"/>
<text text-anchor="middle" x="680" y="-49.22" font-family="JetBrains Mono,Fira Code,monospace" font-size="9.00" fill="#94e2d5">ServiceExecutor</text>
<text text-anchor="middle" x="680" y="-36.47" font-family="JetBrains Mono,Fira Code,monospace" font-size="9.00" fill="#94e2d5">set_timer / posted tasks</text>
</g>
<!-- host_api&#45;&gt;executor -->
<g id="edge6" class="edge">
<title>host_api&#45;&gt;executor</title>
<path fill="none" stroke="#585b70" stroke-dasharray="5,2" d="M648.47,-121.78C658.05,-98.74 666.71,-77.96 672.51,-64.01"/>
</g>
<!-- signal_bus -->
<g id="node8" class="node">
<title>signal_bus</title>
<polygon fill="#45475a" stroke="#94e2d5" stroke-width="1.2" points="1117.91,-82.04 857.17,-82.04 790.09,-8 1050.83,-8 1117.91,-82.04"/>
<text text-anchor="middle" x="954" y="-49.22" font-family="JetBrains Mono,Fira Code,monospace" font-size="9.00" fill="#94e2d5">SignalChannel</text>
<text text-anchor="middle" x="954" y="-36.47" font-family="JetBrains Mono,Fira Code,monospace" font-size="9.00" fill="#94e2d5">conn_state / config_reload</text>
</g>
<!-- host_api&#45;&gt;signal_bus -->
<g id="edge7" class="edge">
<title>host_api&#45;&gt;signal_bus</title>
<path fill="none" stroke="#585b70" stroke-dasharray="5,2" d="M761.89,-162.04C809.29,-133.41 857.51,-104.29 893.78,-82.39"/>
</g>
<!-- p_heartbeat -->
<g id="node9" class="node">
<title>p_heartbeat</title>
<polygon fill="#1e1e2e" stroke="#fab387" stroke-width="1.2" points="1366.42,-491.08 1255.58,-491.08 1255.58,-487.08 1251.58,-487.08 1251.58,-483.08 1255.58,-483.08 1255.58,-462.06 1251.58,-462.06 1251.58,-458.06 1255.58,-458.06 1255.58,-454.06 1366.42,-454.06 1366.42,-491.08"/>
<polyline fill="none" stroke="#fab387" stroke-width="1.2" points="1255.58,-487.08 1259.58,-487.08 1259.58,-483.08 1255.58,-483.08"/>
<polyline fill="none" stroke="#fab387" stroke-width="1.2" points="1255.58,-462.06 1259.58,-462.06 1259.58,-458.06 1255.58,-458.06"/>
<text text-anchor="middle" x="1311" y="-476.77" font-family="JetBrains Mono,Fira Code,monospace" font-size="9.00" fill="#fab387">handler&#45;heartbeat</text>
<text text-anchor="middle" x="1311" y="-464.02" font-family="JetBrains Mono,Fira Code,monospace" font-size="9.00" fill="#fab387">.so &#160;· &#160;own .git</text>
</g>
<!-- p_heartbeat&#45;&gt;host_api -->
<g id="edge8" class="edge">
<title>p_heartbeat&#45;&gt;host_api</title>
<path fill="none" stroke="#fab387" d="M1247.31,-453.73C1141.5,-424.09 925.75,-363.66 769.81,-319.98"/>
<polygon fill="#fab387" stroke="#fab387" points="1254,-455.6 1246.41,-456.75 1251.8,-454.99 1247.25,-453.71 1247.25,-453.71 1247.25,-453.71 1251.8,-454.99 1248.1,-450.68 1254,-455.6"/>
<polygon fill="#fab387" stroke="#fab387" points="763.14,-318.11 770.73,-316.96 765.34,-318.72 769.88,-320 769.88,-320 769.88,-320 765.34,-318.72 769.03,-323.03 763.14,-318.11"/>
</g>
<!-- ext_note -->
<g id="node17" class="node">
<title>ext_note</title>
<polygon fill="#181825" stroke="#cba6f7" stroke-width="1.2" points="1500.42,-292.93 1269.58,-292.93 1269.58,-243.16 1506.42,-243.16 1506.42,-286.93 1500.42,-292.93"/>
<polyline fill="none" stroke="#cba6f7" stroke-width="1.2" points="1500.42,-292.93 1500.42,-286.93"/>
<polyline fill="none" stroke="#cba6f7" stroke-width="1.2" points="1506.42,-286.93 1500.42,-286.93"/>
<text text-anchor="middle" x="1388" y="-278.62" font-family="JetBrains Mono,Fira Code,monospace" font-size="9.00" fill="#cba6f7">plugin↔plugin coordination</text>
<text text-anchor="middle" x="1388" y="-265.87" font-family="JetBrains Mono,Fira Code,monospace" font-size="9.00" fill="#cba6f7">register_extension(name, version, vtable)</text>
<text text-anchor="middle" x="1388" y="-253.12" font-family="JetBrains Mono,Fira Code,monospace" font-size="9.00" fill="#cba6f7">query_extension_checked(name, version)</text>
</g>
<!-- p_heartbeat&#45;&gt;ext_note -->
<g id="edge16" class="edge">
<title>p_heartbeat&#45;&gt;ext_note</title>
<path fill="none" stroke="#cba6f7" stroke-dasharray="5,2" d="M1317.83,-453.6C1331.71,-417.1 1363.19,-334.29 1378.83,-293.16"/>
</g>
<!-- p_tcp -->
<g id="node10" class="node">
<title>p_tcp</title>
<polygon fill="#1e1e2e" stroke="#fab387" stroke-width="1.2" points="214.8,-491.08 109.2,-491.08 109.2,-487.08 105.2,-487.08 105.2,-483.08 109.2,-483.08 109.2,-462.06 105.2,-462.06 105.2,-458.06 109.2,-458.06 109.2,-454.06 214.8,-454.06 214.8,-491.08"/>
<polyline fill="none" stroke="#fab387" stroke-width="1.2" points="109.2,-487.08 113.2,-487.08 113.2,-483.08 109.2,-483.08"/>
<polyline fill="none" stroke="#fab387" stroke-width="1.2" points="109.2,-462.06 113.2,-462.06 113.2,-458.06 109.2,-458.06"/>
<text text-anchor="middle" x="162" y="-476.77" font-family="JetBrains Mono,Fira Code,monospace" font-size="9.00" fill="#fab387">link&#45;tcp</text>
<text text-anchor="middle" x="162" y="-464.02" font-family="JetBrains Mono,Fira Code,monospace" font-size="9.00" fill="#fab387">.so &#160;· &#160;own .git</text>
</g>
<!-- p_tcp&#45;&gt;host_api -->
<g id="edge9" class="edge">
<title>p_tcp&#45;&gt;host_api</title>
<path fill="none" stroke="#fab387" d="M207.14,-450.11C254.98,-427.37 333.59,-390 407.01,-355.09"/>
<polygon fill="#fab387" stroke="#fab387" points="200.91,-453.07 205.87,-447.22 202.97,-452.09 207.23,-450.07 207.23,-450.07 207.23,-450.07 202.97,-452.09 208.58,-452.91 200.91,-453.07"/>
<polygon fill="#fab387" stroke="#fab387" points="413,-352.24 408.03,-358.1 410.94,-353.22 406.68,-355.25 406.68,-355.25 406.68,-355.25 410.94,-353.22 405.33,-352.41 413,-352.24"/>
</g>
<!-- p_udp -->
<g id="node11" class="node">
<title>p_udp</title>
<polygon fill="#1e1e2e" stroke="#fab387" stroke-width="1.2" points="356.8,-491.08 251.2,-491.08 251.2,-487.08 247.2,-487.08 247.2,-483.08 251.2,-483.08 251.2,-462.06 247.2,-462.06 247.2,-458.06 251.2,-458.06 251.2,-454.06 356.8,-454.06 356.8,-491.08"/>
<polyline fill="none" stroke="#fab387" stroke-width="1.2" points="251.2,-487.08 255.2,-487.08 255.2,-483.08 251.2,-483.08"/>
<polyline fill="none" stroke="#fab387" stroke-width="1.2" points="251.2,-462.06 255.2,-462.06 255.2,-458.06 251.2,-458.06"/>
<text text-anchor="middle" x="304" y="-476.77" font-family="JetBrains Mono,Fira Code,monospace" font-size="9.00" fill="#fab387">link&#45;udp</text>
<text text-anchor="middle" x="304" y="-464.02" font-family="JetBrains Mono,Fira Code,monospace" font-size="9.00" fill="#fab387">.so &#160;· &#160;own .git</text>
</g>
<!-- p_udp&#45;&gt;host_api -->
<g id="edge10" class="edge">
<title>p_udp&#45;&gt;host_api</title>
<path fill="none" stroke="#fab387" d="M335.76,-448.92C354.51,-435.55 379.9,-417.45 407.38,-397.85"/>
<polygon fill="#fab387" stroke="#fab387" points="330.2,-452.89 334.07,-446.26 332.05,-451.57 335.89,-448.83 335.89,-448.83 335.89,-448.83 332.05,-451.57 337.72,-451.39 330.2,-452.89"/>
<polygon fill="#fab387" stroke="#fab387" points="413.04,-393.82 409.16,-400.45 411.18,-395.14 407.34,-397.88 407.34,-397.88 407.34,-397.88 411.18,-395.14 405.51,-395.32 413.04,-393.82"/>
</g>
<!-- p_ws -->
<g id="node12" class="node">
<title>p_ws</title>
<polygon fill="#1e1e2e" stroke="#fab387" stroke-width="1.2" points="498.8,-491.08 393.2,-491.08 393.2,-487.08 389.2,-487.08 389.2,-483.08 393.2,-483.08 393.2,-462.06 389.2,-462.06 389.2,-458.06 393.2,-458.06 393.2,-454.06 498.8,-454.06 498.8,-491.08"/>
<polyline fill="none" stroke="#fab387" stroke-width="1.2" points="393.2,-487.08 397.2,-487.08 397.2,-483.08 393.2,-483.08"/>
<polyline fill="none" stroke="#fab387" stroke-width="1.2" points="393.2,-462.06 397.2,-462.06 397.2,-458.06 393.2,-458.06"/>
<text text-anchor="middle" x="446" y="-476.77" font-family="JetBrains Mono,Fira Code,monospace" font-size="9.00" fill="#fab387">link&#45;ws</text>
<text text-anchor="middle" x="446" y="-464.02" font-family="JetBrains Mono,Fira Code,monospace" font-size="9.00" fill="#fab387">.so &#160;· &#160;own .git</text>
</g>
<!-- p_ws&#45;&gt;host_api -->
<g id="edge11" class="edge">
<title>p_ws&#45;&gt;host_api</title>
<path fill="none" stroke="#fab387" d="M463.25,-446.97C468.54,-439.43 474.79,-430.51 481.63,-420.75"/>
<polygon fill="#fab387" stroke="#fab387" points="459.3,-452.6 460.74,-445.06 460.61,-450.73 463.32,-446.87 463.32,-446.87 463.32,-446.87 460.61,-450.73 465.9,-448.68 459.3,-452.6"/>
<polygon fill="#fab387" stroke="#fab387" points="485.51,-415.23 484.07,-422.77 484.2,-417.09 481.49,-420.96 481.49,-420.96 481.49,-420.96 484.2,-417.09 478.91,-419.15 485.51,-415.23"/>
</g>
<!-- p_ipc -->
<g id="node13" class="node">
<title>p_ipc</title>
<polygon fill="#1e1e2e" stroke="#fab387" stroke-width="1.2" points="640.8,-491.08 535.2,-491.08 535.2,-487.08 531.2,-487.08 531.2,-483.08 535.2,-483.08 535.2,-462.06 531.2,-462.06 531.2,-458.06 535.2,-458.06 535.2,-454.06 640.8,-454.06 640.8,-491.08"/>
<polyline fill="none" stroke="#fab387" stroke-width="1.2" points="535.2,-487.08 539.2,-487.08 539.2,-483.08 535.2,-483.08"/>
<polyline fill="none" stroke="#fab387" stroke-width="1.2" points="535.2,-462.06 539.2,-462.06 539.2,-458.06 535.2,-458.06"/>
<text text-anchor="middle" x="588" y="-476.77" font-family="JetBrains Mono,Fira Code,monospace" font-size="9.00" fill="#fab387">link&#45;ipc</text>
<text text-anchor="middle" x="588" y="-464.02" font-family="JetBrains Mono,Fira Code,monospace" font-size="9.00" fill="#fab387">.so &#160;· &#160;own .git</text>
</g>
<!-- p_ipc&#45;&gt;host_api -->
<g id="edge12" class="edge">
<title>p_ipc&#45;&gt;host_api</title>
<path fill="none" stroke="#fab387" d="M588,-445.61C588,-438.76 588,-430.87 588,-422.29"/>
<polygon fill="#fab387" stroke="#fab387" points="588,-452.38 584.85,-445.38 588,-450.1 588,-445.38 588,-445.38 588,-445.38 588,-450.1 591.15,-445.38 588,-452.38"/>
<polygon fill="#fab387" stroke="#fab387" points="588,-415.45 591.15,-422.45 588,-417.73 588,-422.45 588,-422.45 588,-422.45 588,-417.73 584.85,-422.45 588,-415.45"/>
</g>
<!-- p_tls -->
<g id="node14" class="node">
<title>p_tls</title>
<polygon fill="#1e1e2e" stroke="#fab387" stroke-width="1.2" points="782.8,-491.08 677.2,-491.08 677.2,-487.08 673.2,-487.08 673.2,-483.08 677.2,-483.08 677.2,-462.06 673.2,-462.06 673.2,-458.06 677.2,-458.06 677.2,-454.06 782.8,-454.06 782.8,-491.08"/>
<polyline fill="none" stroke="#fab387" stroke-width="1.2" points="677.2,-487.08 681.2,-487.08 681.2,-483.08 677.2,-483.08"/>
<polyline fill="none" stroke="#fab387" stroke-width="1.2" points="677.2,-462.06 681.2,-462.06 681.2,-458.06 677.2,-458.06"/>
<text text-anchor="middle" x="730" y="-476.77" font-family="JetBrains Mono,Fira Code,monospace" font-size="9.00" fill="#fab387">link&#45;tls</text>
<text text-anchor="middle" x="730" y="-464.02" font-family="JetBrains Mono,Fira Code,monospace" font-size="9.00" fill="#fab387">.so &#160;· &#160;own .git</text>
</g>
<!-- p_tls&#45;&gt;host_api -->
<g id="edge13" class="edge">
<title>p_tls&#45;&gt;host_api</title>
<path fill="none" stroke="#fab387" d="M712.75,-446.97C707.46,-439.43 701.21,-430.51 694.37,-420.75"/>
<polygon fill="#fab387" stroke="#fab387" points="716.7,-452.6 710.1,-448.68 715.39,-450.73 712.68,-446.87 712.68,-446.87 712.68,-446.87 715.39,-450.73 715.26,-445.06 716.7,-452.6"/>
<polygon fill="#fab387" stroke="#fab387" points="690.49,-415.23 697.09,-419.15 691.8,-417.09 694.51,-420.96 694.51,-420.96 694.51,-420.96 691.8,-417.09 691.93,-422.77 690.49,-415.23"/>
</g>
<!-- p_noise -->
<g id="node15" class="node">
<title>p_noise</title>
<polygon fill="#1e1e2e" stroke="#fab387" stroke-width="1.2" points="924.8,-491.08 819.2,-491.08 819.2,-487.08 815.2,-487.08 815.2,-483.08 819.2,-483.08 819.2,-462.06 815.2,-462.06 815.2,-458.06 819.2,-458.06 819.2,-454.06 924.8,-454.06 924.8,-491.08"/>
<polyline fill="none" stroke="#fab387" stroke-width="1.2" points="819.2,-487.08 823.2,-487.08 823.2,-483.08 819.2,-483.08"/>
<polyline fill="none" stroke="#fab387" stroke-width="1.2" points="819.2,-462.06 823.2,-462.06 823.2,-458.06 819.2,-458.06"/>
<text text-anchor="middle" x="872" y="-476.77" font-family="JetBrains Mono,Fira Code,monospace" font-size="9.00" fill="#fab387">security&#45;noise</text>
<text text-anchor="middle" x="872" y="-464.02" font-family="JetBrains Mono,Fira Code,monospace" font-size="9.00" fill="#fab387">.so &#160;· &#160;own .git</text>
</g>
<!-- p_noise&#45;&gt;host_api -->
<g id="edge14" class="edge">
<title>p_noise&#45;&gt;host_api</title>
<path fill="none" stroke="#fab387" d="M840.24,-448.92C821.49,-435.55 796.1,-417.45 768.62,-397.85"/>
<polygon fill="#fab387" stroke="#fab387" points="845.8,-452.89 838.28,-451.39 843.95,-451.57 840.11,-448.83 840.11,-448.83 840.11,-448.83 843.95,-451.57 841.93,-446.26 845.8,-452.89"/>
<polygon fill="#fab387" stroke="#fab387" points="762.96,-393.82 770.49,-395.32 764.82,-395.14 768.66,-397.88 768.66,-397.88 768.66,-397.88 764.82,-395.14 766.84,-400.45 762.96,-393.82"/>
</g>
<!-- p_null -->
<g id="node16" class="node">
<title>p_null</title>
<polygon fill="#1e1e2e" stroke="#fab387" stroke-width="1.2" points="1066.8,-491.08 961.2,-491.08 961.2,-487.08 957.2,-487.08 957.2,-483.08 961.2,-483.08 961.2,-462.06 957.2,-462.06 957.2,-458.06 961.2,-458.06 961.2,-454.06 1066.8,-454.06 1066.8,-491.08"/>
<polyline fill="none" stroke="#fab387" stroke-width="1.2" points="961.2,-487.08 965.2,-487.08 965.2,-483.08 961.2,-483.08"/>
<polyline fill="none" stroke="#fab387" stroke-width="1.2" points="961.2,-462.06 965.2,-462.06 965.2,-458.06 961.2,-458.06"/>
<text text-anchor="middle" x="1014" y="-476.77" font-family="JetBrains Mono,Fira Code,monospace" font-size="9.00" fill="#fab387">security&#45;null</text>
<text text-anchor="middle" x="1014" y="-464.02" font-family="JetBrains Mono,Fira Code,monospace" font-size="9.00" fill="#fab387">.so &#160;· &#160;own .git</text>
</g>
<!-- p_null&#45;&gt;host_api -->
<g id="edge15" class="edge">
<title>p_null&#45;&gt;host_api</title>
<path fill="none" stroke="#fab387" d="M968.86,-450.11C921.02,-427.37 842.41,-390 768.99,-355.09"/>
<polygon fill="#fab387" stroke="#fab387" points="975.09,-453.07 967.42,-452.91 973.03,-452.09 968.77,-450.07 968.77,-450.07 968.77,-450.07 973.03,-452.09 970.13,-447.22 975.09,-453.07"/>
<polygon fill="#fab387" stroke="#fab387" points="763,-352.24 770.67,-352.41 765.06,-353.22 769.32,-355.25 769.32,-355.25 769.32,-355.25 765.06,-353.22 767.97,-358.1 763,-352.24"/>
</g>
<!-- ext_note&#45;&gt;reg_extension -->
<g id="edge17" class="edge">
<title>ext_note&#45;&gt;reg_extension</title>
<path fill="none" stroke="#cba6f7" stroke-dasharray="5,2" d="M1368.83,-242.98C1335,-200.49 1265.1,-112.71 1231.23,-70.17"/>
<polygon fill="#cba6f7" stroke="#cba6f7" points="1226.87,-64.7 1233.7,-68.21 1228.29,-66.48 1231.23,-70.18 1231.23,-70.18 1231.23,-70.18 1228.29,-66.48 1228.77,-72.14 1226.87,-64.7"/>
</g>
</g>
</svg>
