<?xml version="1.0" encoding="UTF-8" standalone="no"?>
<!DOCTYPE svg PUBLIC "-//W3C//DTD SVG 1.1//EN"
 "http://www.w3.org/Graphics/SVG/1.1/DTD/svg11.dtd">
<!-- Generated by graphviz version 12.2.1 (0)
 -->
<!-- Title: architecture Pages: 1 -->
<svg width="1564pt" height="523pt"
 viewBox="0.00 0.00 1564.02 523.18" xmlns="http://www.w3.org/2000/svg" xmlns:xlink="http://www.w3.org/1999/xlink">
<g id="graph0" class="graph" transform="scale(1 1) rotate(0) translate(28.8 494.38)">
<title>architecture</title>
<polygon fill="#1e1e2e" stroke="none" points="-28.8,28.8 -28.8,-494.38 1535.22,-494.38 1535.22,28.8 -28.8,28.8"/>
<g id="clust1" class="cluster">
<title>cluster_kernel</title>
<path fill="#181825" stroke="#b4befe" stroke-width="1.5" d="M20,-8C20,-8 1258,-8 1258,-8 1264,-8 1270,-14 1270,-20 1270,-20 1270,-402.56 1270,-402.56 1270,-408.56 1264,-414.56 1258,-414.56 1258,-414.56 20,-414.56 20,-414.56 14,-414.56 8,-408.56 8,-402.56 8,-402.56 8,-20 8,-20 8,-14 14,-8 20,-8"/>
<text text-anchor="middle" x="639" y="-398.21" font-family="JetBrains Mono,Fira Code,monospace" font-size="13.00" fill="#b4befe">Kernel &#160;(pure ABI; no orchestrator)</text>
</g>
<!-- host_api -->
<g id="node1" class="node">
<title>host_api</title>
<polygon fill="#45475a" stroke="#89b4fa" stroke-width="1.2" points="761.55,-388.56 414.45,-388.56 414.45,-122.04 761.55,-122.04 761.55,-388.56"/>
<text text-anchor="middle" x="588" y="-374.25" font-family="JetBrains Mono,Fira Code,monospace" font-size="9.00" fill="#89b4fa">host_api_t &#160;(C ABI)</text>
<text text-anchor="middle" x="588" y="-361.5" font-family="JetBrains Mono,Fira Code,monospace" font-size="9.00" fill="#89b4fa">40 named slots + 8 reserved</text>
<text text-anchor="middle" x="588" y="-348.75" font-family="JetBrains Mono,Fira Code,monospace" font-size="9.00" fill="#89b4fa"> &#160;· Capability TLV transport: present_capability_blob + 1</text>
<text text-anchor="middle" x="588" y="-336" font-family="JetBrains Mono,Fira Code,monospace" font-size="9.00" fill="#89b4fa"> &#160;· Channel subscription: subscribe_conn_state + 2</text>
<text text-anchor="middle" x="588" y="-323.25" font-family="JetBrains Mono,Fira Code,monospace" font-size="9.00" fill="#89b4fa"> &#160;· Configuration: config_get</text>
<text text-anchor="middle" x="588" y="-310.5" font-family="JetBrains Mono,Fira Code,monospace" font-size="9.00" fill="#89b4fa"> &#160;· Connection iteration: for_each_connection + 1</text>
<text text-anchor="middle" x="588" y="-297.75" font-family="JetBrains Mono,Fira Code,monospace" font-size="9.00" fill="#89b4fa"> &#160;· Cooperative cancellation: is_shutdown_requested</text>
<text text-anchor="middle" x="588" y="-285" font-family="JetBrains Mono,Fira Code,monospace" font-size="9.00" fill="#89b4fa"> &#160;· Extension API: query_extension_checked + 2</text>
<text text-anchor="middle" x="588" y="-272.25" font-family="JetBrains Mono,Fira Code,monospace" font-size="9.00" fill="#89b4fa"> &#160;· Foreign&#45;payload injection: inject + 1</text>
<text text-anchor="middle" x="588" y="-259.5" font-family="JetBrains Mono,Fira Code,monospace" font-size="9.00" fill="#89b4fa"> &#160;· Identity primitives: register_local_key + 4</text>
<text text-anchor="middle" x="588" y="-246.75" font-family="JetBrains Mono,Fira Code,monospace" font-size="9.00" fill="#89b4fa"> &#160;· Identity rotation: announce_rotation + 1</text>
<text text-anchor="middle" x="588" y="-234" font-family="JetBrains Mono,Fira Code,monospace" font-size="9.00" fill="#89b4fa"> &#160;· Limits read access: limits</text>
<text text-anchor="middle" x="588" y="-221.25" font-family="JetBrains Mono,Fira Code,monospace" font-size="9.00" fill="#89b4fa"> &#160;· Link&#45;side notifications: notify_connect + 2</text>
<text text-anchor="middle" x="588" y="-208.5" font-family="JetBrains Mono,Fira Code,monospace" font-size="9.00" fill="#89b4fa"> &#160;· Messaging: send + 1</text>
<text text-anchor="middle" x="588" y="-195.75" font-family="JetBrains Mono,Fira Code,monospace" font-size="9.00" fill="#89b4fa"> &#160;· Metrics: emit_counter + 1</text>
<text text-anchor="middle" x="588" y="-183" font-family="JetBrains Mono,Fira Code,monospace" font-size="9.00" fill="#89b4fa"> &#160;· Peer identity readers: get_peer_user_pk + 2</text>
<text text-anchor="middle" x="588" y="-170.25" font-family="JetBrains Mono,Fira Code,monospace" font-size="9.00" fill="#89b4fa"> &#160;· Registry queries: find_conn_by_pk + 1</text>
<text text-anchor="middle" x="588" y="-157.5" font-family="JetBrains Mono,Fira Code,monospace" font-size="9.00" fill="#89b4fa"> &#160;· Security registration: register_security + 1</text>
<text text-anchor="middle" x="588" y="-144.75" font-family="JetBrains Mono,Fira Code,monospace" font-size="9.00" fill="#89b4fa"> &#160;· Service executor: set_timer + 1</text>
<text text-anchor="middle" x="588" y="-132" font-family="JetBrains Mono,Fira Code,monospace" font-size="9.00" fill="#89b4fa"> &#160;· Universal handler / link registration: register_vtable + 1</text>
</g>
<!-- reg_handler -->
<g id="node2" class="node">
<title>reg_handler</title>
<polygon fill="#45475a" stroke="#a6e3a1" stroke-width="1.2" points="417.68,-63.53 296.32,-63.53 296.32,-26.51 417.68,-26.51 417.68,-63.53"/>
<text text-anchor="middle" x="357" y="-49.22" font-family="JetBrains Mono,Fira Code,monospace" font-size="9.00" fill="#a6e3a1">HandlerRegistry</text>
<text text-anchor="middle" x="357" y="-36.47" font-family="JetBrains Mono,Fira Code,monospace" font-size="9.00" fill="#a6e3a1">GN_REGISTER_HANDLER</text>
</g>
<!-- host_api&#45;&gt;reg_handler -->
<g id="edge1" class="edge">
<title>host_api&#45;&gt;reg_handler</title>
<path fill="none" stroke="#585b70" stroke-dasharray="5,2" d="M441.05,-121.8C415.6,-98.86 392.36,-77.9 376.8,-63.87"/>
</g>
<!-- reg_link -->
<g id="node3" class="node">
<title>reg_link</title>
<polygon fill="#45475a" stroke="#a6e3a1" stroke-width="1.2" points="113.8,-63.53 8.2,-63.53 8.2,-26.51 113.8,-26.51 113.8,-63.53"/>
<text text-anchor="middle" x="61" y="-49.22" font-family="JetBrains Mono,Fira Code,monospace" font-size="9.00" fill="#a6e3a1">LinkRegistry</text>
<text text-anchor="middle" x="61" y="-36.47" font-family="JetBrains Mono,Fira Code,monospace" font-size="9.00" fill="#a6e3a1">GN_REGISTER_LINK</text>
</g>
<!-- host_api&#45;&gt;reg_link -->
<g id="edge2" class="edge">
<title>host_api&#45;&gt;reg_link</title>
<path fill="none" stroke="#585b70" stroke-dasharray="5,2" d="M414.08,-193.62C328.27,-162.42 223.76,-122.5 132,-82.04 119.61,-76.57 106.3,-70.01 94.59,-64"/>
</g>
<!-- reg_security -->
<g id="node4" class="node">
<title>reg_security</title>
<polygon fill="#45475a" stroke="#a6e3a1" stroke-width="1.2" points="260.43,-63.53 149.57,-63.53 149.57,-26.51 260.43,-26.51 260.43,-63.53"/>
<text text-anchor="middle" x="205" y="-49.22" font-family="JetBrains Mono,Fira Code,monospace" font-size="9.00" fill="#a6e3a1">SecurityRegistry</text>
<text text-anchor="middle" x="205" y="-36.47" font-family="JetBrains Mono,Fira Code,monospace" font-size="9.00" fill="#a6e3a1">register_security</text>
</g>
<!-- host_api&#45;&gt;reg_security -->
<g id="edge3" class="edge">
<title>host_api&#45;&gt;reg_security</title>
<path fill="none" stroke="#585b70" stroke-dasharray="5,2" d="M414.15,-159.76C347.31,-123.41 277.57,-85.48 237.89,-63.9"/>
</g>
<!-- reg_extension -->
<g id="node5" class="node">
<title>reg_extension</title>
<polygon fill="#45475a" stroke="#a6e3a1" stroke-width="1.2" points="1270.05,-63.53 1153.95,-63.53 1153.95,-26.51 1270.05,-26.51 1270.05,-63.53"/>
<text text-anchor="middle" x="1212" y="-49.22" font-family="JetBrains Mono,Fira Code,monospace" font-size="9.00" fill="#a6e3a1">ExtensionRegistry</text>
<text text-anchor="middle" x="1212" y="-36.47" font-family="JetBrains Mono,Fira Code,monospace" font-size="9.00" fill="#a6e3a1">register_extension</text>
</g>
<!-- host_api&#45;&gt;reg_extension -->
<g id="edge4" class="edge">
<title>host_api&#45;&gt;reg_extension</title>
<path fill="none" stroke="#585b70" stroke-dasharray="5,2" d="M761.97,-206.29C870.77,-174.63 1013.09,-130.22 1136,-82.04 1149.59,-76.71 1164.16,-70.05 1176.87,-63.91"/>
</g>
<!-- conn_reg -->
<g id="node6" class="node">
<title>conn_reg</title>
<polygon fill="#45475a" stroke="#94e2d5" stroke-width="1.2" points="570.05,-63.53 453.95,-63.53 453.95,-26.51 570.05,-26.51 570.05,-63.53"/>
<text text-anchor="middle" x="512" y="-49.22" font-family="JetBrains Mono,Fira Code,monospace" font-size="9.00" fill="#94e2d5">ConnectionRegistry</text>
<text text-anchor="middle" x="512" y="-36.47" font-family="JetBrains Mono,Fira Code,monospace" font-size="9.00" fill="#94e2d5">3 keys / 16 shards</text>
</g>
<!-- host_api&#45;&gt;conn_reg -->
<g id="edge5" class="edge">
<title>host_api&#45;&gt;conn_reg</title>
<path fill="none" stroke="#585b70" stroke-dasharray="5,2" d="M539.65,-121.8C531.28,-98.86 523.63,-77.9 518.51,-63.87"/>
</g>
<!-- executor -->
<g id="node7" class="node">
<title>executor</title>
<polygon fill="#45475a" stroke="#94e2d5" stroke-width="1.2" points="753.8,-63.53 606.2,-63.53 606.2,-26.51 753.8,-26.51 753.8,-63.53"/>
<text text-anchor="middle" x="680" y="-49.22" font-family="JetBrains Mono,Fira Code,monospace" font-size="9.00" fill="#94e2d5">ServiceExecutor</text>
<text text-anchor="middle" x="680" y="-36.47" font-family="JetBrains Mono,Fira Code,monospace" font-size="9.00" fill="#94e2d5">set_timer / posted tasks</text>
</g>
<!-- host_api&#45;&gt;executor -->
<g id="edge6" class="edge">
<title>host_api&#45;&gt;executor</title>
<path fill="none" stroke="#585b70" stroke-dasharray="5,2" d="M646.53,-121.8C656.66,-98.86 665.92,-77.9 672.12,-63.87"/>
</g>
<!-- signal_bus -->
<g id="node8" class="node">
<title>signal_bus</title>
<polygon fill="#45475a" stroke="#94e2d5" stroke-width="1.2" points="1117.91,-82.04 857.17,-82.04 790.09,-8 1050.83,-8 1117.91,-82.04"/>
<text text-anchor="middle" x="954" y="-49.22" font-family="JetBrains Mono,Fira Code,monospace" font-size="9.00" fill="#94e2d5">SignalChannel</text>
<text text-anchor="middle" x="954" y="-36.47" font-family="JetBrains Mono,Fira Code,monospace" font-size="9.00" fill="#94e2d5">conn_state / config_reload</text>
</g>
<!-- host_api&#45;&gt;signal_bus -->
<g id="edge7" class="edge">
<title>host_api&#45;&gt;signal_bus</title>
<path fill="none" stroke="#585b70" stroke-dasharray="5,2" d="M761.89,-155.34C807.63,-129.31 854.13,-102.85 889.93,-82.48"/>
</g>
<!-- p_heartbeat -->
<g id="node9" class="node">
<title>p_heartbeat</title>
<polygon fill="#1e1e2e" stroke="#fab387" stroke-width="1.2" points="1366.42,-465.58 1255.58,-465.58 1255.58,-461.58 1251.58,-461.58 1251.58,-457.58 1255.58,-457.58 1255.58,-436.56 1251.58,-436.56 1251.58,-432.56 1255.58,-432.56 1255.58,-428.56 1366.42,-428.56 1366.42,-465.58"/>
<polyline fill="none" stroke="#fab387" stroke-width="1.2" points="1255.58,-461.58 1259.58,-461.58 1259.58,-457.58 1255.58,-457.58"/>
<polyline fill="none" stroke="#fab387" stroke-width="1.2" points="1255.58,-436.56 1259.58,-436.56 1259.58,-432.56 1255.58,-432.56"/>
<text text-anchor="middle" x="1311" y="-451.27" font-family="JetBrains Mono,Fira Code,monospace" font-size="9.00" fill="#fab387">handler&#45;heartbeat</text>
<text text-anchor="middle" x="1311" y="-438.52" font-family="JetBrains Mono,Fira Code,monospace" font-size="9.00" fill="#fab387">.so &#160;· &#160;own .git</text>
</g>
<!-- p_heartbeat&#45;&gt;host_api -->
<g id="edge8" class="edge">
<title>p_heartbeat&#45;&gt;host_api</title>
<path fill="none" stroke="#fab387" d="M1247.31,-429.35C1141.5,-401.58 925.75,-344.95 769.81,-304.02"/>
<polygon fill="#fab387" stroke="#fab387" points="1253.99,-431.11 1246.42,-432.38 1251.78,-430.53 1247.22,-429.33 1247.22,-429.33 1247.22,-429.33 1251.78,-430.53 1248.02,-426.28 1253.99,-431.11"/>
<polygon fill="#fab387" stroke="#fab387" points="763.14,-302.27 770.72,-301 765.35,-302.85 769.92,-304.05 769.92,-304.05 769.92,-304.05 765.35,-302.85 769.12,-307.1 763.14,-302.27"/>
</g>
<!-- ext_note -->
<g id="node17" class="node">
<title>ext_note</title>
<polygon fill="#181825" stroke="#cba6f7" stroke-width="1.2" points="1500.42,-280.18 1269.58,-280.18 1269.58,-230.41 1506.42,-230.41 1506.42,-274.18 1500.42,-280.18"/>
<polyline fill="none" stroke="#cba6f7" stroke-width="1.2" points="1500.42,-280.18 1500.42,-274.18"/>
<polyline fill="none" stroke="#cba6f7" stroke-width="1.2" points="1506.42,-274.18 1500.42,-274.18"/>
<text text-anchor="middle" x="1388" y="-265.87" font-family="JetBrains Mono,Fira Code,monospace" font-size="9.00" fill="#cba6f7">plugin↔plugin coordination</text>
<text text-anchor="middle" x="1388" y="-253.12" font-family="JetBrains Mono,Fira Code,monospace" font-size="9.00" fill="#cba6f7">register_extension(name, version, vtable)</text>
<text text-anchor="middle" x="1388" y="-240.37" font-family="JetBrains Mono,Fira Code,monospace" font-size="9.00" fill="#cba6f7">query_extension_checked(name, version)</text>
</g>
<!-- p_heartbeat&#45;&gt;ext_note -->
<g id="edge16" class="edge">
<title>p_heartbeat&#45;&gt;ext_note</title>
<path fill="none" stroke="#cba6f7" stroke-dasharray="5,2" d="M1318.24,-428.22C1332.13,-393.99 1362.52,-319.1 1378.2,-280.45"/>
</g>
<!-- p_tcp -->
<g id="node10" class="node">
<title>p_tcp</title>
<polygon fill="#1e1e2e" stroke="#fab387" stroke-width="1.2" points="214.8,-465.58 109.2,-465.58 109.2,-461.58 105.2,-461.58 105.2,-457.58 109.2,-457.58 109.2,-436.56 105.2,-436.56 105.2,-432.56 109.2,-432.56 109.2,-428.56 214.8,-428.56 214.8,-465.58"/>
<polyline fill="none" stroke="#fab387" stroke-width="1.2" points="109.2,-461.58 113.2,-461.58 113.2,-457.58 109.2,-457.58"/>
<polyline fill="none" stroke="#fab387" stroke-width="1.2" points="109.2,-436.56 113.2,-436.56 113.2,-432.56 109.2,-432.56"/>
<text text-anchor="middle" x="162" y="-451.27" font-family="JetBrains Mono,Fira Code,monospace" font-size="9.00" fill="#fab387">link&#45;tcp</text>
<text text-anchor="middle" x="162" y="-438.52" font-family="JetBrains Mono,Fira Code,monospace" font-size="9.00" fill="#fab387">.so &#160;· &#160;own .git</text>
</g>
<!-- p_tcp&#45;&gt;host_api -->
<g id="edge9" class="edge">
<title>p_tcp&#45;&gt;host_api</title>
<path fill="none" stroke="#fab387" d="M209.46,-424.93C257.42,-403.56 334.52,-369.22 406.67,-337.08"/>
<polygon fill="#fab387" stroke="#fab387" points="203.19,-427.72 208.3,-422 205.27,-426.79 209.58,-424.87 209.58,-424.87 209.58,-424.87 205.27,-426.79 210.87,-427.75 203.19,-427.72"/>
<polygon fill="#fab387" stroke="#fab387" points="412.98,-334.27 407.86,-339.99 410.89,-335.2 406.58,-337.12 406.58,-337.12 406.58,-337.12 410.89,-335.2 405.3,-334.24 412.98,-334.27"/>
</g>
<!-- p_udp -->
<g id="node11" class="node">
<title>p_udp</title>
<polygon fill="#1e1e2e" stroke="#fab387" stroke-width="1.2" points="356.8,-465.58 251.2,-465.58 251.2,-461.58 247.2,-461.58 247.2,-457.58 251.2,-457.58 251.2,-436.56 247.2,-436.56 247.2,-432.56 251.2,-432.56 251.2,-428.56 356.8,-428.56 356.8,-465.58"/>
<polyline fill="none" stroke="#fab387" stroke-width="1.2" points="251.2,-461.58 255.2,-461.58 255.2,-457.58 251.2,-457.58"/>
<polyline fill="none" stroke="#fab387" stroke-width="1.2" points="251.2,-436.56 255.2,-436.56 255.2,-432.56 251.2,-432.56"/>
<text text-anchor="middle" x="304" y="-451.27" font-family="JetBrains Mono,Fira Code,monospace" font-size="9.00" fill="#fab387">link&#45;udp</text>
<text text-anchor="middle" x="304" y="-438.52" font-family="JetBrains Mono,Fira Code,monospace" font-size="9.00" fill="#fab387">.so &#160;· &#160;own .git</text>
</g>
<!-- p_udp&#45;&gt;host_api -->
<g id="edge10" class="edge">
<title>p_udp&#45;&gt;host_api</title>
<path fill="none" stroke="#fab387" d="M337.52,-423.67C356.06,-411.28 380.7,-394.82 407.3,-377.05"/>
<polygon fill="#fab387" stroke="#fab387" points="331.73,-427.54 335.8,-421.03 333.63,-426.27 337.55,-423.65 337.55,-423.65 337.55,-423.65 333.63,-426.27 339.3,-426.27 331.73,-427.54"/>
<polygon fill="#fab387" stroke="#fab387" points="413.09,-373.18 409.02,-379.69 411.19,-374.45 407.27,-377.07 407.27,-377.07 407.27,-377.07 411.19,-374.45 405.52,-374.45 413.09,-373.18"/>
</g>
<!-- p_ws -->
<g id="node12" class="node">
<title>p_ws</title>
<polygon fill="#1e1e2e" stroke="#fab387" stroke-width="1.2" points="498.8,-465.58 393.2,-465.58 393.2,-461.58 389.2,-461.58 389.2,-457.58 393.2,-457.58 393.2,-436.56 389.2,-436.56 389.2,-432.56 393.2,-432.56 393.2,-428.56 498.8,-428.56 498.8,-465.58"/>
<polyline fill="none" stroke="#fab387" stroke-width="1.2" points="393.2,-461.58 397.2,-461.58 397.2,-457.58 393.2,-457.58"/>
<polyline fill="none" stroke="#fab387" stroke-width="1.2" points="393.2,-436.56 397.2,-436.56 397.2,-432.56 393.2,-432.56"/>
<text text-anchor="middle" x="446" y="-451.27" font-family="JetBrains Mono,Fira Code,monospace" font-size="9.00" fill="#fab387">link&#45;ws</text>
<text text-anchor="middle" x="446" y="-438.52" font-family="JetBrains Mono,Fira Code,monospace" font-size="9.00" fill="#fab387">.so &#160;· &#160;own .git</text>
</g>
<!-- p_ws&#45;&gt;host_api -->
<g id="edge11" class="edge">
<title>p_ws&#45;&gt;host_api</title>
<path fill="none" stroke="#fab387" d="M464.1,-421.88C469.77,-414.31 476.47,-405.35 483.78,-395.58"/>
<polygon fill="#fab387" stroke="#fab387" points="460.09,-427.24 461.76,-419.75 461.46,-425.41 464.28,-421.64 464.28,-421.64 464.28,-421.64 461.46,-425.41 466.8,-423.52 460.09,-427.24"/>
<polygon fill="#fab387" stroke="#fab387" points="487.94,-390.03 486.26,-397.52 486.57,-391.85 483.74,-395.63 483.74,-395.63 483.74,-395.63 486.57,-391.85 481.22,-393.74 487.94,-390.03"/>
</g>
<!-- p_ipc -->
<g id="node13" class="node">
<title>p_ipc</title>
<polygon fill="#1e1e2e" stroke="#fab387" stroke-width="1.2" points="640.8,-465.58 535.2,-465.58 535.2,-461.58 531.2,-461.58 531.2,-457.58 535.2,-457.58 535.2,-436.56 531.2,-436.56 531.2,-432.56 535.2,-432.56 535.2,-428.56 640.8,-428.56 640.8,-465.58"/>
<polyline fill="none" stroke="#fab387" stroke-width="1.2" points="535.2,-461.58 539.2,-461.58 539.2,-457.58 535.2,-457.58"/>
<polyline fill="none" stroke="#fab387" stroke-width="1.2" points="535.2,-436.56 539.2,-436.56 539.2,-432.56 535.2,-432.56"/>
<text text-anchor="middle" x="588" y="-451.27" font-family="JetBrains Mono,Fira Code,monospace" font-size="9.00" fill="#fab387">link&#45;ipc</text>
<text text-anchor="middle" x="588" y="-438.52" font-family="JetBrains Mono,Fira Code,monospace" font-size="9.00" fill="#fab387">.so &#160;· &#160;own .git</text>
</g>
<!-- p_ipc&#45;&gt;host_api -->
<g id="edge12" class="edge">
<title>p_ipc&#45;&gt;host_api</title>
<path fill="none" stroke="#fab387" d="M588,-420.24C588,-413.42 588,-405.55 588,-397.04"/>
<polygon fill="#fab387" stroke="#fab387" points="588,-427 584.85,-420 588,-424.72 588,-420 588,-420 588,-420 588,-424.72 591.15,-420 588,-427"/>
<polygon fill="#fab387" stroke="#fab387" points="588,-390.27 591.15,-397.27 588,-392.55 588,-397.27 588,-397.27 588,-397.27 588,-392.55 584.85,-397.27 588,-390.27"/>
</g>
<!-- p_tls -->
<g id="node14" class="node">
<title>p_tls</title>
<polygon fill="#1e1e2e" stroke="#fab387" stroke-width="1.2" points="782.8,-465.58 677.2,-465.58 677.2,-461.58 673.2,-461.58 673.2,-457.58 677.2,-457.58 677.2,-436.56 673.2,-436.56 673.2,-432.56 677.2,-432.56 677.2,-428.56 782.8,-428.56 782.8,-465.58"/>
<polyline fill="none" stroke="#fab387" stroke-width="1.2" points="677.2,-461.58 681.2,-461.58 681.2,-457.58 677.2,-457.58"/>
<polyline fill="none" stroke="#fab387" stroke-width="1.2" points="677.2,-436.56 681.2,-436.56 681.2,-432.56 677.2,-432.56"/>
<text text-anchor="middle" x="730" y="-451.27" font-family="JetBrains Mono,Fira Code,monospace" font-size="9.00" fill="#fab387">link&#45;tls</text>
<text text-anchor="middle" x="730" y="-438.52" font-family="JetBrains Mono,Fira Code,monospace" font-size="9.00" fill="#fab387">.so &#160;· &#160;own .git</text>
</g>
<!-- p_tls&#45;&gt;host_api -->
<g id="edge13" class="edge">
<title>p_tls&#45;&gt;host_api</title>
<path fill="none" stroke="#fab387" d="M711.9,-421.88C706.23,-414.31 699.53,-405.35 692.22,-395.58"/>
<polygon fill="#fab387" stroke="#fab387" points="715.91,-427.24 709.2,-423.52 714.54,-425.41 711.72,-421.64 711.72,-421.64 711.72,-421.64 714.54,-425.41 714.24,-419.75 715.91,-427.24"/>
<polygon fill="#fab387" stroke="#fab387" points="688.06,-390.03 694.78,-393.74 689.43,-391.85 692.26,-395.63 692.26,-395.63 692.26,-395.63 689.43,-391.85 689.74,-397.52 688.06,-390.03"/>
</g>
<!-- p_noise -->
<g id="node15" class="node">
<title>p_noise</title>
<polygon fill="#1e1e2e" stroke="#fab387" stroke-width="1.2" points="924.8,-465.58 819.2,-465.58 819.2,-461.58 815.2,-461.58 815.2,-457.58 819.2,-457.58 819.2,-436.56 815.2,-436.56 815.2,-432.56 819.2,-432.56 819.2,-428.56 924.8,-428.56 924.8,-465.58"/>
<polyline fill="none" stroke="#fab387" stroke-width="1.2" points="819.2,-461.58 823.2,-461.58 823.2,-457.58 819.2,-457.58"/>
<polyline fill="none" stroke="#fab387" stroke-width="1.2" points="819.2,-436.56 823.2,-436.56 823.2,-432.56 819.2,-432.56"/>
<text text-anchor="middle" x="872" y="-451.27" font-family="JetBrains Mono,Fira Code,monospace" font-size="9.00" fill="#fab387">security&#45;noise</text>
<text text-anchor="middle" x="872" y="-438.52" font-family="JetBrains Mono,Fira Code,monospace" font-size="9.00" fill="#fab387">.so &#160;· &#160;own .git</text>
</g>
<!-- p_noise&#45;&gt;host_api -->
<g id="edge14" class="edge">
<title>p_noise&#45;&gt;host_api</title>
<path fill="none" stroke="#fab387" d="M838.48,-423.67C819.94,-411.28 795.3,-394.82 768.7,-377.05"/>
<polygon fill="#fab387" stroke="#fab387" points="844.27,-427.54 836.7,-426.27 842.37,-426.27 838.45,-423.65 838.45,-423.65 838.45,-423.65 842.37,-426.27 840.2,-421.03 844.27,-427.54"/>
<polygon fill="#fab387" stroke="#fab387" points="762.91,-373.18 770.48,-374.45 764.81,-374.45 768.73,-377.07 768.73,-377.07 768.73,-377.07 764.81,-374.45 766.98,-379.69 762.91,-373.18"/>
</g>
<!-- p_null -->
<g id="node16" class="node">
<title>p_null</title>
<polygon fill="#1e1e2e" stroke="#fab387" stroke-width="1.2" points="1066.8,-465.58 961.2,-465.58 961.2,-461.58 957.2,-461.58 957.2,-457.58 961.2,-457.58 961.2,-436.56 957.2,-436.56 957.2,-432.56 961.2,-432.56 961.2,-428.56 1066.8,-428.56 1066.8,-465.58"/>
<polyline fill="none" stroke="#fab387" stroke-width="1.2" points="961.2,-461.58 965.2,-461.58 965.2,-457.58 961.2,-457.58"/>
<polyline fill="none" stroke="#fab387" stroke-width="1.2" points="961.2,-436.56 965.2,-436.56 965.2,-432.56 961.2,-432.56"/>
<text text-anchor="middle" x="1014" y="-451.27" font-family="JetBrains Mono,Fira Code,monospace" font-size="9.00" fill="#fab387">security&#45;null</text>
<text text-anchor="middle" x="1014" y="-438.52" font-family="JetBrains Mono,Fira Code,monospace" font-size="9.00" fill="#fab387">.so &#160;· &#160;own .git</text>
</g>
<!-- p_null&#45;&gt;host_api -->
<g id="edge15" class="edge">
<title>p_null&#45;&gt;host_api</title>
<path fill="none" stroke="#fab387" d="M966.54,-424.93C918.58,-403.56 841.48,-369.22 769.33,-337.08"/>
<polygon fill="#fab387" stroke="#fab387" points="972.81,-427.72 965.13,-427.75 970.73,-426.79 966.42,-424.87 966.42,-424.87 966.42,-424.87 970.73,-426.79 967.7,-422 972.81,-427.72"/>
<polygon fill="#fab387" stroke="#fab387" points="763.02,-334.27 770.7,-334.24 765.11,-335.2 769.42,-337.12 769.42,-337.12 769.42,-337.12 765.11,-335.2 768.14,-339.99 763.02,-334.27"/>
</g>
<!-- ext_note&#45;&gt;reg_extension -->
<g id="edge17" class="edge">
<title>ext_note&#45;&gt;reg_extension</title>
<path fill="none" stroke="#cba6f7" stroke-dasharray="5,2" d="M1367.47,-230C1333.47,-189.77 1265.89,-109.8 1232.15,-69.86"/>
<polygon fill="#cba6f7" stroke="#cba6f7" points="1227.82,-64.74 1234.74,-68.06 1229.29,-66.48 1232.34,-70.09 1232.34,-70.09 1232.34,-70.09 1229.29,-66.48 1229.93,-72.12 1227.82,-64.74"/>
</g>
</g>
</svg>
