<?xml version="1.0" encoding="UTF-8" standalone="no"?>
<!DOCTYPE svg PUBLIC "-//W3C//DTD SVG 1.1//EN"
 "http://www.w3.org/Graphics/SVG/1.1/DTD/svg11.dtd">
<!-- Generated by graphviz version 12.2.1 (0)
 -->
<!-- Title: c_cpp_bridging Pages: 1 -->
<svg width="2243pt" height="302pt"
 viewBox="0.00 0.00 2242.66 301.62" xmlns="http://www.w3.org/2000/svg" xmlns:xlink="http://www.w3.org/1999/xlink">
<g id="graph0" class="graph" transform="scale(1 1) rotate(0) translate(28.8 272.82)">
<title>c_cpp_bridging</title>
<polygon fill="#1e1e2e" stroke="none" points="-28.8,28.8 -28.8,-272.82 2213.86,-272.82 2213.86,28.8 -28.8,28.8"/>
<g id="clust1" class="cluster">
<title>cluster_plugin</title>
<path fill="#181825" stroke="#fab387" stroke-width="1.5" d="M20,-58.02C20,-58.02 438.95,-58.02 438.95,-58.02 444.95,-58.02 450.95,-64.02 450.95,-70.02 450.95,-70.02 450.95,-224.02 450.95,-224.02 450.95,-230.02 444.95,-236.02 438.95,-236.02 438.95,-236.02 20,-236.02 20,-236.02 14,-236.02 8,-230.02 8,-224.02 8,-224.02 8,-70.02 8,-70.02 8,-64.02 14,-58.02 20,-58.02"/>
<text text-anchor="middle" x="229.47" y="-221.57" font-family="JetBrains Mono,Fira Code,monospace" font-size="11.00" fill="#fab387">Plugin (.so) &#160;— C++ implementation</text>
</g>
<g id="clust2" class="cluster">
<title>cluster_kernel</title>
<path fill="#181825" stroke="#b4befe" stroke-width="1.5" d="M1349.26,-57.02C1349.26,-57.02 1786.21,-57.02 1786.21,-57.02 1792.21,-57.02 1798.21,-63.02 1798.21,-69.02 1798.21,-69.02 1798.21,-130.02 1798.21,-130.02 1798.21,-136.02 1792.21,-142.02 1786.21,-142.02 1786.21,-142.02 1349.26,-142.02 1349.26,-142.02 1343.26,-142.02 1337.26,-136.02 1337.26,-130.02 1337.26,-130.02 1337.26,-69.02 1337.26,-69.02 1337.26,-63.02 1343.26,-57.02 1349.26,-57.02"/>
<text text-anchor="middle" x="1567.74" y="-127.57" font-family="JetBrains Mono,Fira Code,monospace" font-size="11.00" fill="#b4befe">Kernel &#160;— opaque C++ implementation</text>
</g>
<!-- cpp_class -->
<g id="node1" class="node">
<title>cpp_class</title>
<path fill="#45475a" stroke="#fab387" stroke-width="1.2" d="M169.85,-169.9C169.85,-169.9 20,-169.9 20,-169.9 14,-169.9 8,-163.9 8,-157.9 8,-157.9 8,-132.13 8,-132.13 8,-126.13 14,-120.13 20,-120.13 20,-120.13 169.85,-120.13 169.85,-120.13 175.85,-120.13 181.85,-126.13 181.85,-132.13 181.85,-132.13 181.85,-157.9 181.85,-157.9 181.85,-163.9 175.85,-169.9 169.85,-169.9"/>
<text text-anchor="middle" x="94.93" y="-155.59" font-family="JetBrains Mono,Fira Code,monospace" font-size="9.00" fill="#fab387">class MyHandler</text>
<text text-anchor="middle" x="94.93" y="-142.84" font-family="JetBrains Mono,Fira Code,monospace" font-size="9.00" fill="#fab387">: public goodnet::HandlerBase</text>
<text text-anchor="middle" x="94.93" y="-130.09" font-family="JetBrains Mono,Fira Code,monospace" font-size="9.00" fill="#fab387">(sdk/cpp/handler.hpp)</text>
</g>
<!-- cpp_call -->
<g id="node2" class="node">
<title>cpp_call</title>
<path fill="#45475a" stroke="#fab387" stroke-width="1.2" d="M426.95,-213.28C426.95,-213.28 250.85,-213.28 250.85,-213.28 244.85,-213.28 238.85,-207.28 238.85,-201.28 238.85,-201.28 238.85,-162.76 238.85,-162.76 238.85,-156.76 244.85,-150.76 250.85,-150.76 250.85,-150.76 426.95,-150.76 426.95,-150.76 432.95,-150.76 438.95,-156.76 438.95,-162.76 438.95,-162.76 438.95,-201.28 438.95,-201.28 438.95,-207.28 432.95,-213.28 426.95,-213.28"/>
<text text-anchor="middle" x="338.9" y="-198.97" font-family="JetBrains Mono,Fira Code,monospace" font-size="9.00" fill="#fab387">send(conn, msg_id, payload)</text>
<text text-anchor="middle" x="338.9" y="-186.22" font-family="JetBrains Mono,Fira Code,monospace" font-size="9.00" fill="#fab387">query_extension_checked(name, ver)</text>
<text text-anchor="middle" x="338.9" y="-173.47" font-family="JetBrains Mono,Fira Code,monospace" font-size="9.00" fill="#fab387">set_timer(ms, fn, ud)</text>
<text text-anchor="middle" x="338.9" y="-160.72" font-family="JetBrains Mono,Fira Code,monospace" font-size="9.00" fill="#fab387">subscribe_conn_state(cb, ud)</text>
</g>
<!-- cpp_class&#45;&gt;cpp_call -->
<g id="edge2" class="edge">
<title>cpp_class&#45;&gt;cpp_call</title>
<path fill="none" stroke="#585b70" d="M182.26,-158.22C197.75,-160.59 214.06,-163.08 230.07,-165.53"/>
<polygon fill="#585b70" stroke="#585b70" points="229.61,-167.94 236.9,-166.58 230.36,-163.1 229.61,-167.94"/>
</g>
<!-- trampoline -->
<g id="node3" class="node">
<title>trampoline</title>
<path fill="#45475a" stroke="#f9e2af" stroke-width="1.2" d="M438.95,-114.28C438.95,-114.28 238.85,-114.28 238.85,-114.28 232.85,-114.28 226.85,-108.28 226.85,-102.28 226.85,-102.28 226.85,-69.76 226.85,-69.76 226.85,-63.76 232.85,-57.76 238.85,-57.76 238.85,-57.76 438.95,-57.76 438.95,-57.76 444.95,-57.76 450.95,-63.76 450.95,-69.76 450.95,-69.76 450.95,-102.28 450.95,-102.28 450.95,-108.28 444.95,-114.28 438.95,-114.28"/>
<text text-anchor="middle" x="338.9" y="-100.92" font-family="JetBrains Mono,Fira Code,monospace" font-size="8.00" fill="#f9e2af">Static trampolines</text>
<text text-anchor="middle" x="338.9" y="-89.67" font-family="JetBrains Mono,Fira Code,monospace" font-size="8.00" fill="#f9e2af">static gn_propagation_t handle(void* self, …)</text>
<text text-anchor="middle" x="338.9" y="-78.42" font-family="JetBrains Mono,Fira Code,monospace" font-size="8.00" fill="#f9e2af"> &#160;{ return static_cast&lt;MyHandler*&gt;(self)</text>
<text text-anchor="middle" x="338.9" y="-67.17" font-family="JetBrains Mono,Fira Code,monospace" font-size="8.00" fill="#f9e2af"> &#160;&#160;&#160;&#160;&#160;&#45;&gt;on_message(envelope); }</text>
</g>
<!-- cpp_class&#45;&gt;trampoline -->
<g id="edge1" class="edge">
<title>cpp_class&#45;&gt;trampoline</title>
<path fill="none" stroke="#585b70" d="M182.26,-123.97C194.06,-121.09 206.34,-118.1 218.6,-115.11"/>
<polygon fill="#585b70" stroke="#585b70" points="218.96,-117.54 225.18,-113.5 217.8,-112.78 218.96,-117.54"/>
</g>
<!-- abi -->
<g id="node4" class="node">
<title>abi</title>
<polygon fill="#45475a" stroke="#f9e2af" stroke-width="1.2" points="1204.01,-176.04 752.78,-176.04 636.7,0 1087.93,0 1204.01,-176.04"/>
<text text-anchor="middle" x="920.36" y="-117.72" font-family="JetBrains Mono,Fira Code,monospace" font-size="9.00" fill="#f9e2af">C ABI boundary</text>
<text text-anchor="middle" x="920.36" y="-104.97" font-family="JetBrains Mono,Fira Code,monospace" font-size="9.00" fill="#f9e2af">host_api_t &#160;&#160;&#160;&#160;&#160;&#160;&#160;&#160;&#160;&#160;&#160;(kernel → plugin)</text>
<text text-anchor="middle" x="920.36" y="-92.22" font-family="JetBrains Mono,Fira Code,monospace" font-size="9.00" fill="#f9e2af">gn_handler_vtable_t &#160;&#160;(plugin → kernel)</text>
<text text-anchor="middle" x="920.36" y="-79.47" font-family="JetBrains Mono,Fira Code,monospace" font-size="9.00" fill="#f9e2af">gn_link_vtable_t &#160;&#160;&#160;&#160;&#160;(plugin → kernel)</text>
<text text-anchor="middle" x="920.36" y="-66.72" font-family="JetBrains Mono,Fira Code,monospace" font-size="9.00" fill="#f9e2af">gn_security_provider_vtable_t &#160;(plugin → kernel)</text>
<text text-anchor="middle" x="920.36" y="-53.97" font-family="JetBrains Mono,Fira Code,monospace" font-size="9.00" fill="#f9e2af">all extern &quot;C&quot;, api_size first, _reserved tail</text>
</g>
<!-- cpp_call&#45;&gt;abi -->
<g id="edge4" class="edge">
<title>cpp_call&#45;&gt;abi</title>
<path fill="none" stroke="#f9e2af" d="M439.18,-165.91C512.8,-153.97 615.87,-137.25 707.65,-122.36"/>
<polygon fill="#f9e2af" stroke="#f9e2af" points="707.92,-124.8 714.44,-121.26 707.13,-119.96 707.92,-124.8"/>
<text text-anchor="middle" x="543.83" y="-163.5" font-family="JetBrains Mono,Fira Code,monospace" font-size="9.00" fill="#f9e2af">api&#45;&gt;send(api&#45;&gt;host_ctx, …)</text>
</g>
<!-- trampoline&#45;&gt;abi -->
<g id="edge6" class="edge">
<title>trampoline&#45;&gt;abi</title>
<path fill="none" stroke="#585b70" stroke-dasharray="5,2" d="M451.28,-86.4C517.71,-86.63 604.61,-86.93 685.47,-87.21"/>
<polygon fill="#585b70" stroke="#585b70" points="685.26,-89.66 692.27,-87.24 685.28,-84.76 685.26,-89.66"/>
<text text-anchor="middle" x="543.83" y="-91.16" font-family="JetBrains Mono,Fira Code,monospace" font-size="9.00" fill="#585b70">vtable slot</text>
</g>
<!-- host_ctx -->
<g id="node5" class="node">
<title>host_ctx</title>
<path fill="#45475a" stroke="#b4befe" stroke-width="1.2" d="M1530.61,-112.91C1530.61,-112.91 1349.26,-112.91 1349.26,-112.91 1343.26,-112.91 1337.26,-106.91 1337.26,-100.91 1337.26,-100.91 1337.26,-75.13 1337.26,-75.13 1337.26,-69.13 1343.26,-63.13 1349.26,-63.13 1349.26,-63.13 1530.61,-63.13 1530.61,-63.13 1536.61,-63.13 1542.61,-69.13 1542.61,-75.13 1542.61,-75.13 1542.61,-100.91 1542.61,-100.91 1542.61,-106.91 1536.61,-112.91 1530.61,-112.91"/>
<text text-anchor="middle" x="1439.94" y="-98.59" font-family="JetBrains Mono,Fira Code,monospace" font-size="9.00" fill="#b4befe">host_ctx (opaque)</text>
<text text-anchor="middle" x="1439.94" y="-85.84" font-family="JetBrains Mono,Fira Code,monospace" font-size="9.00" fill="#b4befe">PluginContext* on the kernel side</text>
<text text-anchor="middle" x="1439.94" y="-73.09" font-family="JetBrains Mono,Fira Code,monospace" font-size="9.00" fill="#b4befe">passed back unchanged on every call</text>
</g>
<!-- abi&#45;&gt;host_ctx -->
<g id="edge5" class="edge">
<title>abi&#45;&gt;host_ctx</title>
<path fill="none" stroke="#f9e2af" d="M1146.49,-88.02C1209.5,-88.02 1275.22,-88.02 1328.36,-88.02"/>
<polygon fill="#f9e2af" stroke="#f9e2af" points="1328.27,-90.47 1335.27,-88.02 1328.27,-85.57 1328.27,-90.47"/>
<text text-anchor="middle" x="1270.64" y="-104.97" font-family="JetBrains Mono,Fira Code,monospace" font-size="9.00" fill="#f9e2af">thunk dispatches</text>
<text text-anchor="middle" x="1270.64" y="-92.22" font-family="JetBrains Mono,Fira Code,monospace" font-size="9.00" fill="#f9e2af">based on host_ctx</text>
</g>
<!-- subsystems -->
<g id="node6" class="node">
<title>subsystems</title>
<path fill="#45475a" stroke="#b4befe" stroke-width="1.2" d="M1786.21,-119.28C1786.21,-119.28 1599.61,-119.28 1599.61,-119.28 1593.61,-119.28 1587.61,-113.28 1587.61,-107.28 1587.61,-107.28 1587.61,-68.76 1587.61,-68.76 1587.61,-62.76 1593.61,-56.76 1599.61,-56.76 1599.61,-56.76 1786.21,-56.76 1786.21,-56.76 1792.21,-56.76 1798.21,-62.76 1798.21,-68.76 1798.21,-68.76 1798.21,-107.28 1798.21,-107.28 1798.21,-113.28 1792.21,-119.28 1786.21,-119.28"/>
<text text-anchor="middle" x="1692.91" y="-104.97" font-family="JetBrains Mono,Fira Code,monospace" font-size="9.00" fill="#b4befe">HandlerRegistry · LinkRegistry</text>
<text text-anchor="middle" x="1692.91" y="-92.22" font-family="JetBrains Mono,Fira Code,monospace" font-size="9.00" fill="#b4befe">SecurityRegistry · ExtensionRegistry</text>
<text text-anchor="middle" x="1692.91" y="-79.47" font-family="JetBrains Mono,Fira Code,monospace" font-size="9.00" fill="#b4befe">ConnectionRegistry · ServiceExecutor</text>
<text text-anchor="middle" x="1692.91" y="-66.72" font-family="JetBrains Mono,Fira Code,monospace" font-size="9.00" fill="#b4befe">SignalChannel&lt;Event&gt;</text>
</g>
<!-- host_ctx&#45;&gt;subsystems -->
<g id="edge3" class="edge">
<title>host_ctx&#45;&gt;subsystems</title>
<path fill="none" stroke="#585b70" d="M1543.02,-88.02C1554.93,-88.02 1567.13,-88.02 1579.17,-88.02"/>
<polygon fill="#585b70" stroke="#585b70" points="1578.96,-90.47 1585.96,-88.02 1578.96,-85.57 1578.96,-90.47"/>
</g>
<!-- note -->
<g id="node7" class="node">
<title>note</title>
<polygon fill="#181825" stroke="#585b70" stroke-width="1.2" points="2179.06,-112.91 1843.21,-112.91 1843.21,-63.13 2185.06,-63.13 2185.06,-106.91 2179.06,-112.91"/>
<polyline fill="none" stroke="#585b70" stroke-width="1.2" points="2179.06,-112.91 2179.06,-106.91"/>
<polyline fill="none" stroke="#585b70" stroke-width="1.2" points="2185.06,-106.91 2179.06,-106.91"/>
<text text-anchor="middle" x="2014.14" y="-98.59" font-family="JetBrains Mono,Fira Code,monospace" font-size="9.00" fill="#585b70">sdk/convenience.h — C inline wrappers (no per&#45;language layer)</text>
<text text-anchor="middle" x="2014.14" y="-85.84" font-family="JetBrains Mono,Fira Code,monospace" font-size="9.00" fill="#585b70">sdk/cpp/* — typed C++ helpers (HandlerBase, LinkBase, …)</text>
<text text-anchor="middle" x="2014.14" y="-73.09" font-family="JetBrains Mono,Fira Code,monospace" font-size="9.00" fill="#585b70">Other&#45;language bindings sit on the same C ABI.</text>
</g>
<!-- subsystems&#45;&gt;note -->
</g>
</svg>
