<?xml version="1.0" encoding="UTF-8" standalone="no"?>
<!DOCTYPE svg PUBLIC "-//W3C//DTD SVG 1.1//EN"
 "http://www.w3.org/Graphics/SVG/1.1/DTD/svg11.dtd">
<!-- Generated by graphviz version 12.2.1 (0)
 -->
<!-- Title: cas_backpressure Pages: 1 -->
<svg width="946pt" height="568pt"
 viewBox="0.00 0.00 946.19 567.70" xmlns="http://www.w3.org/2000/svg" xmlns:xlink="http://www.w3.org/1999/xlink">
<g id="graph0" class="graph" transform="scale(1 1) rotate(0) translate(28.8 538.9)">
<title>cas_backpressure</title>
<polygon fill="#1e1e2e" stroke="none" points="-28.8,28.8 -28.8,-538.9 917.39,-538.9 917.39,28.8 -28.8,28.8"/>
<!-- send -->
<g id="node1" class="node">
<title>send</title>
<ellipse fill="#45475a" stroke="#89b4fa" stroke-width="1.2" cx="271.99" cy="-482.86" rx="197.71" ry="27.24"/>
<text text-anchor="middle" x="271.99" y="-486.86" font-family="JetBrains Mono,Fira Code,monospace" font-size="10.00" fill="#89b4fa">host_api&#45;&gt;send(conn, msg_id, payload, size)</text>
<text text-anchor="middle" x="271.99" y="-473.36" font-family="JetBrains Mono,Fira Code,monospace" font-size="10.00" fill="#89b4fa">→ link plugin&#39;s per&#45;conn write queue</text>
</g>
<!-- hard -->
<g id="node2" class="node">
<title>hard</title>
<polygon fill="#45475a" stroke="#f38ba8" stroke-width="1.2" points="271.99,-396.85 0,-378.85 271.99,-360.85 543.99,-378.85 271.99,-396.85"/>
<text text-anchor="middle" x="271.99" y="-376.67" font-family="JetBrains Mono,Fira Code,monospace" font-size="9.00" fill="#f38ba8">bytes_buffered + size &gt; pending_queue_bytes_hard ?</text>
</g>
<!-- send&#45;&gt;hard -->
<g id="edge1" class="edge">
<title>send&#45;&gt;hard</title>
<path fill="none" stroke="#585b70" d="M271.99,-455.32C271.99,-440.03 271.99,-420.88 271.99,-405.7"/>
<polygon fill="#585b70" stroke="#585b70" points="274.44,-405.79 271.99,-398.79 269.54,-405.79 274.44,-405.79"/>
</g>
<!-- reject -->
<g id="node3" class="node">
<title>reject</title>
<ellipse fill="#45475a" stroke="#f38ba8" stroke-width="1.2" cx="205.99" cy="-259.07" rx="115.51" ry="26.18"/>
<text text-anchor="middle" x="205.99" y="-263.27" font-family="JetBrains Mono,Fira Code,monospace" font-size="9.00" fill="#f38ba8">return GN_ERR_LIMIT_REACHED</text>
<text text-anchor="middle" x="205.99" y="-250.52" font-family="JetBrains Mono,Fira Code,monospace" font-size="9.00" fill="#f38ba8">(hard&#45;cap reject)</text>
</g>
<!-- hard&#45;&gt;reject -->
<g id="edge2" class="edge">
<title>hard&#45;&gt;reject</title>
<path fill="none" stroke="#f38ba8" d="M262.54,-360.97C252.55,-343.14 236.55,-314.59 224.11,-292.4"/>
<polygon fill="#f38ba8" stroke="#f38ba8" points="226.35,-291.38 220.79,-286.47 222.07,-293.77 226.35,-291.38"/>
<text text-anchor="middle" x="244.89" y="-307.53" font-family="JetBrains Mono,Fira Code,monospace" font-size="9.00" fill="#f38ba8">yes</text>
</g>
<!-- enqueue -->
<g id="node4" class="node">
<title>enqueue</title>
<path fill="#45475a" stroke="#a6e3a1" stroke-width="1.2" d="M477.17,-277.58C477.17,-277.58 358.82,-277.58 358.82,-277.58 352.82,-277.58 346.82,-271.58 346.82,-265.58 346.82,-265.58 346.82,-252.56 346.82,-252.56 346.82,-246.56 352.82,-240.56 358.82,-240.56 358.82,-240.56 477.17,-240.56 477.17,-240.56 483.17,-240.56 489.17,-246.56 489.17,-252.56 489.17,-252.56 489.17,-265.58 489.17,-265.58 489.17,-271.58 483.17,-277.58 477.17,-277.58"/>
<text text-anchor="middle" x="417.99" y="-263.27" font-family="JetBrains Mono,Fira Code,monospace" font-size="9.00" fill="#a6e3a1">bytes_buffered += size</text>
<text text-anchor="middle" x="417.99" y="-250.52" font-family="JetBrains Mono,Fira Code,monospace" font-size="9.00" fill="#a6e3a1">write_queue.push(bytes)</text>
</g>
<!-- hard&#45;&gt;enqueue -->
<g id="edge3" class="edge">
<title>hard&#45;&gt;enqueue</title>
<path fill="none" stroke="#a6e3a1" d="M291.99,-361.72C317.15,-341.42 360.54,-306.42 389.25,-283.26"/>
<polygon fill="#a6e3a1" stroke="#a6e3a1" points="390.77,-285.18 394.68,-278.88 387.69,-281.37 390.77,-285.18"/>
<text text-anchor="middle" x="367.61" y="-307.53" font-family="JetBrains Mono,Fira Code,monospace" font-size="9.00" fill="#a6e3a1">no</text>
</g>
<!-- soft_check -->
<g id="node5" class="node">
<title>soft_check</title>
<polygon fill="#45475a" stroke="#f9e2af" stroke-width="1.2" points="417.99,-200.81 286.14,-151.04 417.99,-101.27 549.84,-151.04 417.99,-200.81"/>
<text text-anchor="middle" x="417.99" y="-161.61" font-family="JetBrains Mono,Fira Code,monospace" font-size="9.00" fill="#f9e2af">rising edge?</text>
<text text-anchor="middle" x="417.99" y="-148.86" font-family="JetBrains Mono,Fira Code,monospace" font-size="9.00" fill="#f9e2af">!soft_signaled &amp;&amp;</text>
<text text-anchor="middle" x="417.99" y="-136.11" font-family="JetBrains Mono,Fira Code,monospace" font-size="9.00" fill="#f9e2af">bytes_buffered &gt; high</text>
</g>
<!-- enqueue&#45;&gt;soft_check -->
<g id="edge4" class="edge">
<title>enqueue&#45;&gt;soft_check</title>
<path fill="none" stroke="#585b70" d="M417.99,-240.08C417.99,-231.51 417.99,-220.74 417.99,-209.69"/>
<polygon fill="#585b70" stroke="#585b70" points="420.44,-209.73 417.99,-202.73 415.54,-209.73 420.44,-209.73"/>
</g>
<!-- fire_soft -->
<g id="node6" class="node">
<title>fire_soft</title>
<path fill="#45475a" stroke="#f9e2af" stroke-width="1.2" d="M506.04,-62.52C506.04,-62.52 329.94,-62.52 329.94,-62.52 323.94,-62.52 317.94,-56.52 317.94,-50.52 317.94,-50.52 317.94,-12 317.94,-12 317.94,-6 323.94,0 329.94,0 329.94,0 506.04,0 506.04,0 512.04,0 518.04,-6 518.04,-12 518.04,-12 518.04,-50.52 518.04,-50.52 518.04,-56.52 512.04,-62.52 506.04,-62.52"/>
<text text-anchor="middle" x="417.99" y="-48.21" font-family="JetBrains Mono,Fira Code,monospace" font-size="9.00" fill="#f9e2af">notify_backpressure(</text>
<text text-anchor="middle" x="417.99" y="-35.46" font-family="JetBrains Mono,Fira Code,monospace" font-size="9.00" fill="#f9e2af"> &#160;GN_CONN_EVENT_BACKPRESSURE_SOFT,</text>
<text text-anchor="middle" x="417.99" y="-22.71" font-family="JetBrains Mono,Fira Code,monospace" font-size="9.00" fill="#f9e2af"> &#160;pending_bytes)</text>
<text text-anchor="middle" x="417.99" y="-9.96" font-family="JetBrains Mono,Fira Code,monospace" font-size="9.00" fill="#f9e2af">soft_signaled = true</text>
</g>
<!-- soft_check&#45;&gt;fire_soft -->
<g id="edge5" class="edge">
<title>soft_check&#45;&gt;fire_soft</title>
<path fill="none" stroke="#f9e2af" d="M417.99,-100.77C417.99,-90.93 417.99,-80.71 417.99,-71.27"/>
<polygon fill="#f9e2af" stroke="#f9e2af" points="420.44,-71.36 417.99,-64.36 415.54,-71.36 420.44,-71.36"/>
<text text-anchor="middle" x="425.87" y="-79.72" font-family="JetBrains Mono,Fira Code,monospace" font-size="9.00" fill="#f9e2af">yes</text>
</g>
<!-- drain -->
<g id="node7" class="node">
<title>drain</title>
<path fill="#45475a" stroke="#cba6f7" stroke-width="1.2" d="M826.42,-501.37C826.42,-501.37 697.57,-501.37 697.57,-501.37 691.57,-501.37 685.57,-495.37 685.57,-489.37 685.57,-489.37 685.57,-476.35 685.57,-476.35 685.57,-470.35 691.57,-464.35 697.57,-464.35 697.57,-464.35 826.42,-464.35 826.42,-464.35 832.42,-464.35 838.42,-470.35 838.42,-476.35 838.42,-476.35 838.42,-489.37 838.42,-489.37 838.42,-495.37 832.42,-501.37 826.42,-501.37"/>
<text text-anchor="middle" x="761.99" y="-487.06" font-family="JetBrains Mono,Fira Code,monospace" font-size="9.00" fill="#cba6f7">async_write completion</text>
<text text-anchor="middle" x="761.99" y="-474.31" font-family="JetBrains Mono,Fira Code,monospace" font-size="9.00" fill="#cba6f7">bytes_buffered &#45;= written</text>
</g>
<!-- clear_check -->
<g id="node8" class="node">
<title>clear_check</title>
<polygon fill="#45475a" stroke="#94e2d5" stroke-width="1.2" points="761.99,-428.62 635.39,-378.85 761.99,-329.08 888.59,-378.85 761.99,-428.62"/>
<text text-anchor="middle" x="761.99" y="-389.42" font-family="JetBrains Mono,Fira Code,monospace" font-size="9.00" fill="#94e2d5">falling edge?</text>
<text text-anchor="middle" x="761.99" y="-376.67" font-family="JetBrains Mono,Fira Code,monospace" font-size="9.00" fill="#94e2d5">soft_signaled &amp;&amp;</text>
<text text-anchor="middle" x="761.99" y="-363.92" font-family="JetBrains Mono,Fira Code,monospace" font-size="9.00" fill="#94e2d5">bytes_buffered &lt; low</text>
</g>
<!-- drain&#45;&gt;clear_check -->
<g id="edge6" class="edge">
<title>drain&#45;&gt;clear_check</title>
<path fill="none" stroke="#585b70" d="M761.99,-464.09C761.99,-456.42 761.99,-446.97 761.99,-437.21"/>
<polygon fill="#585b70" stroke="#585b70" points="764.44,-437.48 761.99,-430.48 759.54,-437.48 764.44,-437.48"/>
</g>
<!-- fire_clear -->
<g id="node9" class="node">
<title>fire_clear</title>
<path fill="#45475a" stroke="#94e2d5" stroke-width="1.2" d="M852.67,-290.33C852.67,-290.33 671.32,-290.33 671.32,-290.33 665.32,-290.33 659.32,-284.33 659.32,-278.33 659.32,-278.33 659.32,-239.81 659.32,-239.81 659.32,-233.81 665.32,-227.81 671.32,-227.81 671.32,-227.81 852.67,-227.81 852.67,-227.81 858.67,-227.81 864.67,-233.81 864.67,-239.81 864.67,-239.81 864.67,-278.33 864.67,-278.33 864.67,-284.33 858.67,-290.33 852.67,-290.33"/>
<text text-anchor="middle" x="761.99" y="-276.02" font-family="JetBrains Mono,Fira Code,monospace" font-size="9.00" fill="#94e2d5">notify_backpressure(</text>
<text text-anchor="middle" x="761.99" y="-263.27" font-family="JetBrains Mono,Fira Code,monospace" font-size="9.00" fill="#94e2d5"> &#160;GN_CONN_EVENT_BACKPRESSURE_CLEAR,</text>
<text text-anchor="middle" x="761.99" y="-250.52" font-family="JetBrains Mono,Fira Code,monospace" font-size="9.00" fill="#94e2d5"> &#160;pending_bytes)</text>
<text text-anchor="middle" x="761.99" y="-237.77" font-family="JetBrains Mono,Fira Code,monospace" font-size="9.00" fill="#94e2d5">soft_signaled = false</text>
</g>
<!-- clear_check&#45;&gt;fire_clear -->
<g id="edge7" class="edge">
<title>clear_check&#45;&gt;fire_clear</title>
<path fill="none" stroke="#94e2d5" d="M761.99,-328.58C761.99,-318.74 761.99,-308.52 761.99,-299.08"/>
<polygon fill="#94e2d5" stroke="#94e2d5" points="764.44,-299.17 761.99,-292.17 759.54,-299.17 764.44,-299.17"/>
<text text-anchor="middle" x="769.87" y="-307.53" font-family="JetBrains Mono,Fira Code,monospace" font-size="9.00" fill="#94e2d5">yes</text>
</g>
<!-- trio -->
<g id="node10" class="node">
<title>trio</title>
<polygon fill="#181825" stroke="#585b70" stroke-width="1.2" points="863.92,-188.67 654.07,-188.67 654.07,-113.41 869.92,-113.41 869.92,-182.67 863.92,-188.67"/>
<polyline fill="none" stroke="#585b70" stroke-width="1.2" points="863.92,-188.67 863.92,-182.67"/>
<polyline fill="none" stroke="#585b70" stroke-width="1.2" points="869.92,-182.67 863.92,-182.67"/>
<text text-anchor="middle" x="761.99" y="-174.36" font-family="JetBrains Mono,Fira Code,monospace" font-size="9.00" fill="#585b70">Watermarks (gn_limits_t):</text>
<text text-anchor="middle" x="761.99" y="-161.61" font-family="JetBrains Mono,Fira Code,monospace" font-size="9.00" fill="#585b70"> &#160;pending_queue_bytes_low &#160;&#160;= 256 KiB</text>
<text text-anchor="middle" x="761.99" y="-148.86" font-family="JetBrains Mono,Fira Code,monospace" font-size="9.00" fill="#585b70"> &#160;pending_queue_bytes_high &#160;= 1 MiB</text>
<text text-anchor="middle" x="761.99" y="-136.11" font-family="JetBrains Mono,Fira Code,monospace" font-size="9.00" fill="#585b70"> &#160;pending_queue_bytes_hard &#160;= 4 MiB</text>
<text text-anchor="middle" x="761.99" y="-123.36" font-family="JetBrains Mono,Fira Code,monospace" font-size="9.00" fill="#585b70">Invariant: 0 &lt; low &lt; high ≤ hard</text>
</g>
<!-- fire_clear&#45;&gt;trio -->
</g>
</svg>
