<?xml version="1.0" encoding="UTF-8" standalone="no"?>
<!DOCTYPE svg PUBLIC "-//W3C//DTD SVG 1.1//EN"
 "http://www.w3.org/Graphics/SVG/1.1/DTD/svg11.dtd">
<!-- Generated by graphviz version 12.2.1 (0)
 -->
<!-- Title: composer_extension Pages: 1 -->
<svg width="1348pt" height="410pt"
 viewBox="0.00 0.00 1348.25 410.00" xmlns="http://www.w3.org/2000/svg" xmlns:xlink="http://www.w3.org/1999/xlink">
<g id="graph0" class="graph" transform="scale(1 1) rotate(0) translate(28.8 381.19)">
<title>composer_extension</title>
<polygon fill="#1e1e2e" stroke="none" points="-28.8,28.8 -28.8,-381.19 1319.45,-381.19 1319.45,28.8 -28.8,28.8"/>
<!-- plugin -->
<g id="node1" class="node">
<title>plugin</title>
<polygon fill="#45475a" stroke="#a6e3a1" stroke-width="1.2" points="279.6,-208.89 0,-208.89 0,-156.88 279.6,-156.88 279.6,-208.89"/>
<text text-anchor="middle" x="139.8" y="-193.63" font-family="JetBrains Mono,Fira Code,monospace" font-size="10.00" fill="#a6e3a1">Link plugin (e.g. gn.link.tcp, gn.link.ice)</text>
<text text-anchor="middle" x="139.8" y="-180.13" font-family="JetBrains Mono,Fira Code,monospace" font-size="10.00" fill="#a6e3a1">exports composer surface through</text>
<text text-anchor="middle" x="139.8" y="-166.63" font-family="JetBrains Mono,Fira Code,monospace" font-size="10.00" fill="#a6e3a1">the extension vtable (gn_link_api_s)</text>
</g>
<!-- composer_listen -->
<g id="node2" class="node">
<title>composer_listen</title>
<polygon fill="#45475a" stroke="#89b4fa" stroke-width="1.2" points="546.95,-352.39 341.6,-352.39 341.6,-315.38 546.95,-315.38 546.95,-352.39"/>
<text text-anchor="middle" x="444.27" y="-338.08" font-family="JetBrains Mono,Fira Code,monospace" font-size="9.00" fill="#89b4fa">composer_listen</text>
<text text-anchor="middle" x="444.27" y="-325.33" font-family="JetBrains Mono,Fira Code,monospace" font-size="9.00" fill="#89b4fa">open a server&#45;side socket for a uri</text>
</g>
<!-- plugin&#45;&gt;composer_listen -->
<g id="edge1" class="edge">
<title>plugin&#45;&gt;composer_listen</title>
<path fill="none" stroke="#585b70" d="M173.72,-209.16C208.43,-235.7 265.58,-276.2 320.6,-300.88 330.14,-305.17 340.36,-308.99 350.67,-312.39"/>
<polygon fill="#585b70" stroke="#585b70" points="349.71,-314.65 357.12,-314.44 351.19,-309.98 349.71,-314.65"/>
</g>
<!-- composer_connect -->
<g id="node3" class="node">
<title>composer_connect</title>
<polygon fill="#45475a" stroke="#89b4fa" stroke-width="1.2" points="567.95,-286.77 320.6,-286.77 320.6,-237 567.95,-237 567.95,-286.77"/>
<text text-anchor="middle" x="444.27" y="-272.46" font-family="JetBrains Mono,Fira Code,monospace" font-size="9.00" fill="#89b4fa">composer_connect</text>
<text text-anchor="middle" x="444.27" y="-259.71" font-family="JetBrains Mono,Fira Code,monospace" font-size="9.00" fill="#89b4fa">open a client&#45;side socket; conn&#45;id returned</text>
<text text-anchor="middle" x="444.27" y="-246.96" font-family="JetBrains Mono,Fira Code,monospace" font-size="9.00" fill="#89b4fa">with kComposerIdBit (bit&#45;63) set</text>
</g>
<!-- plugin&#45;&gt;composer_connect -->
<g id="edge2" class="edge">
<title>plugin&#45;&gt;composer_connect</title>
<path fill="none" stroke="#585b70" d="M241.94,-209.3C272.97,-217.41 307.18,-226.34 338.45,-234.51"/>
<polygon fill="#585b70" stroke="#585b70" points="337.48,-236.78 344.87,-236.18 338.71,-232.04 337.48,-236.78"/>
</g>
<!-- composer_subscribe_data -->
<g id="node4" class="node">
<title>composer_subscribe_data</title>
<polygon fill="#45475a" stroke="#89b4fa" stroke-width="1.2" points="546.95,-207.77 341.6,-207.77 341.6,-158 546.95,-158 546.95,-207.77"/>
<text text-anchor="middle" x="444.27" y="-193.46" font-family="JetBrains Mono,Fira Code,monospace" font-size="9.00" fill="#89b4fa">composer_subscribe_data</text>
<text text-anchor="middle" x="444.27" y="-180.71" font-family="JetBrains Mono,Fira Code,monospace" font-size="9.00" fill="#89b4fa">register per&#45;conn inbound callback;</text>
<text text-anchor="middle" x="444.27" y="-167.96" font-family="JetBrains Mono,Fira Code,monospace" font-size="9.00" fill="#89b4fa">kernel routes by conn&#45;id top&#45;bit</text>
</g>
<!-- plugin&#45;&gt;composer_subscribe_data -->
<g id="edge3" class="edge">
<title>plugin&#45;&gt;composer_subscribe_data</title>
<path fill="none" stroke="#585b70" d="M280.09,-182.88C297.81,-182.88 315.75,-182.88 332.93,-182.88"/>
<polygon fill="#585b70" stroke="#585b70" points="332.78,-185.34 339.78,-182.89 332.78,-180.44 332.78,-185.34"/>
</g>
<!-- composer_subscribe_accept -->
<g id="node5" class="node">
<title>composer_subscribe_accept</title>
<polygon fill="#45475a" stroke="#89b4fa" stroke-width="1.2" points="554.82,-128.77 333.72,-128.77 333.72,-79 554.82,-79 554.82,-128.77"/>
<text text-anchor="middle" x="444.27" y="-114.46" font-family="JetBrains Mono,Fira Code,monospace" font-size="9.00" fill="#89b4fa">composer_subscribe_accept</text>
<text text-anchor="middle" x="444.27" y="-101.71" font-family="JetBrains Mono,Fira Code,monospace" font-size="9.00" fill="#89b4fa">register accept&#45;bus callback;</text>
<text text-anchor="middle" x="444.27" y="-88.96" font-family="JetBrains Mono,Fira Code,monospace" font-size="9.00" fill="#89b4fa">fired when peer connects to a listener</text>
</g>
<!-- plugin&#45;&gt;composer_subscribe_accept -->
<g id="edge4" class="edge">
<title>plugin&#45;&gt;composer_subscribe_accept</title>
<path fill="none" stroke="#585b70" d="M241.94,-156.47C272.97,-148.36 307.18,-139.43 338.45,-131.26"/>
<polygon fill="#585b70" stroke="#585b70" points="338.71,-133.73 344.87,-129.59 337.48,-128.99 338.71,-133.73"/>
</g>
<!-- composer_listen_port -->
<g id="node6" class="node">
<title>composer_listen_port</title>
<polygon fill="#45475a" stroke="#89b4fa" stroke-width="1.2" points="541.7,-49.77 346.85,-49.77 346.85,0 541.7,0 541.7,-49.77"/>
<text text-anchor="middle" x="444.27" y="-35.46" font-family="JetBrains Mono,Fira Code,monospace" font-size="9.00" fill="#89b4fa">composer_listen_port</text>
<text text-anchor="middle" x="444.27" y="-22.71" font-family="JetBrains Mono,Fira Code,monospace" font-size="9.00" fill="#89b4fa">introspect the ephemeral port the</text>
<text text-anchor="middle" x="444.27" y="-9.96" font-family="JetBrains Mono,Fira Code,monospace" font-size="9.00" fill="#89b4fa">listen socket was bound to</text>
</g>
<!-- plugin&#45;&gt;composer_listen_port -->
<g id="edge5" class="edge">
<title>plugin&#45;&gt;composer_listen_port</title>
<path fill="none" stroke="#585b70" d="M174.97,-156.47C209.98,-130.39 266.76,-90.76 320.6,-64.88 329.28,-60.72 338.5,-56.82 347.83,-53.22"/>
<polygon fill="#585b70" stroke="#585b70" points="348.58,-55.56 354.27,-50.8 346.86,-50.97 348.58,-55.56"/>
</g>
<!-- dispatch -->
<g id="node7" class="node">
<title>dispatch</title>
<polygon fill="#45475a" stroke="#b4befe" stroke-width="1.2" points="934.05,-180.52 665.7,-180.52 665.7,-105.25 934.05,-105.25 934.05,-180.52"/>
<text text-anchor="middle" x="799.87" y="-166.21" font-family="JetBrains Mono,Fira Code,monospace" font-size="9.00" fill="#b4befe">Inbound dispatch</text>
<text text-anchor="middle" x="799.87" y="-153.46" font-family="JetBrains Mono,Fira Code,monospace" font-size="9.00" fill="#b4befe"> &#160;· conn&#45;id bit&#45;63 set?</text>
<text text-anchor="middle" x="799.87" y="-140.71" font-family="JetBrains Mono,Fira Code,monospace" font-size="9.00" fill="#b4befe"> &#160;&#160;&#160;&#160;&#160;→ composer fan&#45;out (plugin&#39;s per&#45;cid map)</text>
<text text-anchor="middle" x="799.87" y="-127.96" font-family="JetBrains Mono,Fira Code,monospace" font-size="9.00" fill="#b4befe"> &#160;· clear?</text>
<text text-anchor="middle" x="799.87" y="-115.21" font-family="JetBrains Mono,Fira Code,monospace" font-size="9.00" fill="#b4befe"> &#160;&#160;&#160;&#160;&#160;→ kernel registry / gn_handler_vtable</text>
</g>
<!-- composer_subscribe_data&#45;&gt;dispatch -->
<g id="edge6" class="edge">
<title>composer_subscribe_data&#45;&gt;dispatch</title>
<path fill="none" stroke="#94e2d5" d="M547.08,-171.37C581.31,-167.5 620.16,-163.1 656.91,-158.94"/>
<polygon fill="#94e2d5" stroke="#94e2d5" points="657.02,-161.4 663.7,-158.18 656.47,-156.53 657.02,-161.4"/>
<text text-anchor="middle" x="616.82" y="-170.67" font-family="JetBrains Mono,Fira Code,monospace" font-size="9.00" fill="#585b70">data path</text>
</g>
<!-- composer_subscribe_accept&#45;&gt;dispatch -->
<g id="edge7" class="edge">
<title>composer_subscribe_accept&#45;&gt;dispatch</title>
<path fill="none" stroke="#94e2d5" d="M555.22,-116.01C587.5,-119.57 623.27,-123.52 657.24,-127.26"/>
<polygon fill="#94e2d5" stroke="#94e2d5" points="656.64,-129.66 663.86,-127.99 657.17,-124.79 656.64,-129.66"/>
<text text-anchor="middle" x="616.82" y="-129.92" font-family="JetBrains Mono,Fira Code,monospace" font-size="9.00" fill="#585b70">accept path</text>
</g>
<!-- note -->
<g id="node8" class="node">
<title>note</title>
<polygon fill="#181825" stroke="#585b70" stroke-width="1.2" points="1284.65,-180.52 975.05,-180.52 975.05,-105.25 1290.65,-105.25 1290.65,-174.52 1284.65,-180.52"/>
<polyline fill="none" stroke="#585b70" stroke-width="1.2" points="1284.65,-180.52 1284.65,-174.52"/>
<polyline fill="none" stroke="#585b70" stroke-width="1.2" points="1290.65,-174.52 1284.65,-174.52"/>
<text text-anchor="middle" x="1132.85" y="-166.21" font-family="JetBrains Mono,Fira Code,monospace" font-size="9.00" fill="#585b70">Why bit&#45;63?</text>
<text text-anchor="middle" x="1132.85" y="-153.46" font-family="JetBrains Mono,Fira Code,monospace" font-size="9.00" fill="#585b70"> &#160;· conn ids are 63&#45;bit ascending integers</text>
<text text-anchor="middle" x="1132.85" y="-140.71" font-family="JetBrains Mono,Fira Code,monospace" font-size="9.00" fill="#585b70"> &#160;&#160;&#160;(top bit was always zero before the composer landed)</text>
<text text-anchor="middle" x="1132.85" y="-127.96" font-family="JetBrains Mono,Fira Code,monospace" font-size="9.00" fill="#585b70"> &#160;· kComposerIdBit gives a no&#45;cost discriminator without</text>
<text text-anchor="middle" x="1132.85" y="-115.21" font-family="JetBrains Mono,Fira Code,monospace" font-size="9.00" fill="#585b70"> &#160;&#160;&#160;growing host_api_t with a parallel registry</text>
</g>
<!-- dispatch&#45;&gt;note -->
</g>
</svg>
