<?xml version="1.0" encoding="UTF-8" standalone="no"?>
<!DOCTYPE svg PUBLIC "-//W3C//DTD SVG 1.1//EN"
 "http://www.w3.org/Graphics/SVG/1.1/DTD/svg11.dtd">
<!-- Generated by graphviz version 12.2.1 (0)
 -->
<!-- Title: connection_lifecycle Pages: 1 -->
<svg width="588pt" height="963pt"
 viewBox="0.00 0.00 588.27 962.92" xmlns="http://www.w3.org/2000/svg" xmlns:xlink="http://www.w3.org/1999/xlink">
<g id="graph0" class="graph" transform="scale(1 1) rotate(0) translate(28.8 934.12)">
<title>connection_lifecycle</title>
<polygon fill="#1e1e2e" stroke="none" points="-28.8,28.8 -28.8,-934.12 559.47,-934.12 559.47,28.8 -28.8,28.8"/>
<!-- dial -->
<g id="node1" class="node">
<title>dial</title>
<ellipse fill="#45475a" stroke="#89b4fa" stroke-width="1.2" cx="375.17" cy="-878.08" rx="91.64" ry="27.24"/>
<text text-anchor="middle" x="375.17" y="-882.08" font-family="JetBrains Mono,Fira Code,monospace" font-size="10.00" fill="#89b4fa">Plugin / app dial</text>
<text text-anchor="middle" x="375.17" y="-868.58" font-family="JetBrains Mono,Fira Code,monospace" font-size="10.00" fill="#89b4fa">scheme://host:port</text>
</g>
<!-- link -->
<g id="node2" class="node">
<title>link</title>
<path fill="#45475a" stroke="#a6e3a1" stroke-width="1.2" d="M492.09,-823.84C492.09,-823.84 258.24,-823.84 258.24,-823.84 252.24,-823.84 246.24,-817.84 246.24,-811.84 246.24,-811.84 246.24,-760.57 246.24,-760.57 246.24,-754.57 252.24,-748.57 258.24,-748.57 258.24,-748.57 492.09,-748.57 492.09,-748.57 498.09,-748.57 504.09,-754.57 504.09,-760.57 504.09,-760.57 504.09,-811.84 504.09,-811.84 504.09,-817.84 498.09,-823.84 492.09,-823.84"/>
<text text-anchor="middle" x="375.17" y="-809.53" font-family="JetBrains Mono,Fira Code,monospace" font-size="9.00" fill="#a6e3a1">Link plugin (scheme owner)</text>
<text text-anchor="middle" x="375.17" y="-796.78" font-family="JetBrains Mono,Fira Code,monospace" font-size="9.00" fill="#a6e3a1">opens transport socket</text>
<text text-anchor="middle" x="375.17" y="-784.03" font-family="JetBrains Mono,Fira Code,monospace" font-size="9.00" fill="#a6e3a1">computes TrustClass from observable</text>
<text text-anchor="middle" x="375.17" y="-771.28" font-family="JetBrains Mono,Fira Code,monospace" font-size="9.00" fill="#a6e3a1">(public IP → Untrusted; 127.0.0.1 → Loopback;</text>
<text text-anchor="middle" x="375.17" y="-758.53" font-family="JetBrains Mono,Fira Code,monospace" font-size="9.00" fill="#a6e3a1"> IPC → Loopback; intra&#45;process → IntraNode)</text>
</g>
<!-- dial&#45;&gt;link -->
<g id="edge1" class="edge">
<title>dial&#45;&gt;link</title>
<path fill="none" stroke="#585b70" d="M375.17,-850.6C375.17,-844.91 375.17,-838.73 375.17,-832.55"/>
<polygon fill="#585b70" stroke="#585b70" points="377.62,-832.67 375.17,-825.67 372.72,-832.67 377.62,-832.67"/>
</g>
<!-- notify_connect -->
<g id="node3" class="node">
<title>notify_connect</title>
<path fill="#45475a" stroke="#89b4fa" stroke-width="1.2" d="M484.22,-721.57C484.22,-721.57 266.12,-721.57 266.12,-721.57 260.12,-721.57 254.12,-715.57 254.12,-709.57 254.12,-709.57 254.12,-645.55 254.12,-645.55 254.12,-639.55 260.12,-633.55 266.12,-633.55 266.12,-633.55 484.22,-633.55 484.22,-633.55 490.22,-633.55 496.22,-639.55 496.22,-645.55 496.22,-645.55 496.22,-709.57 496.22,-709.57 496.22,-715.57 490.22,-721.57 484.22,-721.57"/>
<text text-anchor="middle" x="375.17" y="-707.26" font-family="JetBrains Mono,Fira Code,monospace" font-size="9.00" fill="#89b4fa">host_api&#45;&gt;notify_connect(</text>
<text text-anchor="middle" x="375.17" y="-694.51" font-family="JetBrains Mono,Fira Code,monospace" font-size="9.00" fill="#89b4fa"> &#160;remote_pk, uri, trust, role,</text>
<text text-anchor="middle" x="375.17" y="-681.76" font-family="JetBrains Mono,Fira Code,monospace" font-size="9.00" fill="#89b4fa"> &#160;&amp;out_conn)</text>
<text text-anchor="middle" x="375.17" y="-669.01" font-family="JetBrains Mono,Fira Code,monospace" font-size="9.00" fill="#89b4fa">kernel allocates conn id</text>
<text text-anchor="middle" x="375.17" y="-656.26" font-family="JetBrains Mono,Fira Code,monospace" font-size="9.00" fill="#89b4fa">creates SecuritySession in Handshake phase</text>
<text text-anchor="middle" x="375.17" y="-643.51" font-family="JetBrains Mono,Fira Code,monospace" font-size="9.00" fill="#89b4fa">fires CONNECTED event</text>
</g>
<!-- link&#45;&gt;notify_connect -->
<g id="edge2" class="edge">
<title>link&#45;&gt;notify_connect</title>
<path fill="none" stroke="#585b70" d="M375.17,-748.21C375.17,-742.34 375.17,-736.17 375.17,-730.04"/>
<polygon fill="#585b70" stroke="#585b70" points="377.62,-730.24 375.17,-723.24 372.72,-730.24 377.62,-730.24"/>
</g>
<!-- kick -->
<g id="node4" class="node">
<title>kick</title>
<path fill="#45475a" stroke="#b4befe" stroke-width="1.2" d="M494.72,-606.55C494.72,-606.55 255.62,-606.55 255.62,-606.55 249.62,-606.55 243.62,-600.55 243.62,-594.55 243.62,-594.55 243.62,-568.78 243.62,-568.78 243.62,-562.78 249.62,-556.78 255.62,-556.78 255.62,-556.78 494.72,-556.78 494.72,-556.78 500.72,-556.78 506.72,-562.78 506.72,-568.78 506.72,-568.78 506.72,-594.55 506.72,-594.55 506.72,-600.55 500.72,-606.55 494.72,-606.55"/>
<text text-anchor="middle" x="375.17" y="-592.24" font-family="JetBrains Mono,Fira Code,monospace" font-size="9.00" fill="#b4befe">host_api&#45;&gt;kick_handshake(conn)</text>
<text text-anchor="middle" x="375.17" y="-579.49" font-family="JetBrains Mono,Fira Code,monospace" font-size="9.00" fill="#b4befe">drives initiator&#39;s first message</text>
<text text-anchor="middle" x="375.17" y="-566.74" font-family="JetBrains Mono,Fira Code,monospace" font-size="9.00" fill="#b4befe">(no&#45;op for responder; no&#45;op for null security)</text>
</g>
<!-- notify_connect&#45;&gt;kick -->
<g id="edge3" class="edge">
<title>notify_connect&#45;&gt;kick</title>
<path fill="none" stroke="#585b70" d="M375.17,-633.19C375.17,-627.12 375.17,-620.97 375.17,-615.15"/>
<polygon fill="#585b70" stroke="#585b70" points="377.62,-615.42 375.17,-608.42 372.72,-615.42 377.62,-615.42"/>
</g>
<!-- hs -->
<g id="node5" class="node">
<title>hs</title>
<path fill="#45475a" stroke="#94e2d5" stroke-width="1.2" d="M507.84,-529.78C507.84,-529.78 242.49,-529.78 242.49,-529.78 236.49,-529.78 230.49,-523.78 230.49,-517.78 230.49,-517.78 230.49,-492.01 230.49,-492.01 230.49,-486.01 236.49,-480.01 242.49,-480.01 242.49,-480.01 507.84,-480.01 507.84,-480.01 513.84,-480.01 519.84,-486.01 519.84,-492.01 519.84,-492.01 519.84,-517.78 519.84,-517.78 519.84,-523.78 513.84,-529.78 507.84,-529.78"/>
<text text-anchor="middle" x="375.17" y="-515.47" font-family="JetBrains Mono,Fira Code,monospace" font-size="9.00" fill="#94e2d5">Noise XX handshake over the secured channel</text>
<text text-anchor="middle" x="375.17" y="-502.72" font-family="JetBrains Mono,Fira Code,monospace" font-size="9.00" fill="#94e2d5">(security session phase: Handshake → Transport)</text>
<text text-anchor="middle" x="375.17" y="-489.97" font-family="JetBrains Mono,Fira Code,monospace" font-size="9.00" fill="#94e2d5">pending plaintexts buffered; drained post&#45;handshake</text>
</g>
<!-- kick&#45;&gt;hs -->
<g id="edge4" class="edge">
<title>kick&#45;&gt;hs</title>
<path fill="none" stroke="#585b70" d="M375.17,-556.6C375.17,-550.79 375.17,-544.48 375.17,-538.36"/>
<polygon fill="#585b70" stroke="#585b70" points="377.62,-538.69 375.17,-531.69 372.72,-538.69 377.62,-538.69"/>
</g>
<!-- attest -->
<g id="node6" class="node">
<title>attest</title>
<path fill="#45475a" stroke="#cba6f7" stroke-width="1.2" d="M411.09,-453.01C411.09,-453.01 177.24,-453.01 177.24,-453.01 171.24,-453.01 165.24,-447.01 165.24,-441.01 165.24,-441.01 165.24,-415.24 165.24,-415.24 165.24,-409.24 171.24,-403.24 177.24,-403.24 177.24,-403.24 411.09,-403.24 411.09,-403.24 417.09,-403.24 423.09,-409.24 423.09,-415.24 423.09,-415.24 423.09,-441.01 423.09,-441.01 423.09,-447.01 417.09,-453.01 411.09,-453.01"/>
<text text-anchor="middle" x="294.17" y="-438.7" font-family="JetBrains Mono,Fira Code,monospace" font-size="9.00" fill="#cba6f7">Attestation exchange (232 B per side)</text>
<text text-anchor="middle" x="294.17" y="-425.95" font-family="JetBrains Mono,Fira Code,monospace" font-size="9.00" fill="#cba6f7">AttestationDispatcher verifies remote payload</text>
<text text-anchor="middle" x="294.17" y="-413.2" font-family="JetBrains Mono,Fira Code,monospace" font-size="9.00" fill="#cba6f7">pin_device_pk on first attestation</text>
</g>
<!-- hs&#45;&gt;attest -->
<g id="edge5" class="edge">
<title>hs&#45;&gt;attest</title>
<path fill="none" stroke="#585b70" d="M349.09,-479.83C341.94,-473.23 334.09,-465.99 326.63,-459.09"/>
<polygon fill="#585b70" stroke="#585b70" points="328.39,-457.38 321.58,-454.44 325.07,-460.99 328.39,-457.38"/>
</g>
<!-- disconnect -->
<g id="node9" class="node">
<title>disconnect</title>
<path fill="#45475a" stroke="#f38ba8" stroke-width="1.2" d="M486.22,-164.79C486.22,-164.79 226.12,-164.79 226.12,-164.79 220.12,-164.79 214.12,-158.79 214.12,-152.79 214.12,-152.79 214.12,-114.27 214.12,-114.27 214.12,-108.27 220.12,-102.27 226.12,-102.27 226.12,-102.27 486.22,-102.27 486.22,-102.27 492.22,-102.27 498.22,-108.27 498.22,-114.27 498.22,-114.27 498.22,-152.79 498.22,-152.79 498.22,-158.79 492.22,-164.79 486.22,-164.79"/>
<text text-anchor="middle" x="356.17" y="-150.48" font-family="JetBrains Mono,Fira Code,monospace" font-size="9.00" fill="#f38ba8">host_api&#45;&gt;notify_disconnect(conn, reason)</text>
<text text-anchor="middle" x="356.17" y="-137.73" font-family="JetBrains Mono,Fira Code,monospace" font-size="9.00" fill="#f38ba8">atomic snapshot&#45;and&#45;erase from registry</text>
<text text-anchor="middle" x="356.17" y="-124.98" font-family="JetBrains Mono,Fira Code,monospace" font-size="9.00" fill="#f38ba8">DISCONNECTED event fired with payload</text>
<text text-anchor="middle" x="356.17" y="-112.23" font-family="JetBrains Mono,Fira Code,monospace" font-size="9.00" fill="#f38ba8">security session destroyed; pending queues cleared</text>
</g>
<!-- hs&#45;&gt;disconnect -->
<g id="edge9" class="edge">
<title>hs&#45;&gt;disconnect</title>
<path fill="none" stroke="#f38ba8" stroke-dasharray="5,2" d="M424.29,-479.69C441.75,-467.41 457.17,-450.51 457.17,-429.13 457.17,-429.13 457.17,-429.13 457.17,-215.67 457.17,-197.24 446.82,-182.3 432.74,-170.49"/>
<polygon fill="#f38ba8" stroke="#f38ba8" points="434.27,-168.57 427.24,-166.22 431.26,-172.44 434.27,-168.57"/>
<text text-anchor="middle" x="493.92" y="-320.23" font-family="JetBrains Mono,Fira Code,monospace" font-size="9.00" fill="#585b70">handshake fail</text>
</g>
<!-- upgraded -->
<g id="node7" class="node">
<title>upgraded</title>
<polygon fill="#45475a" stroke="#a6e3a1" stroke-width="1.2" points="318.34,-306.62 318.34,-338.18 226.27,-360.49 96.07,-360.49 4,-338.18 4,-306.62 96.07,-284.31 226.27,-284.31 318.34,-306.62"/>
<polygon fill="none" stroke="#a6e3a1" stroke-width="1.2" points="322.34,-303.48 322.34,-341.33 226.75,-364.49 95.59,-364.49 0,-341.33 0,-303.48 95.59,-280.31 226.75,-280.31 322.34,-303.48"/>
<text text-anchor="middle" x="161.17" y="-332.98" font-family="JetBrains Mono,Fira Code,monospace" font-size="9.00" fill="#a6e3a1">Trust upgraded: Untrusted → Peer</text>
<text text-anchor="middle" x="161.17" y="-320.23" font-family="JetBrains Mono,Fira Code,monospace" font-size="9.00" fill="#a6e3a1">TRUST_UPGRADED event fired</text>
<text text-anchor="middle" x="161.17" y="-307.48" font-family="JetBrains Mono,Fira Code,monospace" font-size="9.00" fill="#a6e3a1">endpoint.trust now reflects upgrade</text>
</g>
<!-- attest&#45;&gt;upgraded -->
<g id="edge6" class="edge">
<title>attest&#45;&gt;upgraded</title>
<path fill="none" stroke="#a6e3a1" d="M262.99,-402.81C250.4,-393 235.44,-381.33 220.91,-370"/>
<polygon fill="#a6e3a1" stroke="#a6e3a1" points="222.5,-368.13 215.47,-365.76 219.49,-371.99 222.5,-368.13"/>
<text text-anchor="middle" x="264.49" y="-381.69" font-family="JetBrains Mono,Fira Code,monospace" font-size="9.00" fill="#585b70">verified</text>
</g>
<!-- attest&#45;&gt;disconnect -->
<g id="edge10" class="edge">
<title>attest&#45;&gt;disconnect</title>
<path fill="none" stroke="#f38ba8" stroke-dasharray="5,2" d="M312.91,-402.86C320.5,-391.76 328.54,-378.08 333.17,-364.49 355.09,-300.14 358.07,-220.22 357.58,-173.54"/>
<polygon fill="#f38ba8" stroke="#f38ba8" points="360.03,-173.7 357.47,-166.74 355.13,-173.77 360.03,-173.7"/>
<text text-anchor="middle" x="396.45" y="-258.76" font-family="JetBrains Mono,Fira Code,monospace" font-size="9.00" fill="#585b70">attestation fail</text>
</g>
<!-- steady -->
<g id="node8" class="node">
<title>steady</title>
<path fill="#45475a" stroke="#f9e2af" stroke-width="1.2" d="M309.34,-241.56C309.34,-241.56 22.99,-241.56 22.99,-241.56 16.99,-241.56 10.99,-235.56 10.99,-229.56 10.99,-229.56 10.99,-203.79 10.99,-203.79 10.99,-197.79 16.99,-191.79 22.99,-191.79 22.99,-191.79 309.34,-191.79 309.34,-191.79 315.34,-191.79 321.34,-197.79 321.34,-203.79 321.34,-203.79 321.34,-229.56 321.34,-229.56 321.34,-235.56 315.34,-241.56 309.34,-241.56"/>
<text text-anchor="middle" x="166.17" y="-227.25" font-family="JetBrains Mono,Fira Code,monospace" font-size="9.00" fill="#f9e2af">Steady state:</text>
<text text-anchor="middle" x="166.17" y="-214.5" font-family="JetBrains Mono,Fira Code,monospace" font-size="9.00" fill="#f9e2af"> &#160;inbound &#160;bytes → decrypt → deframe → dispatch</text>
<text text-anchor="middle" x="166.17" y="-201.75" font-family="JetBrains Mono,Fira Code,monospace" font-size="9.00" fill="#f9e2af"> &#160;outbound send &#160;→ frame → encrypt → write queue → wire</text>
</g>
<!-- upgraded&#45;&gt;steady -->
<g id="edge7" class="edge">
<title>upgraded&#45;&gt;steady</title>
<path fill="none" stroke="#a6e3a1" d="M163.17,-279.81C163.65,-269.97 164.15,-259.62 164.6,-250.25"/>
<polygon fill="#a6e3a1" stroke="#a6e3a1" points="167.03,-250.58 164.92,-243.47 162.14,-250.34 167.03,-250.58"/>
</g>
<!-- steady&#45;&gt;disconnect -->
<g id="edge8" class="edge">
<title>steady&#45;&gt;disconnect</title>
<path fill="none" stroke="#f38ba8" d="M223.17,-191.33C240.01,-184.14 258.75,-176.14 276.72,-168.46"/>
<polygon fill="#f38ba8" stroke="#f38ba8" points="277.5,-170.79 282.98,-165.79 275.58,-166.28 277.5,-170.79"/>
</g>
<!-- multipath_note -->
<g id="node10" class="node">
<title>multipath_note</title>
<polygon fill="#181825" stroke="#585b70" stroke-width="1.2" points="502.72,-75.27 203.62,-75.27 203.62,0 508.72,0 508.72,-69.27 502.72,-75.27"/>
<polyline fill="none" stroke="#585b70" stroke-width="1.2" points="502.72,-75.27 502.72,-69.27"/>
<polyline fill="none" stroke="#585b70" stroke-width="1.2" points="508.72,-69.27 502.72,-69.27"/>
<text text-anchor="middle" x="356.17" y="-60.96" font-family="JetBrains Mono,Fira Code,monospace" font-size="9.00" fill="#585b70">Multi&#45;path semantics:</text>
<text text-anchor="middle" x="356.17" y="-48.21" font-family="JetBrains Mono,Fira Code,monospace" font-size="9.00" fill="#585b70"> &#160;sequential switch — dial new conn, disconnect old</text>
<text text-anchor="middle" x="356.17" y="-35.46" font-family="JetBrains Mono,Fira Code,monospace" font-size="9.00" fill="#585b70"> &#160;NOT aggregation. Kernel does not own path selection;</text>
<text text-anchor="middle" x="356.17" y="-22.71" font-family="JetBrains Mono,Fira Code,monospace" font-size="9.00" fill="#585b70"> &#160;any optimiser is a plugin coordinating via</text>
<text text-anchor="middle" x="356.17" y="-9.96" font-family="JetBrains Mono,Fira Code,monospace" font-size="9.00" fill="#585b70"> &#160;ExtensionRegistry.</text>
</g>
<!-- disconnect&#45;&gt;multipath_note -->
</g>
</svg>
