<?xml version="1.0" encoding="UTF-8" standalone="no"?>
<!DOCTYPE svg PUBLIC "-//W3C//DTD SVG 1.1//EN"
 "http://www.w3.org/Graphics/SVG/1.1/DTD/svg11.dtd">
<!-- Generated by graphviz version 12.2.1 (0)
 -->
<!-- Title: conn_fsm Pages: 1 -->
<svg width="1377pt" height="276pt"
 viewBox="0.00 0.00 1376.79 275.60" xmlns="http://www.w3.org/2000/svg" xmlns:xlink="http://www.w3.org/1999/xlink">
<g id="graph0" class="graph" transform="scale(1 1) rotate(0) translate(28.8 246.8)">
<title>conn_fsm</title>
<polygon fill="#1e1e2e" stroke="none" points="-28.8,28.8 -28.8,-246.8 1347.99,-246.8 1347.99,28.8 -28.8,28.8"/>
<!-- NotifyConnect -->
<g id="node1" class="node">
<title>NotifyConnect</title>
<path fill="#45475a" stroke="#89b4fa" stroke-width="1.2" d="M87.6,-42C87.6,-42 12,-42 12,-42 6,-42 0,-36 0,-30 0,-30 0,-18 0,-18 0,-12 6,-6 12,-6 12,-6 87.6,-6 87.6,-6 93.6,-6 99.6,-12 99.6,-18 99.6,-18 99.6,-30 99.6,-30 99.6,-36 93.6,-42 87.6,-42"/>
<text text-anchor="middle" x="49.8" y="-21.25" font-family="JetBrains Mono,Fira Code,monospace" font-size="10.00" fill="#89b4fa">NotifyConnect</text>
</g>
<!-- Handshake -->
<g id="node2" class="node">
<title>Handshake</title>
<path fill="#45475a" stroke="#b4befe" stroke-width="1.2" d="M293.7,-80C293.7,-80 242.1,-80 242.1,-80 236.1,-80 230.1,-74 230.1,-68 230.1,-68 230.1,-56 230.1,-56 230.1,-50 236.1,-44 242.1,-44 242.1,-44 293.7,-44 293.7,-44 299.7,-44 305.7,-50 305.7,-56 305.7,-56 305.7,-68 305.7,-68 305.7,-74 299.7,-80 293.7,-80"/>
<text text-anchor="middle" x="267.9" y="-59.25" font-family="JetBrains Mono,Fira Code,monospace" font-size="10.00" fill="#b4befe">Handshake</text>
</g>
<!-- NotifyConnect&#45;&gt;Handshake -->
<g id="edge1" class="edge">
<title>NotifyConnect&#45;&gt;Handshake</title>
<path fill="none" stroke="#585b70" d="M99.84,-32.62C136.38,-39.05 185.92,-47.76 221.55,-54.03"/>
<polygon fill="#585b70" stroke="#585b70" points="221.03,-56.42 228.35,-55.22 221.88,-51.6 221.03,-56.42"/>
<text text-anchor="middle" x="164.85" y="-68.76" font-family="JetBrains Mono,Fira Code,monospace" font-size="9.00" fill="#585b70">security session</text>
<text text-anchor="middle" x="164.85" y="-56.01" font-family="JetBrains Mono,Fira Code,monospace" font-size="9.00" fill="#585b70">in Handshake phase</text>
</g>
<!-- Disconnected -->
<g id="node5" class="node">
<title>Disconnected</title>
<path fill="#45475a" stroke="#f38ba8" stroke-width="1.2" d="M1012.34,-113C1012.34,-113 942.74,-113 942.74,-113 936.74,-113 930.74,-107 930.74,-101 930.74,-101 930.74,-89 930.74,-89 930.74,-83 936.74,-77 942.74,-77 942.74,-77 1012.34,-77 1012.34,-77 1018.34,-77 1024.34,-83 1024.34,-89 1024.34,-89 1024.34,-101 1024.34,-101 1024.34,-107 1018.34,-113 1012.34,-113"/>
<text text-anchor="middle" x="977.54" y="-92.25" font-family="JetBrains Mono,Fira Code,monospace" font-size="10.00" fill="#f38ba8">Disconnected</text>
</g>
<!-- NotifyConnect&#45;&gt;Disconnected -->
<g id="edge6" class="edge">
<title>NotifyConnect&#45;&gt;Disconnected</title>
<path fill="none" stroke="#f38ba8" stroke-dasharray="5,2" d="M99.98,-15.4C143.67,-8.52 209.33,0 266.9,0 266.9,0 266.9,0 727.52,0 808.33,0 894.79,-44.22 941.57,-72.32"/>
<polygon fill="#f38ba8" stroke="#f38ba8" points="940.18,-74.35 947.44,-75.9 942.73,-70.16 940.18,-74.35"/>
<text text-anchor="middle" x="468.75" y="-4.2" font-family="JetBrains Mono,Fira Code,monospace" font-size="9.00" fill="#585b70">error</text>
</g>
<!-- Transport -->
<g id="node3" class="node">
<title>Transport</title>
<path fill="#45475a" stroke="#94e2d5" stroke-width="1.2" d="M494.55,-150C494.55,-150 442.95,-150 442.95,-150 436.95,-150 430.95,-144 430.95,-138 430.95,-138 430.95,-126 430.95,-126 430.95,-120 436.95,-114 442.95,-114 442.95,-114 494.55,-114 494.55,-114 500.55,-114 506.55,-120 506.55,-126 506.55,-126 506.55,-138 506.55,-138 506.55,-144 500.55,-150 494.55,-150"/>
<text text-anchor="middle" x="468.75" y="-129.25" font-family="JetBrains Mono,Fira Code,monospace" font-size="10.00" fill="#94e2d5">Transport</text>
</g>
<!-- Handshake&#45;&gt;Transport -->
<g id="edge2" class="edge">
<title>Handshake&#45;&gt;Transport</title>
<path fill="none" stroke="#a6e3a1" d="M305.84,-75C338.94,-86.65 387.58,-103.78 422.9,-116.21"/>
<polygon fill="#a6e3a1" stroke="#a6e3a1" points="421.83,-118.43 429.25,-118.45 423.46,-113.81 421.83,-118.43"/>
<text text-anchor="middle" x="368.32" y="-128.27" font-family="JetBrains Mono,Fira Code,monospace" font-size="9.00" fill="#a6e3a1">Noise XX complete</text>
<text text-anchor="middle" x="368.32" y="-115.52" font-family="JetBrains Mono,Fira Code,monospace" font-size="9.00" fill="#a6e3a1">keys derived</text>
</g>
<!-- Handshake&#45;&gt;Disconnected -->
<g id="edge7" class="edge">
<title>Handshake&#45;&gt;Disconnected</title>
<path fill="none" stroke="#f38ba8" stroke-dasharray="5,2" d="M305.95,-63.73C422.8,-69.18 784,-86.02 922.09,-92.46"/>
<polygon fill="#f38ba8" stroke="#f38ba8" points="921.85,-94.9 928.95,-92.78 922.07,-90.01 921.85,-94.9"/>
<text text-anchor="middle" x="577.05" y="-82.7" font-family="JetBrains Mono,Fira Code,monospace" font-size="9.00" fill="#585b70">handshake fail</text>
</g>
<!-- TrustUpgraded -->
<g id="node4" class="node">
<title>TrustUpgraded</title>
<path fill="#45475a" stroke="#a6e3a1" stroke-width="1.2" d="M801.49,-193.51C801.49,-193.51 801.49,-198.49 801.49,-198.49 801.49,-200.97 799.07,-204.04 796.65,-204.62 796.65,-204.62 762.4,-212.84 762.4,-212.84 759.99,-213.42 755.09,-214 752.6,-214 752.6,-214 700.44,-214 700.44,-214 697.95,-214 693.05,-213.42 690.63,-212.84 690.63,-212.84 656.38,-204.62 656.38,-204.62 653.97,-204.04 651.55,-200.97 651.55,-198.49 651.55,-198.49 651.55,-193.51 651.55,-193.51 651.55,-191.03 653.97,-187.96 656.38,-187.38 656.38,-187.38 690.63,-179.16 690.63,-179.16 693.05,-178.58 697.95,-178 700.44,-178 700.44,-178 752.6,-178 752.6,-178 755.09,-178 759.99,-178.58 762.4,-179.16 762.4,-179.16 796.65,-187.38 796.65,-187.38 799.07,-187.96 801.49,-191.03 801.49,-193.51"/>
<path fill="none" stroke="#a6e3a1" stroke-width="1.2" d="M805.49,-192.46C805.49,-192.46 805.49,-199.54 805.49,-199.54 805.49,-203.07 802.05,-207.43 798.61,-208.26 798.61,-208.26 764.92,-216.35 764.92,-216.35 761.48,-217.17 754.51,-218 750.97,-218 750.97,-218 702.06,-218 702.06,-218 698.53,-218 691.55,-217.17 688.11,-216.35 688.11,-216.35 654.43,-208.26 654.43,-208.26 650.99,-207.43 647.55,-203.07 647.55,-199.54 647.55,-199.54 647.55,-192.46 647.55,-192.46 647.55,-188.93 650.99,-184.57 654.43,-183.74 654.43,-183.74 688.11,-175.65 688.11,-175.65 691.55,-174.83 698.53,-174 702.06,-174 702.06,-174 750.97,-174 750.97,-174 754.51,-174 761.48,-174.83 764.92,-175.65 764.92,-175.65 798.61,-183.74 798.61,-183.74 802.05,-184.57 805.49,-188.93 805.49,-192.46"/>
<text text-anchor="middle" x="726.52" y="-193.25" font-family="JetBrains Mono,Fira Code,monospace" font-size="10.00" fill="#a6e3a1">TrustUpgraded</text>
</g>
<!-- Transport&#45;&gt;TrustUpgraded -->
<g id="edge3" class="edge">
<title>Transport&#45;&gt;TrustUpgraded</title>
<path fill="none" stroke="#a6e3a1" d="M506.87,-147.92C512.73,-150.13 518.76,-152.25 524.55,-154 563.24,-165.71 607.1,-175.29 643.95,-182.33"/>
<polygon fill="#a6e3a1" stroke="#a6e3a1" points="643.37,-184.71 650.7,-183.6 644.27,-179.89 643.37,-184.71"/>
<text text-anchor="middle" x="577.05" y="-196.12" font-family="JetBrains Mono,Fira Code,monospace" font-size="9.00" fill="#a6e3a1">attestation verified</text>
<text text-anchor="middle" x="577.05" y="-183.37" font-family="JetBrains Mono,Fira Code,monospace" font-size="9.00" fill="#a6e3a1">Untrusted → Peer</text>
</g>
<!-- Transport&#45;&gt;Disconnected -->
<g id="edge5" class="edge">
<title>Transport&#45;&gt;Disconnected</title>
<path fill="none" stroke="#585b70" d="M507.02,-129.28C595.5,-122.82 818.59,-106.53 922.16,-98.97"/>
<polygon fill="#585b70" stroke="#585b70" points="922.29,-101.42 929.09,-98.46 921.93,-96.53 922.29,-101.42"/>
<text text-anchor="middle" x="726.52" y="-123.18" font-family="JetBrains Mono,Fira Code,monospace" font-size="9.00" fill="#585b70">close</text>
</g>
<!-- TrustUpgraded&#45;&gt;Disconnected -->
<g id="edge4" class="edge">
<title>TrustUpgraded&#45;&gt;Disconnected</title>
<path fill="none" stroke="#585b70" d="M805.93,-187.5C840.17,-181.49 879.92,-171.28 912.74,-154 928.99,-145.44 944.22,-131.67 955.72,-119.59"/>
<polygon fill="#585b70" stroke="#585b70" points="957.4,-121.38 960.35,-114.57 953.8,-118.06 957.4,-121.38"/>
<text text-anchor="middle" x="868.11" y="-188.01" font-family="JetBrains Mono,Fira Code,monospace" font-size="9.00" fill="#585b70">notify_disconnect</text>
</g>
<!-- events -->
<g id="node6" class="node">
<title>events</title>
<polygon fill="#181825" stroke="#585b70" stroke-width="1.2" points="1313.19,-132.63 1061.34,-132.63 1061.34,-57.37 1319.19,-57.37 1319.19,-126.63 1313.19,-132.63"/>
<polyline fill="none" stroke="#585b70" stroke-width="1.2" points="1313.19,-132.63 1313.19,-126.63"/>
<polyline fill="none" stroke="#585b70" stroke-width="1.2" points="1319.19,-126.63 1313.19,-126.63"/>
<text text-anchor="middle" x="1190.26" y="-118.33" font-family="JetBrains Mono,Fira Code,monospace" font-size="9.00" fill="#585b70">Events on conn_state channel:</text>
<text text-anchor="middle" x="1190.26" y="-105.58" font-family="JetBrains Mono,Fira Code,monospace" font-size="9.00" fill="#585b70"> &#160;CONNECTED &#160;&#160;&#160;&#160;&#160;&#160;&#160;&#160;→ on notify_connect</text>
<text text-anchor="middle" x="1190.26" y="-92.83" font-family="JetBrains Mono,Fira Code,monospace" font-size="9.00" fill="#585b70"> &#160;DISCONNECTED &#160;&#160;&#160;&#160;&#160;→ on notify_disconnect</text>
<text text-anchor="middle" x="1190.26" y="-80.08" font-family="JetBrains Mono,Fira Code,monospace" font-size="9.00" fill="#585b70"> &#160;TRUST_UPGRADED &#160;&#160;&#160;→ Untrusted → Peer</text>
<text text-anchor="middle" x="1190.26" y="-67.33" font-family="JetBrains Mono,Fira Code,monospace" font-size="9.00" fill="#585b70"> &#160;BACKPRESSURE_* &#160;&#160;&#160;→ soft / clear watermarks</text>
</g>
<!-- Disconnected&#45;&gt;events -->
</g>
</svg>
