<?xml version="1.0" encoding="UTF-8" standalone="no"?>
<!DOCTYPE svg PUBLIC "-//W3C//DTD SVG 1.1//EN"
 "http://www.w3.org/Graphics/SVG/1.1/DTD/svg11.dtd">
<!-- Generated by graphviz version 12.2.1 (0)
 -->
<!-- Title: dispatch_chain Pages: 1 -->
<svg width="644pt" height="518pt"
 viewBox="0.00 0.00 644.07 517.77" xmlns="http://www.w3.org/2000/svg" xmlns:xlink="http://www.w3.org/1999/xlink">
<g id="graph0" class="graph" transform="scale(1 1) rotate(0) translate(28.8 488.97)">
<title>dispatch_chain</title>
<polygon fill="#1e1e2e" stroke="none" points="-28.8,28.8 -28.8,-488.97 615.27,-488.97 615.27,28.8 -28.8,28.8"/>
<!-- entry -->
<g id="node1" class="node">
<title>entry</title>
<ellipse fill="#45475a" stroke="#89b4fa" stroke-width="1.2" cx="154.18" cy="-423.38" rx="151.04" ry="36.78"/>
<text text-anchor="middle" x="154.18" y="-434.13" font-family="JetBrains Mono,Fira Code,monospace" font-size="10.00" fill="#89b4fa">Envelope arrival</text>
<text text-anchor="middle" x="154.18" y="-420.63" font-family="JetBrains Mono,Fira Code,monospace" font-size="10.00" fill="#89b4fa">(protocol_id, msg_id, sender_pk,</text>
<text text-anchor="middle" x="154.18" y="-407.13" font-family="JetBrains Mono,Fira Code,monospace" font-size="10.00" fill="#89b4fa">receiver_pk, payload)</text>
</g>
<!-- lookup -->
<g id="node2" class="node">
<title>lookup</title>
<path fill="#45475a" stroke="#b4befe" stroke-width="1.2" d="M265.85,-361.6C265.85,-361.6 42.5,-361.6 42.5,-361.6 36.5,-361.6 30.5,-355.6 30.5,-349.6 30.5,-349.6 30.5,-323.83 30.5,-323.83 30.5,-317.83 36.5,-311.83 42.5,-311.83 42.5,-311.83 265.85,-311.83 265.85,-311.83 271.85,-311.83 277.85,-317.83 277.85,-323.83 277.85,-323.83 277.85,-349.6 277.85,-349.6 277.85,-355.6 271.85,-361.6 265.85,-361.6"/>
<text text-anchor="middle" x="154.18" y="-347.29" font-family="JetBrains Mono,Fira Code,monospace" font-size="9.00" fill="#b4befe">HandlerRegistry</text>
<text text-anchor="middle" x="154.18" y="-334.54" font-family="JetBrains Mono,Fira Code,monospace" font-size="9.00" fill="#b4befe">lookup_with_generation(protocol_id, msg_id)</text>
<text text-anchor="middle" x="154.18" y="-321.79" font-family="JetBrains Mono,Fira Code,monospace" font-size="9.00" fill="#b4befe">→ (chain snapshot, generation)</text>
</g>
<!-- entry&#45;&gt;lookup -->
<g id="edge1" class="edge">
<title>entry&#45;&gt;lookup</title>
<path fill="none" stroke="#585b70" d="M154.18,-386.48C154.18,-381.03 154.18,-375.45 154.18,-370.09"/>
<polygon fill="#585b70" stroke="#585b70" points="156.63,-370.41 154.18,-363.41 151.73,-370.41 156.63,-370.41"/>
</g>
<!-- iter -->
<g id="node3" class="node">
<title>iter</title>
<path fill="#45475a" stroke="#b4befe" stroke-width="1.2" d="M218.6,-286.83C218.6,-286.83 89.75,-286.83 89.75,-286.83 83.75,-286.83 77.75,-280.83 77.75,-274.83 77.75,-274.83 77.75,-261.81 77.75,-261.81 77.75,-255.81 83.75,-249.81 89.75,-249.81 89.75,-249.81 218.6,-249.81 218.6,-249.81 224.6,-249.81 230.6,-255.81 230.6,-261.81 230.6,-261.81 230.6,-274.83 230.6,-274.83 230.6,-280.83 224.6,-286.83 218.6,-286.83"/>
<text text-anchor="middle" x="154.18" y="-272.52" font-family="JetBrains Mono,Fira Code,monospace" font-size="9.00" fill="#b4befe">Iterate snapshot in</text>
<text text-anchor="middle" x="154.18" y="-259.77" font-family="JetBrains Mono,Fira Code,monospace" font-size="9.00" fill="#b4befe">priority&#45;descending order</text>
</g>
<!-- lookup&#45;&gt;iter -->
<g id="edge2" class="edge">
<title>lookup&#45;&gt;iter</title>
<path fill="none" stroke="#585b70" d="M154.18,-311.37C154.18,-306.25 154.18,-300.82 154.18,-295.63"/>
<polygon fill="#585b70" stroke="#585b70" points="156.63,-295.73 154.18,-288.73 151.73,-295.73 156.63,-295.73"/>
</g>
<!-- call -->
<g id="node4" class="node">
<title>call</title>
<path fill="#45475a" stroke="#fab387" stroke-width="1.2" d="M341.6,-224.81C341.6,-224.81 128.75,-224.81 128.75,-224.81 122.75,-224.81 116.75,-218.81 116.75,-212.81 116.75,-212.81 116.75,-187.04 116.75,-187.04 116.75,-181.04 122.75,-175.04 128.75,-175.04 128.75,-175.04 341.6,-175.04 341.6,-175.04 347.6,-175.04 353.6,-181.04 353.6,-187.04 353.6,-187.04 353.6,-212.81 353.6,-212.81 353.6,-218.81 347.6,-224.81 341.6,-224.81"/>
<text text-anchor="middle" x="235.18" y="-210.5" font-family="JetBrains Mono,Fira Code,monospace" font-size="9.00" fill="#fab387">h.handle_message(self, &amp;env)</text>
<text text-anchor="middle" x="235.18" y="-197.75" font-family="JetBrains Mono,Fira Code,monospace" font-size="9.00" fill="#fab387">→ gn_propagation_t r</text>
<text text-anchor="middle" x="235.18" y="-185" font-family="JetBrains Mono,Fira Code,monospace" font-size="9.00" fill="#fab387">h.on_result(self, &amp;env, r) &#160;&#160;/* always */</text>
</g>
<!-- iter&#45;&gt;call -->
<g id="edge3" class="edge">
<title>iter&#45;&gt;call</title>
<path fill="none" stroke="#585b70" d="M175.88,-249.53C182.98,-243.71 191.08,-237.07 198.95,-230.62"/>
<polygon fill="#585b70" stroke="#585b70" points="200.46,-232.55 204.32,-226.22 197.35,-228.76 200.46,-232.55"/>
</g>
<!-- cont -->
<g id="node5" class="node">
<title>cont</title>
<path fill="#45475a" stroke="#89b4fa" stroke-width="1.2" d="M130.35,-143.66C130.35,-143.66 12,-143.66 12,-143.66 6,-143.66 0,-137.66 0,-131.66 0,-131.66 0,-118.65 0,-118.65 0,-112.65 6,-106.65 12,-106.65 12,-106.65 130.35,-106.65 130.35,-106.65 136.35,-106.65 142.35,-112.65 142.35,-118.65 142.35,-118.65 142.35,-131.66 142.35,-131.66 142.35,-137.66 136.35,-143.66 130.35,-143.66"/>
<text text-anchor="middle" x="71.17" y="-129.35" font-family="JetBrains Mono,Fira Code,monospace" font-size="9.00" fill="#89b4fa">GN_PROPAGATION_CONTINUE</text>
<text text-anchor="middle" x="71.17" y="-116.61" font-family="JetBrains Mono,Fira Code,monospace" font-size="9.00" fill="#89b4fa">→ next handler in chain</text>
</g>
<!-- call&#45;&gt;cont -->
<g id="edge4" class="edge">
<title>call&#45;&gt;cont</title>
<path fill="none" stroke="#89b4fa" d="M180.57,-174.69C160.75,-165.9 138.52,-156.04 119.3,-147.51"/>
<polygon fill="#89b4fa" stroke="#89b4fa" points="120.32,-145.28 112.92,-144.68 118.33,-149.76 120.32,-145.28"/>
</g>
<!-- consumed -->
<g id="node6" class="node">
<title>consumed</title>
<path fill="#45475a" stroke="#f9e2af" stroke-width="1.2" d="M297.35,-143.66C297.35,-143.66 179,-143.66 179,-143.66 173,-143.66 167,-137.66 167,-131.66 167,-131.66 167,-118.65 167,-118.65 167,-112.65 173,-106.65 179,-106.65 179,-106.65 297.35,-106.65 297.35,-106.65 303.35,-106.65 309.35,-112.65 309.35,-118.65 309.35,-118.65 309.35,-131.66 309.35,-131.66 309.35,-137.66 303.35,-143.66 297.35,-143.66"/>
<text text-anchor="middle" x="238.18" y="-129.35" font-family="JetBrains Mono,Fira Code,monospace" font-size="9.00" fill="#f9e2af">GN_PROPAGATION_CONSUMED</text>
<text text-anchor="middle" x="238.18" y="-116.61" font-family="JetBrains Mono,Fira Code,monospace" font-size="9.00" fill="#f9e2af">→ stop chain (handled)</text>
</g>
<!-- call&#45;&gt;consumed -->
<g id="edge5" class="edge">
<title>call&#45;&gt;consumed</title>
<path fill="none" stroke="#f9e2af" d="M236.17,-174.69C236.47,-167.44 236.8,-159.46 237.11,-152.11"/>
<polygon fill="#f9e2af" stroke="#f9e2af" points="239.54,-152.44 237.38,-145.35 234.65,-152.24 239.54,-152.44"/>
</g>
<!-- reject -->
<g id="node7" class="node">
<title>reject</title>
<path fill="#45475a" stroke="#f38ba8" stroke-width="1.2" d="M490.48,-150.04C490.48,-150.04 345.88,-150.04 345.88,-150.04 339.88,-150.04 333.88,-144.04 333.88,-138.04 333.88,-138.04 333.88,-112.27 333.88,-112.27 333.88,-106.27 339.88,-100.27 345.88,-100.27 345.88,-100.27 490.48,-100.27 490.48,-100.27 496.48,-100.27 502.48,-106.27 502.48,-112.27 502.48,-112.27 502.48,-138.04 502.48,-138.04 502.48,-144.04 496.48,-150.04 490.48,-150.04"/>
<text text-anchor="middle" x="418.18" y="-135.73" font-family="JetBrains Mono,Fira Code,monospace" font-size="9.00" fill="#f38ba8">GN_PROPAGATION_REJECT</text>
<text text-anchor="middle" x="418.18" y="-122.98" font-family="JetBrains Mono,Fira Code,monospace" font-size="9.00" fill="#f38ba8">→ drop envelope; close conn;</text>
<text text-anchor="middle" x="418.18" y="-110.23" font-family="JetBrains Mono,Fira Code,monospace" font-size="9.00" fill="#f38ba8">metric increment</text>
</g>
<!-- call&#45;&gt;reject -->
<g id="edge6" class="edge">
<title>call&#45;&gt;reject</title>
<path fill="none" stroke="#f38ba8" d="M296.37,-174.59C313.31,-167.86 331.81,-160.5 349.16,-153.6"/>
<polygon fill="#f38ba8" stroke="#f38ba8" points="350.04,-155.89 355.64,-151.02 348.23,-151.33 350.04,-155.89"/>
</g>
<!-- cont&#45;&gt;iter -->
<g id="edge7" class="edge">
<title>cont&#45;&gt;iter</title>
<path fill="none" stroke="#89b4fa" stroke-dasharray="5,2" d="M74.1,-143.83C78.17,-164.63 87.08,-199.52 104.17,-224.81 108.91,-231.82 115.11,-238.34 121.52,-244.06"/>
<polygon fill="#89b4fa" stroke="#89b4fa" points="119.87,-245.88 126.8,-248.53 123.04,-242.14 119.87,-245.88"/>
</g>
<!-- note -->
<g id="node8" class="node">
<title>note</title>
<polygon fill="#181825" stroke="#585b70" stroke-width="1.2" points="580.48,-75.27 249.88,-75.27 249.88,0 586.48,0 586.48,-69.27 580.48,-75.27"/>
<polyline fill="none" stroke="#585b70" stroke-width="1.2" points="580.48,-75.27 580.48,-69.27"/>
<polyline fill="none" stroke="#585b70" stroke-width="1.2" points="586.48,-69.27 580.48,-69.27"/>
<text text-anchor="middle" x="418.18" y="-60.96" font-family="JetBrains Mono,Fira Code,monospace" font-size="9.00" fill="#585b70">Chain materialised once at envelope arrival.</text>
<text text-anchor="middle" x="418.18" y="-48.21" font-family="JetBrains Mono,Fira Code,monospace" font-size="9.00" fill="#585b70">Registration mid&#45;dispatch is a no&#45;op for this envelope —</text>
<text text-anchor="middle" x="418.18" y="-35.46" font-family="JetBrains Mono,Fira Code,monospace" font-size="9.00" fill="#585b70">visible from the next dispatch.</text>
<text text-anchor="middle" x="418.18" y="-22.71" font-family="JetBrains Mono,Fira Code,monospace" font-size="9.00" fill="#585b70">Snapshot&#39;s lifetime_anchor refs keep every handler vtable</text>
<text text-anchor="middle" x="418.18" y="-9.96" font-family="JetBrains Mono,Fira Code,monospace" font-size="9.00" fill="#585b70">valid for the entire walk (no UAF on concurrent unregister).</text>
</g>
<!-- reject&#45;&gt;note -->
</g>
</svg>
