<?xml version="1.0" encoding="UTF-8" standalone="no"?>
<!DOCTYPE svg PUBLIC "-//W3C//DTD SVG 1.1//EN"
 "http://www.w3.org/Graphics/SVG/1.1/DTD/svg11.dtd">
<!-- Generated by graphviz version 12.2.1 (0)
 -->
<!-- Title: dlopen_pipeline Pages: 1 -->
<svg width="342pt" height="992pt"
 viewBox="0.00 0.00 341.70 991.86" xmlns="http://www.w3.org/2000/svg" xmlns:xlink="http://www.w3.org/1999/xlink">
<g id="graph0" class="graph" transform="scale(1 1) rotate(0) translate(28.8 963.06)">
<title>dlopen_pipeline</title>
<polygon fill="#1e1e2e" stroke="none" points="-28.8,28.8 -28.8,-963.06 312.9,-963.06 312.9,28.8 -28.8,28.8"/>
<!-- manifest -->
<g id="node1" class="node">
<title>manifest</title>
<path fill="#45475a" stroke="#89b4fa" stroke-width="1.2" d="M209.1,-934.26C209.1,-934.26 75,-934.26 75,-934.26 69,-934.26 63,-928.26 63,-922.26 63,-922.26 63,-896.49 63,-896.49 63,-890.49 69,-884.49 75,-884.49 75,-884.49 209.1,-884.49 209.1,-884.49 215.1,-884.49 221.1,-890.49 221.1,-896.49 221.1,-896.49 221.1,-922.26 221.1,-922.26 221.1,-928.26 215.1,-934.26 209.1,-934.26"/>
<text text-anchor="middle" x="142.05" y="-919.95" font-family="JetBrains Mono,Fira Code,monospace" font-size="9.00" fill="#89b4fa">PluginManager::discover</text>
<text text-anchor="middle" x="142.05" y="-907.2" font-family="JetBrains Mono,Fira Code,monospace" font-size="9.00" fill="#89b4fa">scan plugin manifest files</text>
<text text-anchor="middle" x="142.05" y="-894.45" font-family="JetBrains Mono,Fira Code,monospace" font-size="9.00" fill="#89b4fa">→ load order</text>
</g>
<!-- dlopen -->
<g id="node2" class="node">
<title>dlopen</title>
<path fill="#45475a" stroke="#a6e3a1" stroke-width="1.2" d="M235.35,-859.49C235.35,-859.49 48.75,-859.49 48.75,-859.49 42.75,-859.49 36.75,-853.49 36.75,-847.49 36.75,-847.49 36.75,-834.47 36.75,-834.47 36.75,-828.47 42.75,-822.47 48.75,-822.47 48.75,-822.47 235.35,-822.47 235.35,-822.47 241.35,-822.47 247.35,-828.47 247.35,-834.47 247.35,-834.47 247.35,-847.49 247.35,-847.49 247.35,-853.49 241.35,-859.49 235.35,-859.49"/>
<text text-anchor="middle" x="142.05" y="-845.18" font-family="JetBrains Mono,Fira Code,monospace" font-size="9.00" fill="#a6e3a1">dlopen(path, RTLD_LAZY | RTLD_LOCAL)</text>
<text text-anchor="middle" x="142.05" y="-832.43" font-family="JetBrains Mono,Fira Code,monospace" font-size="9.00" fill="#a6e3a1">resolve five mandatory entry symbols</text>
</g>
<!-- manifest&#45;&gt;dlopen -->
<g id="edge1" class="edge">
<title>manifest&#45;&gt;dlopen</title>
<path fill="none" stroke="#585b70" d="M142.05,-884.03C142.05,-878.91 142.05,-873.48 142.05,-868.29"/>
<polygon fill="#585b70" stroke="#585b70" points="144.5,-868.39 142.05,-861.39 139.6,-868.39 144.5,-868.39"/>
</g>
<!-- version -->
<g id="node3" class="node">
<title>version</title>
<path fill="#45475a" stroke="#b4befe" stroke-width="1.2" d="M248.48,-797.47C248.48,-797.47 35.62,-797.47 35.62,-797.47 29.62,-797.47 23.63,-791.47 23.63,-785.47 23.63,-785.47 23.63,-759.7 23.63,-759.7 23.63,-753.7 29.63,-747.7 35.63,-747.7 35.63,-747.7 248.48,-747.7 248.48,-747.7 254.48,-747.7 260.48,-753.7 260.48,-759.7 260.48,-759.7 260.48,-785.47 260.48,-785.47 260.48,-791.47 254.48,-797.47 248.48,-797.47"/>
<text text-anchor="middle" x="142.05" y="-783.16" font-family="JetBrains Mono,Fira Code,monospace" font-size="9.00" fill="#b4befe">gn_plugin_sdk_version(&amp;maj, &amp;min, &amp;patch)</text>
<text text-anchor="middle" x="142.05" y="-770.41" font-family="JetBrains Mono,Fira Code,monospace" font-size="9.00" fill="#b4befe">kernel rejects if maj != kernel.maj</text>
<text text-anchor="middle" x="142.05" y="-757.66" font-family="JetBrains Mono,Fira Code,monospace" font-size="9.00" fill="#b4befe">or min &gt; kernel.min</text>
</g>
<!-- dlopen&#45;&gt;version -->
<g id="edge2" class="edge">
<title>dlopen&#45;&gt;version</title>
<path fill="none" stroke="#585b70" d="M142.05,-822.19C142.05,-817.13 142.05,-811.46 142.05,-805.82"/>
<polygon fill="#585b70" stroke="#585b70" points="144.5,-806.18 142.05,-799.18 139.6,-806.18 144.5,-806.18"/>
</g>
<!-- descriptor -->
<g id="node4" class="node">
<title>descriptor</title>
<path fill="#45475a" stroke="#94e2d5" stroke-width="1.2" d="M230.1,-722.7C230.1,-722.7 54,-722.7 54,-722.7 48,-722.7 42,-716.7 42,-710.7 42,-710.7 42,-684.93 42,-684.93 42,-678.93 48,-672.93 54,-672.93 54,-672.93 230.1,-672.93 230.1,-672.93 236.1,-672.93 242.1,-678.93 242.1,-684.93 242.1,-684.93 242.1,-710.7 242.1,-710.7 242.1,-716.7 236.1,-722.7 230.1,-722.7"/>
<text text-anchor="middle" x="142.05" y="-708.39" font-family="JetBrains Mono,Fira Code,monospace" font-size="9.00" fill="#94e2d5">gn_plugin_descriptor() &#160;(optional)</text>
<text text-anchor="middle" x="142.05" y="-695.64" font-family="JetBrains Mono,Fira Code,monospace" font-size="9.00" fill="#94e2d5">name, version, kind,</text>
<text text-anchor="middle" x="142.05" y="-682.89" font-family="JetBrains Mono,Fira Code,monospace" font-size="9.00" fill="#94e2d5">ext_requires / ext_provides</text>
</g>
<!-- version&#45;&gt;descriptor -->
<g id="edge3" class="edge">
<title>version&#45;&gt;descriptor</title>
<path fill="none" stroke="#585b70" d="M142.05,-747.35C142.05,-742.25 142.05,-736.79 142.05,-731.44"/>
<polygon fill="#585b70" stroke="#585b70" points="144.5,-731.7 142.05,-724.7 139.6,-731.7 144.5,-731.7"/>
</g>
<!-- init -->
<g id="node5" class="node">
<title>init</title>
<path fill="#45475a" stroke="#fab387" stroke-width="1.2" d="M230.1,-647.93C230.1,-647.93 54,-647.93 54,-647.93 48,-647.93 42,-641.93 42,-635.93 42,-635.93 42,-610.16 42,-610.16 42,-604.16 48,-598.16 54,-598.16 54,-598.16 230.1,-598.16 230.1,-598.16 236.1,-598.16 242.1,-604.16 242.1,-610.16 242.1,-610.16 242.1,-635.93 242.1,-635.93 242.1,-641.93 236.1,-647.93 230.1,-647.93"/>
<text text-anchor="middle" x="142.05" y="-633.62" font-family="JetBrains Mono,Fira Code,monospace" font-size="9.00" fill="#fab387">gn_plugin_init(api, &amp;out_self)</text>
<text text-anchor="middle" x="142.05" y="-620.87" font-family="JetBrains Mono,Fira Code,monospace" font-size="9.00" fill="#fab387">phase 4 — construct internal state</text>
<text text-anchor="middle" x="142.05" y="-608.12" font-family="JetBrains Mono,Fira Code,monospace" font-size="9.00" fill="#fab387">MUST NOT call host_api&#45;&gt;register_*</text>
</g>
<!-- descriptor&#45;&gt;init -->
<g id="edge4" class="edge">
<title>descriptor&#45;&gt;init</title>
<path fill="none" stroke="#585b70" d="M142.05,-672.58C142.05,-667.48 142.05,-662.02 142.05,-656.67"/>
<polygon fill="#585b70" stroke="#585b70" points="144.5,-656.93 142.05,-649.93 139.6,-656.93 144.5,-656.93"/>
</g>
<!-- register -->
<g id="node6" class="node">
<title>register</title>
<path fill="#45475a" stroke="#f9e2af" stroke-width="1.2" d="M266.85,-573.16C266.85,-573.16 17.25,-573.16 17.25,-573.16 11.25,-573.16 5.25,-567.16 5.25,-561.16 5.25,-561.16 5.25,-522.64 5.25,-522.64 5.25,-516.64 11.25,-510.64 17.25,-510.64 17.25,-510.64 266.85,-510.64 266.85,-510.64 272.85,-510.64 278.85,-516.64 278.85,-522.64 278.85,-522.64 278.85,-561.16 278.85,-561.16 278.85,-567.16 272.85,-573.16 266.85,-573.16"/>
<text text-anchor="middle" x="142.05" y="-558.85" font-family="JetBrains Mono,Fira Code,monospace" font-size="9.00" fill="#f9e2af">gn_plugin_register(self)</text>
<text text-anchor="middle" x="142.05" y="-546.1" font-family="JetBrains Mono,Fira Code,monospace" font-size="9.00" fill="#f9e2af">phase 5 — atomic with siblings:</text>
<text text-anchor="middle" x="142.05" y="-533.35" font-family="JetBrains Mono,Fira Code,monospace" font-size="9.00" fill="#f9e2af">host_api&#45;&gt;register_vtable(KIND, …)</text>
<text text-anchor="middle" x="142.05" y="-520.6" font-family="JetBrains Mono,Fira Code,monospace" font-size="9.00" fill="#f9e2af">host_api&#45;&gt;register_security / register_extension</text>
</g>
<!-- init&#45;&gt;register -->
<g id="edge5" class="edge">
<title>init&#45;&gt;register</title>
<path fill="none" stroke="#585b70" d="M142.05,-597.87C142.05,-592.86 142.05,-587.45 142.05,-582.06"/>
<polygon fill="#585b70" stroke="#585b70" points="144.5,-582.17 142.05,-575.17 139.6,-582.17 144.5,-582.17"/>
</g>
<!-- running -->
<g id="node7" class="node">
<title>running</title>
<path fill="#45475a" stroke="#a6e3a1" stroke-width="1.2" d="M209.1,-485.64C209.1,-485.64 75,-485.64 75,-485.64 69,-485.64 63,-479.64 63,-473.64 63,-473.64 63,-460.62 63,-460.62 63,-454.62 69,-448.62 75,-448.62 75,-448.62 209.1,-448.62 209.1,-448.62 215.1,-448.62 221.1,-454.62 221.1,-460.62 221.1,-460.62 221.1,-473.64 221.1,-473.64 221.1,-479.64 215.1,-485.64 209.1,-485.64"/>
<text text-anchor="middle" x="142.05" y="-471.33" font-family="JetBrains Mono,Fira Code,monospace" font-size="9.00" fill="#a6e3a1">phase 6 — Running</text>
<text text-anchor="middle" x="142.05" y="-458.58" font-family="JetBrains Mono,Fira Code,monospace" font-size="9.00" fill="#a6e3a1">dispatch open; plugin live</text>
</g>
<!-- register&#45;&gt;running -->
<g id="edge6" class="edge">
<title>register&#45;&gt;running</title>
<path fill="none" stroke="#585b70" d="M142.05,-510.46C142.05,-505.07 142.05,-499.5 142.05,-494.25"/>
<polygon fill="#585b70" stroke="#585b70" points="144.5,-494.29 142.05,-487.29 139.6,-494.29 144.5,-494.29"/>
</g>
<!-- pre_shut -->
<g id="node8" class="node">
<title>pre_shut</title>
<path fill="#45475a" stroke="#f9e2af" stroke-width="1.2" d="M209.1,-423.62C209.1,-423.62 75,-423.62 75,-423.62 69,-423.62 63,-417.62 63,-411.62 63,-411.62 63,-385.85 63,-385.85 63,-379.85 69,-373.85 75,-373.85 75,-373.85 209.1,-373.85 209.1,-373.85 215.1,-373.85 221.1,-379.85 221.1,-385.85 221.1,-385.85 221.1,-411.62 221.1,-411.62 221.1,-417.62 215.1,-423.62 209.1,-423.62"/>
<text text-anchor="middle" x="142.05" y="-409.31" font-family="JetBrains Mono,Fira Code,monospace" font-size="9.00" fill="#f9e2af">phase 7 — PreShutdown</text>
<text text-anchor="middle" x="142.05" y="-396.56" font-family="JetBrains Mono,Fira Code,monospace" font-size="9.00" fill="#f9e2af">publish shutdown_requested</text>
<text text-anchor="middle" x="142.05" y="-383.81" font-family="JetBrains Mono,Fira Code,monospace" font-size="9.00" fill="#f9e2af">drain in&#45;flight dispatches</text>
</g>
<!-- running&#45;&gt;pre_shut -->
<g id="edge7" class="edge">
<title>running&#45;&gt;pre_shut</title>
<path fill="none" stroke="#585b70" d="M142.05,-448.34C142.05,-443.28 142.05,-437.61 142.05,-431.97"/>
<polygon fill="#585b70" stroke="#585b70" points="144.5,-432.33 142.05,-425.33 139.6,-432.33 144.5,-432.33"/>
</g>
<!-- unreg -->
<g id="node9" class="node">
<title>unreg</title>
<path fill="#45475a" stroke="#fab387" stroke-width="1.2" d="M243.23,-348.85C243.23,-348.85 40.88,-348.85 40.88,-348.85 34.88,-348.85 28.88,-342.85 28.88,-336.85 28.88,-336.85 28.88,-323.83 28.88,-323.83 28.88,-317.83 34.88,-311.83 40.88,-311.83 40.88,-311.83 243.23,-311.83 243.23,-311.83 249.23,-311.83 255.23,-317.83 255.23,-323.83 255.23,-323.83 255.23,-336.85 255.23,-336.85 255.23,-342.85 249.23,-348.85 243.23,-348.85"/>
<text text-anchor="middle" x="142.05" y="-334.54" font-family="JetBrains Mono,Fira Code,monospace" font-size="9.00" fill="#fab387">gn_plugin_unregister(self)</text>
<text text-anchor="middle" x="142.05" y="-321.79" font-family="JetBrains Mono,Fira Code,monospace" font-size="9.00" fill="#fab387">phase 8 — registry entries drop anchors</text>
</g>
<!-- pre_shut&#45;&gt;unreg -->
<g id="edge8" class="edge">
<title>pre_shut&#45;&gt;unreg</title>
<path fill="none" stroke="#585b70" d="M142.05,-373.39C142.05,-368.27 142.05,-362.84 142.05,-357.65"/>
<polygon fill="#585b70" stroke="#585b70" points="144.5,-357.75 142.05,-350.75 139.6,-357.75 144.5,-357.75"/>
</g>
<!-- drain -->
<g id="node10" class="node">
<title>drain</title>
<path fill="#45475a" stroke="#cba6f7" stroke-width="1.2" d="M243.23,-286.83C243.23,-286.83 40.88,-286.83 40.88,-286.83 34.88,-286.83 28.88,-280.83 28.88,-274.83 28.88,-274.83 28.88,-249.06 28.88,-249.06 28.88,-243.06 34.88,-237.06 40.88,-237.06 40.88,-237.06 243.23,-237.06 243.23,-237.06 249.23,-237.06 255.23,-243.06 255.23,-249.06 255.23,-249.06 255.23,-274.83 255.23,-274.83 255.23,-280.83 249.23,-286.83 243.23,-286.83"/>
<text text-anchor="middle" x="142.05" y="-272.52" font-family="JetBrains Mono,Fira Code,monospace" font-size="9.00" fill="#cba6f7">Quiescence wait</text>
<text text-anchor="middle" x="142.05" y="-259.77" font-family="JetBrains Mono,Fira Code,monospace" font-size="9.00" fill="#cba6f7">weak observer waits for sentinel expiry</text>
<text text-anchor="middle" x="142.05" y="-247.02" font-family="JetBrains Mono,Fira Code,monospace" font-size="9.00" fill="#cba6f7">(default 1 s)</text>
</g>
<!-- unreg&#45;&gt;drain -->
<g id="edge9" class="edge">
<title>unreg&#45;&gt;drain</title>
<path fill="none" stroke="#585b70" d="M142.05,-311.55C142.05,-306.49 142.05,-300.82 142.05,-295.18"/>
<polygon fill="#585b70" stroke="#585b70" points="144.5,-295.54 142.05,-288.54 139.6,-295.54 144.5,-295.54"/>
</g>
<!-- shut -->
<g id="node11" class="node">
<title>shut</title>
<path fill="#45475a" stroke="#f38ba8" stroke-width="1.2" d="M232.73,-212.06C232.73,-212.06 51.38,-212.06 51.38,-212.06 45.38,-212.06 39.38,-206.06 39.38,-200.06 39.38,-200.06 39.38,-174.29 39.38,-174.29 39.38,-168.29 45.38,-162.29 51.38,-162.29 51.38,-162.29 232.73,-162.29 232.73,-162.29 238.73,-162.29 244.73,-168.29 244.73,-174.29 244.73,-174.29 244.73,-200.06 244.73,-200.06 244.73,-206.06 238.73,-212.06 232.73,-212.06"/>
<text text-anchor="middle" x="142.05" y="-197.75" font-family="JetBrains Mono,Fira Code,monospace" font-size="9.00" fill="#f38ba8">gn_plugin_shutdown(self)</text>
<text text-anchor="middle" x="142.05" y="-185" font-family="JetBrains Mono,Fira Code,monospace" font-size="9.00" fill="#f38ba8">phase 9 — release internal state</text>
<text text-anchor="middle" x="142.05" y="-172.25" font-family="JetBrains Mono,Fira Code,monospace" font-size="9.00" fill="#f38ba8">MUST NOT call host_api after return</text>
</g>
<!-- drain&#45;&gt;shut -->
<g id="edge10" class="edge">
<title>drain&#45;&gt;shut</title>
<path fill="none" stroke="#585b70" d="M142.05,-236.71C142.05,-231.61 142.05,-226.15 142.05,-220.8"/>
<polygon fill="#585b70" stroke="#585b70" points="144.5,-221.06 142.05,-214.06 139.6,-221.06 144.5,-221.06"/>
</g>
<!-- dlclose -->
<g id="node12" class="node">
<title>dlclose</title>
<path fill="#45475a" stroke="#f38ba8" stroke-width="1.2" d="M219.6,-137.29C219.6,-137.29 64.5,-137.29 64.5,-137.29 58.5,-137.29 52.5,-131.29 52.5,-125.29 52.5,-125.29 52.5,-99.52 52.5,-99.52 52.5,-93.52 58.5,-87.52 64.5,-87.52 64.5,-87.52 219.6,-87.52 219.6,-87.52 225.6,-87.52 231.6,-93.52 231.6,-99.52 231.6,-99.52 231.6,-125.29 231.6,-125.29 231.6,-131.29 225.6,-137.29 219.6,-137.29"/>
<text text-anchor="middle" x="142.05" y="-122.98" font-family="JetBrains Mono,Fira Code,monospace" font-size="9.00" fill="#f38ba8">dlclose(handle)</text>
<text text-anchor="middle" x="142.05" y="-110.23" font-family="JetBrains Mono,Fira Code,monospace" font-size="9.00" fill="#f38ba8">phase 10 — unmap shared object</text>
<text text-anchor="middle" x="142.05" y="-97.48" font-family="JetBrains Mono,Fira Code,monospace" font-size="9.00" fill="#f38ba8">leak handle on drain timeout</text>
</g>
<!-- shut&#45;&gt;dlclose -->
<g id="edge11" class="edge">
<title>shut&#45;&gt;dlclose</title>
<path fill="none" stroke="#585b70" d="M142.05,-161.94C142.05,-156.84 142.05,-151.38 142.05,-146.03"/>
<polygon fill="#585b70" stroke="#585b70" points="144.5,-146.29 142.05,-139.29 139.6,-146.29 144.5,-146.29"/>
</g>
<!-- note -->
<g id="node13" class="node">
<title>note</title>
<polygon fill="#181825" stroke="#585b70" stroke-width="1.2" points="278.1,-62.52 0,-62.52 0,0 284.1,0 284.1,-56.52 278.1,-62.52"/>
<polyline fill="none" stroke="#585b70" stroke-width="1.2" points="278.1,-62.52 278.1,-56.52"/>
<polyline fill="none" stroke="#585b70" stroke-width="1.2" points="284.1,-56.52 278.1,-56.52"/>
<text text-anchor="middle" x="142.05" y="-48.21" font-family="JetBrains Mono,Fira Code,monospace" font-size="9.00" fill="#585b70">Two&#45;phase activation (phases 4–5):</text>
<text text-anchor="middle" x="142.05" y="-35.46" font-family="JetBrains Mono,Fira Code,monospace" font-size="9.00" fill="#585b70">every plugin constructed before any is registered.</text>
<text text-anchor="middle" x="142.05" y="-22.71" font-family="JetBrains Mono,Fira Code,monospace" font-size="9.00" fill="#585b70">Partial init failure → rollback_init only;</text>
<text text-anchor="middle" x="142.05" y="-9.96" font-family="JetBrains Mono,Fira Code,monospace" font-size="9.00" fill="#585b70">no live traffic ever sees a half&#45;built plugin.</text>
</g>
<!-- dlclose&#45;&gt;note -->
</g>
</svg>
