<?xml version="1.0" encoding="UTF-8" standalone="no"?>
<!DOCTYPE svg PUBLIC "-//W3C//DTD SVG 1.1//EN"
 "http://www.w3.org/Graphics/SVG/1.1/DTD/svg11.dtd">
<!-- Generated by graphviz version 12.2.1 (0)
 -->
<!-- Title: extension_query Pages: 1 -->
<svg width="2374pt" height="293pt"
 viewBox="0.00 0.00 2374.05 292.61" xmlns="http://www.w3.org/2000/svg" xmlns:xlink="http://www.w3.org/1999/xlink">
<g id="graph0" class="graph" transform="scale(1 1) rotate(0) translate(28.8 263.81)">
<title>extension_query</title>
<polygon fill="#1e1e2e" stroke="none" points="-28.8,28.8 -28.8,-263.81 2345.25,-263.81 2345.25,28.8 -28.8,28.8"/>
<g id="clust1" class="cluster">
<title>cluster_provider</title>
<path fill="#181825" stroke="#a6e3a1" stroke-width="1.5" d="M20,-40.01C20,-40.01 435.2,-40.01 435.2,-40.01 441.2,-40.01 447.2,-46.01 447.2,-52.01 447.2,-52.01 447.2,-119.01 447.2,-119.01 447.2,-125.01 441.2,-131.01 435.2,-131.01 435.2,-131.01 20,-131.01 20,-131.01 14,-131.01 8,-125.01 8,-119.01 8,-119.01 8,-52.01 8,-52.01 8,-46.01 14,-40.01 20,-40.01"/>
<text text-anchor="middle" x="227.6" y="-116.56" font-family="JetBrains Mono,Fira Code,monospace" font-size="11.00" fill="#a6e3a1">Provider plugin</text>
</g>
<g id="clust2" class="cluster">
<title>cluster_consumer</title>
<path fill="#181825" stroke="#fab387" stroke-width="1.5" d="M1138.8,-124.01C1138.8,-124.01 1964.85,-124.01 1964.85,-124.01 1970.85,-124.01 1976.85,-130.01 1976.85,-136.01 1976.85,-136.01 1976.85,-215.01 1976.85,-215.01 1976.85,-221.01 1970.85,-227.01 1964.85,-227.01 1964.85,-227.01 1138.8,-227.01 1138.8,-227.01 1132.8,-227.01 1126.8,-221.01 1126.8,-215.01 1126.8,-215.01 1126.8,-136.01 1126.8,-136.01 1126.8,-130.01 1132.8,-124.01 1138.8,-124.01"/>
<text text-anchor="middle" x="1551.82" y="-212.56" font-family="JetBrains Mono,Fira Code,monospace" font-size="11.00" fill="#fab387">Consumer plugin</text>
</g>
<!-- prov_vtable -->
<g id="node1" class="node">
<title>prov_vtable</title>
<path fill="#45475a" stroke="#a6e3a1" stroke-width="1.2" d="M238.1,-107.89C238.1,-107.89 20,-107.89 20,-107.89 14,-107.89 8,-101.89 8,-95.89 8,-95.89 8,-52.12 8,-52.12 8,-46.12 14,-40.12 20,-40.12 20,-40.12 238.1,-40.12 238.1,-40.12 244.1,-40.12 250.1,-46.12 250.1,-52.12 250.1,-52.12 250.1,-95.89 250.1,-95.89 250.1,-101.89 244.1,-107.89 238.1,-107.89"/>
<text text-anchor="middle" x="129.05" y="-94.53" font-family="JetBrains Mono,Fira Code,monospace" font-size="8.00" fill="#a6e3a1">static const my_ext_v1_vtable_t my_ext_vtable = {</text>
<text text-anchor="middle" x="129.05" y="-83.28" font-family="JetBrains Mono,Fira Code,monospace" font-size="8.00" fill="#a6e3a1"> &#160;&#160;&#160;.api_size &#160;= sizeof(my_ext_v1_vtable_t),</text>
<text text-anchor="middle" x="129.05" y="-72.03" font-family="JetBrains Mono,Fira Code,monospace" font-size="8.00" fill="#a6e3a1"> &#160;&#160;&#160;.do_thing &#160;= &amp;impl_do_thing,</text>
<text text-anchor="middle" x="129.05" y="-60.78" font-family="JetBrains Mono,Fira Code,monospace" font-size="8.00" fill="#a6e3a1"> &#160;&#160;&#160;.other &#160;&#160;&#160;&#160;= &amp;impl_other,</text>
<text text-anchor="middle" x="129.05" y="-49.53" font-family="JetBrains Mono,Fira Code,monospace" font-size="8.00" fill="#a6e3a1">};</text>
</g>
<!-- prov_register -->
<g id="node2" class="node">
<title>prov_register</title>
<path fill="#45475a" stroke="#a6e3a1" stroke-width="1.2" d="M435.2,-102.27C435.2,-102.27 307.1,-102.27 307.1,-102.27 301.1,-102.27 295.1,-96.27 295.1,-90.27 295.1,-90.27 295.1,-57.75 295.1,-57.75 295.1,-51.75 301.1,-45.75 307.1,-45.75 307.1,-45.75 435.2,-45.75 435.2,-45.75 441.2,-45.75 447.2,-51.75 447.2,-57.75 447.2,-57.75 447.2,-90.27 447.2,-90.27 447.2,-96.27 441.2,-102.27 435.2,-102.27"/>
<text text-anchor="middle" x="371.15" y="-88.91" font-family="JetBrains Mono,Fira Code,monospace" font-size="8.00" fill="#a6e3a1">host_api&#45;&gt;register_extension(</text>
<text text-anchor="middle" x="371.15" y="-77.66" font-family="JetBrains Mono,Fira Code,monospace" font-size="8.00" fill="#a6e3a1"> &#160;&#160;&#160;&quot;my&#45;ext&quot;,</text>
<text text-anchor="middle" x="371.15" y="-66.41" font-family="JetBrains Mono,Fira Code,monospace" font-size="8.00" fill="#a6e3a1"> &#160;&#160;&#160;GN_VERSION(1, 0, 0),</text>
<text text-anchor="middle" x="371.15" y="-55.16" font-family="JetBrains Mono,Fira Code,monospace" font-size="8.00" fill="#a6e3a1"> &#160;&#160;&#160;&amp;my_ext_vtable)</text>
</g>
<!-- prov_vtable&#45;&gt;prov_register -->
<g id="edge1" class="edge">
<title>prov_vtable&#45;&gt;prov_register</title>
<path fill="none" stroke="#585b70" d="M250.45,-74.01C262.6,-74.01 274.74,-74.01 286.38,-74.01"/>
<polygon fill="#585b70" stroke="#585b70" points="286.24,-76.46 293.24,-74.01 286.24,-71.56 286.24,-76.46"/>
</g>
<!-- ext_reg -->
<g id="node3" class="node">
<title>ext_reg</title>
<polygon fill="#45475a" stroke="#cba6f7" stroke-width="1.2" points="901.3,-105.27 898.3,-109.27 877.3,-109.27 874.3,-105.27 664.45,-105.27 664.45,-42.75 901.3,-42.75 901.3,-105.27"/>
<text text-anchor="middle" x="782.88" y="-90.96" font-family="JetBrains Mono,Fira Code,monospace" font-size="9.00" fill="#cba6f7">ExtensionRegistry</text>
<text text-anchor="middle" x="782.88" y="-78.21" font-family="JetBrains Mono,Fira Code,monospace" font-size="9.00" fill="#cba6f7">name → (version, vtable, lifetime_anchor)</text>
<text text-anchor="middle" x="782.88" y="-65.46" font-family="JetBrains Mono,Fira Code,monospace" font-size="9.00" fill="#cba6f7">single provider per name</text>
<text text-anchor="middle" x="782.88" y="-52.71" font-family="JetBrains Mono,Fira Code,monospace" font-size="9.00" fill="#cba6f7">second register → GN_ERR_LIMIT_REACHED</text>
</g>
<!-- prov_register&#45;&gt;ext_reg -->
<g id="edge4" class="edge">
<title>prov_register&#45;&gt;ext_reg</title>
<path fill="none" stroke="#a6e3a1" d="M447.3,-74.01C505.57,-74.01 587.64,-74.01 655.91,-74.01"/>
<polygon fill="#a6e3a1" stroke="#a6e3a1" points="655.65,-76.46 662.65,-74.01 655.65,-71.56 655.65,-76.46"/>
<text text-anchor="middle" x="555.83" y="-78.21" font-family="JetBrains Mono,Fira Code,monospace" font-size="9.00" fill="#a6e3a1">register_extension(name, ver, vt)</text>
</g>
<!-- cons_query -->
<g id="node4" class="node">
<title>cons_query</title>
<path fill="#45475a" stroke="#fab387" stroke-width="1.2" d="M1298.4,-203.52C1298.4,-203.52 1138.8,-203.52 1138.8,-203.52 1132.8,-203.52 1126.8,-197.52 1126.8,-191.52 1126.8,-191.52 1126.8,-136.5 1126.8,-136.5 1126.8,-130.5 1132.8,-124.5 1138.8,-124.5 1138.8,-124.5 1298.4,-124.5 1298.4,-124.5 1304.4,-124.5 1310.4,-130.5 1310.4,-136.5 1310.4,-136.5 1310.4,-191.52 1310.4,-191.52 1310.4,-197.52 1304.4,-203.52 1298.4,-203.52"/>
<text text-anchor="middle" x="1218.6" y="-190.16" font-family="JetBrains Mono,Fira Code,monospace" font-size="8.00" fill="#fab387">const void* vt = NULL;</text>
<text text-anchor="middle" x="1218.6" y="-178.91" font-family="JetBrains Mono,Fira Code,monospace" font-size="8.00" fill="#fab387">gn_result_t r =</text>
<text text-anchor="middle" x="1218.6" y="-167.66" font-family="JetBrains Mono,Fira Code,monospace" font-size="8.00" fill="#fab387"> &#160;host_api&#45;&gt;query_extension_checked(</text>
<text text-anchor="middle" x="1218.6" y="-156.41" font-family="JetBrains Mono,Fira Code,monospace" font-size="8.00" fill="#fab387"> &#160;&#160;&#160;&#160;&#160;&quot;my&#45;ext&quot;,</text>
<text text-anchor="middle" x="1218.6" y="-145.16" font-family="JetBrains Mono,Fira Code,monospace" font-size="8.00" fill="#fab387"> &#160;&#160;&#160;&#160;&#160;GN_VERSION(1, 0, 0),</text>
<text text-anchor="middle" x="1218.6" y="-133.91" font-family="JetBrains Mono,Fira Code,monospace" font-size="8.00" fill="#fab387"> &#160;&#160;&#160;&#160;&#160;&amp;vt);</text>
</g>
<!-- ext_reg&#45;&gt;cons_query -->
<g id="edge5" class="edge">
<title>ext_reg&#45;&gt;cons_query</title>
<path fill="none" stroke="#fab387" d="M909.48,-100.07C978.83,-114.46 1063.4,-132.01 1126.39,-145.08"/>
<polygon fill="#fab387" stroke="#fab387" points="910.37,-97.76 903.02,-98.73 909.37,-102.55 910.37,-97.76"/>
<text text-anchor="middle" x="983.67" y="-131.27" font-family="JetBrains Mono,Fira Code,monospace" font-size="9.00" fill="#fab387">query_extension_checked</text>
</g>
<!-- kernel_role -->
<g id="node7" class="node">
<title>kernel_role</title>
<polygon fill="#181825" stroke="#585b70" stroke-width="1.2" points="1365.15,-88.02 1066.05,-88.02 1066.05,0 1371.15,0 1371.15,-82.02 1365.15,-88.02"/>
<polyline fill="none" stroke="#585b70" stroke-width="1.2" points="1365.15,-88.02 1365.15,-82.02"/>
<polyline fill="none" stroke="#585b70" stroke-width="1.2" points="1371.15,-82.02 1365.15,-82.02"/>
<text text-anchor="middle" x="1218.6" y="-73.71" font-family="JetBrains Mono,Fira Code,monospace" font-size="9.00" fill="#b4befe">Kernel role — pure registry.</text>
<text text-anchor="middle" x="1218.6" y="-60.96" font-family="JetBrains Mono,Fira Code,monospace" font-size="9.00" fill="#b4befe"> &#160;· stores (name → vtable) under lifetime_anchor</text>
<text text-anchor="middle" x="1218.6" y="-48.21" font-family="JetBrains Mono,Fira Code,monospace" font-size="9.00" fill="#b4befe"> &#160;· checks version compatibility on query</text>
<text text-anchor="middle" x="1218.6" y="-35.46" font-family="JetBrains Mono,Fira Code,monospace" font-size="9.00" fill="#b4befe"> &#160;· DOES NOT iterate extensions, DOES NOT orchestrate</text>
<text text-anchor="middle" x="1218.6" y="-22.71" font-family="JetBrains Mono,Fira Code,monospace" font-size="9.00" fill="#b4befe"> &#160;· DOES NOT know what any extension does</text>
<text text-anchor="middle" x="1218.6" y="-9.96" font-family="JetBrains Mono,Fira Code,monospace" font-size="9.00" fill="#b4befe">Plugins coordinate among themselves through this slot.</text>
</g>
<!-- ext_reg&#45;&gt;kernel_role -->
<!-- cons_branch -->
<g id="node5" class="node">
<title>cons_branch</title>
<path fill="#45475a" stroke="#fab387" stroke-width="1.2" d="M1650.75,-197.89C1650.75,-197.89 1428.15,-197.89 1428.15,-197.89 1422.15,-197.89 1416.15,-191.89 1416.15,-185.89 1416.15,-185.89 1416.15,-142.12 1416.15,-142.12 1416.15,-136.12 1422.15,-130.12 1428.15,-130.12 1428.15,-130.12 1650.75,-130.12 1650.75,-130.12 1656.75,-130.12 1662.75,-136.12 1662.75,-142.12 1662.75,-142.12 1662.75,-185.89 1662.75,-185.89 1662.75,-191.89 1656.75,-197.89 1650.75,-197.89"/>
<text text-anchor="middle" x="1539.45" y="-184.53" font-family="JetBrains Mono,Fira Code,monospace" font-size="8.00" fill="#fab387">switch (r) {</text>
<text text-anchor="middle" x="1539.45" y="-173.28" font-family="JetBrains Mono,Fira Code,monospace" font-size="8.00" fill="#fab387"> &#160;case GN_OK: &#160;&#160;&#160;&#160;&#160;&#160;&#160;&#160;&#160;&#160;&#160;&#160;&#160;&#160;&#160;&#160;&#160;use vt;</text>
<text text-anchor="middle" x="1539.45" y="-162.03" font-family="JetBrains Mono,Fira Code,monospace" font-size="8.00" fill="#fab387"> &#160;case GN_ERR_NOT_FOUND: &#160;&#160;&#160;&#160;&#160;&#160;degrade gracefully;</text>
<text text-anchor="middle" x="1539.45" y="-150.78" font-family="JetBrains Mono,Fira Code,monospace" font-size="8.00" fill="#fab387"> &#160;case GN_ERR_VERSION_MISMATCH: too&#45;old provider;</text>
<text text-anchor="middle" x="1539.45" y="-139.53" font-family="JetBrains Mono,Fira Code,monospace" font-size="8.00" fill="#fab387">}</text>
</g>
<!-- cons_query&#45;&gt;cons_branch -->
<g id="edge2" class="edge">
<title>cons_query&#45;&gt;cons_branch</title>
<path fill="none" stroke="#585b70" d="M1310.54,-164.01C1340.75,-164.01 1375,-164.01 1407.61,-164.01"/>
<polygon fill="#585b70" stroke="#585b70" points="1407.34,-166.46 1414.34,-164.01 1407.34,-161.56 1407.34,-166.46"/>
</g>
<!-- cons_call -->
<g id="node6" class="node">
<title>cons_call</title>
<path fill="#45475a" stroke="#fab387" stroke-width="1.2" d="M1964.85,-186.64C1964.85,-186.64 1719.75,-186.64 1719.75,-186.64 1713.75,-186.64 1707.75,-180.64 1707.75,-174.64 1707.75,-174.64 1707.75,-153.38 1707.75,-153.38 1707.75,-147.38 1713.75,-141.38 1719.75,-141.38 1719.75,-141.38 1964.85,-141.38 1964.85,-141.38 1970.85,-141.38 1976.85,-147.38 1976.85,-153.38 1976.85,-153.38 1976.85,-174.64 1976.85,-174.64 1976.85,-180.64 1970.85,-186.64 1964.85,-186.64"/>
<text text-anchor="middle" x="1842.3" y="-173.28" font-family="JetBrains Mono,Fira Code,monospace" font-size="8.00" fill="#fab387">auto* api = static_cast&lt;const my_ext_v1_vtable_t*&gt;(vt);</text>
<text text-anchor="middle" x="1842.3" y="-162.03" font-family="JetBrains Mono,Fira Code,monospace" font-size="8.00" fill="#fab387">if (GN_API_HAS(api, do_thing))</text>
<text text-anchor="middle" x="1842.3" y="-150.78" font-family="JetBrains Mono,Fira Code,monospace" font-size="8.00" fill="#fab387"> &#160;&#160;&#160;api&#45;&gt;do_thing(arg);</text>
</g>
<!-- cons_branch&#45;&gt;cons_call -->
<g id="edge3" class="edge">
<title>cons_branch&#45;&gt;cons_call</title>
<path fill="none" stroke="#585b70" d="M1662.82,-164.01C1674.71,-164.01 1686.85,-164.01 1698.92,-164.01"/>
<polygon fill="#585b70" stroke="#585b70" points="1698.75,-166.46 1705.75,-164.01 1698.75,-161.56 1698.75,-166.46"/>
</g>
<!-- compat_note -->
<g id="node8" class="node">
<title>compat_note</title>
<polygon fill="#181825" stroke="#585b70" stroke-width="1.2" points="2310.45,-208.02 2021.85,-208.02 2021.85,-120 2316.45,-120 2316.45,-202.02 2310.45,-208.02"/>
<polyline fill="none" stroke="#585b70" stroke-width="1.2" points="2310.45,-208.02 2310.45,-202.02"/>
<polyline fill="none" stroke="#585b70" stroke-width="1.2" points="2316.45,-202.02 2310.45,-202.02"/>
<text text-anchor="middle" x="2169.15" y="-193.71" font-family="JetBrains Mono,Fira Code,monospace" font-size="9.00" fill="#585b70">Compatibility predicate (gn_version_compatible):</text>
<text text-anchor="middle" x="2169.15" y="-180.96" font-family="JetBrains Mono,Fira Code,monospace" font-size="9.00" fill="#585b70"> &#160;registered.major == requested.major</text>
<text text-anchor="middle" x="2169.15" y="-168.21" font-family="JetBrains Mono,Fira Code,monospace" font-size="9.00" fill="#585b70"> &#160;registered.minor &gt;= requested.minor</text>
<text text-anchor="middle" x="2169.15" y="-155.46" font-family="JetBrains Mono,Fira Code,monospace" font-size="9.00" fill="#585b70"> &#160;patch ignored.</text>
<text text-anchor="middle" x="2169.15" y="-142.71" font-family="JetBrains Mono,Fira Code,monospace" font-size="9.00" fill="#585b70">Older minor consumer always loads;</text>
<text text-anchor="middle" x="2169.15" y="-129.96" font-family="JetBrains Mono,Fira Code,monospace" font-size="9.00" fill="#585b70">newer minor consumer rejected with VERSION_MISMATCH.</text>
</g>
<!-- cons_call&#45;&gt;compat_note -->
</g>
</svg>
