<?xml version="1.0" encoding="UTF-8" standalone="no"?>
<!DOCTYPE svg PUBLIC "-//W3C//DTD SVG 1.1//EN"
 "http://www.w3.org/Graphics/SVG/1.1/DTD/svg11.dtd">
<!-- Generated by graphviz version 12.2.1 (0)
 -->
<!-- Title: handler_kinds Pages: 1 -->
<svg width="1165pt" height="351pt"
 viewBox="0.00 0.00 1164.65 350.75" xmlns="http://www.w3.org/2000/svg" xmlns:xlink="http://www.w3.org/1999/xlink">
<g id="graph0" class="graph" transform="scale(1 1) rotate(0) translate(28.8 321.94)">
<title>handler_kinds</title>
<polygon fill="#1e1e2e" stroke="none" points="-28.8,28.8 -28.8,-321.94 1135.85,-321.94 1135.85,28.8 -28.8,28.8"/>
<!-- registry -->
<g id="node1" class="node">
<title>registry</title>
<polygon fill="#45475a" stroke="#b4befe" stroke-width="1.2" points="327.6,-175.27 0,-175.27 0,-123.25 327.6,-123.25 327.6,-175.27"/>
<text text-anchor="middle" x="163.8" y="-160.01" font-family="JetBrains Mono,Fira Code,monospace" font-size="10.00" fill="#b4befe">host_api&#45;&gt;register_vtable(kind, meta, vtable, self)</text>
<text text-anchor="middle" x="163.8" y="-146.51" font-family="JetBrains Mono,Fira Code,monospace" font-size="10.00" fill="#b4befe">single entry point; kind selects family;</text>
<text text-anchor="middle" x="163.8" y="-133.01" font-family="JetBrains Mono,Fira Code,monospace" font-size="10.00" fill="#b4befe">returned id encodes the kind in its top 4 bits</text>
</g>
<!-- handler -->
<g id="node2" class="node">
<title>handler</title>
<polygon fill="#45475a" stroke="#a6e3a1" stroke-width="1.2" points="756.7,-293.14 383.35,-293.14 383.35,-243.38 756.7,-243.38 756.7,-293.14"/>
<text text-anchor="middle" x="570.03" y="-278.83" font-family="JetBrains Mono,Fira Code,monospace" font-size="9.00" fill="#a6e3a1">Handler vtable (gn_handler_vtable_s)</text>
<text text-anchor="middle" x="570.03" y="-266.08" font-family="JetBrains Mono,Fira Code,monospace" font-size="9.00" fill="#a6e3a1">6 slots + 4 reserved</text>
<text text-anchor="middle" x="570.03" y="-253.33" font-family="JetBrains Mono,Fira Code,monospace" font-size="9.00" fill="#a6e3a1">protocol_id, supported_msg_ids, handle_message, on_result &#160;+ 2 more</text>
</g>
<!-- registry&#45;&gt;handler -->
<g id="edge1" class="edge">
<title>registry&#45;&gt;handler</title>
<path fill="none" stroke="#585b70" d="M224.63,-175.77C264.51,-192.63 318.45,-213.93 367.6,-228.26 383.48,-232.89 400.23,-237.16 417,-241.04"/>
<polygon fill="#585b70" stroke="#585b70" points="416.38,-243.41 423.75,-242.58 417.47,-238.64 416.38,-243.41"/>
</g>
<!-- link -->
<g id="node3" class="node">
<title>link</title>
<polygon fill="#45475a" stroke="#89b4fa" stroke-width="1.2" points="683.2,-214.14 456.85,-214.14 456.85,-164.38 683.2,-164.38 683.2,-214.14"/>
<text text-anchor="middle" x="570.03" y="-199.83" font-family="JetBrains Mono,Fira Code,monospace" font-size="9.00" fill="#89b4fa">Link vtable (gn_link_vtable_s)</text>
<text text-anchor="middle" x="570.03" y="-187.08" font-family="JetBrains Mono,Fira Code,monospace" font-size="9.00" fill="#89b4fa">9 slots + 4 reserved</text>
<text text-anchor="middle" x="570.03" y="-174.33" font-family="JetBrains Mono,Fira Code,monospace" font-size="9.00" fill="#89b4fa">scheme, listen, connect, send &#160;+ 5 more</text>
</g>
<!-- registry&#45;&gt;link -->
<g id="edge2" class="edge">
<title>registry&#45;&gt;link</title>
<path fill="none" stroke="#585b70" d="M328.05,-165.41C368.35,-169.4 410.79,-173.6 448.63,-177.35"/>
<polygon fill="#585b70" stroke="#585b70" points="447.92,-179.74 455.13,-177.99 448.41,-174.86 447.92,-179.74"/>
</g>
<!-- security -->
<g id="node4" class="node">
<title>security</title>
<polygon fill="#45475a" stroke="#cba6f7" stroke-width="1.2" points="772.45,-135.14 367.6,-135.14 367.6,-85.38 772.45,-85.38 772.45,-135.14"/>
<text text-anchor="middle" x="570.03" y="-120.83" font-family="JetBrains Mono,Fira Code,monospace" font-size="9.00" fill="#cba6f7">Security vtable (gn_security_provider_vtable_s)</text>
<text text-anchor="middle" x="570.03" y="-108.08" font-family="JetBrains Mono,Fira Code,monospace" font-size="9.00" fill="#cba6f7">11 slots + 4 reserved</text>
<text text-anchor="middle" x="570.03" y="-95.33" font-family="JetBrains Mono,Fira Code,monospace" font-size="9.00" fill="#cba6f7">provider_id, handshake_open, handshake_step, handshake_complete &#160;+ 7 more</text>
</g>
<!-- registry&#45;&gt;security -->
<g id="edge3" class="edge">
<title>registry&#45;&gt;security</title>
<path fill="none" stroke="#585b70" d="M328.05,-133.51C338.25,-132.53 348.59,-131.53 358.95,-130.53"/>
<polygon fill="#585b70" stroke="#585b70" points="359.03,-132.98 365.76,-129.87 358.56,-128.1 359.03,-132.98"/>
</g>
<!-- link_extension -->
<g id="node5" class="node">
<title>link_extension</title>
<polygon fill="#45475a" stroke="#94e2d5" stroke-width="1.2" points="725.2,-56.14 414.85,-56.14 414.85,-6.38 725.2,-6.38 725.2,-56.14"/>
<text text-anchor="middle" x="570.03" y="-41.84" font-family="JetBrains Mono,Fira Code,monospace" font-size="9.00" fill="#94e2d5">Link extension vtable (gn_link_api_s)</text>
<text text-anchor="middle" x="570.03" y="-29.08" font-family="JetBrains Mono,Fira Code,monospace" font-size="9.00" fill="#94e2d5">12 slots + 4 reserved</text>
<text text-anchor="middle" x="570.03" y="-16.33" font-family="JetBrains Mono,Fira Code,monospace" font-size="9.00" fill="#94e2d5">get_stats, get_capabilities, send, send_batch &#160;+ 8 more</text>
</g>
<!-- registry&#45;&gt;link_extension -->
<g id="edge4" class="edge">
<title>registry&#45;&gt;link_extension</title>
<path fill="none" stroke="#585b70" d="M225.55,-122.76C265.36,-106.17 318.86,-85.36 367.6,-71.26 383.57,-66.64 400.4,-62.38 417.25,-58.49"/>
<polygon fill="#585b70" stroke="#585b70" points="417.76,-60.89 424.05,-56.95 416.68,-56.11 417.76,-60.89"/>
</g>
<!-- note -->
<g id="node6" class="node">
<title>note</title>
<polygon fill="#181825" stroke="#585b70" stroke-width="1.2" points="1101.05,-62.52 812.45,-62.52 812.45,0 1107.05,0 1107.05,-56.52 1101.05,-62.52"/>
<polyline fill="none" stroke="#585b70" stroke-width="1.2" points="1101.05,-62.52 1101.05,-56.52"/>
<polyline fill="none" stroke="#585b70" stroke-width="1.2" points="1107.05,-56.52 1101.05,-56.52"/>
<text text-anchor="middle" x="959.75" y="-48.21" font-family="JetBrains Mono,Fira Code,monospace" font-size="9.00" fill="#585b70">Slot counts auto&#45;extracted from docs/_facts/*.yaml</text>
<text text-anchor="middle" x="959.75" y="-35.46" font-family="JetBrains Mono,Fira Code,monospace" font-size="9.00" fill="#585b70">(libclang AST walk over sdk/*.h, run by</text>
<text text-anchor="middle" x="959.75" y="-22.71" font-family="JetBrains Mono,Fira Code,monospace" font-size="9.00" fill="#585b70">tools/livedoc.py). Drift impossible — header changes</text>
<text text-anchor="middle" x="959.75" y="-9.96" font-family="JetBrains Mono,Fira Code,monospace" font-size="9.00" fill="#585b70">land in the diagram next time make livedoc runs.</text>
</g>
<!-- link_extension&#45;&gt;note -->
</g>
</svg>
