<?xml version="1.0" encoding="UTF-8" standalone="no"?>
<!DOCTYPE svg PUBLIC "-//W3C//DTD SVG 1.1//EN"
 "http://www.w3.org/Graphics/SVG/1.1/DTD/svg11.dtd">
<!-- Generated by graphviz version 12.2.1 (0)
 -->
<!-- Title: host_api_kinds Pages: 1 -->
<svg width="2275pt" height="467pt"
 viewBox="0.00 0.00 2274.60 467.14" xmlns="http://www.w3.org/2000/svg" xmlns:xlink="http://www.w3.org/1999/xlink">
<g id="graph0" class="graph" transform="scale(1 1) rotate(0) translate(28.8 438.34)">
<title>host_api_kinds</title>
<polygon fill="#1e1e2e" stroke="none" points="-28.8,28.8 -28.8,-438.34 2245.8,-438.34 2245.8,28.8 -28.8,28.8"/>
<g id="clust1" class="cluster">
<title>cluster_primitives</title>
<path fill="#181825" stroke="#b4befe" stroke-width="1.5" d="M20,-246.77C20,-246.77 2197,-246.77 2197,-246.77 2203,-246.77 2209,-252.77 2209,-258.77 2209,-258.77 2209,-334.54 2209,-334.54 2209,-340.54 2203,-346.54 2197,-346.54 2197,-346.54 20,-346.54 20,-346.54 14,-346.54 8,-340.54 8,-334.54 8,-334.54 8,-258.77 8,-258.77 8,-252.77 14,-246.77 20,-246.77"/>
<text text-anchor="middle" x="1108.5" y="-331.14" font-family="JetBrains Mono,Fira Code,monospace" font-size="12.00" fill="#b4befe">host_api_t — KIND&#45;tagged primitives</text>
</g>
<g id="clust2" class="cluster">
<title>cluster_back</title>
<path fill="#1e1e2e" stroke="#a6e3a1" stroke-width="1.2" d="M473,-150.52C473,-150.52 1416,-150.52 1416,-150.52 1422,-150.52 1428,-156.52 1428,-162.52 1428,-162.52 1428,-197.52 1428,-197.52 1428,-203.52 1422,-209.52 1416,-209.52 1416,-209.52 473,-209.52 473,-209.52 467,-209.52 461,-203.52 461,-197.52 461,-197.52 461,-162.52 461,-162.52 461,-156.52 467,-150.52 473,-150.52"/>
<text text-anchor="middle" x="944.5" y="-195.07" font-family="JetBrains Mono,Fira Code,monospace" font-size="11.00" fill="#a6e3a1">Kernel registries (opaque to plugins)</text>
</g>
<!-- plugin -->
<g id="node1" class="node">
<title>plugin</title>
<polygon fill="#45475a" stroke="#fab387" stroke-width="1.2" points="1114.05,-409.54 1051.95,-409.54 1051.95,-405.54 1047.95,-405.54 1047.95,-401.54 1051.95,-401.54 1051.95,-381.54 1047.95,-381.54 1047.95,-377.54 1051.95,-377.54 1051.95,-373.54 1114.05,-373.54 1114.05,-409.54"/>
<polyline fill="none" stroke="#fab387" stroke-width="1.2" points="1051.95,-405.54 1055.95,-405.54 1055.95,-401.54 1051.95,-401.54"/>
<polyline fill="none" stroke="#fab387" stroke-width="1.2" points="1051.95,-381.54 1055.95,-381.54 1055.95,-377.54 1051.95,-377.54"/>
<text text-anchor="middle" x="1083" y="-388.59" font-family="JetBrains Mono,Fira Code,monospace" font-size="11.00" fill="#fab387">Plugin</text>
</g>
<!-- register -->
<g id="node2" class="node">
<title>register</title>
<path fill="#45475a" stroke="#89b4fa" stroke-width="1.2" d="M280.05,-322.04C280.05,-322.04 19.95,-322.04 19.95,-322.04 13.95,-322.04 7.95,-316.04 7.95,-310.04 7.95,-310.04 7.95,-258.77 7.95,-258.77 7.95,-252.77 13.95,-246.77 19.95,-246.77 19.95,-246.77 280.05,-246.77 280.05,-246.77 286.05,-246.77 292.05,-252.77 292.05,-258.77 292.05,-258.77 292.05,-310.04 292.05,-310.04 292.05,-316.04 286.05,-322.04 280.05,-322.04"/>
<text text-anchor="middle" x="150" y="-307.73" font-family="JetBrains Mono,Fira Code,monospace" font-size="9.00" fill="#89b4fa">register_vtable(kind, meta, vtable, self, &amp;out_id)</text>
<text text-anchor="middle" x="150" y="-294.98" font-family="JetBrains Mono,Fira Code,monospace" font-size="9.00" fill="#89b4fa"> &#160;GN_REGISTER_HANDLER &#160;→ &#160;HandlerRegistry</text>
<text text-anchor="middle" x="150" y="-282.23" font-family="JetBrains Mono,Fira Code,monospace" font-size="9.00" fill="#89b4fa"> &#160;GN_REGISTER_LINK &#160;&#160;&#160;&#160;→ &#160;LinkRegistry</text>
<text text-anchor="middle" x="150" y="-269.48" font-family="JetBrains Mono,Fira Code,monospace" font-size="9.00" fill="#89b4fa">→ id encodes kind in top 4 bits;</text>
<text text-anchor="middle" x="150" y="-256.73" font-family="JetBrains Mono,Fira Code,monospace" font-size="9.00" fill="#89b4fa"> &#160;unregister_vtable(id) routes back</text>
</g>
<!-- plugin&#45;&gt;register -->
<g id="edge1" class="edge">
<title>plugin&#45;&gt;register</title>
<path fill="none" stroke="#585b70" d="M1051.49,-390.11C924.52,-388.15 450.17,-378.79 304,-346.54 281.64,-341.61 258.29,-333.83 236.73,-325.45"/>
<polygon fill="#585b70" stroke="#585b70" points="230.32,-322.92 237.99,-322.56 232.44,-323.76 236.83,-325.49 236.83,-325.49 236.83,-325.49 232.44,-323.76 235.67,-328.42 230.32,-322.92"/>
</g>
<!-- register_security -->
<g id="node3" class="node">
<title>register_security</title>
<path fill="#45475a" stroke="#89b4fa" stroke-width="1.2" d="M557.3,-309.29C557.3,-309.29 328.7,-309.29 328.7,-309.29 322.7,-309.29 316.7,-303.29 316.7,-297.29 316.7,-297.29 316.7,-271.52 316.7,-271.52 316.7,-265.52 322.7,-259.52 328.7,-259.52 328.7,-259.52 557.3,-259.52 557.3,-259.52 563.3,-259.52 569.3,-265.52 569.3,-271.52 569.3,-271.52 569.3,-297.29 569.3,-297.29 569.3,-303.29 563.3,-309.29 557.3,-309.29"/>
<text text-anchor="middle" x="443" y="-294.98" font-family="JetBrains Mono,Fira Code,monospace" font-size="9.00" fill="#89b4fa">register_security(provider_id, vtable, self)</text>
<text text-anchor="middle" x="443" y="-282.23" font-family="JetBrains Mono,Fira Code,monospace" font-size="9.00" fill="#89b4fa">→ SecurityRegistry</text>
<text text-anchor="middle" x="443" y="-269.48" font-family="JetBrains Mono,Fira Code,monospace" font-size="9.00" fill="#89b4fa"> &#160;v1: at most one active provider per kernel</text>
</g>
<!-- plugin&#45;&gt;register_security -->
<g id="edge2" class="edge">
<title>plugin&#45;&gt;register_security</title>
<path fill="none" stroke="#585b70" d="M1051.62,-391.29C971.82,-392.46 755.17,-390.94 582,-346.54 552.25,-338.91 520.79,-325.57 495.34,-313.29"/>
<polygon fill="#585b70" stroke="#585b70" points="489.08,-310.22 496.75,-310.47 491.13,-311.23 495.37,-313.3 495.37,-313.3 495.37,-313.3 491.13,-311.23 493.98,-316.13 489.08,-310.22"/>
</g>
<!-- register_extension -->
<g id="node4" class="node">
<title>register_extension</title>
<path fill="#45475a" stroke="#89b4fa" stroke-width="1.2" d="M839.92,-309.29C839.92,-309.29 606.08,-309.29 606.08,-309.29 600.08,-309.29 594.08,-303.29 594.08,-297.29 594.08,-297.29 594.08,-271.52 594.08,-271.52 594.08,-265.52 600.08,-259.52 606.08,-259.52 606.08,-259.52 839.92,-259.52 839.92,-259.52 845.92,-259.52 851.92,-265.52 851.92,-271.52 851.92,-271.52 851.92,-297.29 851.92,-297.29 851.92,-303.29 845.92,-309.29 839.92,-309.29"/>
<text text-anchor="middle" x="723" y="-294.98" font-family="JetBrains Mono,Fira Code,monospace" font-size="9.00" fill="#89b4fa">register_extension(name, version, vtable)</text>
<text text-anchor="middle" x="723" y="-282.23" font-family="JetBrains Mono,Fira Code,monospace" font-size="9.00" fill="#89b4fa">→ ExtensionRegistry</text>
<text text-anchor="middle" x="723" y="-269.48" font-family="JetBrains Mono,Fira Code,monospace" font-size="9.00" fill="#89b4fa"> &#160;query_extension_checked(name, version, &amp;vt)</text>
</g>
<!-- plugin&#45;&gt;register_extension -->
<g id="edge3" class="edge">
<title>plugin&#45;&gt;register_extension</title>
<path fill="none" stroke="#585b70" d="M1051.81,-386.33C1009.03,-380.08 930.05,-366.86 865,-346.54 836.32,-337.58 805.57,-324.76 780.04,-313.18"/>
<polygon fill="#585b70" stroke="#585b70" points="773.75,-310.3 781.43,-310.35 775.82,-311.25 780.11,-313.21 780.11,-313.21 780.11,-313.21 775.82,-311.25 778.8,-316.08 773.75,-310.3"/>
</g>
<!-- subscribe -->
<g id="node5" class="node">
<title>subscribe</title>
<path fill="#45475a" stroke="#a6e3a1" stroke-width="1.2" d="M1138.8,-309.29C1138.8,-309.29 889.2,-309.29 889.2,-309.29 883.2,-309.29 877.2,-303.29 877.2,-297.29 877.2,-297.29 877.2,-271.52 877.2,-271.52 877.2,-265.52 883.2,-259.52 889.2,-259.52 889.2,-259.52 1138.8,-259.52 1138.8,-259.52 1144.8,-259.52 1150.8,-265.52 1150.8,-271.52 1150.8,-271.52 1150.8,-297.29 1150.8,-297.29 1150.8,-303.29 1144.8,-309.29 1138.8,-309.29"/>
<text text-anchor="middle" x="1014" y="-294.98" font-family="JetBrains Mono,Fira Code,monospace" font-size="9.00" fill="#a6e3a1">subscribe_conn_state(cb, ud, ud_destroy, &amp;id)</text>
<text text-anchor="middle" x="1014" y="-282.23" font-family="JetBrains Mono,Fira Code,monospace" font-size="9.00" fill="#a6e3a1">subscribe_config_reload(cb, ud, ud_destroy, &amp;id)</text>
<text text-anchor="middle" x="1014" y="-269.48" font-family="JetBrains Mono,Fira Code,monospace" font-size="9.00" fill="#a6e3a1">→ unsubscribe(id) &#160;routes by tag in id top bits</text>
</g>
<!-- plugin&#45;&gt;subscribe -->
<g id="edge4" class="edge">
<title>plugin&#45;&gt;subscribe</title>
<path fill="none" stroke="#585b70" d="M1071.61,-373.18C1061.45,-357.7 1046.34,-334.68 1034.15,-316.1"/>
<polygon fill="#585b70" stroke="#585b70" points="1030.47,-310.5 1036.94,-314.62 1031.72,-312.41 1034.31,-316.35 1034.31,-316.35 1034.31,-316.35 1031.72,-312.41 1031.68,-318.08 1030.47,-310.5"/>
</g>
<!-- for_each -->
<g id="node6" class="node">
<title>for_each</title>
<path fill="#45475a" stroke="#94e2d5" stroke-width="1.2" d="M1657.3,-302.91C1657.3,-302.91 1386.7,-302.91 1386.7,-302.91 1380.7,-302.91 1374.7,-296.91 1374.7,-290.91 1374.7,-290.91 1374.7,-277.89 1374.7,-277.89 1374.7,-271.89 1380.7,-265.89 1386.7,-265.89 1386.7,-265.89 1657.3,-265.89 1657.3,-265.89 1663.3,-265.89 1669.3,-271.89 1669.3,-277.89 1669.3,-277.89 1669.3,-290.91 1669.3,-290.91 1669.3,-296.91 1663.3,-302.91 1657.3,-302.91"/>
<text text-anchor="middle" x="1522" y="-288.6" font-family="JetBrains Mono,Fira Code,monospace" font-size="9.00" fill="#94e2d5">for_each_connection(visitor, ud)</text>
<text text-anchor="middle" x="1522" y="-275.85" font-family="JetBrains Mono,Fira Code,monospace" font-size="9.00" fill="#94e2d5"> &#160;per&#45;shard read lock; visitor returns 0 to continue</text>
</g>
<!-- plugin&#45;&gt;for_each -->
<g id="edge5" class="edge">
<title>plugin&#45;&gt;for_each</title>
<path fill="none" stroke="#585b70" d="M1114.41,-387.74C1166.52,-382.62 1273.87,-370.05 1362,-346.54 1400.83,-336.18 1443.26,-319.72 1474.67,-306.48"/>
<polygon fill="#585b70" stroke="#585b70" points="1480.88,-303.85 1475.67,-309.48 1478.78,-304.74 1474.43,-306.58 1474.43,-306.58 1474.43,-306.58 1478.78,-304.74 1473.2,-303.68 1480.88,-303.85"/>
</g>
<!-- iterate_counters -->
<g id="node7" class="node">
<title>iterate_counters</title>
<path fill="#45475a" stroke="#94e2d5" stroke-width="1.2" d="M1337.92,-302.91C1337.92,-302.91 1188.08,-302.91 1188.08,-302.91 1182.08,-302.91 1176.08,-296.91 1176.08,-290.91 1176.08,-290.91 1176.08,-277.89 1176.08,-277.89 1176.08,-271.89 1182.08,-265.89 1188.08,-265.89 1188.08,-265.89 1337.92,-265.89 1337.92,-265.89 1343.92,-265.89 1349.92,-271.89 1349.92,-277.89 1349.92,-277.89 1349.92,-290.91 1349.92,-290.91 1349.92,-296.91 1343.92,-302.91 1337.92,-302.91"/>
<text text-anchor="middle" x="1263" y="-288.6" font-family="JetBrains Mono,Fira Code,monospace" font-size="9.00" fill="#94e2d5">iterate_counters(visitor, ud)</text>
<text text-anchor="middle" x="1263" y="-275.85" font-family="JetBrains Mono,Fira Code,monospace" font-size="9.00" fill="#94e2d5"> &#160;walk metric counters</text>
</g>
<!-- plugin&#45;&gt;iterate_counters -->
<g id="edge6" class="edge">
<title>plugin&#45;&gt;iterate_counters</title>
<path fill="none" stroke="#585b70" d="M1114.34,-373.74C1129.18,-365.67 1147.1,-355.77 1163,-346.54 1184.63,-333.99 1208.54,-319.4 1227.56,-307.62"/>
<polygon fill="#585b70" stroke="#585b70" points="1233.29,-304.06 1229.01,-310.43 1231.35,-305.26 1227.35,-307.75 1227.35,-307.75 1227.35,-307.75 1231.35,-305.26 1225.68,-305.07 1233.29,-304.06"/>
</g>
<!-- config_get -->
<g id="node8" class="node">
<title>config_get</title>
<path fill="#45475a" stroke="#f9e2af" stroke-width="1.2" d="M2197.3,-315.66C2197.3,-315.66 1926.7,-315.66 1926.7,-315.66 1920.7,-315.66 1914.7,-309.66 1914.7,-303.66 1914.7,-303.66 1914.7,-265.14 1914.7,-265.14 1914.7,-259.14 1920.7,-253.14 1926.7,-253.14 1926.7,-253.14 2197.3,-253.14 2197.3,-253.14 2203.3,-253.14 2209.3,-259.14 2209.3,-265.14 2209.3,-265.14 2209.3,-303.66 2209.3,-303.66 2209.3,-309.66 2203.3,-315.66 2197.3,-315.66"/>
<text text-anchor="middle" x="2062" y="-301.35" font-family="JetBrains Mono,Fira Code,monospace" font-size="9.00" fill="#f9e2af">config_get(key, type, index, out, ud, free)</text>
<text text-anchor="middle" x="2062" y="-288.6" font-family="JetBrains Mono,Fira Code,monospace" font-size="9.00" fill="#f9e2af"> &#160;GN_CFG_BOOL · INT64 · DOUBLE · STRING</text>
<text text-anchor="middle" x="2062" y="-275.85" font-family="JetBrains Mono,Fira Code,monospace" font-size="9.00" fill="#f9e2af"> &#160;ARRAY_SIZE · array element by index</text>
<text text-anchor="middle" x="2062" y="-263.1" font-family="JetBrains Mono,Fira Code,monospace" font-size="9.00" fill="#f9e2af">→ kernel rejects type mismatch with INVALID_ENVELOPE</text>
</g>
<!-- plugin&#45;&gt;config_get -->
<g id="edge7" class="edge">
<title>plugin&#45;&gt;config_get</title>
<path fill="none" stroke="#585b70" d="M1114.32,-390.16C1245.03,-388.35 1747.39,-379.38 1902,-346.54 1930.98,-340.38 1961.64,-329.76 1988.28,-319.08"/>
<polygon fill="#585b70" stroke="#585b70" points="1994.55,-316.53 1989.25,-322.08 1992.44,-317.38 1988.07,-319.16 1988.07,-319.16 1988.07,-319.16 1992.44,-317.38 1986.88,-316.24 1994.55,-316.53"/>
</g>
<!-- get_lookups -->
<g id="node9" class="node">
<title>get_lookups</title>
<path fill="#45475a" stroke="#f9e2af" stroke-width="1.2" d="M1877.42,-302.91C1877.42,-302.91 1706.58,-302.91 1706.58,-302.91 1700.58,-302.91 1694.58,-296.91 1694.58,-290.91 1694.58,-290.91 1694.58,-277.89 1694.58,-277.89 1694.58,-271.89 1700.58,-265.89 1706.58,-265.89 1706.58,-265.89 1877.42,-265.89 1877.42,-265.89 1883.42,-265.89 1889.42,-271.89 1889.42,-277.89 1889.42,-277.89 1889.42,-290.91 1889.42,-290.91 1889.42,-296.91 1883.42,-302.91 1877.42,-302.91"/>
<text text-anchor="middle" x="1792" y="-288.6" font-family="JetBrains Mono,Fira Code,monospace" font-size="9.00" fill="#f9e2af">find_conn_by_pk(pk, &amp;conn)</text>
<text text-anchor="middle" x="1792" y="-275.85" font-family="JetBrains Mono,Fira Code,monospace" font-size="9.00" fill="#f9e2af">get_endpoint(conn, &amp;out_endpoint)</text>
</g>
<!-- plugin&#45;&gt;get_lookups -->
<g id="edge8" class="edge">
<title>plugin&#45;&gt;get_lookups</title>
<path fill="none" stroke="#585b70" d="M1114.4,-390.01C1221.84,-387.94 1574.1,-378.77 1682,-346.54 1710.33,-338.08 1739.46,-321.47 1760.61,-307.7"/>
<polygon fill="#585b70" stroke="#585b70" points="1766.18,-304.02 1762.08,-310.51 1764.27,-305.28 1760.34,-307.88 1760.34,-307.88 1760.34,-307.88 1764.27,-305.28 1758.6,-305.26 1766.18,-304.02"/>
</g>
<!-- k_handler -->
<g id="node10" class="node">
<title>k_handler</title>
<path fill="#45475a" stroke="#a6e3a1" stroke-width="1.2" d="M658.17,-186.52C658.17,-186.52 581.83,-186.52 581.83,-186.52 575.83,-186.52 569.83,-180.52 569.83,-174.52 569.83,-174.52 569.83,-162.52 569.83,-162.52 569.83,-156.52 575.83,-150.52 581.83,-150.52 581.83,-150.52 658.17,-150.52 658.17,-150.52 664.17,-150.52 670.17,-156.52 670.17,-162.52 670.17,-162.52 670.17,-174.52 670.17,-174.52 670.17,-180.52 664.17,-186.52 658.17,-186.52"/>
<text text-anchor="middle" x="620" y="-166.34" font-family="JetBrains Mono,Fira Code,monospace" font-size="9.00" fill="#a6e3a1">HandlerRegistry</text>
</g>
<!-- register&#45;&gt;k_handler -->
<g id="edge9" class="edge">
<title>register&#45;&gt;k_handler</title>
<path fill="none" stroke="#89b4fa" d="M292.54,-249.03C296.4,-248.25 300.22,-247.5 304,-246.77 416.05,-225.27 451.19,-249.64 558,-209.52 569.69,-205.13 581.47,-198.28 591.58,-191.48"/>
<polygon fill="#89b4fa" stroke="#89b4fa" points="592.69,-193.69 597.04,-187.68 589.89,-189.67 592.69,-193.69"/>
<text text-anchor="middle" x="560.67" y="-221.17" font-family="JetBrains Mono,Fira Code,monospace" font-size="8.00" fill="#89b4fa">kind=HANDLER</text>
</g>
<!-- k_link -->
<g id="node11" class="node">
<title>k_link</title>
<path fill="#45475a" stroke="#a6e3a1" stroke-width="1.2" d="M533.3,-186.52C533.3,-186.52 472.7,-186.52 472.7,-186.52 466.7,-186.52 460.7,-180.52 460.7,-174.52 460.7,-174.52 460.7,-162.52 460.7,-162.52 460.7,-156.52 466.7,-150.52 472.7,-150.52 472.7,-150.52 533.3,-150.52 533.3,-150.52 539.3,-150.52 545.3,-156.52 545.3,-162.52 545.3,-162.52 545.3,-174.52 545.3,-174.52 545.3,-180.52 539.3,-186.52 533.3,-186.52"/>
<text text-anchor="middle" x="503" y="-166.34" font-family="JetBrains Mono,Fira Code,monospace" font-size="9.00" fill="#a6e3a1">LinkRegistry</text>
</g>
<!-- register&#45;&gt;k_link -->
<g id="edge10" class="edge">
<title>register&#45;&gt;k_link</title>
<path fill="none" stroke="#89b4fa" d="M265.1,-246.27C328.37,-225.86 403.67,-201.56 452.35,-185.86"/>
<polygon fill="#89b4fa" stroke="#89b4fa" points="452.88,-188.26 458.79,-183.78 451.38,-183.6 452.88,-188.26"/>
<text text-anchor="middle" x="367.88" y="-221.17" font-family="JetBrains Mono,Fira Code,monospace" font-size="8.00" fill="#89b4fa">kind=LINK</text>
</g>
<!-- k_security -->
<g id="node12" class="node">
<title>k_security</title>
<path fill="#45475a" stroke="#a6e3a1" stroke-width="1.2" d="M788.8,-186.52C788.8,-186.52 707.2,-186.52 707.2,-186.52 701.2,-186.52 695.2,-180.52 695.2,-174.52 695.2,-174.52 695.2,-162.52 695.2,-162.52 695.2,-156.52 701.2,-150.52 707.2,-150.52 707.2,-150.52 788.8,-150.52 788.8,-150.52 794.8,-150.52 800.8,-156.52 800.8,-162.52 800.8,-162.52 800.8,-174.52 800.8,-174.52 800.8,-180.52 794.8,-186.52 788.8,-186.52"/>
<text text-anchor="middle" x="748" y="-166.34" font-family="JetBrains Mono,Fira Code,monospace" font-size="9.00" fill="#a6e3a1">SecurityRegistry</text>
</g>
<!-- register_security&#45;&gt;k_security -->
<g id="edge11" class="edge">
<title>register_security&#45;&gt;k_security</title>
<path fill="none" stroke="#89b4fa" d="M530.27,-259.04C587.01,-242.73 655.4,-222.02 683,-209.52 694.28,-204.41 705.98,-197.71 716.3,-191.25"/>
<polygon fill="#89b4fa" stroke="#89b4fa" points="717.35,-193.49 721.92,-187.65 714.71,-189.36 717.35,-193.49"/>
</g>
<!-- k_ext -->
<g id="node13" class="node">
<title>k_ext</title>
<path fill="#45475a" stroke="#a6e3a1" stroke-width="1.2" d="M924.42,-186.52C924.42,-186.52 837.58,-186.52 837.58,-186.52 831.58,-186.52 825.58,-180.52 825.58,-174.52 825.58,-174.52 825.58,-162.52 825.58,-162.52 825.58,-156.52 831.58,-150.52 837.58,-150.52 837.58,-150.52 924.42,-150.52 924.42,-150.52 930.42,-150.52 936.42,-156.52 936.42,-162.52 936.42,-162.52 936.42,-174.52 936.42,-174.52 936.42,-180.52 930.42,-186.52 924.42,-186.52"/>
<text text-anchor="middle" x="881" y="-166.34" font-family="JetBrains Mono,Fira Code,monospace" font-size="9.00" fill="#a6e3a1">ExtensionRegistry</text>
</g>
<!-- register_extension&#45;&gt;k_ext -->
<g id="edge12" class="edge">
<title>register_extension&#45;&gt;k_ext</title>
<path fill="none" stroke="#89b4fa" d="M756.51,-259.25C784.23,-239.27 823.3,-211.11 850.24,-191.69"/>
<polygon fill="#89b4fa" stroke="#89b4fa" points="851.34,-193.92 855.58,-187.84 848.47,-189.95 851.34,-193.92"/>
</g>
<!-- k_chan -->
<g id="node14" class="node">
<title>k_chan</title>
<path fill="#45475a" stroke="#a6e3a1" stroke-width="1.2" d="M1054.8,-186.52C1054.8,-186.52 973.2,-186.52 973.2,-186.52 967.2,-186.52 961.2,-180.52 961.2,-174.52 961.2,-174.52 961.2,-162.52 961.2,-162.52 961.2,-156.52 967.2,-150.52 973.2,-150.52 973.2,-150.52 1054.8,-150.52 1054.8,-150.52 1060.8,-150.52 1066.8,-156.52 1066.8,-162.52 1066.8,-162.52 1066.8,-174.52 1066.8,-174.52 1066.8,-180.52 1060.8,-186.52 1054.8,-186.52"/>
<text text-anchor="middle" x="1014" y="-166.34" font-family="JetBrains Mono,Fira Code,monospace" font-size="9.00" fill="#a6e3a1">SignalChannel&lt;…&gt;</text>
</g>
<!-- subscribe&#45;&gt;k_chan -->
<g id="edge13" class="edge">
<title>subscribe&#45;&gt;k_chan</title>
<path fill="none" stroke="#a6e3a1" d="M1014,-259.25C1014,-240.45 1014,-214.42 1014,-195.24"/>
<polygon fill="#a6e3a1" stroke="#a6e3a1" points="1016.45,-195.47 1014,-188.47 1011.55,-195.47 1016.45,-195.47"/>
</g>
<!-- k_conn -->
<g id="node15" class="node">
<title>k_conn</title>
<path fill="#45475a" stroke="#a6e3a1" stroke-width="1.2" d="M1311.05,-186.52C1311.05,-186.52 1218.95,-186.52 1218.95,-186.52 1212.95,-186.52 1206.95,-180.52 1206.95,-174.52 1206.95,-174.52 1206.95,-162.52 1206.95,-162.52 1206.95,-156.52 1212.95,-150.52 1218.95,-150.52 1218.95,-150.52 1311.05,-150.52 1311.05,-150.52 1317.05,-150.52 1323.05,-156.52 1323.05,-162.52 1323.05,-162.52 1323.05,-174.52 1323.05,-174.52 1323.05,-180.52 1317.05,-186.52 1311.05,-186.52"/>
<text text-anchor="middle" x="1265" y="-166.34" font-family="JetBrains Mono,Fira Code,monospace" font-size="9.00" fill="#a6e3a1">ConnectionRegistry</text>
</g>
<!-- for_each&#45;&gt;k_conn -->
<g id="edge14" class="edge">
<title>for_each&#45;&gt;k_conn</title>
<path fill="none" stroke="#94e2d5" d="M1471.48,-265.44C1433.62,-251.48 1380.84,-230.93 1336,-209.52 1324.38,-203.97 1312.04,-197.3 1300.97,-191.02"/>
<polygon fill="#94e2d5" stroke="#94e2d5" points="1302.5,-189.08 1295.2,-187.72 1300.06,-193.33 1302.5,-189.08"/>
</g>
<!-- k_metrics -->
<g id="node16" class="node">
<title>k_metrics</title>
<path fill="#45475a" stroke="#a6e3a1" stroke-width="1.2" d="M1169.92,-186.52C1169.92,-186.52 1104.08,-186.52 1104.08,-186.52 1098.08,-186.52 1092.08,-180.52 1092.08,-174.52 1092.08,-174.52 1092.08,-162.52 1092.08,-162.52 1092.08,-156.52 1098.08,-150.52 1104.08,-150.52 1104.08,-150.52 1169.92,-150.52 1169.92,-150.52 1175.92,-150.52 1181.92,-156.52 1181.92,-162.52 1181.92,-162.52 1181.92,-174.52 1181.92,-174.52 1181.92,-180.52 1175.92,-186.52 1169.92,-186.52"/>
<text text-anchor="middle" x="1137" y="-166.34" font-family="JetBrains Mono,Fira Code,monospace" font-size="9.00" fill="#a6e3a1">Counter store</text>
</g>
<!-- iterate_counters&#45;&gt;k_metrics -->
<g id="edge15" class="edge">
<title>iterate_counters&#45;&gt;k_metrics</title>
<path fill="none" stroke="#94e2d5" d="M1243.31,-265.61C1221.46,-245.86 1186.12,-213.92 1162.24,-192.34"/>
<polygon fill="#94e2d5" stroke="#94e2d5" points="1164.1,-190.71 1157.26,-187.83 1160.81,-194.34 1164.1,-190.71"/>
</g>
<!-- k_config -->
<g id="node17" class="node">
<title>k_config</title>
<path fill="#45475a" stroke="#a6e3a1" stroke-width="1.2" d="M1415.67,-186.52C1415.67,-186.52 1360.33,-186.52 1360.33,-186.52 1354.33,-186.52 1348.33,-180.52 1348.33,-174.52 1348.33,-174.52 1348.33,-162.52 1348.33,-162.52 1348.33,-156.52 1354.33,-150.52 1360.33,-150.52 1360.33,-150.52 1415.67,-150.52 1415.67,-150.52 1421.67,-150.52 1427.67,-156.52 1427.67,-162.52 1427.67,-162.52 1427.67,-174.52 1427.67,-174.52 1427.67,-180.52 1421.67,-186.52 1415.67,-186.52"/>
<text text-anchor="middle" x="1388" y="-166.34" font-family="JetBrains Mono,Fira Code,monospace" font-size="9.00" fill="#a6e3a1">Config tree</text>
</g>
<!-- config_get&#45;&gt;k_config -->
<g id="edge16" class="edge">
<title>config_get&#45;&gt;k_config</title>
<path fill="none" stroke="#f9e2af" d="M1931.63,-252.69C1921.62,-250.6 1911.66,-248.6 1902,-246.77 1731.76,-214.54 1527.75,-187.2 1436.39,-175.55"/>
<polygon fill="#f9e2af" stroke="#f9e2af" points="1436.92,-173.14 1429.66,-174.69 1436.3,-178 1436.92,-173.14"/>
</g>
<!-- get_lookups&#45;&gt;k_conn -->
<g id="edge17" class="edge">
<title>get_lookups&#45;&gt;k_conn</title>
<path fill="none" stroke="#f9e2af" d="M1745.51,-265.47C1726.14,-258.64 1703.24,-251.39 1682,-246.77 1644.22,-238.54 1372.82,-221.32 1336,-209.52 1322.61,-205.23 1308.92,-198.24 1297.17,-191.3"/>
<polygon fill="#f9e2af" stroke="#f9e2af" points="1298.68,-189.35 1291.43,-187.79 1296.13,-193.53 1298.68,-189.35"/>
</g>
<!-- discipline -->
<g id="node18" class="node">
<title>discipline</title>
<polygon fill="#181825" stroke="#585b70" stroke-width="1.2" points="1550.3,-113.52 1219.7,-113.52 1219.7,0 1556.3,0 1556.3,-107.52 1550.3,-113.52"/>
<polyline fill="none" stroke="#585b70" stroke-width="1.2" points="1550.3,-113.52 1550.3,-107.52"/>
<polyline fill="none" stroke="#585b70" stroke-width="1.2" points="1556.3,-107.52 1550.3,-107.52"/>
<text text-anchor="middle" x="1388" y="-99.21" font-family="JetBrains Mono,Fira Code,monospace" font-size="9.00" fill="#585b70">Slot discipline:</text>
<text text-anchor="middle" x="1388" y="-86.46" font-family="JetBrains Mono,Fira Code,monospace" font-size="9.00" fill="#585b70"> &#160;· single ABI slot per primitive shape</text>
<text text-anchor="middle" x="1388" y="-73.71" font-family="JetBrains Mono,Fira Code,monospace" font-size="9.00" fill="#585b70"> &#160;· KIND enum (or channel id, or type tag) selects routing</text>
<text text-anchor="middle" x="1388" y="-60.96" font-family="JetBrains Mono,Fira Code,monospace" font-size="9.00" fill="#585b70"> &#160;· adding a new kind = enum value + kernel side; ABI stable</text>
<text text-anchor="middle" x="1388" y="-48.21" font-family="JetBrains Mono,Fira Code,monospace" font-size="9.00" fill="#585b70"> &#160;· 40 functional slots on host_api_t today + 8 reserved</text>
<text text-anchor="middle" x="1388" y="-35.46" font-family="JetBrains Mono,Fira Code,monospace" font-size="9.00" fill="#585b70">History: pre&#45;RC dedupe 41 → 21 KIND&#45;tagged; post&#45;RC growth</text>
<text text-anchor="middle" x="1388" y="-22.71" font-family="JetBrains Mono,Fira Code,monospace" font-size="9.00" fill="#585b70">re&#45;introduced notify_*, key/sign, cap&#45;blob and send_to</text>
<text text-anchor="middle" x="1388" y="-9.96" font-family="JetBrains Mono,Fira Code,monospace" font-size="9.00" fill="#585b70">families → 40 today.</text>
</g>
<!-- k_config&#45;&gt;discipline -->
</g>
</svg>
