<?xml version="1.0" encoding="UTF-8" standalone="no"?>
<!DOCTYPE svg PUBLIC "-//W3C//DTD SVG 1.1//EN"
 "http://www.w3.org/Graphics/SVG/1.1/DTD/svg11.dtd">
<!-- Generated by graphviz version 12.2.1 (0)
 -->
<!-- Title: host_api_kinds Pages: 1 -->
<svg width="2275pt" height="442pt"
 viewBox="0.00 0.00 2274.60 441.64" xmlns="http://www.w3.org/2000/svg" xmlns:xlink="http://www.w3.org/1999/xlink">
<g id="graph0" class="graph" transform="scale(1 1) rotate(0) translate(28.8 412.84)">
<title>host_api_kinds</title>
<polygon fill="#1e1e2e" stroke="none" points="-28.8,28.8 -28.8,-412.84 2245.8,-412.84 2245.8,28.8 -28.8,28.8"/>
<g id="clust1" class="cluster">
<title>cluster_primitives</title>
<path fill="#181825" stroke="#b4befe" stroke-width="1.5" d="M20,-221.27C20,-221.27 2197,-221.27 2197,-221.27 2203,-221.27 2209,-227.27 2209,-233.27 2209,-233.27 2209,-309.04 2209,-309.04 2209,-315.04 2203,-321.04 2197,-321.04 2197,-321.04 20,-321.04 20,-321.04 14,-321.04 8,-315.04 8,-309.04 8,-309.04 8,-233.27 8,-233.27 8,-227.27 14,-221.27 20,-221.27"/>
<text text-anchor="middle" x="1108.5" y="-305.64" font-family="JetBrains Mono,Fira Code,monospace" font-size="12.00" fill="#b4befe">host_api_t — KIND&#45;tagged primitives</text>
</g>
<g id="clust2" class="cluster">
<title>cluster_back</title>
<path fill="#1e1e2e" stroke="#a6e3a1" stroke-width="1.2" d="M473,-125.02C473,-125.02 1416,-125.02 1416,-125.02 1422,-125.02 1428,-131.02 1428,-137.02 1428,-137.02 1428,-172.02 1428,-172.02 1428,-178.02 1422,-184.02 1416,-184.02 1416,-184.02 473,-184.02 473,-184.02 467,-184.02 461,-178.02 461,-172.02 461,-172.02 461,-137.02 461,-137.02 461,-131.02 467,-125.02 473,-125.02"/>
<text text-anchor="middle" x="944.5" y="-169.57" font-family="JetBrains Mono,Fira Code,monospace" font-size="11.00" fill="#a6e3a1">Kernel registries (opaque to plugins)</text>
</g>
<!-- plugin -->
<g id="node1" class="node">
<title>plugin</title>
<polygon fill="#45475a" stroke="#fab387" stroke-width="1.2" points="1114.05,-384.04 1051.95,-384.04 1051.95,-380.04 1047.95,-380.04 1047.95,-376.04 1051.95,-376.04 1051.95,-356.04 1047.95,-356.04 1047.95,-352.04 1051.95,-352.04 1051.95,-348.04 1114.05,-348.04 1114.05,-384.04"/>
<polyline fill="none" stroke="#fab387" stroke-width="1.2" points="1051.95,-380.04 1055.95,-380.04 1055.95,-376.04 1051.95,-376.04"/>
<polyline fill="none" stroke="#fab387" stroke-width="1.2" points="1051.95,-356.04 1055.95,-356.04 1055.95,-352.04 1051.95,-352.04"/>
<text text-anchor="middle" x="1083" y="-363.09" font-family="JetBrains Mono,Fira Code,monospace" font-size="11.00" fill="#fab387">Plugin</text>
</g>
<!-- register -->
<g id="node2" class="node">
<title>register</title>
<path fill="#45475a" stroke="#89b4fa" stroke-width="1.2" d="M280.05,-296.54C280.05,-296.54 19.95,-296.54 19.95,-296.54 13.95,-296.54 7.95,-290.54 7.95,-284.54 7.95,-284.54 7.95,-233.27 7.95,-233.27 7.95,-227.27 13.95,-221.27 19.95,-221.27 19.95,-221.27 280.05,-221.27 280.05,-221.27 286.05,-221.27 292.05,-227.27 292.05,-233.27 292.05,-233.27 292.05,-284.54 292.05,-284.54 292.05,-290.54 286.05,-296.54 280.05,-296.54"/>
<text text-anchor="middle" x="150" y="-282.23" font-family="JetBrains Mono,Fira Code,monospace" font-size="9.00" fill="#89b4fa">register_vtable(kind, meta, vtable, self, &amp;out_id)</text>
<text text-anchor="middle" x="150" y="-269.48" font-family="JetBrains Mono,Fira Code,monospace" font-size="9.00" fill="#89b4fa"> &#160;GN_REGISTER_HANDLER &#160;→ &#160;HandlerRegistry</text>
<text text-anchor="middle" x="150" y="-256.73" font-family="JetBrains Mono,Fira Code,monospace" font-size="9.00" fill="#89b4fa"> &#160;GN_REGISTER_LINK &#160;&#160;&#160;&#160;→ &#160;LinkRegistry</text>
<text text-anchor="middle" x="150" y="-243.98" font-family="JetBrains Mono,Fira Code,monospace" font-size="9.00" fill="#89b4fa">→ id encodes kind in top 4 bits;</text>
<text text-anchor="middle" x="150" y="-231.23" font-family="JetBrains Mono,Fira Code,monospace" font-size="9.00" fill="#89b4fa"> &#160;unregister_vtable(id) routes back</text>
</g>
<!-- plugin&#45;&gt;register -->
<g id="edge1" class="edge">
<title>plugin&#45;&gt;register</title>
<path fill="none" stroke="#585b70" d="M1051.49,-364.61C924.52,-362.65 450.17,-353.29 304,-321.04 281.64,-316.11 258.29,-308.33 236.73,-299.95"/>
<polygon fill="#585b70" stroke="#585b70" points="230.32,-297.42 237.99,-297.06 232.44,-298.26 236.83,-299.99 236.83,-299.99 236.83,-299.99 232.44,-298.26 235.67,-302.92 230.32,-297.42"/>
</g>
<!-- register_security -->
<g id="node3" class="node">
<title>register_security</title>
<path fill="#45475a" stroke="#89b4fa" stroke-width="1.2" d="M557.3,-283.79C557.3,-283.79 328.7,-283.79 328.7,-283.79 322.7,-283.79 316.7,-277.79 316.7,-271.79 316.7,-271.79 316.7,-246.02 316.7,-246.02 316.7,-240.02 322.7,-234.02 328.7,-234.02 328.7,-234.02 557.3,-234.02 557.3,-234.02 563.3,-234.02 569.3,-240.02 569.3,-246.02 569.3,-246.02 569.3,-271.79 569.3,-271.79 569.3,-277.79 563.3,-283.79 557.3,-283.79"/>
<text text-anchor="middle" x="443" y="-269.48" font-family="JetBrains Mono,Fira Code,monospace" font-size="9.00" fill="#89b4fa">register_security(provider_id, vtable, self)</text>
<text text-anchor="middle" x="443" y="-256.73" font-family="JetBrains Mono,Fira Code,monospace" font-size="9.00" fill="#89b4fa">→ SecurityRegistry</text>
<text text-anchor="middle" x="443" y="-243.98" font-family="JetBrains Mono,Fira Code,monospace" font-size="9.00" fill="#89b4fa"> &#160;v1: at most one active provider per kernel</text>
</g>
<!-- plugin&#45;&gt;register_security -->
<g id="edge2" class="edge">
<title>plugin&#45;&gt;register_security</title>
<path fill="none" stroke="#585b70" d="M1051.62,-365.79C971.82,-366.96 755.17,-365.44 582,-321.04 552.25,-313.41 520.79,-300.07 495.34,-287.79"/>
<polygon fill="#585b70" stroke="#585b70" points="489.08,-284.72 496.75,-284.97 491.13,-285.73 495.37,-287.8 495.37,-287.8 495.37,-287.8 491.13,-285.73 493.98,-290.63 489.08,-284.72"/>
</g>
<!-- register_extension -->
<g id="node4" class="node">
<title>register_extension</title>
<path fill="#45475a" stroke="#89b4fa" stroke-width="1.2" d="M839.92,-283.79C839.92,-283.79 606.08,-283.79 606.08,-283.79 600.08,-283.79 594.08,-277.79 594.08,-271.79 594.08,-271.79 594.08,-246.02 594.08,-246.02 594.08,-240.02 600.08,-234.02 606.08,-234.02 606.08,-234.02 839.92,-234.02 839.92,-234.02 845.92,-234.02 851.92,-240.02 851.92,-246.02 851.92,-246.02 851.92,-271.79 851.92,-271.79 851.92,-277.79 845.92,-283.79 839.92,-283.79"/>
<text text-anchor="middle" x="723" y="-269.48" font-family="JetBrains Mono,Fira Code,monospace" font-size="9.00" fill="#89b4fa">register_extension(name, version, vtable)</text>
<text text-anchor="middle" x="723" y="-256.73" font-family="JetBrains Mono,Fira Code,monospace" font-size="9.00" fill="#89b4fa">→ ExtensionRegistry</text>
<text text-anchor="middle" x="723" y="-243.98" font-family="JetBrains Mono,Fira Code,monospace" font-size="9.00" fill="#89b4fa"> &#160;query_extension_checked(name, version, &amp;vt)</text>
</g>
<!-- plugin&#45;&gt;register_extension -->
<g id="edge3" class="edge">
<title>plugin&#45;&gt;register_extension</title>
<path fill="none" stroke="#585b70" d="M1051.81,-360.83C1009.03,-354.58 930.05,-341.36 865,-321.04 836.32,-312.08 805.57,-299.26 780.04,-287.68"/>
<polygon fill="#585b70" stroke="#585b70" points="773.75,-284.8 781.43,-284.85 775.82,-285.75 780.11,-287.71 780.11,-287.71 780.11,-287.71 775.82,-285.75 778.8,-290.58 773.75,-284.8"/>
</g>
<!-- subscribe -->
<g id="node5" class="node">
<title>subscribe</title>
<path fill="#45475a" stroke="#a6e3a1" stroke-width="1.2" d="M1138.8,-283.79C1138.8,-283.79 889.2,-283.79 889.2,-283.79 883.2,-283.79 877.2,-277.79 877.2,-271.79 877.2,-271.79 877.2,-246.02 877.2,-246.02 877.2,-240.02 883.2,-234.02 889.2,-234.02 889.2,-234.02 1138.8,-234.02 1138.8,-234.02 1144.8,-234.02 1150.8,-240.02 1150.8,-246.02 1150.8,-246.02 1150.8,-271.79 1150.8,-271.79 1150.8,-277.79 1144.8,-283.79 1138.8,-283.79"/>
<text text-anchor="middle" x="1014" y="-269.48" font-family="JetBrains Mono,Fira Code,monospace" font-size="9.00" fill="#a6e3a1">subscribe_conn_state(cb, ud, ud_destroy, &amp;id)</text>
<text text-anchor="middle" x="1014" y="-256.73" font-family="JetBrains Mono,Fira Code,monospace" font-size="9.00" fill="#a6e3a1">subscribe_config_reload(cb, ud, ud_destroy, &amp;id)</text>
<text text-anchor="middle" x="1014" y="-243.98" font-family="JetBrains Mono,Fira Code,monospace" font-size="9.00" fill="#a6e3a1">→ unsubscribe(id) &#160;routes by tag in id top bits</text>
</g>
<!-- plugin&#45;&gt;subscribe -->
<g id="edge4" class="edge">
<title>plugin&#45;&gt;subscribe</title>
<path fill="none" stroke="#585b70" d="M1071.61,-347.68C1061.45,-332.2 1046.34,-309.18 1034.15,-290.6"/>
<polygon fill="#585b70" stroke="#585b70" points="1030.47,-285 1036.94,-289.12 1031.72,-286.91 1034.31,-290.85 1034.31,-290.85 1034.31,-290.85 1031.72,-286.91 1031.68,-292.58 1030.47,-285"/>
</g>
<!-- for_each -->
<g id="node6" class="node">
<title>for_each</title>
<path fill="#45475a" stroke="#94e2d5" stroke-width="1.2" d="M1657.3,-277.41C1657.3,-277.41 1386.7,-277.41 1386.7,-277.41 1380.7,-277.41 1374.7,-271.41 1374.7,-265.41 1374.7,-265.41 1374.7,-252.39 1374.7,-252.39 1374.7,-246.39 1380.7,-240.39 1386.7,-240.39 1386.7,-240.39 1657.3,-240.39 1657.3,-240.39 1663.3,-240.39 1669.3,-246.39 1669.3,-252.39 1669.3,-252.39 1669.3,-265.41 1669.3,-265.41 1669.3,-271.41 1663.3,-277.41 1657.3,-277.41"/>
<text text-anchor="middle" x="1522" y="-263.1" font-family="JetBrains Mono,Fira Code,monospace" font-size="9.00" fill="#94e2d5">for_each_connection(visitor, ud)</text>
<text text-anchor="middle" x="1522" y="-250.35" font-family="JetBrains Mono,Fira Code,monospace" font-size="9.00" fill="#94e2d5"> &#160;per&#45;shard read lock; visitor returns 0 to continue</text>
</g>
<!-- plugin&#45;&gt;for_each -->
<g id="edge5" class="edge">
<title>plugin&#45;&gt;for_each</title>
<path fill="none" stroke="#585b70" d="M1114.41,-362.24C1166.52,-357.12 1273.87,-344.55 1362,-321.04 1400.83,-310.68 1443.26,-294.22 1474.67,-280.98"/>
<polygon fill="#585b70" stroke="#585b70" points="1480.88,-278.35 1475.67,-283.98 1478.78,-279.24 1474.43,-281.08 1474.43,-281.08 1474.43,-281.08 1478.78,-279.24 1473.2,-278.18 1480.88,-278.35"/>
</g>
<!-- iterate_counters -->
<g id="node7" class="node">
<title>iterate_counters</title>
<path fill="#45475a" stroke="#94e2d5" stroke-width="1.2" d="M1337.92,-277.41C1337.92,-277.41 1188.08,-277.41 1188.08,-277.41 1182.08,-277.41 1176.08,-271.41 1176.08,-265.41 1176.08,-265.41 1176.08,-252.39 1176.08,-252.39 1176.08,-246.39 1182.08,-240.39 1188.08,-240.39 1188.08,-240.39 1337.92,-240.39 1337.92,-240.39 1343.92,-240.39 1349.92,-246.39 1349.92,-252.39 1349.92,-252.39 1349.92,-265.41 1349.92,-265.41 1349.92,-271.41 1343.92,-277.41 1337.92,-277.41"/>
<text text-anchor="middle" x="1263" y="-263.1" font-family="JetBrains Mono,Fira Code,monospace" font-size="9.00" fill="#94e2d5">iterate_counters(visitor, ud)</text>
<text text-anchor="middle" x="1263" y="-250.35" font-family="JetBrains Mono,Fira Code,monospace" font-size="9.00" fill="#94e2d5"> &#160;walk metric counters</text>
</g>
<!-- plugin&#45;&gt;iterate_counters -->
<g id="edge6" class="edge">
<title>plugin&#45;&gt;iterate_counters</title>
<path fill="none" stroke="#585b70" d="M1114.34,-348.24C1129.18,-340.17 1147.1,-330.27 1163,-321.04 1184.63,-308.49 1208.54,-293.9 1227.56,-282.12"/>
<polygon fill="#585b70" stroke="#585b70" points="1233.29,-278.56 1229.01,-284.93 1231.35,-279.76 1227.35,-282.25 1227.35,-282.25 1227.35,-282.25 1231.35,-279.76 1225.68,-279.57 1233.29,-278.56"/>
</g>
<!-- config_get -->
<g id="node8" class="node">
<title>config_get</title>
<path fill="#45475a" stroke="#f9e2af" stroke-width="1.2" d="M2197.3,-290.16C2197.3,-290.16 1926.7,-290.16 1926.7,-290.16 1920.7,-290.16 1914.7,-284.16 1914.7,-278.16 1914.7,-278.16 1914.7,-239.64 1914.7,-239.64 1914.7,-233.64 1920.7,-227.64 1926.7,-227.64 1926.7,-227.64 2197.3,-227.64 2197.3,-227.64 2203.3,-227.64 2209.3,-233.64 2209.3,-239.64 2209.3,-239.64 2209.3,-278.16 2209.3,-278.16 2209.3,-284.16 2203.3,-290.16 2197.3,-290.16"/>
<text text-anchor="middle" x="2062" y="-275.85" font-family="JetBrains Mono,Fira Code,monospace" font-size="9.00" fill="#f9e2af">config_get(key, type, index, out, ud, free)</text>
<text text-anchor="middle" x="2062" y="-263.1" font-family="JetBrains Mono,Fira Code,monospace" font-size="9.00" fill="#f9e2af"> &#160;GN_CFG_BOOL · INT64 · DOUBLE · STRING</text>
<text text-anchor="middle" x="2062" y="-250.35" font-family="JetBrains Mono,Fira Code,monospace" font-size="9.00" fill="#f9e2af"> &#160;ARRAY_SIZE · array element by index</text>
<text text-anchor="middle" x="2062" y="-237.6" font-family="JetBrains Mono,Fira Code,monospace" font-size="9.00" fill="#f9e2af">→ kernel rejects type mismatch with INVALID_ENVELOPE</text>
</g>
<!-- plugin&#45;&gt;config_get -->
<g id="edge7" class="edge">
<title>plugin&#45;&gt;config_get</title>
<path fill="none" stroke="#585b70" d="M1114.32,-364.66C1245.03,-362.85 1747.39,-353.88 1902,-321.04 1930.98,-314.88 1961.64,-304.26 1988.28,-293.58"/>
<polygon fill="#585b70" stroke="#585b70" points="1994.55,-291.03 1989.25,-296.58 1992.44,-291.88 1988.07,-293.66 1988.07,-293.66 1988.07,-293.66 1992.44,-291.88 1986.88,-290.74 1994.55,-291.03"/>
</g>
<!-- get_lookups -->
<g id="node9" class="node">
<title>get_lookups</title>
<path fill="#45475a" stroke="#f9e2af" stroke-width="1.2" d="M1877.42,-277.41C1877.42,-277.41 1706.58,-277.41 1706.58,-277.41 1700.58,-277.41 1694.58,-271.41 1694.58,-265.41 1694.58,-265.41 1694.58,-252.39 1694.58,-252.39 1694.58,-246.39 1700.58,-240.39 1706.58,-240.39 1706.58,-240.39 1877.42,-240.39 1877.42,-240.39 1883.42,-240.39 1889.42,-246.39 1889.42,-252.39 1889.42,-252.39 1889.42,-265.41 1889.42,-265.41 1889.42,-271.41 1883.42,-277.41 1877.42,-277.41"/>
<text text-anchor="middle" x="1792" y="-263.1" font-family="JetBrains Mono,Fira Code,monospace" font-size="9.00" fill="#f9e2af">find_conn_by_pk(pk, &amp;conn)</text>
<text text-anchor="middle" x="1792" y="-250.35" font-family="JetBrains Mono,Fira Code,monospace" font-size="9.00" fill="#f9e2af">get_endpoint(conn, &amp;out_endpoint)</text>
</g>
<!-- plugin&#45;&gt;get_lookups -->
<g id="edge8" class="edge">
<title>plugin&#45;&gt;get_lookups</title>
<path fill="none" stroke="#585b70" d="M1114.4,-364.51C1221.84,-362.44 1574.1,-353.27 1682,-321.04 1710.33,-312.58 1739.46,-295.97 1760.61,-282.2"/>
<polygon fill="#585b70" stroke="#585b70" points="1766.18,-278.52 1762.08,-285.01 1764.27,-279.78 1760.34,-282.38 1760.34,-282.38 1760.34,-282.38 1764.27,-279.78 1758.6,-279.76 1766.18,-278.52"/>
</g>
<!-- k_handler -->
<g id="node10" class="node">
<title>k_handler</title>
<path fill="#45475a" stroke="#a6e3a1" stroke-width="1.2" d="M658.17,-161.02C658.17,-161.02 581.83,-161.02 581.83,-161.02 575.83,-161.02 569.83,-155.02 569.83,-149.02 569.83,-149.02 569.83,-137.02 569.83,-137.02 569.83,-131.02 575.83,-125.02 581.83,-125.02 581.83,-125.02 658.17,-125.02 658.17,-125.02 664.17,-125.02 670.17,-131.02 670.17,-137.02 670.17,-137.02 670.17,-149.02 670.17,-149.02 670.17,-155.02 664.17,-161.02 658.17,-161.02"/>
<text text-anchor="middle" x="620" y="-140.84" font-family="JetBrains Mono,Fira Code,monospace" font-size="9.00" fill="#a6e3a1">HandlerRegistry</text>
</g>
<!-- register&#45;&gt;k_handler -->
<g id="edge9" class="edge">
<title>register&#45;&gt;k_handler</title>
<path fill="none" stroke="#89b4fa" d="M292.54,-223.53C296.4,-222.75 300.22,-222 304,-221.27 416.05,-199.77 451.19,-224.14 558,-184.02 569.69,-179.63 581.47,-172.78 591.58,-165.98"/>
<polygon fill="#89b4fa" stroke="#89b4fa" points="592.69,-168.19 597.04,-162.18 589.89,-164.17 592.69,-168.19"/>
<text text-anchor="middle" x="560.67" y="-195.67" font-family="JetBrains Mono,Fira Code,monospace" font-size="8.00" fill="#89b4fa">kind=HANDLER</text>
</g>
<!-- k_link -->
<g id="node11" class="node">
<title>k_link</title>
<path fill="#45475a" stroke="#a6e3a1" stroke-width="1.2" d="M533.3,-161.02C533.3,-161.02 472.7,-161.02 472.7,-161.02 466.7,-161.02 460.7,-155.02 460.7,-149.02 460.7,-149.02 460.7,-137.02 460.7,-137.02 460.7,-131.02 466.7,-125.02 472.7,-125.02 472.7,-125.02 533.3,-125.02 533.3,-125.02 539.3,-125.02 545.3,-131.02 545.3,-137.02 545.3,-137.02 545.3,-149.02 545.3,-149.02 545.3,-155.02 539.3,-161.02 533.3,-161.02"/>
<text text-anchor="middle" x="503" y="-140.84" font-family="JetBrains Mono,Fira Code,monospace" font-size="9.00" fill="#a6e3a1">LinkRegistry</text>
</g>
<!-- register&#45;&gt;k_link -->
<g id="edge10" class="edge">
<title>register&#45;&gt;k_link</title>
<path fill="none" stroke="#89b4fa" d="M265.1,-220.77C328.37,-200.36 403.67,-176.06 452.35,-160.36"/>
<polygon fill="#89b4fa" stroke="#89b4fa" points="452.88,-162.76 458.79,-158.28 451.38,-158.1 452.88,-162.76"/>
<text text-anchor="middle" x="367.88" y="-195.67" font-family="JetBrains Mono,Fira Code,monospace" font-size="8.00" fill="#89b4fa">kind=LINK</text>
</g>
<!-- k_security -->
<g id="node12" class="node">
<title>k_security</title>
<path fill="#45475a" stroke="#a6e3a1" stroke-width="1.2" d="M788.8,-161.02C788.8,-161.02 707.2,-161.02 707.2,-161.02 701.2,-161.02 695.2,-155.02 695.2,-149.02 695.2,-149.02 695.2,-137.02 695.2,-137.02 695.2,-131.02 701.2,-125.02 707.2,-125.02 707.2,-125.02 788.8,-125.02 788.8,-125.02 794.8,-125.02 800.8,-131.02 800.8,-137.02 800.8,-137.02 800.8,-149.02 800.8,-149.02 800.8,-155.02 794.8,-161.02 788.8,-161.02"/>
<text text-anchor="middle" x="748" y="-140.84" font-family="JetBrains Mono,Fira Code,monospace" font-size="9.00" fill="#a6e3a1">SecurityRegistry</text>
</g>
<!-- register_security&#45;&gt;k_security -->
<g id="edge11" class="edge">
<title>register_security&#45;&gt;k_security</title>
<path fill="none" stroke="#89b4fa" d="M530.27,-233.54C587.01,-217.23 655.4,-196.52 683,-184.02 694.28,-178.91 705.98,-172.21 716.3,-165.75"/>
<polygon fill="#89b4fa" stroke="#89b4fa" points="717.35,-167.99 721.92,-162.15 714.71,-163.86 717.35,-167.99"/>
</g>
<!-- k_ext -->
<g id="node13" class="node">
<title>k_ext</title>
<path fill="#45475a" stroke="#a6e3a1" stroke-width="1.2" d="M924.42,-161.02C924.42,-161.02 837.58,-161.02 837.58,-161.02 831.58,-161.02 825.58,-155.02 825.58,-149.02 825.58,-149.02 825.58,-137.02 825.58,-137.02 825.58,-131.02 831.58,-125.02 837.58,-125.02 837.58,-125.02 924.42,-125.02 924.42,-125.02 930.42,-125.02 936.42,-131.02 936.42,-137.02 936.42,-137.02 936.42,-149.02 936.42,-149.02 936.42,-155.02 930.42,-161.02 924.42,-161.02"/>
<text text-anchor="middle" x="881" y="-140.84" font-family="JetBrains Mono,Fira Code,monospace" font-size="9.00" fill="#a6e3a1">ExtensionRegistry</text>
</g>
<!-- register_extension&#45;&gt;k_ext -->
<g id="edge12" class="edge">
<title>register_extension&#45;&gt;k_ext</title>
<path fill="none" stroke="#89b4fa" d="M756.51,-233.75C784.23,-213.77 823.3,-185.61 850.24,-166.19"/>
<polygon fill="#89b4fa" stroke="#89b4fa" points="851.34,-168.42 855.58,-162.34 848.47,-164.45 851.34,-168.42"/>
</g>
<!-- k_chan -->
<g id="node14" class="node">
<title>k_chan</title>
<path fill="#45475a" stroke="#a6e3a1" stroke-width="1.2" d="M1054.8,-161.02C1054.8,-161.02 973.2,-161.02 973.2,-161.02 967.2,-161.02 961.2,-155.02 961.2,-149.02 961.2,-149.02 961.2,-137.02 961.2,-137.02 961.2,-131.02 967.2,-125.02 973.2,-125.02 973.2,-125.02 1054.8,-125.02 1054.8,-125.02 1060.8,-125.02 1066.8,-131.02 1066.8,-137.02 1066.8,-137.02 1066.8,-149.02 1066.8,-149.02 1066.8,-155.02 1060.8,-161.02 1054.8,-161.02"/>
<text text-anchor="middle" x="1014" y="-140.84" font-family="JetBrains Mono,Fira Code,monospace" font-size="9.00" fill="#a6e3a1">SignalChannel&lt;…&gt;</text>
</g>
<!-- subscribe&#45;&gt;k_chan -->
<g id="edge13" class="edge">
<title>subscribe&#45;&gt;k_chan</title>
<path fill="none" stroke="#a6e3a1" d="M1014,-233.75C1014,-214.95 1014,-188.92 1014,-169.74"/>
<polygon fill="#a6e3a1" stroke="#a6e3a1" points="1016.45,-169.97 1014,-162.97 1011.55,-169.97 1016.45,-169.97"/>
</g>
<!-- k_conn -->
<g id="node15" class="node">
<title>k_conn</title>
<path fill="#45475a" stroke="#a6e3a1" stroke-width="1.2" d="M1311.05,-161.02C1311.05,-161.02 1218.95,-161.02 1218.95,-161.02 1212.95,-161.02 1206.95,-155.02 1206.95,-149.02 1206.95,-149.02 1206.95,-137.02 1206.95,-137.02 1206.95,-131.02 1212.95,-125.02 1218.95,-125.02 1218.95,-125.02 1311.05,-125.02 1311.05,-125.02 1317.05,-125.02 1323.05,-131.02 1323.05,-137.02 1323.05,-137.02 1323.05,-149.02 1323.05,-149.02 1323.05,-155.02 1317.05,-161.02 1311.05,-161.02"/>
<text text-anchor="middle" x="1265" y="-140.84" font-family="JetBrains Mono,Fira Code,monospace" font-size="9.00" fill="#a6e3a1">ConnectionRegistry</text>
</g>
<!-- for_each&#45;&gt;k_conn -->
<g id="edge14" class="edge">
<title>for_each&#45;&gt;k_conn</title>
<path fill="none" stroke="#94e2d5" d="M1471.48,-239.94C1433.62,-225.98 1380.84,-205.43 1336,-184.02 1324.38,-178.47 1312.04,-171.8 1300.97,-165.52"/>
<polygon fill="#94e2d5" stroke="#94e2d5" points="1302.5,-163.58 1295.2,-162.22 1300.06,-167.83 1302.5,-163.58"/>
</g>
<!-- k_metrics -->
<g id="node16" class="node">
<title>k_metrics</title>
<path fill="#45475a" stroke="#a6e3a1" stroke-width="1.2" d="M1169.92,-161.02C1169.92,-161.02 1104.08,-161.02 1104.08,-161.02 1098.08,-161.02 1092.08,-155.02 1092.08,-149.02 1092.08,-149.02 1092.08,-137.02 1092.08,-137.02 1092.08,-131.02 1098.08,-125.02 1104.08,-125.02 1104.08,-125.02 1169.92,-125.02 1169.92,-125.02 1175.92,-125.02 1181.92,-131.02 1181.92,-137.02 1181.92,-137.02 1181.92,-149.02 1181.92,-149.02 1181.92,-155.02 1175.92,-161.02 1169.92,-161.02"/>
<text text-anchor="middle" x="1137" y="-140.84" font-family="JetBrains Mono,Fira Code,monospace" font-size="9.00" fill="#a6e3a1">Counter store</text>
</g>
<!-- iterate_counters&#45;&gt;k_metrics -->
<g id="edge15" class="edge">
<title>iterate_counters&#45;&gt;k_metrics</title>
<path fill="none" stroke="#94e2d5" d="M1243.31,-240.11C1221.46,-220.36 1186.12,-188.42 1162.24,-166.84"/>
<polygon fill="#94e2d5" stroke="#94e2d5" points="1164.1,-165.21 1157.26,-162.33 1160.81,-168.84 1164.1,-165.21"/>
</g>
<!-- k_config -->
<g id="node17" class="node">
<title>k_config</title>
<path fill="#45475a" stroke="#a6e3a1" stroke-width="1.2" d="M1415.67,-161.02C1415.67,-161.02 1360.33,-161.02 1360.33,-161.02 1354.33,-161.02 1348.33,-155.02 1348.33,-149.02 1348.33,-149.02 1348.33,-137.02 1348.33,-137.02 1348.33,-131.02 1354.33,-125.02 1360.33,-125.02 1360.33,-125.02 1415.67,-125.02 1415.67,-125.02 1421.67,-125.02 1427.67,-131.02 1427.67,-137.02 1427.67,-137.02 1427.67,-149.02 1427.67,-149.02 1427.67,-155.02 1421.67,-161.02 1415.67,-161.02"/>
<text text-anchor="middle" x="1388" y="-140.84" font-family="JetBrains Mono,Fira Code,monospace" font-size="9.00" fill="#a6e3a1">Config tree</text>
</g>
<!-- config_get&#45;&gt;k_config -->
<g id="edge16" class="edge">
<title>config_get&#45;&gt;k_config</title>
<path fill="none" stroke="#f9e2af" d="M1931.63,-227.19C1921.62,-225.1 1911.66,-223.1 1902,-221.27 1731.76,-189.04 1527.75,-161.7 1436.39,-150.05"/>
<polygon fill="#f9e2af" stroke="#f9e2af" points="1436.92,-147.64 1429.66,-149.19 1436.3,-152.5 1436.92,-147.64"/>
</g>
<!-- get_lookups&#45;&gt;k_conn -->
<g id="edge17" class="edge">
<title>get_lookups&#45;&gt;k_conn</title>
<path fill="none" stroke="#f9e2af" d="M1745.51,-239.97C1726.14,-233.14 1703.24,-225.89 1682,-221.27 1644.22,-213.04 1372.82,-195.82 1336,-184.02 1322.61,-179.73 1308.92,-172.74 1297.17,-165.8"/>
<polygon fill="#f9e2af" stroke="#f9e2af" points="1298.68,-163.85 1291.43,-162.29 1296.13,-168.03 1298.68,-163.85"/>
</g>
<!-- discipline -->
<g id="node18" class="node">
<title>discipline</title>
<polygon fill="#181825" stroke="#585b70" stroke-width="1.2" points="1550.3,-88.02 1219.7,-88.02 1219.7,0 1556.3,0 1556.3,-82.02 1550.3,-88.02"/>
<polyline fill="none" stroke="#585b70" stroke-width="1.2" points="1550.3,-88.02 1550.3,-82.02"/>
<polyline fill="none" stroke="#585b70" stroke-width="1.2" points="1556.3,-82.02 1550.3,-82.02"/>
<text text-anchor="middle" x="1388" y="-73.71" font-family="JetBrains Mono,Fira Code,monospace" font-size="9.00" fill="#585b70">Slot discipline:</text>
<text text-anchor="middle" x="1388" y="-60.96" font-family="JetBrains Mono,Fira Code,monospace" font-size="9.00" fill="#585b70"> &#160;· single ABI slot per primitive shape</text>
<text text-anchor="middle" x="1388" y="-48.21" font-family="JetBrains Mono,Fira Code,monospace" font-size="9.00" fill="#585b70"> &#160;· KIND enum (or channel id, or type tag) selects routing</text>
<text text-anchor="middle" x="1388" y="-35.46" font-family="JetBrains Mono,Fira Code,monospace" font-size="9.00" fill="#585b70"> &#160;· adding a new kind = enum value + kernel side; ABI stable</text>
<text text-anchor="middle" x="1388" y="-22.71" font-family="JetBrains Mono,Fira Code,monospace" font-size="9.00" fill="#585b70"> &#160;· ~21 functional slots on host_api_t today + 8 reserved</text>
<text text-anchor="middle" x="1388" y="-9.96" font-family="JetBrains Mono,Fira Code,monospace" font-size="9.00" fill="#585b70">Pre&#45;RC reduction: 41 named slots → 21 KIND&#45;tagged.</text>
</g>
<!-- k_config&#45;&gt;discipline -->
</g>
</svg>
