<?xml version="1.0" encoding="UTF-8" standalone="no"?>
<!DOCTYPE svg PUBLIC "-//W3C//DTD SVG 1.1//EN"
 "http://www.w3.org/Graphics/SVG/1.1/DTD/svg11.dtd">
<!-- Generated by graphviz version 12.2.1 (0)
 -->
<!-- Title: kernel_fsm Pages: 1 -->
<svg width="1942pt" height="142pt"
 viewBox="0.00 0.00 1941.55 141.78" xmlns="http://www.w3.org/2000/svg" xmlns:xlink="http://www.w3.org/1999/xlink">
<g id="graph0" class="graph" transform="scale(1 1) rotate(0) translate(28.8 112.98)">
<title>kernel_fsm</title>
<polygon fill="#1e1e2e" stroke="none" points="-28.8,28.8 -28.8,-112.98 1912.75,-112.98 1912.75,28.8 -28.8,28.8"/>
<!-- Load -->
<g id="node1" class="node">
<title>Load</title>
<path fill="#45475a" stroke="#89b4fa" stroke-width="1.2" d="M119.85,-66.98C119.85,-66.98 12,-66.98 12,-66.98 6,-66.98 0,-60.98 0,-54.98 0,-54.98 0,-29.21 0,-29.21 0,-23.21 6,-17.21 12,-17.21 12,-17.21 119.85,-17.21 119.85,-17.21 125.85,-17.21 131.85,-23.21 131.85,-29.21 131.85,-29.21 131.85,-54.98 131.85,-54.98 131.85,-60.98 125.85,-66.98 119.85,-66.98"/>
<text text-anchor="middle" x="65.92" y="-52.67" font-family="JetBrains Mono,Fira Code,monospace" font-size="9.00" fill="#89b4fa">Load</text>
<text text-anchor="middle" x="65.92" y="-39.92" font-family="JetBrains Mono,Fira Code,monospace" font-size="9.00" fill="#89b4fa">shared objects mapped</text>
<text text-anchor="middle" x="65.92" y="-27.17" font-family="JetBrains Mono,Fira Code,monospace" font-size="9.00" fill="#89b4fa">version&#45;checked</text>
</g>
<!-- Wire -->
<g id="node2" class="node">
<title>Wire</title>
<path fill="#45475a" stroke="#89b4fa" stroke-width="1.2" d="M280.7,-66.98C280.7,-66.98 172.85,-66.98 172.85,-66.98 166.85,-66.98 160.85,-60.98 160.85,-54.98 160.85,-54.98 160.85,-29.21 160.85,-29.21 160.85,-23.21 166.85,-17.21 172.85,-17.21 172.85,-17.21 280.7,-17.21 280.7,-17.21 286.7,-17.21 292.7,-23.21 292.7,-29.21 292.7,-29.21 292.7,-54.98 292.7,-54.98 292.7,-60.98 286.7,-66.98 280.7,-66.98"/>
<text text-anchor="middle" x="226.77" y="-52.67" font-family="JetBrains Mono,Fira Code,monospace" font-size="9.00" fill="#89b4fa">Wire</text>
<text text-anchor="middle" x="226.77" y="-39.92" font-family="JetBrains Mono,Fira Code,monospace" font-size="9.00" fill="#89b4fa">host vtable populated</text>
<text text-anchor="middle" x="226.77" y="-27.17" font-family="JetBrains Mono,Fira Code,monospace" font-size="9.00" fill="#89b4fa">host_ctx allocated</text>
</g>
<!-- Load&#45;&gt;Wire -->
<g id="edge1" class="edge">
<title>Load&#45;&gt;Wire</title>
<path fill="none" stroke="#585b70" d="M131.99,-42.09C138.62,-42.09 145.39,-42.09 152.1,-42.09"/>
<polygon fill="#585b70" stroke="#585b70" points="152.04,-44.54 159.04,-42.09 152.04,-39.64 152.04,-44.54"/>
</g>
<!-- Resolve -->
<g id="node3" class="node">
<title>Resolve</title>
<path fill="#45475a" stroke="#b4befe" stroke-width="1.2" d="M452.05,-66.98C452.05,-66.98 333.7,-66.98 333.7,-66.98 327.7,-66.98 321.7,-60.98 321.7,-54.98 321.7,-54.98 321.7,-29.21 321.7,-29.21 321.7,-23.21 327.7,-17.21 333.7,-17.21 333.7,-17.21 452.05,-17.21 452.05,-17.21 458.05,-17.21 464.05,-23.21 464.05,-29.21 464.05,-29.21 464.05,-54.98 464.05,-54.98 464.05,-60.98 458.05,-66.98 452.05,-66.98"/>
<text text-anchor="middle" x="392.87" y="-52.67" font-family="JetBrains Mono,Fira Code,monospace" font-size="9.00" fill="#b4befe">Resolve</text>
<text text-anchor="middle" x="392.87" y="-39.92" font-family="JetBrains Mono,Fira Code,monospace" font-size="9.00" fill="#b4befe">service&#45;graph toposort</text>
<text text-anchor="middle" x="392.87" y="-27.17" font-family="JetBrains Mono,Fira Code,monospace" font-size="9.00" fill="#b4befe">over plugin descriptors</text>
</g>
<!-- Wire&#45;&gt;Resolve -->
<g id="edge2" class="edge">
<title>Wire&#45;&gt;Resolve</title>
<path fill="none" stroke="#585b70" d="M293.1,-42.09C299.64,-42.09 306.32,-42.09 312.98,-42.09"/>
<polygon fill="#585b70" stroke="#585b70" points="312.87,-44.54 319.87,-42.09 312.87,-39.64 312.87,-44.54"/>
</g>
<!-- Ready -->
<g id="node4" class="node">
<title>Ready</title>
<path fill="#45475a" stroke="#a6e3a1" stroke-width="1.2" d="M660.15,-66.98C660.15,-66.98 505.05,-66.98 505.05,-66.98 499.05,-66.98 493.05,-60.98 493.05,-54.98 493.05,-54.98 493.05,-29.21 493.05,-29.21 493.05,-23.21 499.05,-17.21 505.05,-17.21 505.05,-17.21 660.15,-17.21 660.15,-17.21 666.15,-17.21 672.15,-23.21 672.15,-29.21 672.15,-29.21 672.15,-54.98 672.15,-54.98 672.15,-60.98 666.15,-66.98 660.15,-66.98"/>
<text text-anchor="middle" x="582.6" y="-52.67" font-family="JetBrains Mono,Fira Code,monospace" font-size="9.00" fill="#a6e3a1">Ready</text>
<text text-anchor="middle" x="582.6" y="-39.92" font-family="JetBrains Mono,Fira Code,monospace" font-size="9.00" fill="#a6e3a1">every plugin past init_all</text>
<text text-anchor="middle" x="582.6" y="-27.17" font-family="JetBrains Mono,Fira Code,monospace" font-size="9.00" fill="#a6e3a1">registry tables empty but live</text>
</g>
<!-- Resolve&#45;&gt;Ready -->
<g id="edge3" class="edge">
<title>Resolve&#45;&gt;Ready</title>
<path fill="none" stroke="#585b70" d="M464.31,-42.09C470.82,-42.09 477.49,-42.09 484.19,-42.09"/>
<polygon fill="#585b70" stroke="#585b70" points="484.16,-44.54 491.16,-42.09 484.16,-39.64 484.16,-44.54"/>
</g>
<!-- Running -->
<g id="node5" class="node">
<title>Running</title>
<path fill="#45475a" stroke="#a6e3a1" stroke-width="1.2" d="M979.3,-36.83C979.3,-36.83 979.3,-47.35 979.3,-47.35 979.3,-52.61 974.24,-59.28 969.17,-60.69 969.17,-60.69 909.14,-77.37 909.14,-77.37 904.07,-78.78 893.75,-80.18 888.49,-80.18 888.49,-80.18 795.97,-80.18 795.97,-80.18 790.71,-80.18 780.38,-78.78 775.31,-77.37 775.31,-77.37 715.28,-60.69 715.28,-60.69 710.22,-59.28 705.15,-52.61 705.15,-47.35 705.15,-47.35 705.15,-36.83 705.15,-36.83 705.15,-31.57 710.22,-24.91 715.28,-23.5 715.28,-23.5 775.31,-6.82 775.31,-6.82 780.38,-5.41 790.71,-4 795.97,-4 795.97,-4 888.49,-4 888.49,-4 893.75,-4 904.07,-5.41 909.14,-6.82 909.14,-6.82 969.17,-23.5 969.17,-23.5 974.24,-24.91 979.3,-31.57 979.3,-36.83"/>
<path fill="none" stroke="#a6e3a1" stroke-width="1.2" d="M983.3,-35.27C983.3,-35.27 983.3,-48.91 983.3,-48.91 983.3,-54.91 977.52,-62.52 971.74,-64.12 971.74,-64.12 911.11,-80.97 911.11,-80.97 905.33,-82.58 893.55,-84.18 887.55,-84.18 887.55,-84.18 796.9,-84.18 796.9,-84.18 790.9,-84.18 779.12,-82.58 773.34,-80.97 773.34,-80.97 712.71,-64.12 712.71,-64.12 706.93,-62.52 701.15,-54.91 701.15,-48.91 701.15,-48.91 701.15,-35.27 701.15,-35.27 701.15,-29.27 706.93,-21.67 712.71,-20.06 712.71,-20.06 773.34,-3.21 773.34,-3.21 779.12,-1.61 790.9,0 796.9,0 796.9,0 887.55,0 887.55,0 893.55,0 905.33,-1.61 911.11,-3.21 911.11,-3.21 971.74,-20.06 971.74,-20.06 977.52,-21.67 983.3,-29.27 983.3,-35.27"/>
<text text-anchor="middle" x="842.23" y="-52.67" font-family="JetBrains Mono,Fira Code,monospace" font-size="9.00" fill="#a6e3a1">Running</text>
<text text-anchor="middle" x="842.23" y="-39.92" font-family="JetBrains Mono,Fira Code,monospace" font-size="9.00" fill="#a6e3a1">every plugin past register_all</text>
<text text-anchor="middle" x="842.23" y="-27.17" font-family="JetBrains Mono,Fira Code,monospace" font-size="9.00" fill="#a6e3a1">dispatch open</text>
</g>
<!-- Ready&#45;&gt;Running -->
<g id="edge4" class="edge">
<title>Ready&#45;&gt;Running</title>
<path fill="none" stroke="#585b70" d="M672.62,-42.09C679.06,-42.09 685.65,-42.09 692.32,-42.09"/>
<polygon fill="#585b70" stroke="#585b70" points="692.28,-44.54 699.28,-42.09 692.28,-39.64 692.28,-44.54"/>
</g>
<!-- PreShutdown -->
<g id="node6" class="node">
<title>PreShutdown</title>
<path fill="#45475a" stroke="#f9e2af" stroke-width="1.2" d="M1168.9,-66.98C1168.9,-66.98 1024.3,-66.98 1024.3,-66.98 1018.3,-66.98 1012.3,-60.98 1012.3,-54.98 1012.3,-54.98 1012.3,-29.21 1012.3,-29.21 1012.3,-23.21 1018.3,-17.21 1024.3,-17.21 1024.3,-17.21 1168.9,-17.21 1168.9,-17.21 1174.9,-17.21 1180.9,-23.21 1180.9,-29.21 1180.9,-29.21 1180.9,-54.98 1180.9,-54.98 1180.9,-60.98 1174.9,-66.98 1168.9,-66.98"/>
<text text-anchor="middle" x="1096.6" y="-52.67" font-family="JetBrains Mono,Fira Code,monospace" font-size="9.00" fill="#f9e2af">PreShutdown</text>
<text text-anchor="middle" x="1096.6" y="-39.92" font-family="JetBrains Mono,Fira Code,monospace" font-size="9.00" fill="#f9e2af">new connections refused</text>
<text text-anchor="middle" x="1096.6" y="-27.17" font-family="JetBrains Mono,Fira Code,monospace" font-size="9.00" fill="#f9e2af">in&#45;flight dispatches drained</text>
</g>
<!-- Running&#45;&gt;PreShutdown -->
<g id="edge5" class="edge">
<title>Running&#45;&gt;PreShutdown</title>
<path fill="none" stroke="#585b70" d="M983.44,-42.09C990.22,-42.09 996.95,-42.09 1003.54,-42.09"/>
<polygon fill="#585b70" stroke="#585b70" points="1003.3,-44.54 1010.3,-42.09 1003.3,-39.64 1003.3,-44.54"/>
</g>
<!-- Shutdown -->
<g id="node7" class="node">
<title>Shutdown</title>
<path fill="#45475a" stroke="#fab387" stroke-width="1.2" d="M1340.25,-66.98C1340.25,-66.98 1221.9,-66.98 1221.9,-66.98 1215.9,-66.98 1209.9,-60.98 1209.9,-54.98 1209.9,-54.98 1209.9,-29.21 1209.9,-29.21 1209.9,-23.21 1215.9,-17.21 1221.9,-17.21 1221.9,-17.21 1340.25,-17.21 1340.25,-17.21 1346.25,-17.21 1352.25,-23.21 1352.25,-29.21 1352.25,-29.21 1352.25,-54.98 1352.25,-54.98 1352.25,-60.98 1346.25,-66.98 1340.25,-66.98"/>
<text text-anchor="middle" x="1281.08" y="-52.67" font-family="JetBrains Mono,Fira Code,monospace" font-size="9.00" fill="#fab387">Shutdown</text>
<text text-anchor="middle" x="1281.08" y="-39.92" font-family="JetBrains Mono,Fira Code,monospace" font-size="9.00" fill="#fab387">transports disconnected</text>
<text text-anchor="middle" x="1281.08" y="-27.17" font-family="JetBrains Mono,Fira Code,monospace" font-size="9.00" fill="#fab387">handlers torn down</text>
</g>
<!-- PreShutdown&#45;&gt;Shutdown -->
<g id="edge6" class="edge">
<title>PreShutdown&#45;&gt;Shutdown</title>
<path fill="none" stroke="#585b70" d="M1181.37,-42.09C1188.02,-42.09 1194.73,-42.09 1201.34,-42.09"/>
<polygon fill="#585b70" stroke="#585b70" points="1201.15,-44.54 1208.15,-42.09 1201.15,-39.64 1201.15,-44.54"/>
</g>
<!-- Unload -->
<g id="node8" class="node">
<title>Unload</title>
<path fill="#45475a" stroke="#f38ba8" stroke-width="1.2" d="M1511.6,-66.98C1511.6,-66.98 1393.25,-66.98 1393.25,-66.98 1387.25,-66.98 1381.25,-60.98 1381.25,-54.98 1381.25,-54.98 1381.25,-29.21 1381.25,-29.21 1381.25,-23.21 1387.25,-17.21 1393.25,-17.21 1393.25,-17.21 1511.6,-17.21 1511.6,-17.21 1517.6,-17.21 1523.6,-23.21 1523.6,-29.21 1523.6,-29.21 1523.6,-54.98 1523.6,-54.98 1523.6,-60.98 1517.6,-66.98 1511.6,-66.98"/>
<text text-anchor="middle" x="1452.43" y="-52.67" font-family="JetBrains Mono,Fira Code,monospace" font-size="9.00" fill="#f38ba8">Unload</text>
<text text-anchor="middle" x="1452.43" y="-39.92" font-family="JetBrains Mono,Fira Code,monospace" font-size="9.00" fill="#f38ba8">shared objects unmapped</text>
<text text-anchor="middle" x="1452.43" y="-27.17" font-family="JetBrains Mono,Fira Code,monospace" font-size="9.00" fill="#f38ba8">host vtable invalidated</text>
</g>
<!-- Shutdown&#45;&gt;Unload -->
<g id="edge7" class="edge">
<title>Shutdown&#45;&gt;Unload</title>
<path fill="none" stroke="#585b70" d="M1352.43,-42.09C1359.01,-42.09 1365.71,-42.09 1372.36,-42.09"/>
<polygon fill="#585b70" stroke="#585b70" points="1372.24,-44.54 1379.24,-42.09 1372.24,-39.64 1372.24,-44.54"/>
</g>
<!-- rule -->
<g id="node9" class="node">
<title>rule</title>
<polygon fill="#181825" stroke="#585b70" stroke-width="1.2" points="1877.95,-66.98 1552.6,-66.98 1552.6,-17.21 1883.95,-17.21 1883.95,-60.98 1877.95,-66.98"/>
<polyline fill="none" stroke="#585b70" stroke-width="1.2" points="1877.95,-66.98 1877.95,-60.98"/>
<polyline fill="none" stroke="#585b70" stroke-width="1.2" points="1883.95,-60.98 1877.95,-60.98"/>
<text text-anchor="middle" x="1718.28" y="-52.67" font-family="JetBrains Mono,Fira Code,monospace" font-size="9.00" fill="#585b70">Phases linear · backward forbidden</text>
<text text-anchor="middle" x="1718.28" y="-39.92" font-family="JetBrains Mono,Fira Code,monospace" font-size="9.00" fill="#585b70">Idempotent transitions: compare_exchange</text>
<text text-anchor="middle" x="1718.28" y="-27.17" font-family="JetBrains Mono,Fira Code,monospace" font-size="9.00" fill="#585b70">Commit&#45;then&#45;notify: state written first, event fires second</text>
</g>
<!-- Unload&#45;&gt;rule -->
</g>
</svg>
