<?xml version="1.0" encoding="UTF-8" standalone="no"?>
<!DOCTYPE svg PUBLIC "-//W3C//DTD SVG 1.1//EN"
 "http://www.w3.org/Graphics/SVG/1.1/DTD/svg11.dtd">
<!-- Generated by graphviz version 12.2.1 (0)
 -->
<!-- Title: link_carriers Pages: 1 -->
<svg width="2054pt" height="279pt"
 viewBox="0.00 0.00 2054.07 279.16" xmlns="http://www.w3.org/2000/svg" xmlns:xlink="http://www.w3.org/1999/xlink">
<g id="graph0" class="graph" transform="scale(1 1) rotate(0) translate(28.8 250.36)">
<title>link_carriers</title>
<polygon fill="#1e1e2e" stroke="none" points="-28.8,28.8 -28.8,-250.36 2025.27,-250.36 2025.27,28.8 -28.8,28.8"/>
<!-- link_api -->
<g id="node1" class="node">
<title>link_api</title>
<polygon fill="#45475a" stroke="#b4befe" stroke-width="1.2" points="1119.47,-221.56 797.88,-221.56 797.88,-183.04 1119.47,-183.04 1119.47,-221.56"/>
<text text-anchor="middle" x="958.67" y="-206.3" font-family="JetBrains Mono,Fira Code,monospace" font-size="10.00" fill="#b4befe">gn_link_vtable_s (sdk/link.h)</text>
<text text-anchor="middle" x="958.67" y="-192.8" font-family="JetBrains Mono,Fira Code,monospace" font-size="10.00" fill="#b4befe">kernel&#45;facing surface every link plugin implements</text>
</g>
<!-- ice -->
<g id="node2" class="node">
<title>ice</title>
<polygon fill="#45475a" stroke="#a6e3a1" stroke-width="1.2" points="289.35,-147.66 0,-147.66 0,-97.9 289.35,-97.9 289.35,-147.66"/>
<text text-anchor="middle" x="144.68" y="-133.35" font-family="JetBrains Mono,Fira Code,monospace" font-size="9.00" fill="#a6e3a1">gn.link.ice</text>
<text text-anchor="middle" x="144.68" y="-120.61" font-family="JetBrains Mono,Fira Code,monospace" font-size="9.00" fill="#a6e3a1">STUN/TURN candidate gather, ICE checks,</text>
<text text-anchor="middle" x="144.68" y="-107.86" font-family="JetBrains Mono,Fira Code,monospace" font-size="9.00" fill="#a6e3a1">Triggered + Regular Nomination, IPv6 happy&#45;eyeballs</text>
</g>
<!-- link_api&#45;&gt;ice -->
<g id="edge1" class="edge">
<title>link_api&#45;&gt;ice</title>
<path fill="none" stroke="#585b70" d="M797.48,-195.04C664.15,-188.59 470.04,-176.24 301.68,-154.04 291.79,-152.74 281.6,-151.2 271.37,-149.53"/>
<polygon fill="#585b70" stroke="#585b70" points="271.96,-147.15 264.65,-148.41 271.15,-151.98 271.96,-147.15"/>
</g>
<!-- ipc -->
<g id="node3" class="node">
<title>ipc</title>
<polygon fill="#45475a" stroke="#a6e3a1" stroke-width="1.2" points="551.1,-141.29 314.25,-141.29 314.25,-104.27 551.1,-104.27 551.1,-141.29"/>
<text text-anchor="middle" x="432.68" y="-126.98" font-family="JetBrains Mono,Fira Code,monospace" font-size="9.00" fill="#a6e3a1">gn.link.ipc</text>
<text text-anchor="middle" x="432.68" y="-114.23" font-family="JetBrains Mono,Fira Code,monospace" font-size="9.00" fill="#a6e3a1">AF_UNIX stream / datagram; Loopback trust</text>
</g>
<!-- link_api&#45;&gt;ipc -->
<g id="edge2" class="edge">
<title>link_api&#45;&gt;ipc</title>
<path fill="none" stroke="#585b70" d="M797.62,-186.01C725.76,-178.17 640.21,-167.42 563.67,-154.04 546.98,-151.12 529.21,-147.42 512.33,-143.62"/>
<polygon fill="#585b70" stroke="#585b70" points="512.96,-141.26 505.6,-142.09 511.88,-146.03 512.96,-141.26"/>
</g>
<!-- quic -->
<g id="node4" class="node">
<title>quic</title>
<polygon fill="#45475a" stroke="#a6e3a1" stroke-width="1.2" points="791.6,-154.04 575.75,-154.04 575.75,-91.52 791.6,-91.52 791.6,-154.04"/>
<text text-anchor="middle" x="683.67" y="-139.73" font-family="JetBrains Mono,Fira Code,monospace" font-size="9.00" fill="#a6e3a1">gn.link.quic</text>
<text text-anchor="middle" x="683.67" y="-126.98" font-family="JetBrains Mono,Fira Code,monospace" font-size="9.00" fill="#a6e3a1">ngtcp2&#45;backed; carrier scheme detect:</text>
<text text-anchor="middle" x="683.67" y="-114.23" font-family="JetBrains Mono,Fira Code,monospace" font-size="9.00" fill="#a6e3a1"> &#160;· 64 hex chars → gn.link.ice</text>
<text text-anchor="middle" x="683.67" y="-101.48" font-family="JetBrains Mono,Fira Code,monospace" font-size="9.00" fill="#a6e3a1"> &#160;· else → gn.link.udp</text>
</g>
<!-- link_api&#45;&gt;quic -->
<g id="edge3" class="edge">
<title>link_api&#45;&gt;quic</title>
<path fill="none" stroke="#585b70" d="M892.46,-182.63C864.69,-174.81 831.57,-165.47 799.97,-156.56"/>
<polygon fill="#585b70" stroke="#585b70" points="800.84,-154.26 793.44,-154.72 799.51,-158.98 800.84,-154.26"/>
</g>
<!-- tcp -->
<g id="node5" class="node">
<title>tcp</title>
<polygon fill="#45475a" stroke="#a6e3a1" stroke-width="1.2" points="1100.72,-141.29 816.62,-141.29 816.62,-104.27 1100.72,-104.27 1100.72,-141.29"/>
<text text-anchor="middle" x="958.67" y="-126.98" font-family="JetBrains Mono,Fira Code,monospace" font-size="9.00" fill="#a6e3a1">gn.link.tcp</text>
<text text-anchor="middle" x="958.67" y="-114.23" font-family="JetBrains Mono,Fira Code,monospace" font-size="9.00" fill="#a6e3a1">byte stream; TURN&#45;over&#45;TCP framing (16&#45;bit BE len)</text>
</g>
<!-- link_api&#45;&gt;tcp -->
<g id="edge4" class="edge">
<title>link_api&#45;&gt;tcp</title>
<path fill="none" stroke="#585b70" d="M958.67,-182.93C958.67,-173.11 958.67,-160.84 958.67,-150.03"/>
<polygon fill="#585b70" stroke="#585b70" points="961.13,-150.27 958.68,-143.27 956.23,-150.27 961.13,-150.27"/>
</g>
<!-- tls -->
<g id="node6" class="node">
<title>tls</title>
<polygon fill="#45475a" stroke="#a6e3a1" stroke-width="1.2" points="1383.6,-141.29 1125.75,-141.29 1125.75,-104.27 1383.6,-104.27 1383.6,-141.29"/>
<text text-anchor="middle" x="1254.67" y="-126.98" font-family="JetBrains Mono,Fira Code,monospace" font-size="9.00" fill="#a6e3a1">gn.link.tls</text>
<text text-anchor="middle" x="1254.67" y="-114.23" font-family="JetBrains Mono,Fira Code,monospace" font-size="9.00" fill="#a6e3a1">stream framed like tcp; TURNS:// over TLS 1.3</text>
</g>
<!-- link_api&#45;&gt;tls -->
<g id="edge5" class="edge">
<title>link_api&#45;&gt;tls</title>
<path fill="none" stroke="#585b70" d="M1029.95,-182.63C1074.65,-170.93 1132.26,-155.84 1177.96,-143.87"/>
<polygon fill="#585b70" stroke="#585b70" points="1178.44,-146.28 1184.59,-142.13 1177.2,-141.54 1178.44,-146.28"/>
</g>
<!-- udp -->
<g id="node7" class="node">
<title>udp</title>
<polygon fill="#45475a" stroke="#a6e3a1" stroke-width="1.2" points="1671.22,-141.29 1408.12,-141.29 1408.12,-104.27 1671.22,-104.27 1671.22,-141.29"/>
<text text-anchor="middle" x="1539.67" y="-126.98" font-family="JetBrains Mono,Fira Code,monospace" font-size="9.00" fill="#a6e3a1">gn.link.udp</text>
<text text-anchor="middle" x="1539.67" y="-114.23" font-family="JetBrains Mono,Fira Code,monospace" font-size="9.00" fill="#a6e3a1">datagram; no framing; ≤8 KiB single&#45;shot limit</text>
</g>
<!-- link_api&#45;&gt;udp -->
<g id="edge6" class="edge">
<title>link_api&#45;&gt;udp</title>
<path fill="none" stroke="#585b70" d="M1119.77,-187.74C1202.5,-179.8 1304.76,-168.47 1395.67,-154.04 1414.25,-151.09 1434.04,-147.34 1452.82,-143.48"/>
<polygon fill="#585b70" stroke="#585b70" points="1453.25,-145.9 1459.61,-142.08 1452.26,-141.1 1453.25,-145.9"/>
</g>
<!-- ws -->
<g id="node8" class="node">
<title>ws</title>
<polygon fill="#45475a" stroke="#a6e3a1" stroke-width="1.2" points="1980.72,-141.29 1696.62,-141.29 1696.62,-104.27 1980.72,-104.27 1980.72,-141.29"/>
<text text-anchor="middle" x="1838.67" y="-126.98" font-family="JetBrains Mono,Fira Code,monospace" font-size="9.00" fill="#a6e3a1">gn.link.ws</text>
<text text-anchor="middle" x="1838.67" y="-114.23" font-family="JetBrains Mono,Fira Code,monospace" font-size="9.00" fill="#a6e3a1">RFC 6455 WebSocket framing; mask handling per spec</text>
</g>
<!-- link_api&#45;&gt;ws -->
<g id="edge7" class="edge">
<title>link_api&#45;&gt;ws</title>
<path fill="none" stroke="#585b70" d="M1119.78,-196.69C1267.08,-191.09 1490.73,-179.06 1683.67,-154.04 1704.89,-151.29 1727.58,-147.4 1748.86,-143.33"/>
<polygon fill="#585b70" stroke="#585b70" points="1749.05,-145.79 1755.46,-142.05 1748.12,-140.98 1749.05,-145.79"/>
</g>
<!-- note -->
<g id="node9" class="node">
<title>note</title>
<polygon fill="#181825" stroke="#585b70" stroke-width="1.2" points="1990.47,-62.52 1680.88,-62.52 1680.88,0 1996.47,0 1996.47,-56.52 1990.47,-62.52"/>
<polyline fill="none" stroke="#585b70" stroke-width="1.2" points="1990.47,-62.52 1990.47,-56.52"/>
<polyline fill="none" stroke="#585b70" stroke-width="1.2" points="1996.47,-56.52 1990.47,-56.52"/>
<text text-anchor="middle" x="1838.67" y="-48.21" font-family="JetBrains Mono,Fira Code,monospace" font-size="9.00" fill="#585b70">Composer surface (subset of plugins) — see</text>
<text text-anchor="middle" x="1838.67" y="-35.46" font-family="JetBrains Mono,Fira Code,monospace" font-size="9.00" fill="#585b70">composer_extension.svg for the bit&#45;63 dispatch detail.</text>
<text text-anchor="middle" x="1838.67" y="-22.71" font-family="JetBrains Mono,Fira Code,monospace" font-size="9.00" fill="#585b70">Carrier list discovered from plugins/links/ at</text>
<text text-anchor="middle" x="1838.67" y="-9.96" font-family="JetBrains Mono,Fira Code,monospace" font-size="9.00" fill="#585b70">diagram&#45;gen time; new plugins appear here automatically.</text>
</g>
<!-- ws&#45;&gt;note -->
</g>
</svg>
