<?xml version="1.0" encoding="UTF-8" standalone="no"?>
<!DOCTYPE svg PUBLIC "-//W3C//DTD SVG 1.1//EN"
 "http://www.w3.org/Graphics/SVG/1.1/DTD/svg11.dtd">
<!-- Generated by graphviz version 12.2.1 (0)
 -->
<!-- Title: msg_outbound Pages: 1 -->
<svg width="522pt" height="429pt"
 viewBox="0.00 0.00 521.70 429.20" xmlns="http://www.w3.org/2000/svg" xmlns:xlink="http://www.w3.org/1999/xlink">
<g id="graph0" class="graph" transform="scale(1 1) rotate(0) translate(28.8 400.4)">
<title>msg_outbound</title>
<polygon fill="#1e1e2e" stroke="none" points="-28.8,28.8 -28.8,-400.4 492.9,-400.4 492.9,28.8 -28.8,28.8"/>
<!-- plugin -->
<g id="node1" class="node">
<title>plugin</title>
<path fill="#45475a" stroke="#fab387" stroke-width="1.2" d="M316.98,-371.6C316.98,-371.6 125.13,-371.6 125.13,-371.6 119.13,-371.6 113.13,-365.6 113.13,-359.6 113.13,-359.6 113.13,-346.58 113.13,-346.58 113.13,-340.58 119.13,-334.58 125.13,-334.58 125.13,-334.58 316.98,-334.58 316.98,-334.58 322.98,-334.58 328.98,-340.58 328.98,-346.58 328.98,-346.58 328.98,-359.6 328.98,-359.6 328.98,-365.6 322.98,-371.6 316.98,-371.6"/>
<text text-anchor="middle" x="221.05" y="-357.29" font-family="JetBrains Mono,Fira Code,monospace" font-size="9.00" fill="#fab387">Plugin call</text>
<text text-anchor="middle" x="221.05" y="-344.54" font-family="JetBrains Mono,Fira Code,monospace" font-size="9.00" fill="#fab387">host_api&#45;&gt;send(conn, msg_id, payload)</text>
</g>
<!-- frame -->
<g id="node2" class="node">
<title>frame</title>
<path fill="#45475a" stroke="#b4befe" stroke-width="1.2" d="M290.73,-309.58C290.73,-309.58 151.38,-309.58 151.38,-309.58 145.38,-309.58 139.38,-303.58 139.38,-297.58 139.38,-297.58 139.38,-284.56 139.38,-284.56 139.38,-278.56 145.38,-272.56 151.38,-272.56 151.38,-272.56 290.73,-272.56 290.73,-272.56 296.73,-272.56 302.73,-278.56 302.73,-284.56 302.73,-284.56 302.73,-297.58 302.73,-297.58 302.73,-303.58 296.73,-309.58 290.73,-309.58"/>
<text text-anchor="middle" x="221.05" y="-295.27" font-family="JetBrains Mono,Fira Code,monospace" font-size="9.00" fill="#b4befe">Active IProtocolLayer.frame</text>
<text text-anchor="middle" x="221.05" y="-282.52" font-family="JetBrains Mono,Fira Code,monospace" font-size="9.00" fill="#b4befe">envelope → wire bytes</text>
</g>
<!-- plugin&#45;&gt;frame -->
<g id="edge1" class="edge">
<title>plugin&#45;&gt;frame</title>
<path fill="none" stroke="#585b70" d="M221.05,-334.08C221.05,-329.1 221.05,-323.58 221.05,-318.23"/>
<polygon fill="#585b70" stroke="#585b70" points="223.5,-318.58 221.05,-311.58 218.6,-318.58 223.5,-318.58"/>
</g>
<!-- encrypt -->
<g id="node3" class="node">
<title>encrypt</title>
<path fill="#45475a" stroke="#94e2d5" stroke-width="1.2" d="M319.6,-247.56C319.6,-247.56 122.5,-247.56 122.5,-247.56 116.5,-247.56 110.5,-241.56 110.5,-235.56 110.5,-235.56 110.5,-222.54 110.5,-222.54 110.5,-216.54 116.5,-210.54 122.5,-210.54 122.5,-210.54 319.6,-210.54 319.6,-210.54 325.6,-210.54 331.6,-216.54 331.6,-222.54 331.6,-222.54 331.6,-235.56 331.6,-235.56 331.6,-241.56 325.6,-247.56 319.6,-247.56"/>
<text text-anchor="middle" x="221.05" y="-233.25" font-family="JetBrains Mono,Fira Code,monospace" font-size="9.00" fill="#94e2d5">SecuritySession.encrypt_transport</text>
<text text-anchor="middle" x="221.05" y="-220.5" font-family="JetBrains Mono,Fira Code,monospace" font-size="9.00" fill="#94e2d5">plaintext → ciphertext + length prefix</text>
</g>
<!-- frame&#45;&gt;encrypt -->
<g id="edge2" class="edge">
<title>frame&#45;&gt;encrypt</title>
<path fill="none" stroke="#585b70" d="M221.05,-272.06C221.05,-267.08 221.05,-261.56 221.05,-256.21"/>
<polygon fill="#585b70" stroke="#585b70" points="223.5,-256.56 221.05,-249.56 218.6,-256.56 223.5,-256.56"/>
</g>
<!-- queue -->
<g id="node4" class="node">
<title>queue</title>
<path fill="#45475a" stroke="#89b4fa" stroke-width="1.2" d="M288.1,-185.54C288.1,-185.54 154,-185.54 154,-185.54 148,-185.54 142,-179.54 142,-173.54 142,-173.54 142,-147.77 142,-147.77 142,-141.77 148,-135.77 154,-135.77 154,-135.77 288.1,-135.77 288.1,-135.77 294.1,-135.77 300.1,-141.77 300.1,-147.77 300.1,-147.77 300.1,-173.54 300.1,-173.54 300.1,-179.54 294.1,-185.54 288.1,-185.54"/>
<text text-anchor="middle" x="221.05" y="-171.23" font-family="JetBrains Mono,Fira Code,monospace" font-size="9.00" fill="#89b4fa">Per&#45;conn write queue</text>
<text text-anchor="middle" x="221.05" y="-158.48" font-family="JetBrains Mono,Fira Code,monospace" font-size="9.00" fill="#89b4fa">bytes_buffered accounting</text>
<text text-anchor="middle" x="221.05" y="-145.73" font-family="JetBrains Mono,Fira Code,monospace" font-size="9.00" fill="#89b4fa">watermarks (low/high/hard)</text>
</g>
<!-- encrypt&#45;&gt;queue -->
<g id="edge3" class="edge">
<title>encrypt&#45;&gt;queue</title>
<path fill="none" stroke="#585b70" d="M221.05,-210.26C221.05,-205.2 221.05,-199.53 221.05,-193.89"/>
<polygon fill="#585b70" stroke="#585b70" points="223.5,-194.25 221.05,-187.25 218.6,-194.25 223.5,-194.25"/>
</g>
<!-- link_tx -->
<g id="node5" class="node">
<title>link_tx</title>
<path fill="#45475a" stroke="#a6e3a1" stroke-width="1.2" d="M188.1,-104.39C188.1,-104.39 12,-104.39 12,-104.39 6,-104.39 0,-98.39 0,-92.39 0,-92.39 0,-79.38 0,-79.38 0,-73.38 6,-67.38 12,-67.38 12,-67.38 188.1,-67.38 188.1,-67.38 194.1,-67.38 200.1,-73.38 200.1,-79.38 200.1,-79.38 200.1,-92.39 200.1,-92.39 200.1,-98.39 194.1,-104.39 188.1,-104.39"/>
<text text-anchor="middle" x="100.05" y="-90.08" font-family="JetBrains Mono,Fira Code,monospace" font-size="9.00" fill="#a6e3a1">Link plugin send</text>
<text text-anchor="middle" x="100.05" y="-77.33" font-family="JetBrains Mono,Fira Code,monospace" font-size="9.00" fill="#a6e3a1">(scheme dispatch via LinkRegistry)</text>
</g>
<!-- queue&#45;&gt;link_tx -->
<g id="edge4" class="edge">
<title>queue&#45;&gt;link_tx</title>
<path fill="none" stroke="#585b70" d="M180.76,-135.42C166.59,-126.9 150.75,-117.38 136.89,-109.04"/>
<polygon fill="#585b70" stroke="#585b70" points="138.39,-107.08 131.13,-105.58 135.86,-111.28 138.39,-107.08"/>
</g>
<!-- bp_note -->
<g id="node7" class="node">
<title>bp_note</title>
<polygon fill="#181825" stroke="#585b70" stroke-width="1.2" points="458.1,-110.77 222,-110.77 222,-61 464.1,-61 464.1,-104.77 458.1,-110.77"/>
<polyline fill="none" stroke="#585b70" stroke-width="1.2" points="458.1,-110.77 458.1,-104.77"/>
<polyline fill="none" stroke="#585b70" stroke-width="1.2" points="464.1,-104.77 458.1,-104.77"/>
<text text-anchor="middle" x="343.05" y="-96.46" font-family="JetBrains Mono,Fira Code,monospace" font-size="9.00" fill="#585b70">Hard cap → GN_ERR_LIMIT_REACHED</text>
<text text-anchor="middle" x="343.05" y="-83.71" font-family="JetBrains Mono,Fira Code,monospace" font-size="9.00" fill="#585b70">Soft watermark → BACKPRESSURE_SOFT event</text>
<text text-anchor="middle" x="343.05" y="-70.96" font-family="JetBrains Mono,Fira Code,monospace" font-size="9.00" fill="#585b70">Clear watermark → BACKPRESSURE_CLEAR event</text>
</g>
<!-- queue&#45;&gt;bp_note -->
<g id="edge6" class="edge">
<title>queue&#45;&gt;bp_note</title>
<path fill="none" stroke="#585b70" stroke-dasharray="5,2" d="M261.67,-135.42C274.71,-127.65 289.14,-119.04 302.19,-111.26"/>
</g>
<!-- wire -->
<g id="node6" class="node">
<title>wire</title>
<ellipse fill="#45475a" stroke="#f38ba8" stroke-width="1.2" cx="100.05" cy="-18" rx="50.16" ry="18"/>
<text text-anchor="middle" x="100.05" y="-15.82" font-family="JetBrains Mono,Fira Code,monospace" font-size="9.00" fill="#f38ba8">wire bytes</text>
</g>
<!-- link_tx&#45;&gt;wire -->
<g id="edge5" class="edge">
<title>link_tx&#45;&gt;wire</title>
<path fill="none" stroke="#585b70" d="M100.05,-66.88C100.05,-59.98 100.05,-51.97 100.05,-44.5"/>
<polygon fill="#585b70" stroke="#585b70" points="102.5,-44.59 100.05,-37.59 97.6,-44.59 102.5,-44.59"/>
</g>
</g>
</svg>
