<?xml version="1.0" encoding="UTF-8" standalone="no"?>
<!DOCTYPE svg PUBLIC "-//W3C//DTD SVG 1.1//EN"
 "http://www.w3.org/Graphics/SVG/1.1/DTD/svg11.dtd">
<!-- Generated by graphviz version 12.2.1 (0)
 -->
<!-- Title: msg_inbound Pages: 1 -->
<svg width="696pt" height="535pt"
 viewBox="0.00 0.00 696.20 535.45" xmlns="http://www.w3.org/2000/svg" xmlns:xlink="http://www.w3.org/1999/xlink">
<g id="graph0" class="graph" transform="scale(1 1) rotate(0) translate(28.8 506.65)">
<title>msg_inbound</title>
<polygon fill="#1e1e2e" stroke="none" points="-28.8,28.8 -28.8,-506.65 667.4,-506.65 667.4,28.8 -28.8,28.8"/>
<!-- link_rx -->
<g id="node1" class="node">
<title>link_rx</title>
<path fill="#45475a" stroke="#a6e3a1" stroke-width="1.2" d="M356.98,-477.85C356.98,-477.85 154.62,-477.85 154.62,-477.85 148.62,-477.85 142.62,-471.85 142.62,-465.85 142.62,-465.85 142.62,-452.83 142.62,-452.83 142.62,-446.83 148.62,-440.83 154.62,-440.83 154.62,-440.83 356.98,-440.83 356.98,-440.83 362.98,-440.83 368.98,-446.83 368.98,-452.83 368.98,-452.83 368.98,-465.85 368.98,-465.85 368.98,-471.85 362.98,-477.85 356.98,-477.85"/>
<text text-anchor="middle" x="255.8" y="-463.54" font-family="JetBrains Mono,Fira Code,monospace" font-size="9.00" fill="#a6e3a1">Link plugin</text>
<text text-anchor="middle" x="255.8" y="-450.79" font-family="JetBrains Mono,Fira Code,monospace" font-size="9.00" fill="#a6e3a1">notify_inbound_bytes(conn, bytes, size)</text>
</g>
<!-- decrypt -->
<g id="node2" class="node">
<title>decrypt</title>
<path fill="#45475a" stroke="#94e2d5" stroke-width="1.2" d="M341.23,-413.83C341.23,-413.83 170.38,-413.83 170.38,-413.83 164.38,-413.83 158.38,-407.83 158.38,-401.83 158.38,-401.83 158.38,-376.06 158.38,-376.06 158.38,-370.06 164.38,-364.06 170.38,-364.06 170.38,-364.06 341.23,-364.06 341.23,-364.06 347.23,-364.06 353.23,-370.06 353.23,-376.06 353.23,-376.06 353.23,-401.83 353.23,-401.83 353.23,-407.83 347.23,-413.83 341.23,-413.83"/>
<text text-anchor="middle" x="255.8" y="-399.52" font-family="JetBrains Mono,Fira Code,monospace" font-size="9.00" fill="#94e2d5">SecuritySession.decrypt_transport</text>
<text text-anchor="middle" x="255.8" y="-386.77" font-family="JetBrains Mono,Fira Code,monospace" font-size="9.00" fill="#94e2d5">wire bytes → plaintext frames</text>
<text text-anchor="middle" x="255.8" y="-374.02" font-family="JetBrains Mono,Fira Code,monospace" font-size="9.00" fill="#94e2d5">(2&#45;byte length prefix per frame)</text>
</g>
<!-- link_rx&#45;&gt;decrypt -->
<g id="edge1" class="edge">
<title>link_rx&#45;&gt;decrypt</title>
<path fill="none" stroke="#585b70" d="M255.8,-440.37C255.8,-434.87 255.8,-428.64 255.8,-422.49"/>
<polygon fill="#585b70" stroke="#585b70" points="258.25,-422.73 255.8,-415.73 253.35,-422.73 258.25,-422.73"/>
</g>
<!-- deframe -->
<g id="node3" class="node">
<title>deframe</title>
<path fill="#45475a" stroke="#b4befe" stroke-width="1.2" d="M335.98,-337.06C335.98,-337.06 175.62,-337.06 175.62,-337.06 169.62,-337.06 163.62,-331.06 163.62,-325.06 163.62,-325.06 163.62,-312.04 163.62,-312.04 163.62,-306.04 169.62,-300.04 175.62,-300.04 175.62,-300.04 335.98,-300.04 335.98,-300.04 341.98,-300.04 347.98,-306.04 347.98,-312.04 347.98,-312.04 347.98,-325.06 347.98,-325.06 347.98,-331.06 341.98,-337.06 335.98,-337.06"/>
<text text-anchor="middle" x="255.8" y="-322.75" font-family="JetBrains Mono,Fira Code,monospace" font-size="9.00" fill="#b4befe">Active IProtocolLayer.deframe</text>
<text text-anchor="middle" x="255.8" y="-310" font-family="JetBrains Mono,Fira Code,monospace" font-size="9.00" fill="#b4befe">stream → gn_message_t envelopes</text>
</g>
<!-- decrypt&#45;&gt;deframe -->
<g id="edge2" class="edge">
<title>decrypt&#45;&gt;deframe</title>
<path fill="none" stroke="#585b70" d="M255.8,-363.63C255.8,-357.86 255.8,-351.66 255.8,-345.8"/>
<polygon fill="#585b70" stroke="#585b70" points="258.25,-346.05 255.8,-339.05 253.35,-346.05 258.25,-346.05"/>
</g>
<!-- router -->
<g id="node4" class="node">
<title>router</title>
<path fill="#45475a" stroke="#89b4fa" stroke-width="1.2" d="M349.1,-273.04C349.1,-273.04 162.5,-273.04 162.5,-273.04 156.5,-273.04 150.5,-267.04 150.5,-261.04 150.5,-261.04 150.5,-248.02 150.5,-248.02 150.5,-242.02 156.5,-236.02 162.5,-236.02 162.5,-236.02 349.1,-236.02 349.1,-236.02 355.1,-236.02 361.1,-242.02 361.1,-248.02 361.1,-248.02 361.1,-261.04 361.1,-261.04 361.1,-267.04 355.1,-273.04 349.1,-273.04"/>
<text text-anchor="middle" x="255.8" y="-258.73" font-family="JetBrains Mono,Fira Code,monospace" font-size="9.00" fill="#89b4fa">Router</text>
<text text-anchor="middle" x="255.8" y="-245.98" font-family="JetBrains Mono,Fira Code,monospace" font-size="9.00" fill="#89b4fa">lookup (protocol_id, msg_id) → chain</text>
</g>
<!-- deframe&#45;&gt;router -->
<g id="edge3" class="edge">
<title>deframe&#45;&gt;router</title>
<path fill="none" stroke="#585b70" d="M255.8,-299.61C255.8,-293.9 255.8,-287.47 255.8,-281.32"/>
<polygon fill="#585b70" stroke="#585b70" points="258.25,-281.72 255.8,-274.72 253.35,-281.72 258.25,-281.72"/>
</g>
<!-- h0 -->
<g id="node5" class="node">
<title>h0</title>
<path fill="#45475a" stroke="#fab387" stroke-width="1.2" d="M290.6,-209.02C290.6,-209.02 221,-209.02 221,-209.02 215,-209.02 209,-203.02 209,-197.02 209,-197.02 209,-182.5 209,-182.5 209,-176.5 215,-170.5 221,-170.5 221,-170.5 290.6,-170.5 290.6,-170.5 296.6,-170.5 302.6,-176.5 302.6,-182.5 302.6,-182.5 302.6,-197.02 302.6,-197.02 302.6,-203.02 296.6,-209.02 290.6,-209.02"/>
<text text-anchor="middle" x="255.8" y="-193.76" font-family="JetBrains Mono,Fira Code,monospace" font-size="10.00" fill="#fab387">Handler[0]</text>
<text text-anchor="middle" x="255.8" y="-180.26" font-family="JetBrains Mono,Fira Code,monospace" font-size="10.00" fill="#fab387">priority 255</text>
</g>
<!-- router&#45;&gt;h0 -->
<g id="edge4" class="edge">
<title>router&#45;&gt;h0</title>
<path fill="none" stroke="#585b70" d="M255.8,-235.71C255.8,-230.02 255.8,-223.61 255.8,-217.44"/>
<polygon fill="#585b70" stroke="#585b70" points="258.25,-217.79 255.8,-210.79 253.35,-217.79 258.25,-217.79"/>
</g>
<!-- h1 -->
<g id="node6" class="node">
<title>h1</title>
<path fill="#45475a" stroke="#fab387" stroke-width="1.2" d="M81.6,-123.77C81.6,-123.77 12,-123.77 12,-123.77 6,-123.77 0,-117.77 0,-111.77 0,-111.77 0,-97.25 0,-97.25 0,-91.25 6,-85.25 12,-85.25 12,-85.25 81.6,-85.25 81.6,-85.25 87.6,-85.25 93.6,-91.25 93.6,-97.25 93.6,-97.25 93.6,-111.77 93.6,-111.77 93.6,-117.77 87.6,-123.77 81.6,-123.77"/>
<text text-anchor="middle" x="46.8" y="-108.51" font-family="JetBrains Mono,Fira Code,monospace" font-size="10.00" fill="#fab387">Handler[1]</text>
<text text-anchor="middle" x="46.8" y="-95.01" font-family="JetBrains Mono,Fira Code,monospace" font-size="10.00" fill="#fab387">priority 128</text>
</g>
<!-- h0&#45;&gt;h1 -->
<g id="edge5" class="edge">
<title>h0&#45;&gt;h1</title>
<path fill="none" stroke="#89b4fa" d="M208.53,-172.65C195,-167.9 180.27,-162.61 166.8,-157.5 138.52,-146.76 131.55,-143.79 103.8,-131.75 100.79,-130.44 97.71,-129.08 94.6,-127.69"/>
<polygon fill="#89b4fa" stroke="#89b4fa" points="95.64,-125.48 88.25,-124.84 93.63,-129.95 95.64,-125.48"/>
<text text-anchor="middle" x="187.8" y="-148.95" font-family="JetBrains Mono,Fira Code,monospace" font-size="9.00" fill="#89b4fa">CONTINUE</text>
</g>
<!-- consumed -->
<g id="node8" class="node">
<title>consumed</title>
<ellipse fill="#45475a" stroke="#f9e2af" stroke-width="1.2" cx="172.8" cy="-104.51" rx="57.7" ry="27.24"/>
<text text-anchor="middle" x="172.8" y="-108.51" font-family="JetBrains Mono,Fira Code,monospace" font-size="10.00" fill="#f9e2af">CONSUMED</text>
<text text-anchor="middle" x="172.8" y="-95.01" font-family="JetBrains Mono,Fira Code,monospace" font-size="10.00" fill="#f9e2af">stop chain</text>
</g>
<!-- h0&#45;&gt;consumed -->
<g id="edge7" class="edge">
<title>h0&#45;&gt;consumed</title>
<path fill="none" stroke="#f9e2af" stroke-dasharray="5,2" d="M237.38,-170.28C227.21,-160.08 214.33,-147.17 202.76,-135.56"/>
<polygon fill="#f9e2af" stroke="#f9e2af" points="204.59,-133.92 197.91,-130.7 201.12,-137.38 204.59,-133.92"/>
</g>
<!-- reject -->
<g id="node9" class="node">
<title>reject</title>
<ellipse fill="#45475a" stroke="#f38ba8" stroke-width="1.2" cx="339.8" cy="-104.51" rx="87.4" ry="27.24"/>
<text text-anchor="middle" x="339.8" y="-108.51" font-family="JetBrains Mono,Fira Code,monospace" font-size="10.00" fill="#f38ba8">REJECT</text>
<text text-anchor="middle" x="339.8" y="-95.01" font-family="JetBrains Mono,Fira Code,monospace" font-size="10.00" fill="#f38ba8">drop &amp; close conn</text>
</g>
<!-- h0&#45;&gt;reject -->
<g id="edge8" class="edge">
<title>h0&#45;&gt;reject</title>
<path fill="none" stroke="#f38ba8" stroke-dasharray="5,2" d="M274.44,-170.28C284.4,-160.41 296.93,-147.99 308.35,-136.67"/>
<polygon fill="#f38ba8" stroke="#f38ba8" points="309.88,-138.61 313.13,-131.94 306.43,-135.13 309.88,-138.61"/>
</g>
<!-- on_result -->
<g id="node10" class="node">
<title>on_result</title>
<polygon fill="#181825" stroke="#585b70" stroke-width="1.2" points="632.6,-129.39 449,-129.39 449,-79.62 638.6,-79.62 638.6,-123.39 632.6,-129.39"/>
<polyline fill="none" stroke="#585b70" stroke-width="1.2" points="632.6,-129.39 632.6,-123.39"/>
<polyline fill="none" stroke="#585b70" stroke-width="1.2" points="638.6,-123.39 632.6,-123.39"/>
<text text-anchor="middle" x="543.8" y="-115.08" font-family="JetBrains Mono,Fira Code,monospace" font-size="9.00" fill="#585b70">on_result(envelope, propagation)</text>
<text text-anchor="middle" x="543.8" y="-102.33" font-family="JetBrains Mono,Fira Code,monospace" font-size="9.00" fill="#585b70">fires after every handle_message</text>
<text text-anchor="middle" x="543.8" y="-89.58" font-family="JetBrains Mono,Fira Code,monospace" font-size="9.00" fill="#585b70">regardless of return value</text>
</g>
<!-- h0&#45;&gt;on_result -->
<g id="edge9" class="edge">
<title>h0&#45;&gt;on_result</title>
<path fill="none" stroke="#585b70" stroke-dasharray="5,2" d="M303.03,-175.1C343.17,-163.5 401.97,-146.5 451.41,-132.21"/>
<polygon fill="#585b70" stroke="#585b70" points="452.08,-134.57 458.12,-130.27 450.72,-129.86 452.08,-134.57"/>
</g>
<!-- hN -->
<g id="node7" class="node">
<title>hN</title>
<path fill="#45475a" stroke="#fab387" stroke-width="1.2" d="M75.6,-38.52C75.6,-38.52 18,-38.52 18,-38.52 12,-38.52 6,-32.52 6,-26.52 6,-26.52 6,-12 6,-12 6,-6 12,0 18,0 18,0 75.6,0 75.6,0 81.6,0 87.6,-6 87.6,-12 87.6,-12 87.6,-26.52 87.6,-26.52 87.6,-32.52 81.6,-38.52 75.6,-38.52"/>
<text text-anchor="middle" x="46.8" y="-23.26" font-family="JetBrains Mono,Fira Code,monospace" font-size="10.00" fill="#fab387">Handler[N]</text>
<text text-anchor="middle" x="46.8" y="-9.76" font-family="JetBrains Mono,Fira Code,monospace" font-size="10.00" fill="#fab387">priority 0</text>
</g>
<!-- h1&#45;&gt;hN -->
<g id="edge6" class="edge">
<title>h1&#45;&gt;hN</title>
<path fill="none" stroke="#89b4fa" stroke-dasharray="5,2" d="M46.8,-85.03C46.8,-73.9 46.8,-59.53 46.8,-47.16"/>
<polygon fill="#89b4fa" stroke="#89b4fa" points="49.25,-47.49 46.8,-40.49 44.35,-47.49 49.25,-47.49"/>
<text text-anchor="middle" x="67.8" y="-55.72" font-family="JetBrains Mono,Fira Code,monospace" font-size="9.00" fill="#89b4fa">CONTINUE</text>
</g>
</g>
</svg>
