<?xml version="1.0" encoding="UTF-8" standalone="no"?>
<!DOCTYPE svg PUBLIC "-//W3C//DTD SVG 1.1//EN"
 "http://www.w3.org/Graphics/SVG/1.1/DTD/svg11.dtd">
<!-- Generated by graphviz version 12.2.1 (0)
 -->
<!-- Title: noise_handshake Pages: 1 -->
<svg width="502pt" height="1123pt"
 viewBox="0.00 0.00 501.60 1122.96" xmlns="http://www.w3.org/2000/svg" xmlns:xlink="http://www.w3.org/1999/xlink">
<g id="graph0" class="graph" transform="scale(1 1) rotate(0) translate(28.8 1094.16)">
<title>noise_handshake</title>
<polygon fill="#1e1e2e" stroke="none" points="-28.8,28.8 -28.8,-1094.16 472.8,-1094.16 472.8,28.8 -28.8,28.8"/>
<g id="clust1" class="cluster">
<title>cluster_xx</title>
<path fill="#181825" stroke="#b4befe" stroke-width="1.5" d="M20,-264.47C20,-264.47 424,-264.47 424,-264.47 430,-264.47 436,-270.47 436,-276.47 436,-276.47 436,-1045.36 436,-1045.36 436,-1051.36 430,-1057.36 424,-1057.36 424,-1057.36 20,-1057.36 20,-1057.36 14,-1057.36 8,-1051.36 8,-1045.36 8,-1045.36 8,-276.47 8,-276.47 8,-270.47 14,-264.47 20,-264.47"/>
<text text-anchor="middle" x="222" y="-1041.96" font-family="JetBrains Mono,Fira Code,monospace" font-size="12.00" fill="#b4befe">Noise_XX &#160;(3 messages, mutual auth, no prior knowledge)</text>
</g>
<!-- init_hdr -->
<g id="node1" class="node">
<title>init_hdr</title>
<polygon fill="#45475a" stroke="none" stroke-width="1.2" points="239.55,-1032.86 150.45,-1032.86 150.45,-996.86 239.55,-996.86 239.55,-1032.86"/>
<text text-anchor="middle" x="195" y="-1011.71" font-family="JetBrains Mono,Fira Code,monospace" font-size="12.00" fill="#89b4fa">Initiator</text>
</g>
<!-- init_keys -->
<g id="node3" class="node">
<title>init_keys</title>
<path fill="#45475a" stroke="#89b4fa" stroke-width="1.2" d="M241.05,-973.86C241.05,-973.86 148.95,-973.86 148.95,-973.86 142.95,-973.86 136.95,-967.86 136.95,-961.86 136.95,-961.86 136.95,-948.84 136.95,-948.84 136.95,-942.84 142.95,-936.84 148.95,-936.84 148.95,-936.84 241.05,-936.84 241.05,-936.84 247.05,-936.84 253.05,-942.84 253.05,-948.84 253.05,-948.84 253.05,-961.86 253.05,-961.86 253.05,-967.86 247.05,-973.86 241.05,-973.86"/>
<text text-anchor="middle" x="195" y="-959.55" font-family="JetBrains Mono,Fira Code,monospace" font-size="9.00" fill="#89b4fa">Generate ephemeral</text>
<text text-anchor="middle" x="195" y="-946.8" font-family="JetBrains Mono,Fira Code,monospace" font-size="9.00" fill="#89b4fa">keypair (e_i)</text>
</g>
<!-- init_hdr&#45;&gt;init_keys -->
<!-- resp_hdr -->
<g id="node2" class="node">
<title>resp_hdr</title>
<polygon fill="#45475a" stroke="none" stroke-width="1.2" points="409.55,-1032.86 320.45,-1032.86 320.45,-996.86 409.55,-996.86 409.55,-1032.86"/>
<text text-anchor="middle" x="365" y="-1011.71" font-family="JetBrains Mono,Fira Code,monospace" font-size="12.00" fill="#a6e3a1">Responder</text>
</g>
<!-- resp_keys -->
<g id="node4" class="node">
<title>resp_keys</title>
<path fill="#45475a" stroke="#a6e3a1" stroke-width="1.2" d="M411.05,-973.86C411.05,-973.86 318.95,-973.86 318.95,-973.86 312.95,-973.86 306.95,-967.86 306.95,-961.86 306.95,-961.86 306.95,-948.84 306.95,-948.84 306.95,-942.84 312.95,-936.84 318.95,-936.84 318.95,-936.84 411.05,-936.84 411.05,-936.84 417.05,-936.84 423.05,-942.84 423.05,-948.84 423.05,-948.84 423.05,-961.86 423.05,-961.86 423.05,-967.86 417.05,-973.86 411.05,-973.86"/>
<text text-anchor="middle" x="365" y="-959.55" font-family="JetBrains Mono,Fira Code,monospace" font-size="9.00" fill="#a6e3a1">Has static keypair</text>
<text text-anchor="middle" x="365" y="-946.8" font-family="JetBrains Mono,Fira Code,monospace" font-size="9.00" fill="#a6e3a1">(s_r, S_r)</text>
</g>
<!-- resp_hdr&#45;&gt;resp_keys -->
<!-- msg1 -->
<g id="node5" class="node">
<title>msg1</title>
<polygon fill="#45475a" stroke="#b4befe" stroke-width="1.2" points="342.58,-913.84 107.81,-913.84 47.42,-839.8 282.19,-839.8 342.58,-913.84"/>
<text text-anchor="middle" x="195" y="-881.02" font-family="JetBrains Mono,Fira Code,monospace" font-size="9.00" fill="#b4befe">MSG 1 &#160;&#160;→ &#160;e</text>
<text text-anchor="middle" x="195" y="-868.27" font-family="JetBrains Mono,Fira Code,monospace" font-size="9.00" fill="#b4befe">ephemeral pubkey (32 B)</text>
</g>
<!-- init_keys&#45;&gt;msg1 -->
<g id="edge3" class="edge">
<title>init_keys&#45;&gt;msg1</title>
<path fill="none" stroke="#89b4fa" d="M195,-936.6C195,-932.3 195,-927.51 195,-922.57"/>
<polygon fill="#89b4fa" stroke="#89b4fa" points="197.45,-922.69 195,-915.69 192.55,-922.69 197.45,-922.69"/>
</g>
<!-- resp_step1 -->
<g id="node6" class="node">
<title>resp_step1</title>
<path fill="#45475a" stroke="#a6e3a1" stroke-width="1.2" d="M264.68,-816.8C264.68,-816.8 125.32,-816.8 125.32,-816.8 119.32,-816.8 113.33,-810.8 113.33,-804.8 113.33,-804.8 113.33,-779.03 113.33,-779.03 113.33,-773.03 119.33,-767.03 125.33,-767.03 125.33,-767.03 264.68,-767.03 264.68,-767.03 270.68,-767.03 276.68,-773.03 276.68,-779.03 276.68,-779.03 276.68,-804.8 276.68,-804.8 276.68,-810.8 270.68,-816.8 264.68,-816.8"/>
<text text-anchor="middle" x="195" y="-802.49" font-family="JetBrains Mono,Fira Code,monospace" font-size="9.00" fill="#a6e3a1">Generate ephemeral (e_r)</text>
<text text-anchor="middle" x="195" y="-789.74" font-family="JetBrains Mono,Fira Code,monospace" font-size="9.00" fill="#a6e3a1">ee = X25519(e_r, e_i)</text>
<text text-anchor="middle" x="195" y="-776.99" font-family="JetBrains Mono,Fira Code,monospace" font-size="9.00" fill="#a6e3a1">Encrypt static S_r under ee</text>
</g>
<!-- msg1&#45;&gt;resp_step1 -->
<g id="edge4" class="edge">
<title>msg1&#45;&gt;resp_step1</title>
<path fill="none" stroke="#a6e3a1" d="M195,-839.7C195,-834.9 195,-830 195,-825.27"/>
<polygon fill="#a6e3a1" stroke="#a6e3a1" points="197.45,-825.5 195,-818.5 192.55,-825.5 197.45,-825.5"/>
</g>
<!-- msg2 -->
<g id="node7" class="node">
<title>msg2</title>
<polygon fill="#45475a" stroke="#b4befe" stroke-width="1.2" points="369.8,-744.03 91.73,-744.03 20.2,-644.49 298.27,-644.49 369.8,-744.03"/>
<text text-anchor="middle" x="195" y="-704.83" font-family="JetBrains Mono,Fira Code,monospace" font-size="9.00" fill="#b4befe">MSG 2 &#160;&#160;← &#160;e, ee, s, es</text>
<text text-anchor="middle" x="195" y="-692.08" font-family="JetBrains Mono,Fira Code,monospace" font-size="9.00" fill="#b4befe">ephemeral + encrypted static</text>
<text text-anchor="middle" x="195" y="-679.33" font-family="JetBrains Mono,Fira Code,monospace" font-size="9.00" fill="#b4befe">+ DH mixed into key</text>
</g>
<!-- resp_step1&#45;&gt;msg2 -->
<g id="edge5" class="edge">
<title>resp_step1&#45;&gt;msg2</title>
<path fill="none" stroke="#a6e3a1" d="M195,-766.78C195,-762.38 195,-757.63 195,-752.73"/>
<polygon fill="#a6e3a1" stroke="#a6e3a1" points="197.45,-752.91 195,-745.91 192.55,-752.91 197.45,-752.91"/>
</g>
<!-- init_step2 -->
<g id="node8" class="node">
<title>init_step2</title>
<path fill="#45475a" stroke="#89b4fa" stroke-width="1.2" d="M251.55,-621.49C251.55,-621.49 138.45,-621.49 138.45,-621.49 132.45,-621.49 126.45,-615.49 126.45,-609.49 126.45,-609.49 126.45,-570.97 126.45,-570.97 126.45,-564.97 132.45,-558.97 138.45,-558.97 138.45,-558.97 251.55,-558.97 251.55,-558.97 257.55,-558.97 263.55,-564.97 263.55,-570.97 263.55,-570.97 263.55,-609.49 263.55,-609.49 263.55,-615.49 257.55,-621.49 251.55,-621.49"/>
<text text-anchor="middle" x="195" y="-607.18" font-family="JetBrains Mono,Fira Code,monospace" font-size="9.00" fill="#89b4fa">ee = X25519(e_i, e_r)</text>
<text text-anchor="middle" x="195" y="-594.43" font-family="JetBrains Mono,Fira Code,monospace" font-size="9.00" fill="#89b4fa">Decrypt S_r</text>
<text text-anchor="middle" x="195" y="-581.68" font-family="JetBrains Mono,Fira Code,monospace" font-size="9.00" fill="#89b4fa">se = X25519(S_i, e_r)</text>
<text text-anchor="middle" x="195" y="-568.93" font-family="JetBrains Mono,Fira Code,monospace" font-size="9.00" fill="#89b4fa">Encrypt own static S_i</text>
</g>
<!-- msg2&#45;&gt;init_step2 -->
<g id="edge6" class="edge">
<title>msg2&#45;&gt;init_step2</title>
<path fill="none" stroke="#89b4fa" d="M195,-644.04C195,-639.44 195,-634.83 195,-630.34"/>
<polygon fill="#89b4fa" stroke="#89b4fa" points="197.45,-630.43 195,-623.43 192.55,-630.43 197.45,-630.43"/>
</g>
<!-- msg3 -->
<g id="node9" class="node">
<title>msg3</title>
<polygon fill="#45475a" stroke="#b4befe" stroke-width="1.2" points="259.48,-535.97 85.32,-535.97 40.52,-436.43 214.68,-436.43 259.48,-535.97"/>
<text text-anchor="middle" x="150" y="-496.77" font-family="JetBrains Mono,Fira Code,monospace" font-size="9.00" fill="#b4befe">MSG 3 &#160;&#160;→ &#160;s, se</text>
<text text-anchor="middle" x="150" y="-484.02" font-family="JetBrains Mono,Fira Code,monospace" font-size="9.00" fill="#b4befe">encrypted static</text>
<text text-anchor="middle" x="150" y="-471.27" font-family="JetBrains Mono,Fira Code,monospace" font-size="9.00" fill="#b4befe">+ DH proof</text>
</g>
<!-- init_step2&#45;&gt;msg3 -->
<g id="edge7" class="edge">
<title>init_step2&#45;&gt;msg3</title>
<path fill="none" stroke="#89b4fa" d="M181.5,-558.62C179.41,-553.88 177.2,-548.87 174.96,-543.78"/>
<polygon fill="#89b4fa" stroke="#89b4fa" points="177.33,-543.1 172.27,-537.68 172.85,-545.08 177.33,-543.1"/>
</g>
<!-- split -->
<g id="node11" class="node">
<title>split</title>
<polygon fill="#45475a" stroke="#f9e2af" stroke-width="1.2" points="373.97,-286.79 373.97,-318.35 307.79,-340.66 214.21,-340.66 148.03,-318.35 148.03,-286.79 214.21,-264.47 307.79,-264.47 373.97,-286.79"/>
<text text-anchor="middle" x="261" y="-313.14" font-family="JetBrains Mono,Fira Code,monospace" font-size="9.00" fill="#f9e2af">Split() → 2 CipherStates</text>
<text text-anchor="middle" x="261" y="-300.39" font-family="JetBrains Mono,Fira Code,monospace" font-size="9.00" fill="#f9e2af">send_key + recv_key</text>
<text text-anchor="middle" x="261" y="-287.64" font-family="JetBrains Mono,Fira Code,monospace" font-size="9.00" fill="#f9e2af">(ChaCha20&#45;Poly1305 AEAD)</text>
</g>
<!-- init_step2&#45;&gt;split -->
<g id="edge9" class="edge">
<title>init_step2&#45;&gt;split</title>
<path fill="none" stroke="#89b4fa" stroke-dasharray="5,2" d="M254.82,-558.78C262.52,-552.31 269.34,-544.73 274,-535.97 305.19,-477.33 290.97,-398.2 276.8,-349.05"/>
<polygon fill="#89b4fa" stroke="#89b4fa" points="279.22,-348.59 274.87,-342.58 274.52,-349.99 279.22,-348.59"/>
</g>
<!-- resp_step3 -->
<g id="node10" class="node">
<title>resp_step3</title>
<path fill="#45475a" stroke="#a6e3a1" stroke-width="1.2" d="M235.93,-413.43C235.93,-413.43 128.07,-413.43 128.07,-413.43 122.07,-413.43 116.08,-407.43 116.08,-401.43 116.08,-401.43 116.08,-375.66 116.08,-375.66 116.08,-369.66 122.08,-363.66 128.07,-363.66 128.07,-363.66 235.93,-363.66 235.93,-363.66 241.93,-363.66 247.93,-369.66 247.93,-375.66 247.93,-375.66 247.93,-401.43 247.93,-401.43 247.93,-407.43 241.93,-413.43 235.93,-413.43"/>
<text text-anchor="middle" x="182" y="-399.12" font-family="JetBrains Mono,Fira Code,monospace" font-size="9.00" fill="#a6e3a1">Decrypt S_i</text>
<text text-anchor="middle" x="182" y="-386.37" font-family="JetBrains Mono,Fira Code,monospace" font-size="9.00" fill="#a6e3a1">se = X25519(e_r, S_i)</text>
<text text-anchor="middle" x="182" y="-373.62" font-family="JetBrains Mono,Fira Code,monospace" font-size="9.00" fill="#a6e3a1">Verify identity</text>
</g>
<!-- msg3&#45;&gt;resp_step3 -->
<g id="edge8" class="edge">
<title>msg3&#45;&gt;resp_step3</title>
<path fill="none" stroke="#a6e3a1" d="M166.47,-435.97C168.08,-431.16 169.68,-426.38 171.21,-421.8"/>
<polygon fill="#a6e3a1" stroke="#a6e3a1" points="173.49,-422.69 173.39,-415.28 168.85,-421.14 173.49,-422.69"/>
</g>
<!-- resp_step3&#45;&gt;split -->
<g id="edge10" class="edge">
<title>resp_step3&#45;&gt;split</title>
<path fill="none" stroke="#a6e3a1" stroke-dasharray="5,2" d="M204.85,-363.25C209.67,-358.13 214.89,-352.58 220.15,-346.99"/>
<polygon fill="#a6e3a1" stroke="#a6e3a1" points="221.8,-348.82 224.81,-342.04 218.23,-345.46 221.8,-348.82"/>
</g>
<!-- attest -->
<g id="node12" class="node">
<title>attest</title>
<path fill="#45475a" stroke="#cba6f7" stroke-width="1.2" d="M356.92,-241.47C356.92,-241.47 165.08,-241.47 165.08,-241.47 159.08,-241.47 153.08,-235.47 153.08,-229.47 153.08,-229.47 153.08,-203.7 153.08,-203.7 153.08,-197.7 159.08,-191.7 165.08,-191.7 165.08,-191.7 356.92,-191.7 356.92,-191.7 362.92,-191.7 368.92,-197.7 368.92,-203.7 368.92,-203.7 368.92,-229.47 368.92,-229.47 368.92,-235.47 362.92,-241.47 356.92,-241.47"/>
<text text-anchor="middle" x="261" y="-227.16" font-family="JetBrains Mono,Fira Code,monospace" font-size="9.00" fill="#cba6f7">Attestation exchange</text>
<text text-anchor="middle" x="261" y="-214.41" font-family="JetBrains Mono,Fira Code,monospace" font-size="9.00" fill="#cba6f7">232&#45;byte payload over secured channel</text>
<text text-anchor="middle" x="261" y="-201.66" font-family="JetBrains Mono,Fira Code,monospace" font-size="9.00" fill="#cba6f7">(per attestation.md)</text>
</g>
<!-- split&#45;&gt;attest -->
<g id="edge11" class="edge">
<title>split&#45;&gt;attest</title>
<path fill="none" stroke="#f9e2af" d="M261,-264C261,-259.42 261,-254.77 261,-250.28"/>
<polygon fill="#f9e2af" stroke="#f9e2af" points="263.45,-250.38 261,-243.38 258.55,-250.38 263.45,-250.38"/>
</g>
<!-- upgraded -->
<g id="node13" class="node">
<title>upgraded</title>
<polygon fill="#45475a" stroke="#a6e3a1" stroke-width="1.2" points="382,-99.08 382,-130.64 311.12,-152.95 210.88,-152.95 140,-130.64 140,-99.08 210.88,-76.77 311.12,-76.77 382,-99.08"/>
<polygon fill="none" stroke="#a6e3a1" stroke-width="1.2" points="386,-96.15 386,-133.57 311.74,-156.95 210.26,-156.95 136,-133.57 136,-96.15 210.26,-72.77 311.74,-72.77 386,-96.15"/>
<text text-anchor="middle" x="261" y="-125.44" font-family="JetBrains Mono,Fira Code,monospace" font-size="9.00" fill="#a6e3a1">Trust upgraded:</text>
<text text-anchor="middle" x="261" y="-112.69" font-family="JetBrains Mono,Fira Code,monospace" font-size="9.00" fill="#a6e3a1">Untrusted → Peer</text>
<text text-anchor="middle" x="261" y="-99.94" font-family="JetBrains Mono,Fira Code,monospace" font-size="9.00" fill="#a6e3a1">TRUST_UPGRADED event fired</text>
</g>
<!-- attest&#45;&gt;upgraded -->
<g id="edge12" class="edge">
<title>attest&#45;&gt;upgraded</title>
<path fill="none" stroke="#a6e3a1" d="M261,-191.45C261,-183.59 261,-174.56 261,-165.54"/>
<polygon fill="#a6e3a1" stroke="#a6e3a1" points="263.45,-165.81 261,-158.81 258.55,-165.81 263.45,-165.81"/>
<text text-anchor="middle" x="282" y="-172.15" font-family="JetBrains Mono,Fira Code,monospace" font-size="9.00" fill="#585b70">verified</text>
</g>
<!-- note -->
<g id="node14" class="node">
<title>note</title>
<polygon fill="#181825" stroke="#585b70" stroke-width="1.2" points="415.43,-49.77 100.57,-49.77 100.57,0 421.43,0 421.43,-43.77 415.43,-49.77"/>
<polyline fill="none" stroke="#585b70" stroke-width="1.2" points="415.43,-49.77 415.43,-43.77"/>
<polyline fill="none" stroke="#585b70" stroke-width="1.2" points="421.43,-43.77 415.43,-43.77"/>
<text text-anchor="middle" x="261" y="-35.46" font-family="JetBrains Mono,Fira Code,monospace" font-size="9.00" fill="#585b70">Crypto: X25519 DH · ChaCha20&#45;Poly1305 AEAD · BLAKE2b hash</text>
<text text-anchor="middle" x="261" y="-22.71" font-family="JetBrains Mono,Fira Code,monospace" font-size="9.00" fill="#585b70">Loopback / IntraNode connections skip handshake;</text>
<text text-anchor="middle" x="261" y="-9.96" font-family="JetBrains Mono,Fira Code,monospace" font-size="9.00" fill="#585b70">their trust class is final at notify_connect.</text>
</g>
<!-- upgraded&#45;&gt;note -->
</g>
</svg>
