<?xml version="1.0" encoding="UTF-8" standalone="no"?>
<!DOCTYPE svg PUBLIC "-//W3C//DTD SVG 1.1//EN"
 "http://www.w3.org/Graphics/SVG/1.1/DTD/svg11.dtd">
<!-- Generated by graphviz version 12.2.1 (0)
 -->
<!-- Title: nonce_window Pages: 1 -->
<svg width="662pt" height="605pt"
 viewBox="0.00 0.00 661.57 605.35" xmlns="http://www.w3.org/2000/svg" xmlns:xlink="http://www.w3.org/1999/xlink">
<g id="graph0" class="graph" transform="scale(1 1) rotate(0) translate(28.8 576.55)">
<title>nonce_window</title>
<polygon fill="#1e1e2e" stroke="none" points="-28.8,28.8 -28.8,-576.55 632.77,-576.55 632.77,28.8 -28.8,28.8"/>
<!-- recv -->
<g id="node1" class="node">
<title>recv</title>
<ellipse fill="#45475a" stroke="#89b4fa" stroke-width="1.2" cx="134.79" cy="-529.75" rx="102.64" ry="18"/>
<text text-anchor="middle" x="134.79" y="-527" font-family="JetBrains Mono,Fira Code,monospace" font-size="10.00" fill="#89b4fa">check_and_mark(nonce)</text>
</g>
<!-- too_old -->
<g id="node2" class="node">
<title>too_old</title>
<polygon fill="#45475a" stroke="#f9e2af" stroke-width="1.2" points="134.79,-484.75 13.59,-466.75 134.79,-448.75 256,-466.75 134.79,-484.75"/>
<text text-anchor="middle" x="134.79" y="-464.57" font-family="JetBrains Mono,Fira Code,monospace" font-size="9.00" fill="#f9e2af">nonce &lt;= last &#45; 64 ?</text>
</g>
<!-- recv&#45;&gt;too_old -->
<g id="edge1" class="edge">
<title>recv&#45;&gt;too_old</title>
<path fill="none" stroke="#585b70" d="M134.79,-511.43C134.79,-505.72 134.79,-499.24 134.79,-493.05"/>
<polygon fill="#585b70" stroke="#585b70" points="137.24,-493.41 134.79,-486.41 132.34,-493.41 137.24,-493.41"/>
</g>
<!-- reject_old -->
<g id="node3" class="node">
<title>reject_old</title>
<ellipse fill="#45475a" stroke="#f38ba8" stroke-width="1.2" cx="111.79" cy="-383.82" rx="111.79" ry="26.18"/>
<text text-anchor="middle" x="111.79" y="-388.02" font-family="JetBrains Mono,Fira Code,monospace" font-size="9.00" fill="#f38ba8">REJECT</text>
<text text-anchor="middle" x="111.79" y="-375.27" font-family="JetBrains Mono,Fira Code,monospace" font-size="9.00" fill="#f38ba8">(too old — outside window)</text>
</g>
<!-- too_old&#45;&gt;reject_old -->
<g id="edge2" class="edge">
<title>too_old&#45;&gt;reject_old</title>
<path fill="none" stroke="#f38ba8" d="M130.03,-448.98C127.49,-440.05 124.28,-428.75 121.26,-418.12"/>
<polygon fill="#f38ba8" stroke="#f38ba8" points="123.69,-417.7 119.42,-411.64 118.97,-419.04 123.69,-417.7"/>
<text text-anchor="middle" x="133.91" y="-427.2" font-family="JetBrains Mono,Fira Code,monospace" font-size="9.00" fill="#f38ba8">yes</text>
</g>
<!-- ahead -->
<g id="node4" class="node">
<title>ahead</title>
<polygon fill="#45475a" stroke="#f9e2af" stroke-width="1.2" points="339.79,-401.82 248.75,-383.82 339.79,-365.82 430.84,-383.82 339.79,-401.82"/>
<text text-anchor="middle" x="339.79" y="-381.65" font-family="JetBrains Mono,Fira Code,monospace" font-size="9.00" fill="#f9e2af">nonce &gt; last ?</text>
</g>
<!-- too_old&#45;&gt;ahead -->
<g id="edge3" class="edge">
<title>too_old&#45;&gt;ahead</title>
<path fill="none" stroke="#a6e3a1" d="M166.82,-453.1C203.67,-438.56 264.06,-414.72 302.86,-399.4"/>
<polygon fill="#a6e3a1" stroke="#a6e3a1" points="303.29,-401.86 308.91,-397.01 301.49,-397.31 303.29,-401.86"/>
<text text-anchor="middle" x="242.54" y="-427.2" font-family="JetBrains Mono,Fira Code,monospace" font-size="9.00" fill="#a6e3a1">no</text>
</g>
<!-- advance -->
<g id="node5" class="node">
<title>advance</title>
<path fill="#45475a" stroke="#a6e3a1" stroke-width="1.2" d="M309.09,-306.14C309.09,-306.14 164.49,-306.14 164.49,-306.14 158.49,-306.14 152.49,-300.14 152.49,-294.14 152.49,-294.14 152.49,-268.37 152.49,-268.37 152.49,-262.37 158.49,-256.37 164.49,-256.37 164.49,-256.37 309.09,-256.37 309.09,-256.37 315.09,-256.37 321.09,-262.37 321.09,-268.37 321.09,-268.37 321.09,-294.14 321.09,-294.14 321.09,-300.14 315.09,-306.14 309.09,-306.14"/>
<text text-anchor="middle" x="236.79" y="-291.83" font-family="JetBrains Mono,Fira Code,monospace" font-size="9.00" fill="#a6e3a1">Advance window</text>
<text text-anchor="middle" x="236.79" y="-279.08" font-family="JetBrains Mono,Fira Code,monospace" font-size="9.00" fill="#a6e3a1">shift bits by (nonce &#45; last)</text>
<text text-anchor="middle" x="236.79" y="-266.33" font-family="JetBrains Mono,Fira Code,monospace" font-size="9.00" fill="#a6e3a1">last = nonce; mark bit</text>
</g>
<!-- ahead&#45;&gt;advance -->
<g id="edge4" class="edge">
<title>ahead&#45;&gt;advance</title>
<path fill="none" stroke="#a6e3a1" d="M325.04,-368.41C310.01,-353.75 286.29,-330.58 267.22,-311.97"/>
<polygon fill="#a6e3a1" stroke="#a6e3a1" points="269.27,-310.54 262.55,-307.41 265.85,-314.05 269.27,-310.54"/>
<text text-anchor="middle" x="308.42" y="-329.72" font-family="JetBrains Mono,Fira Code,monospace" font-size="9.00" fill="#a6e3a1">yes</text>
</g>
<!-- in_window -->
<g id="node7" class="node">
<title>in_window</title>
<path fill="#45475a" stroke="#94e2d5" stroke-width="1.2" d="M465.72,-299.77C465.72,-299.77 357.87,-299.77 357.87,-299.77 351.87,-299.77 345.87,-293.77 345.87,-287.77 345.87,-287.77 345.87,-274.75 345.87,-274.75 345.87,-268.75 351.87,-262.75 357.87,-262.75 357.87,-262.75 465.72,-262.75 465.72,-262.75 471.72,-262.75 477.72,-268.75 477.72,-274.75 477.72,-274.75 477.72,-287.77 477.72,-287.77 477.72,-293.77 471.72,-299.77 465.72,-299.77"/>
<text text-anchor="middle" x="411.79" y="-285.46" font-family="JetBrains Mono,Fira Code,monospace" font-size="9.00" fill="#94e2d5">Check bit at</text>
<text text-anchor="middle" x="411.79" y="-272.71" font-family="JetBrains Mono,Fira Code,monospace" font-size="9.00" fill="#94e2d5">(last &#45; nonce) offset</text>
</g>
<!-- ahead&#45;&gt;in_window -->
<g id="edge6" class="edge">
<title>ahead&#45;&gt;in_window</title>
<path fill="none" stroke="#94e2d5" d="M350.73,-367.55C362.24,-351.47 380.54,-325.91 394.11,-306.96"/>
<polygon fill="#94e2d5" stroke="#94e2d5" points="396.09,-308.4 398.17,-301.29 392.1,-305.55 396.09,-308.4"/>
<text text-anchor="middle" x="423.73" y="-336.09" font-family="JetBrains Mono,Fira Code,monospace" font-size="9.00" fill="#94e2d5">no</text>
<text text-anchor="middle" x="423.73" y="-323.34" font-family="JetBrains Mono,Fira Code,monospace" font-size="9.00" fill="#94e2d5">(within window)</text>
</g>
<!-- accept_adv -->
<g id="node6" class="node">
<title>accept_adv</title>
<ellipse fill="#45475a" stroke="#a6e3a1" stroke-width="1.2" cx="236.79" cy="-211.37" rx="35.95" ry="18"/>
<text text-anchor="middle" x="236.79" y="-209.2" font-family="JetBrains Mono,Fira Code,monospace" font-size="9.00" fill="#a6e3a1">ACCEPT</text>
</g>
<!-- advance&#45;&gt;accept_adv -->
<g id="edge5" class="edge">
<title>advance&#45;&gt;accept_adv</title>
<path fill="none" stroke="#a6e3a1" d="M236.79,-256.13C236.79,-250.3 236.79,-244.03 236.79,-238.13"/>
<polygon fill="#a6e3a1" stroke="#a6e3a1" points="239.24,-238.32 236.79,-231.32 234.34,-238.32 239.24,-238.32"/>
</g>
<!-- seen -->
<g id="node8" class="node">
<title>seen</title>
<polygon fill="#45475a" stroke="#94e2d5" stroke-width="1.2" points="411.79,-229.37 345.88,-211.37 411.79,-193.37 477.71,-211.37 411.79,-229.37"/>
<text text-anchor="middle" x="411.79" y="-209.2" font-family="JetBrains Mono,Fira Code,monospace" font-size="9.00" fill="#94e2d5">Bit set ?</text>
</g>
<!-- in_window&#45;&gt;seen -->
<g id="edge7" class="edge">
<title>in_window&#45;&gt;seen</title>
<path fill="none" stroke="#585b70" d="M411.79,-262.42C411.79,-255.04 411.79,-246.33 411.79,-238.26"/>
<polygon fill="#585b70" stroke="#585b70" points="414.24,-238.37 411.79,-231.37 409.34,-238.37 414.24,-238.37"/>
</g>
<!-- reject_dup -->
<g id="node9" class="node">
<title>reject_dup</title>
<ellipse fill="#45475a" stroke="#f38ba8" stroke-width="1.2" cx="362.79" cy="-128.45" rx="44.97" ry="26.18"/>
<text text-anchor="middle" x="362.79" y="-132.65" font-family="JetBrains Mono,Fira Code,monospace" font-size="9.00" fill="#f38ba8">REJECT</text>
<text text-anchor="middle" x="362.79" y="-119.9" font-family="JetBrains Mono,Fira Code,monospace" font-size="9.00" fill="#f38ba8">(replay)</text>
</g>
<!-- seen&#45;&gt;reject_dup -->
<g id="edge8" class="edge">
<title>seen&#45;&gt;reject_dup</title>
<path fill="none" stroke="#f38ba8" d="M402.81,-195.53C396.9,-185.78 388.96,-172.66 381.71,-160.68"/>
<polygon fill="#f38ba8" stroke="#f38ba8" points="383.81,-159.42 378.09,-154.7 379.62,-161.96 383.81,-159.42"/>
<text text-anchor="middle" x="401" y="-171.82" font-family="JetBrains Mono,Fira Code,monospace" font-size="9.00" fill="#f38ba8">yes</text>
</g>
<!-- mark -->
<g id="node10" class="node">
<title>mark</title>
<ellipse fill="#45475a" stroke="#a6e3a1" stroke-width="1.2" cx="511.79" cy="-128.45" rx="78.6" ry="18"/>
<text text-anchor="middle" x="511.79" y="-126.27" font-family="JetBrains Mono,Fira Code,monospace" font-size="9.00" fill="#a6e3a1">Set bit &#160;→ &#160;ACCEPT</text>
</g>
<!-- seen&#45;&gt;mark -->
<g id="edge9" class="edge">
<title>seen&#45;&gt;mark</title>
<path fill="none" stroke="#a6e3a1" d="M427.86,-197.37C443.2,-184.96 466.61,-166.01 484.82,-151.28"/>
<polygon fill="#a6e3a1" stroke="#a6e3a1" points="486.19,-153.32 490.09,-147.01 483.1,-149.51 486.19,-153.32"/>
<text text-anchor="middle" x="467.04" y="-171.82" font-family="JetBrains Mono,Fira Code,monospace" font-size="9.00" fill="#a6e3a1">no</text>
</g>
<!-- window_note -->
<g id="node11" class="node">
<title>window_note</title>
<polygon fill="#181825" stroke="#585b70" stroke-width="1.2" points="597.97,-75.27 419.62,-75.27 419.62,0 603.97,0 603.97,-69.27 597.97,-75.27"/>
<polyline fill="none" stroke="#585b70" stroke-width="1.2" points="597.97,-75.27 597.97,-69.27"/>
<polyline fill="none" stroke="#585b70" stroke-width="1.2" points="603.97,-69.27 597.97,-69.27"/>
<text text-anchor="middle" x="511.79" y="-60.96" font-family="JetBrains Mono,Fira Code,monospace" font-size="9.00" fill="#585b70">64&#45;bit sliding window:</text>
<text text-anchor="middle" x="511.79" y="-48.21" font-family="JetBrains Mono,Fira Code,monospace" font-size="9.00" fill="#585b70"> &#160;┌─┬─┬─┬─┬─┬─┬─┬─┐</text>
<text text-anchor="middle" x="511.79" y="-35.46" font-family="JetBrains Mono,Fira Code,monospace" font-size="9.00" fill="#585b70"> &#160;│1│0│1│1│0│1│1│1│ … (64 bits)</text>
<text text-anchor="middle" x="511.79" y="-22.71" font-family="JetBrains Mono,Fira Code,monospace" font-size="9.00" fill="#585b70"> &#160;└─┴─┴─┴─┴─┴─┴─┴─┘</text>
<text text-anchor="middle" x="511.79" y="-9.96" font-family="JetBrains Mono,Fira Code,monospace" font-size="9.00" fill="#585b70"> &#160;&#160;&#160;&#160;&#160;&#160;&#160;&#160;&#160;&#160;&#160;&#160;&#160;&#160;&#160;last ──►</text>
</g>
<!-- mark&#45;&gt;window_note -->
</g>
</svg>
