<?xml version="1.0" encoding="UTF-8" standalone="no"?>
<!DOCTYPE svg PUBLIC "-//W3C//DTD SVG 1.1//EN"
 "http://www.w3.org/Graphics/SVG/1.1/DTD/svg11.dtd">
<!-- Generated by graphviz version 12.2.1 (0)
 -->
<!-- Title: plugin_separation Pages: 1 -->
<svg width="2148pt" height="549pt"
 viewBox="0.00 0.00 2148.03 548.95" xmlns="http://www.w3.org/2000/svg" xmlns:xlink="http://www.w3.org/1999/xlink">
<g id="graph0" class="graph" transform="scale(1 1) rotate(0) translate(28.8 520.15)">
<title>plugin_separation</title>
<polygon fill="#1e1e2e" stroke="none" points="-28.8,28.8 -28.8,-520.15 2119.23,-520.15 2119.23,28.8 -28.8,28.8"/>
<g id="clust1" class="cluster">
<title>cluster_kernel_git</title>
<path fill="#181825" stroke="#b4befe" stroke-width="1.5" d="M879,-383.58C879,-383.58 1103,-383.58 1103,-383.58 1109,-383.58 1115,-389.58 1115,-395.58 1115,-395.58 1115,-471.35 1115,-471.35 1115,-477.35 1109,-483.35 1103,-483.35 1103,-483.35 879,-483.35 879,-483.35 873,-483.35 867,-477.35 867,-471.35 867,-471.35 867,-395.58 867,-395.58 867,-389.58 873,-383.58 879,-383.58"/>
<text text-anchor="middle" x="991" y="-467.95" font-family="JetBrains Mono,Fira Code,monospace" font-size="12.00" fill="#b4befe">kernel git &#160;(org/kernel)</text>
</g>
<g id="clust2" class="cluster">
<title>cluster_plugins</title>
<path fill="#1e1e2e" stroke="#a6e3a1" stroke-width="1.2" d="M20,-149.52C20,-149.52 1962,-149.52 1962,-149.52 1968,-149.52 1974,-155.52 1974,-161.52 1974,-161.52 1974,-223.04 1974,-223.04 1974,-229.04 1968,-235.04 1962,-235.04 1962,-235.04 20,-235.04 20,-235.04 14,-235.04 8,-229.04 8,-223.04 8,-223.04 8,-161.52 8,-161.52 8,-155.52 14,-149.52 20,-149.52"/>
<text text-anchor="middle" x="991" y="-220.59" font-family="JetBrains Mono,Fira Code,monospace" font-size="11.00" fill="#a6e3a1">9 sibling repos — each own .git, own flake (kernel&#45;only subflake), own bare mirror</text>
</g>
<!-- kernel_src -->
<g id="node1" class="node">
<title>kernel_src</title>
<path fill="#45475a" stroke="#b4befe" stroke-width="1.2" d="M1102.67,-458.85C1102.67,-458.85 879.33,-458.85 879.33,-458.85 873.33,-458.85 867.33,-452.85 867.33,-446.85 867.33,-446.85 867.33,-395.58 867.33,-395.58 867.33,-389.58 873.33,-383.58 879.33,-383.58 879.33,-383.58 1102.67,-383.58 1102.67,-383.58 1108.67,-383.58 1114.67,-389.58 1114.67,-395.58 1114.67,-395.58 1114.67,-446.85 1114.67,-446.85 1114.67,-452.85 1108.67,-458.85 1102.67,-458.85"/>
<text text-anchor="middle" x="991" y="-444.54" font-family="JetBrains Mono,Fira Code,monospace" font-size="9.00" fill="#b4befe">core/ &#160;&#160;&#160;&#160;&#160;&#160;&#160;kernel implementation</text>
<text text-anchor="middle" x="991" y="-431.79" font-family="JetBrains Mono,Fira Code,monospace" font-size="9.00" fill="#b4befe">sdk/ &#160;&#160;&#160;&#160;&#160;&#160;&#160;&#160;public C ABI headers</text>
<text text-anchor="middle" x="991" y="-419.04" font-family="JetBrains Mono,Fira Code,monospace" font-size="9.00" fill="#b4befe"> &#160;&#160;&#160;&#160;&#160;&#160;&#160;&#160;&#160;&#160;&#160;&#160;(host_api.h, plugin.h, …)</text>
<text text-anchor="middle" x="991" y="-406.29" font-family="JetBrains Mono,Fira Code,monospace" font-size="9.00" fill="#b4befe">tests/unit/ &#160;kernel&#45;only tests</text>
<text text-anchor="middle" x="991" y="-393.54" font-family="JetBrains Mono,Fira Code,monospace" font-size="9.00" fill="#b4befe">nix/kernel&#45;only/ &#160;slim subflake for plugins</text>
</g>
<!-- sdk_boundary -->
<g id="node2" class="node">
<title>sdk_boundary</title>
<polygon fill="#45475a" stroke="#f9e2af" stroke-width="1.2" points="1312.76,-347.58 800.91,-347.58 669.24,-248.04 1181.09,-248.04 1312.76,-347.58"/>
<text text-anchor="middle" x="991" y="-308.38" font-family="JetBrains Mono,Fira Code,monospace" font-size="9.00" fill="#f9e2af">SDK boundary &#160;(sdk/*.h)</text>
<text text-anchor="middle" x="991" y="-295.63" font-family="JetBrains Mono,Fira Code,monospace" font-size="9.00" fill="#f9e2af"> &#160;host_api_t · gn_*_vtable_t · plugin entry points</text>
<text text-anchor="middle" x="991" y="-282.88" font-family="JetBrains Mono,Fira Code,monospace" font-size="9.00" fill="#f9e2af">every plugin consumes this; kernel exports nothing else</text>
</g>
<!-- kernel_src&#45;&gt;sdk_boundary -->
<g id="edge1" class="edge">
<title>kernel_src&#45;&gt;sdk_boundary</title>
<path fill="none" stroke="#f9e2af" d="M991,-383.13C991,-371.97 991,-359.55 991,-347.75"/>
</g>
<!-- git_heartbeat -->
<g id="node3" class="node">
<title>git_heartbeat</title>
<polygon fill="#45475a" stroke="#fab387" stroke-width="1.2" points="197.8,-212.04 8.2,-212.04 8.2,-208.04 4.2,-208.04 4.2,-204.04 8.2,-204.04 8.2,-157.52 4.2,-157.52 4.2,-153.52 8.2,-153.52 8.2,-149.52 197.8,-149.52 197.8,-212.04"/>
<polyline fill="none" stroke="#fab387" stroke-width="1.2" points="8.2,-208.04 12.2,-208.04 12.2,-204.04 8.2,-204.04"/>
<polyline fill="none" stroke="#fab387" stroke-width="1.2" points="8.2,-157.52 12.2,-157.52 12.2,-153.52 8.2,-153.52"/>
<text text-anchor="middle" x="103" y="-197.73" font-family="JetBrains Mono,Fira Code,monospace" font-size="9.00" fill="#fab387">handler&#45;heartbeat</text>
<text text-anchor="middle" x="103" y="-184.98" font-family="JetBrains Mono,Fira Code,monospace" font-size="9.00" fill="#fab387">.git/</text>
<text text-anchor="middle" x="103" y="-172.23" font-family="JetBrains Mono,Fira Code,monospace" font-size="9.00" fill="#fab387">flake.nix → kernel&#45;only subflake</text>
<text text-anchor="middle" x="103" y="-159.48" font-family="JetBrains Mono,Fira Code,monospace" font-size="9.00" fill="#fab387">tests/ &#160;· own conformance suite</text>
</g>
<!-- sdk_boundary&#45;&gt;git_heartbeat -->
<g id="edge2" class="edge">
<title>sdk_boundary&#45;&gt;git_heartbeat</title>
<path fill="none" stroke="#f9e2af" stroke-dasharray="5,2" d="M718.72,-285.72C533.67,-276.18 306.36,-259.94 214,-235.04 197.18,-230.5 179.81,-223.46 163.96,-215.96"/>
<polygon fill="#f9e2af" stroke="#f9e2af" points="157.88,-213.02 165.56,-213.23 159.94,-214.01 164.19,-216.07 164.19,-216.07 164.19,-216.07 159.94,-214.01 162.81,-218.9 157.88,-213.02"/>
</g>
<!-- git_tcp -->
<g id="node4" class="node">
<title>git_tcp</title>
<polygon fill="#45475a" stroke="#fab387" stroke-width="1.2" points="419.8,-212.04 230.2,-212.04 230.2,-208.04 226.2,-208.04 226.2,-204.04 230.2,-204.04 230.2,-157.52 226.2,-157.52 226.2,-153.52 230.2,-153.52 230.2,-149.52 419.8,-149.52 419.8,-212.04"/>
<polyline fill="none" stroke="#fab387" stroke-width="1.2" points="230.2,-208.04 234.2,-208.04 234.2,-204.04 230.2,-204.04"/>
<polyline fill="none" stroke="#fab387" stroke-width="1.2" points="230.2,-157.52 234.2,-157.52 234.2,-153.52 230.2,-153.52"/>
<text text-anchor="middle" x="325" y="-197.73" font-family="JetBrains Mono,Fira Code,monospace" font-size="9.00" fill="#fab387">link&#45;tcp</text>
<text text-anchor="middle" x="325" y="-184.98" font-family="JetBrains Mono,Fira Code,monospace" font-size="9.00" fill="#fab387">.git/</text>
<text text-anchor="middle" x="325" y="-172.23" font-family="JetBrains Mono,Fira Code,monospace" font-size="9.00" fill="#fab387">flake.nix → kernel&#45;only subflake</text>
<text text-anchor="middle" x="325" y="-159.48" font-family="JetBrains Mono,Fira Code,monospace" font-size="9.00" fill="#fab387">tests/ &#160;· own conformance suite</text>
</g>
<!-- sdk_boundary&#45;&gt;git_tcp -->
<g id="edge3" class="edge">
<title>sdk_boundary&#45;&gt;git_tcp</title>
<path fill="none" stroke="#f9e2af" stroke-dasharray="5,2" d="M717.16,-284.7C626.41,-275.86 525.7,-260.75 436,-235.04 419.52,-230.32 402.47,-223.32 386.82,-215.95"/>
<polygon fill="#f9e2af" stroke="#f9e2af" points="380.84,-213.07 388.51,-213.27 382.89,-214.06 387.14,-216.1 387.14,-216.1 387.14,-216.1 382.89,-214.06 385.78,-218.94 380.84,-213.07"/>
</g>
<!-- git_udp -->
<g id="node5" class="node">
<title>git_udp</title>
<polygon fill="#45475a" stroke="#fab387" stroke-width="1.2" points="641.8,-212.04 452.2,-212.04 452.2,-208.04 448.2,-208.04 448.2,-204.04 452.2,-204.04 452.2,-157.52 448.2,-157.52 448.2,-153.52 452.2,-153.52 452.2,-149.52 641.8,-149.52 641.8,-212.04"/>
<polyline fill="none" stroke="#fab387" stroke-width="1.2" points="452.2,-208.04 456.2,-208.04 456.2,-204.04 452.2,-204.04"/>
<polyline fill="none" stroke="#fab387" stroke-width="1.2" points="452.2,-157.52 456.2,-157.52 456.2,-153.52 452.2,-153.52"/>
<text text-anchor="middle" x="547" y="-197.73" font-family="JetBrains Mono,Fira Code,monospace" font-size="9.00" fill="#fab387">link&#45;udp</text>
<text text-anchor="middle" x="547" y="-184.98" font-family="JetBrains Mono,Fira Code,monospace" font-size="9.00" fill="#fab387">.git/</text>
<text text-anchor="middle" x="547" y="-172.23" font-family="JetBrains Mono,Fira Code,monospace" font-size="9.00" fill="#fab387">flake.nix → kernel&#45;only subflake</text>
<text text-anchor="middle" x="547" y="-159.48" font-family="JetBrains Mono,Fira Code,monospace" font-size="9.00" fill="#fab387">tests/ &#160;· own conformance suite</text>
</g>
<!-- sdk_boundary&#45;&gt;git_udp -->
<g id="edge4" class="edge">
<title>sdk_boundary&#45;&gt;git_udp</title>
<path fill="none" stroke="#f9e2af" stroke-dasharray="5,2" d="M700.16,-247.59C685.82,-243.69 671.7,-239.51 658,-235.04 642.37,-229.94 626.11,-223.1 611.02,-216.02"/>
<polygon fill="#f9e2af" stroke="#f9e2af" points="604.81,-213.06 612.48,-213.23 606.86,-214.04 611.12,-216.07 611.12,-216.07 611.12,-216.07 606.86,-214.04 609.77,-218.91 604.81,-213.06"/>
</g>
<!-- git_ws -->
<g id="node6" class="node">
<title>git_ws</title>
<polygon fill="#45475a" stroke="#fab387" stroke-width="1.2" points="863.8,-212.04 674.2,-212.04 674.2,-208.04 670.2,-208.04 670.2,-204.04 674.2,-204.04 674.2,-157.52 670.2,-157.52 670.2,-153.52 674.2,-153.52 674.2,-149.52 863.8,-149.52 863.8,-212.04"/>
<polyline fill="none" stroke="#fab387" stroke-width="1.2" points="674.2,-208.04 678.2,-208.04 678.2,-204.04 674.2,-204.04"/>
<polyline fill="none" stroke="#fab387" stroke-width="1.2" points="674.2,-157.52 678.2,-157.52 678.2,-153.52 674.2,-153.52"/>
<text text-anchor="middle" x="769" y="-197.73" font-family="JetBrains Mono,Fira Code,monospace" font-size="9.00" fill="#fab387">link&#45;ws</text>
<text text-anchor="middle" x="769" y="-184.98" font-family="JetBrains Mono,Fira Code,monospace" font-size="9.00" fill="#fab387">.git/</text>
<text text-anchor="middle" x="769" y="-172.23" font-family="JetBrains Mono,Fira Code,monospace" font-size="9.00" fill="#fab387">flake.nix → kernel&#45;only subflake</text>
<text text-anchor="middle" x="769" y="-159.48" font-family="JetBrains Mono,Fira Code,monospace" font-size="9.00" fill="#fab387">tests/ &#160;· own conformance suite</text>
</g>
<!-- sdk_boundary&#45;&gt;git_ws -->
<g id="edge5" class="edge">
<title>sdk_boundary&#45;&gt;git_ws</title>
<path fill="none" stroke="#f9e2af" stroke-dasharray="5,2" d="M896.21,-247.69C875.73,-237.08 854.49,-226.08 835.38,-216.17"/>
<polygon fill="#f9e2af" stroke="#f9e2af" points="829.24,-212.99 836.91,-213.42 831.27,-214.04 835.46,-216.21 835.46,-216.21 835.46,-216.21 831.27,-214.04 834.01,-219.01 829.24,-212.99"/>
</g>
<!-- git_ipc -->
<g id="node7" class="node">
<title>git_ipc</title>
<polygon fill="#45475a" stroke="#fab387" stroke-width="1.2" points="1085.8,-212.04 896.2,-212.04 896.2,-208.04 892.2,-208.04 892.2,-204.04 896.2,-204.04 896.2,-157.52 892.2,-157.52 892.2,-153.52 896.2,-153.52 896.2,-149.52 1085.8,-149.52 1085.8,-212.04"/>
<polyline fill="none" stroke="#fab387" stroke-width="1.2" points="896.2,-208.04 900.2,-208.04 900.2,-204.04 896.2,-204.04"/>
<polyline fill="none" stroke="#fab387" stroke-width="1.2" points="896.2,-157.52 900.2,-157.52 900.2,-153.52 896.2,-153.52"/>
<text text-anchor="middle" x="991" y="-197.73" font-family="JetBrains Mono,Fira Code,monospace" font-size="9.00" fill="#fab387">link&#45;ipc</text>
<text text-anchor="middle" x="991" y="-184.98" font-family="JetBrains Mono,Fira Code,monospace" font-size="9.00" fill="#fab387">.git/</text>
<text text-anchor="middle" x="991" y="-172.23" font-family="JetBrains Mono,Fira Code,monospace" font-size="9.00" fill="#fab387">flake.nix → kernel&#45;only subflake</text>
<text text-anchor="middle" x="991" y="-159.48" font-family="JetBrains Mono,Fira Code,monospace" font-size="9.00" fill="#fab387">tests/ &#160;· own conformance suite</text>
</g>
<!-- sdk_boundary&#45;&gt;git_ipc -->
<g id="edge6" class="edge">
<title>sdk_boundary&#45;&gt;git_ipc</title>
<path fill="none" stroke="#f9e2af" stroke-dasharray="5,2" d="M991,-247.69C991,-238.62 991,-229.27 991,-220.56"/>
<polygon fill="#f9e2af" stroke="#f9e2af" points="991,-213.65 994.15,-220.65 991,-215.93 991,-220.65 991,-220.65 991,-220.65 991,-215.93 987.85,-220.65 991,-213.65"/>
</g>
<!-- git_tls -->
<g id="node8" class="node">
<title>git_tls</title>
<polygon fill="#45475a" stroke="#fab387" stroke-width="1.2" points="1307.8,-212.04 1118.2,-212.04 1118.2,-208.04 1114.2,-208.04 1114.2,-204.04 1118.2,-204.04 1118.2,-157.52 1114.2,-157.52 1114.2,-153.52 1118.2,-153.52 1118.2,-149.52 1307.8,-149.52 1307.8,-212.04"/>
<polyline fill="none" stroke="#fab387" stroke-width="1.2" points="1118.2,-208.04 1122.2,-208.04 1122.2,-204.04 1118.2,-204.04"/>
<polyline fill="none" stroke="#fab387" stroke-width="1.2" points="1118.2,-157.52 1122.2,-157.52 1122.2,-153.52 1118.2,-153.52"/>
<text text-anchor="middle" x="1213" y="-197.73" font-family="JetBrains Mono,Fira Code,monospace" font-size="9.00" fill="#fab387">link&#45;tls</text>
<text text-anchor="middle" x="1213" y="-184.98" font-family="JetBrains Mono,Fira Code,monospace" font-size="9.00" fill="#fab387">.git/</text>
<text text-anchor="middle" x="1213" y="-172.23" font-family="JetBrains Mono,Fira Code,monospace" font-size="9.00" fill="#fab387">flake.nix → kernel&#45;only subflake</text>
<text text-anchor="middle" x="1213" y="-159.48" font-family="JetBrains Mono,Fira Code,monospace" font-size="9.00" fill="#fab387">tests/ &#160;· own conformance suite</text>
</g>
<!-- sdk_boundary&#45;&gt;git_tls -->
<g id="edge7" class="edge">
<title>sdk_boundary&#45;&gt;git_tls</title>
<path fill="none" stroke="#f9e2af" stroke-dasharray="5,2" d="M1085.79,-247.69C1106.27,-237.08 1127.51,-226.08 1146.62,-216.17"/>
<polygon fill="#f9e2af" stroke="#f9e2af" points="1152.76,-212.99 1147.99,-219.01 1150.73,-214.04 1146.54,-216.21 1146.54,-216.21 1146.54,-216.21 1150.73,-214.04 1145.09,-213.42 1152.76,-212.99"/>
</g>
<!-- git_noise -->
<g id="node9" class="node">
<title>git_noise</title>
<polygon fill="#45475a" stroke="#fab387" stroke-width="1.2" points="1529.8,-212.04 1340.2,-212.04 1340.2,-208.04 1336.2,-208.04 1336.2,-204.04 1340.2,-204.04 1340.2,-157.52 1336.2,-157.52 1336.2,-153.52 1340.2,-153.52 1340.2,-149.52 1529.8,-149.52 1529.8,-212.04"/>
<polyline fill="none" stroke="#fab387" stroke-width="1.2" points="1340.2,-208.04 1344.2,-208.04 1344.2,-204.04 1340.2,-204.04"/>
<polyline fill="none" stroke="#fab387" stroke-width="1.2" points="1340.2,-157.52 1344.2,-157.52 1344.2,-153.52 1340.2,-153.52"/>
<text text-anchor="middle" x="1435" y="-197.73" font-family="JetBrains Mono,Fira Code,monospace" font-size="9.00" fill="#fab387">security&#45;noise</text>
<text text-anchor="middle" x="1435" y="-184.98" font-family="JetBrains Mono,Fira Code,monospace" font-size="9.00" fill="#fab387">.git/</text>
<text text-anchor="middle" x="1435" y="-172.23" font-family="JetBrains Mono,Fira Code,monospace" font-size="9.00" fill="#fab387">flake.nix → kernel&#45;only subflake</text>
<text text-anchor="middle" x="1435" y="-159.48" font-family="JetBrains Mono,Fira Code,monospace" font-size="9.00" fill="#fab387">tests/ &#160;· own conformance suite</text>
</g>
<!-- sdk_boundary&#45;&gt;git_noise -->
<g id="edge8" class="edge">
<title>sdk_boundary&#45;&gt;git_noise</title>
<path fill="none" stroke="#f9e2af" stroke-dasharray="5,2" d="M1204.94,-265.77C1244.98,-257.54 1286.13,-247.4 1324,-235.04 1339.63,-229.94 1355.89,-223.1 1370.98,-216.02"/>
<polygon fill="#f9e2af" stroke="#f9e2af" points="1377.19,-213.06 1372.23,-218.91 1375.14,-214.04 1370.88,-216.07 1370.88,-216.07 1370.88,-216.07 1375.14,-214.04 1369.52,-213.23 1377.19,-213.06"/>
</g>
<!-- git_null -->
<g id="node10" class="node">
<title>git_null</title>
<polygon fill="#45475a" stroke="#fab387" stroke-width="1.2" points="1751.8,-212.04 1562.2,-212.04 1562.2,-208.04 1558.2,-208.04 1558.2,-204.04 1562.2,-204.04 1562.2,-157.52 1558.2,-157.52 1558.2,-153.52 1562.2,-153.52 1562.2,-149.52 1751.8,-149.52 1751.8,-212.04"/>
<polyline fill="none" stroke="#fab387" stroke-width="1.2" points="1562.2,-208.04 1566.2,-208.04 1566.2,-204.04 1562.2,-204.04"/>
<polyline fill="none" stroke="#fab387" stroke-width="1.2" points="1562.2,-157.52 1566.2,-157.52 1566.2,-153.52 1562.2,-153.52"/>
<text text-anchor="middle" x="1657" y="-197.73" font-family="JetBrains Mono,Fira Code,monospace" font-size="9.00" fill="#fab387">security&#45;null</text>
<text text-anchor="middle" x="1657" y="-184.98" font-family="JetBrains Mono,Fira Code,monospace" font-size="9.00" fill="#fab387">.git/</text>
<text text-anchor="middle" x="1657" y="-172.23" font-family="JetBrains Mono,Fira Code,monospace" font-size="9.00" fill="#fab387">flake.nix → kernel&#45;only subflake</text>
<text text-anchor="middle" x="1657" y="-159.48" font-family="JetBrains Mono,Fira Code,monospace" font-size="9.00" fill="#fab387">tests/ &#160;· own conformance suite</text>
</g>
<!-- sdk_boundary&#45;&gt;git_null -->
<g id="edge9" class="edge">
<title>sdk_boundary&#45;&gt;git_null</title>
<path fill="none" stroke="#f9e2af" stroke-dasharray="5,2" d="M1233.8,-287.52C1332.17,-279.21 1445.93,-263.72 1546,-235.04 1562.48,-230.32 1579.53,-223.32 1595.18,-215.95"/>
<polygon fill="#f9e2af" stroke="#f9e2af" points="1601.16,-213.07 1596.22,-218.94 1599.11,-214.06 1594.86,-216.1 1594.86,-216.1 1594.86,-216.1 1599.11,-214.06 1593.49,-213.27 1601.16,-213.07"/>
</g>
<!-- git_intg -->
<g id="node11" class="node">
<title>git_intg</title>
<polygon fill="#45475a" stroke="#cba6f7" stroke-width="1.2" points="1973.8,-212.04 1784.2,-212.04 1784.2,-208.04 1780.2,-208.04 1780.2,-204.04 1784.2,-204.04 1784.2,-157.52 1780.2,-157.52 1780.2,-153.52 1784.2,-153.52 1784.2,-149.52 1973.8,-149.52 1973.8,-212.04"/>
<polyline fill="none" stroke="#cba6f7" stroke-width="1.2" points="1784.2,-208.04 1788.2,-208.04 1788.2,-204.04 1784.2,-204.04"/>
<polyline fill="none" stroke="#cba6f7" stroke-width="1.2" points="1784.2,-157.52 1788.2,-157.52 1788.2,-153.52 1784.2,-153.52"/>
<text text-anchor="middle" x="1879" y="-197.73" font-family="JetBrains Mono,Fira Code,monospace" font-size="9.00" fill="#cba6f7">integration&#45;tests</text>
<text text-anchor="middle" x="1879" y="-184.98" font-family="JetBrains Mono,Fira Code,monospace" font-size="9.00" fill="#cba6f7">.git/</text>
<text text-anchor="middle" x="1879" y="-172.23" font-family="JetBrains Mono,Fira Code,monospace" font-size="9.00" fill="#cba6f7">flake.nix → kernel&#45;only subflake</text>
<text text-anchor="middle" x="1879" y="-159.48" font-family="JetBrains Mono,Fira Code,monospace" font-size="9.00" fill="#cba6f7">tests/ &#160;· own conformance suite</text>
</g>
<!-- sdk_boundary&#45;&gt;git_intg -->
<g id="edge10" class="edge">
<title>sdk_boundary&#45;&gt;git_intg</title>
<path fill="none" stroke="#f9e2af" stroke-dasharray="5,2" d="M1233.26,-287.24C1423,-277.93 1670.58,-261.31 1768,-235.04 1784.82,-230.5 1802.19,-223.46 1818.04,-215.96"/>
<polygon fill="#f9e2af" stroke="#f9e2af" points="1824.12,-213.02 1819.19,-218.9 1822.06,-214.01 1817.81,-216.07 1817.81,-216.07 1817.81,-216.07 1822.06,-214.01 1816.44,-213.23 1824.12,-213.02"/>
</g>
<!-- deploy -->
<g id="node12" class="node">
<title>deploy</title>
<polygon fill="#181825" stroke="#585b70" stroke-width="1.2" points="1731.55,-88.02 1474.45,-88.02 1474.45,-25.5 1737.55,-25.5 1737.55,-82.02 1731.55,-88.02"/>
<polyline fill="none" stroke="#585b70" stroke-width="1.2" points="1731.55,-88.02 1731.55,-82.02"/>
<polyline fill="none" stroke="#585b70" stroke-width="1.2" points="1737.55,-82.02 1731.55,-82.02"/>
<text text-anchor="middle" x="1606" y="-73.71" font-family="JetBrains Mono,Fira Code,monospace" font-size="9.00" fill="#585b70">Deployment modes (per plugin):</text>
<text text-anchor="middle" x="1606" y="-60.96" font-family="JetBrains Mono,Fira Code,monospace" font-size="9.00" fill="#585b70"> &#160;· static archive — linked into kernel binary</text>
<text text-anchor="middle" x="1606" y="-48.21" font-family="JetBrains Mono,Fira Code,monospace" font-size="9.00" fill="#585b70"> &#160;· dynamic .so &#160;&#160;— dlopen at runtime</text>
<text text-anchor="middle" x="1606" y="-35.46" font-family="JetBrains Mono,Fira Code,monospace" font-size="9.00" fill="#585b70">Single source supports both.</text>
</g>
<!-- git_null&#45;&gt;deploy -->
<!-- workflow -->
<g id="node13" class="node">
<title>workflow</title>
<polygon fill="#181825" stroke="#585b70" stroke-width="1.2" points="2084.43,-113.52 1769.58,-113.52 1769.58,0 2090.43,0 2090.43,-107.52 2084.43,-113.52"/>
<polyline fill="none" stroke="#585b70" stroke-width="1.2" points="2084.43,-113.52 2084.43,-107.52"/>
<polyline fill="none" stroke="#585b70" stroke-width="1.2" points="2090.43,-107.52 2084.43,-107.52"/>
<text text-anchor="middle" x="1930" y="-99.21" font-family="JetBrains Mono,Fira Code,monospace" font-size="9.00" fill="#585b70">Workflow:</text>
<text text-anchor="middle" x="1930" y="-86.46" font-family="JetBrains Mono,Fira Code,monospace" font-size="9.00" fill="#585b70"> &#160;· kernel .gitignore blocks plugins/handlers,</text>
<text text-anchor="middle" x="1930" y="-73.71" font-family="JetBrains Mono,Fira Code,monospace" font-size="9.00" fill="#585b70"> &#160;&#160;&#160;plugins/links, plugins/security/{noise,null}</text>
<text text-anchor="middle" x="1930" y="-60.96" font-family="JetBrains Mono,Fira Code,monospace" font-size="9.00" fill="#585b70"> &#160;&#160;&#160;so nested plugin .git/ are not auto&#45;submodules.</text>
<text text-anchor="middle" x="1930" y="-48.21" font-family="JetBrains Mono,Fira Code,monospace" font-size="9.00" fill="#585b70"> &#160;· `nix run .#setup` clones every plugin from its mirror</text>
<text text-anchor="middle" x="1930" y="-35.46" font-family="JetBrains Mono,Fira Code,monospace" font-size="9.00" fill="#585b70"> &#160;&#160;&#160;into the slot; `nix run .#plugin &#45;&#45; pull` updates.</text>
<text text-anchor="middle" x="1930" y="-22.71" font-family="JetBrains Mono,Fira Code,monospace" font-size="9.00" fill="#585b70"> &#160;· post&#45;rc1: each plugin pushed to org repo;</text>
<text text-anchor="middle" x="1930" y="-9.96" font-family="JetBrains Mono,Fira Code,monospace" font-size="9.00" fill="#585b70"> &#160;&#160;&#160;plugin&#39;s flake URL switches local&#45;mirror → github.</text>
</g>
<!-- git_intg&#45;&gt;workflow -->
</g>
</svg>
