<?xml version="1.0" encoding="UTF-8" standalone="no"?>
<!DOCTYPE svg PUBLIC "-//W3C//DTD SVG 1.1//EN"
 "http://www.w3.org/Graphics/SVG/1.1/DTD/svg11.dtd">
<!-- Generated by graphviz version 12.2.1 (0)
 -->
<!-- Title: quic_carrier_dispatch Pages: 1 -->
<svg width="1071pt" height="202pt"
 viewBox="0.00 0.00 1070.75 201.75" xmlns="http://www.w3.org/2000/svg" xmlns:xlink="http://www.w3.org/1999/xlink">
<g id="graph0" class="graph" transform="scale(1 1) rotate(0) translate(28.8 172.94)">
<title>quic_carrier_dispatch</title>
<polygon fill="#1e1e2e" stroke="none" points="-28.8,28.8 -28.8,-172.94 1041.95,-172.94 1041.95,28.8 -28.8,28.8"/>
<!-- dial -->
<g id="node1" class="node">
<title>dial</title>
<polygon fill="#45475a" stroke="#a6e3a1" stroke-width="1.2" points="159.6,-88.14 0,-88.14 0,-49.62 159.6,-49.62 159.6,-88.14"/>
<text text-anchor="middle" x="79.8" y="-72.88" font-family="JetBrains Mono,Fira Code,monospace" font-size="10.00" fill="#a6e3a1">gn.link.quic</text>
<text text-anchor="middle" x="79.8" y="-59.38" font-family="JetBrains Mono,Fira Code,monospace" font-size="10.00" fill="#a6e3a1">dial(&quot;quic://&lt;suffix&gt;&quot;)</text>
</g>
<!-- detect -->
<g id="node2" class="node">
<title>detect</title>
<polygon fill="#45475a" stroke="#89b4fa" stroke-width="1.2" points="384.95,-93.77 200.6,-93.77 200.6,-44 384.95,-44 384.95,-93.77"/>
<text text-anchor="middle" x="292.77" y="-79.46" font-family="JetBrains Mono,Fira Code,monospace" font-size="9.00" fill="#89b4fa">detect_carrier_scheme(suffix)</text>
<text text-anchor="middle" x="292.77" y="-66.71" font-family="JetBrains Mono,Fira Code,monospace" font-size="9.00" fill="#89b4fa"> &#160;· 64 hex chars (peer&#45;pk hex)?</text>
<text text-anchor="middle" x="292.77" y="-53.96" font-family="JetBrains Mono,Fira Code,monospace" font-size="9.00" fill="#89b4fa"> &#160;· else (host:port)?</text>
</g>
<!-- dial&#45;&gt;detect -->
<g id="edge1" class="edge">
<title>dial&#45;&gt;detect</title>
<path fill="none" stroke="#585b70" d="M159.96,-68.88C170.29,-68.88 180.99,-68.88 191.61,-68.88"/>
<polygon fill="#585b70" stroke="#585b70" points="191.59,-71.34 198.59,-68.89 191.59,-66.44 191.59,-71.34"/>
</g>
<!-- ice -->
<g id="node3" class="node">
<title>ice</title>
<polygon fill="#45475a" stroke="#94e2d5" stroke-width="1.2" points="664.42,-144.14 474.82,-144.14 474.82,-81.62 664.42,-81.62 664.42,-144.14"/>
<text text-anchor="middle" x="569.62" y="-129.83" font-family="JetBrains Mono,Fira Code,monospace" font-size="9.00" fill="#94e2d5">gn.link.ice carrier</text>
<text text-anchor="middle" x="569.62" y="-117.08" font-family="JetBrains Mono,Fira Code,monospace" font-size="9.00" fill="#94e2d5"> &#160;· STUN/TURN candidate gather</text>
<text text-anchor="middle" x="569.62" y="-104.33" font-family="JetBrains Mono,Fira Code,monospace" font-size="9.00" fill="#94e2d5"> &#160;· ICE checks, nominate</text>
<text text-anchor="middle" x="569.62" y="-91.58" font-family="JetBrains Mono,Fira Code,monospace" font-size="9.00" fill="#94e2d5"> &#160;· QUIC over the nominated pair</text>
</g>
<!-- detect&#45;&gt;ice -->
<g id="edge2" class="edge">
<title>detect&#45;&gt;ice</title>
<path fill="none" stroke="#a6e3a1" d="M385.3,-83.54C411.34,-87.7 439.86,-92.27 466.49,-96.53"/>
<polygon fill="#a6e3a1" stroke="#a6e3a1" points="465.89,-98.92 473.19,-97.61 466.67,-94.08 465.89,-98.92"/>
<text text-anchor="middle" x="428.57" y="-97.72" font-family="JetBrains Mono,Fira Code,monospace" font-size="9.00" fill="#585b70">hex</text>
</g>
<!-- udp -->
<g id="node4" class="node">
<title>udp</title>
<polygon fill="#45475a" stroke="#f9e2af" stroke-width="1.2" points="667.05,-49.77 472.2,-49.77 472.2,0 667.05,0 667.05,-49.77"/>
<text text-anchor="middle" x="569.62" y="-35.46" font-family="JetBrains Mono,Fira Code,monospace" font-size="9.00" fill="#f9e2af">gn.link.udp carrier</text>
<text text-anchor="middle" x="569.62" y="-22.71" font-family="JetBrains Mono,Fira Code,monospace" font-size="9.00" fill="#f9e2af"> &#160;· plain UDP socket</text>
<text text-anchor="middle" x="569.62" y="-9.96" font-family="JetBrains Mono,Fira Code,monospace" font-size="9.00" fill="#f9e2af"> &#160;· QUIC handshake over host:port</text>
</g>
<!-- detect&#45;&gt;udp -->
<g id="edge3" class="edge">
<title>detect&#45;&gt;udp</title>
<path fill="none" stroke="#f9e2af" d="M385.3,-54.23C410.38,-50.22 437.76,-45.83 463.54,-41.71"/>
<polygon fill="#f9e2af" stroke="#f9e2af" points="463.83,-44.14 470.36,-40.62 463.06,-39.3 463.83,-44.14"/>
<text text-anchor="middle" x="428.57" y="-55.03" font-family="JetBrains Mono,Fira Code,monospace" font-size="9.00" fill="#585b70">host:port</text>
</g>
<!-- note -->
<g id="node5" class="node">
<title>note</title>
<polygon fill="#181825" stroke="#585b70" stroke-width="1.2" points="1007.15,-111.89 708.05,-111.89 708.05,-23.87 1013.15,-23.87 1013.15,-105.89 1007.15,-111.89"/>
<polyline fill="none" stroke="#585b70" stroke-width="1.2" points="1007.15,-111.89 1007.15,-105.89"/>
<polyline fill="none" stroke="#585b70" stroke-width="1.2" points="1013.15,-105.89 1007.15,-105.89"/>
<text text-anchor="middle" x="860.6" y="-97.58" font-family="JetBrains Mono,Fira Code,monospace" font-size="9.00" fill="#585b70">Status</text>
<text text-anchor="middle" x="860.6" y="-84.83" font-family="JetBrains Mono,Fira Code,monospace" font-size="9.00" fill="#585b70"> &#160;· route detection: GREEN (3 smoke tests in</text>
<text text-anchor="middle" x="860.6" y="-72.08" font-family="JetBrains Mono,Fira Code,monospace" font-size="9.00" fill="#585b70"> &#160;&#160;&#160;test_quic.cpp::IceCarrierBridge)</text>
<text text-anchor="middle" x="860.6" y="-59.33" font-family="JetBrains Mono,Fira Code,monospace" font-size="9.00" fill="#585b70"> &#160;· end&#45;to&#45;end QUIC over nominated ICE pair: PENDING</text>
<text text-anchor="middle" x="860.6" y="-46.58" font-family="JetBrains Mono,Fira Code,monospace" font-size="9.00" fill="#585b70"> &#160;&#160;&#160;(needs signaling extraction API from IceLink — see</text>
<text text-anchor="middle" x="860.6" y="-33.83" font-family="JetBrains Mono,Fira Code,monospace" font-size="9.00" fill="#585b70"> &#160;&#160;&#160;project_goodnet_post_compact memory)</text>
</g>
<!-- ice&#45;&gt;note -->
<!-- udp&#45;&gt;note -->
</g>
</svg>
