<?xml version="1.0" encoding="UTF-8" standalone="no"?>
<!DOCTYPE svg PUBLIC "-//W3C//DTD SVG 1.1//EN"
 "http://www.w3.org/Graphics/SVG/1.1/DTD/svg11.dtd">
<!-- Generated by graphviz version 12.2.1 (0)
 -->
<!-- Title: security_pipeline Pages: 1 -->
<svg width="373pt" height="786pt"
 viewBox="0.00 0.00 373.20 786.01" xmlns="http://www.w3.org/2000/svg" xmlns:xlink="http://www.w3.org/1999/xlink">
<g id="graph0" class="graph" transform="scale(1 1) rotate(0) translate(28.8 757.21)">
<title>security_pipeline</title>
<polygon fill="#1e1e2e" stroke="none" points="-28.8,28.8 -28.8,-757.21 344.4,-757.21 344.4,28.8 -28.8,28.8"/>
<!-- dial -->
<g id="node1" class="node">
<title>dial</title>
<polygon fill="#45475a" stroke="#a6e3a1" stroke-width="1.2" points="192.23,-728.41 123.38,-728.41 123.38,-692.41 192.23,-692.41 192.23,-728.41"/>
<text text-anchor="middle" x="157.8" y="-708.24" font-family="JetBrains Mono,Fira Code,monospace" font-size="9.00" fill="#a6e3a1">dial(uri)</text>
</g>
<!-- conn -->
<g id="node2" class="node">
<title>conn</title>
<polygon fill="#45475a" stroke="#89b4fa" stroke-width="1.2" points="255.23,-660.41 60.38,-660.41 60.38,-610.64 255.23,-610.64 255.23,-660.41"/>
<text text-anchor="middle" x="157.8" y="-646.1" font-family="JetBrains Mono,Fira Code,monospace" font-size="9.00" fill="#89b4fa">host_api&#45;&gt;notify_connect()</text>
<text text-anchor="middle" x="157.8" y="-633.35" font-family="JetBrains Mono,Fira Code,monospace" font-size="9.00" fill="#89b4fa">kernel creates conn id +</text>
<text text-anchor="middle" x="157.8" y="-620.6" font-family="JetBrains Mono,Fira Code,monospace" font-size="9.00" fill="#89b4fa">SecuritySession (Handshake phase)</text>
</g>
<!-- dial&#45;&gt;conn -->
<g id="edge1" class="edge">
<title>dial&#45;&gt;conn</title>
<path fill="none" stroke="#585b70" d="M157.8,-692.14C157.8,-685.27 157.8,-677.14 157.8,-669.25"/>
<polygon fill="#585b70" stroke="#585b70" points="160.25,-669.36 157.8,-662.36 155.35,-669.36 160.25,-669.36"/>
</g>
<!-- kick -->
<g id="node3" class="node">
<title>kick</title>
<polygon fill="#45475a" stroke="#b4befe" stroke-width="1.2" points="263.1,-578.64 52.5,-578.64 52.5,-541.62 263.1,-541.62 263.1,-578.64"/>
<text text-anchor="middle" x="157.8" y="-564.33" font-family="JetBrains Mono,Fira Code,monospace" font-size="9.00" fill="#b4befe">host_api&#45;&gt;kick_handshake(conn)</text>
<text text-anchor="middle" x="157.8" y="-551.58" font-family="JetBrains Mono,Fira Code,monospace" font-size="9.00" fill="#b4befe">initiator drives first Noise message</text>
</g>
<!-- conn&#45;&gt;kick -->
<g id="edge2" class="edge">
<title>conn&#45;&gt;kick</title>
<path fill="none" stroke="#585b70" d="M157.8,-610.49C157.8,-603.04 157.8,-594.79 157.8,-587.21"/>
<polygon fill="#585b70" stroke="#585b70" points="160.25,-587.21 157.8,-580.21 155.35,-587.21 160.25,-587.21"/>
</g>
<!-- noise_xx -->
<g id="node4" class="node">
<title>noise_xx</title>
<polygon fill="#45475a" stroke="#94e2d5" stroke-width="1.2" points="257.85,-509.62 57.75,-509.62 57.75,-421.6 257.85,-421.6 257.85,-509.62"/>
<text text-anchor="middle" x="157.8" y="-495.31" font-family="JetBrains Mono,Fira Code,monospace" font-size="9.00" fill="#94e2d5">Noise XX (3 messages)</text>
<text text-anchor="middle" x="157.8" y="-482.56" font-family="JetBrains Mono,Fira Code,monospace" font-size="9.00" fill="#94e2d5"> &#160;· e</text>
<text text-anchor="middle" x="157.8" y="-469.81" font-family="JetBrains Mono,Fira Code,monospace" font-size="9.00" fill="#94e2d5"> &#160;· e, ee, s, es</text>
<text text-anchor="middle" x="157.8" y="-457.06" font-family="JetBrains Mono,Fira Code,monospace" font-size="9.00" fill="#94e2d5"> &#160;· s, se</text>
<text text-anchor="middle" x="157.8" y="-444.31" font-family="JetBrains Mono,Fira Code,monospace" font-size="9.00" fill="#94e2d5">Noise IK is a wrapper that reuses</text>
<text text-anchor="middle" x="157.8" y="-431.56" font-family="JetBrains Mono,Fira Code,monospace" font-size="9.00" fill="#94e2d5">the same pattern enum for known&#45;pk</text>
</g>
<!-- kick&#45;&gt;noise_xx -->
<g id="edge3" class="edge">
<title>kick&#45;&gt;noise_xx</title>
<path fill="none" stroke="#585b70" d="M157.8,-541.29C157.8,-534.6 157.8,-526.6 157.8,-518.38"/>
<polygon fill="#585b70" stroke="#585b70" points="160.25,-518.62 157.8,-511.62 155.35,-518.62 160.25,-518.62"/>
</g>
<!-- transit -->
<g id="node5" class="node">
<title>transit</title>
<polygon fill="#45475a" stroke="#fab387" stroke-width="1.2" points="289.35,-389.6 26.25,-389.6 26.25,-339.83 289.35,-339.83 289.35,-389.6"/>
<text text-anchor="middle" x="157.8" y="-375.29" font-family="JetBrains Mono,Fira Code,monospace" font-size="9.00" fill="#fab387">SecuritySession → Transport phase</text>
<text text-anchor="middle" x="157.8" y="-362.54" font-family="JetBrains Mono,Fira Code,monospace" font-size="9.00" fill="#fab387"> &#160;· pending plaintexts drained</text>
<text text-anchor="middle" x="157.8" y="-349.79" font-family="JetBrains Mono,Fira Code,monospace" font-size="9.00" fill="#fab387"> &#160;· noise_*_cipher state holds N_send / N_recv</text>
</g>
<!-- noise_xx&#45;&gt;transit -->
<g id="edge4" class="edge">
<title>noise_xx&#45;&gt;transit</title>
<path fill="none" stroke="#585b70" d="M157.8,-421.23C157.8,-413.55 157.8,-405.67 157.8,-398.34"/>
<polygon fill="#585b70" stroke="#585b70" points="160.25,-398.56 157.8,-391.56 155.35,-398.56 160.25,-398.56"/>
</g>
<!-- attest -->
<g id="node6" class="node">
<title>attest</title>
<polygon fill="#45475a" stroke="#cba6f7" stroke-width="1.2" points="286.73,-307.83 28.88,-307.83 28.88,-258.06 286.73,-258.06 286.73,-307.83"/>
<text text-anchor="middle" x="157.8" y="-293.52" font-family="JetBrains Mono,Fira Code,monospace" font-size="9.00" fill="#cba6f7">Attestation exchange (232 B per side)</text>
<text text-anchor="middle" x="157.8" y="-280.77" font-family="JetBrains Mono,Fira Code,monospace" font-size="9.00" fill="#cba6f7">AttestationDispatcher verifies remote payload</text>
<text text-anchor="middle" x="157.8" y="-268.02" font-family="JetBrains Mono,Fira Code,monospace" font-size="9.00" fill="#cba6f7">pin_device_pk on first attestation</text>
</g>
<!-- transit&#45;&gt;attest -->
<g id="edge5" class="edge">
<title>transit&#45;&gt;attest</title>
<path fill="none" stroke="#585b70" d="M157.8,-339.35C157.8,-332.08 157.8,-324 157.8,-316.3"/>
<polygon fill="#585b70" stroke="#585b70" points="160.25,-316.68 157.8,-309.68 155.35,-316.68 160.25,-316.68"/>
</g>
<!-- upgrade -->
<g id="node7" class="node">
<title>upgrade</title>
<polygon fill="#45475a" stroke="#f9e2af" stroke-width="1.2" points="260.48,-226.06 55.13,-226.06 55.13,-163.54 260.48,-163.54 260.48,-226.06"/>
<text text-anchor="middle" x="157.8" y="-211.75" font-family="JetBrains Mono,Fira Code,monospace" font-size="9.00" fill="#f9e2af">Trust upgraded: Untrusted → Peer</text>
<text text-anchor="middle" x="157.8" y="-199" font-family="JetBrains Mono,Fira Code,monospace" font-size="9.00" fill="#f9e2af">TRUST_UPGRADED event fired</text>
<text text-anchor="middle" x="157.8" y="-186.25" font-family="JetBrains Mono,Fira Code,monospace" font-size="9.00" fill="#f9e2af">Loopback / IntraNode set on connect</text>
<text text-anchor="middle" x="157.8" y="-173.5" font-family="JetBrains Mono,Fira Code,monospace" font-size="9.00" fill="#f9e2af">(immutable, not upgraded)</text>
</g>
<!-- attest&#45;&gt;upgrade -->
<g id="edge6" class="edge">
<title>attest&#45;&gt;upgrade</title>
<path fill="none" stroke="#585b70" d="M157.8,-257.95C157.8,-250.78 157.8,-242.73 157.8,-234.87"/>
<polygon fill="#585b70" stroke="#585b70" points="160.25,-234.96 157.8,-227.96 155.35,-234.96 160.25,-234.96"/>
</g>
<!-- ready -->
<g id="node8" class="node">
<title>ready</title>
<polygon fill="#45475a" stroke="#a6e3a1" stroke-width="1.2" points="268.35,-131.54 47.25,-131.54 47.25,-94.52 268.35,-94.52 268.35,-131.54"/>
<text text-anchor="middle" x="157.8" y="-117.23" font-family="JetBrains Mono,Fira Code,monospace" font-size="9.00" fill="#a6e3a1">Connection READY</text>
<text text-anchor="middle" x="157.8" y="-104.48" font-family="JetBrains Mono,Fira Code,monospace" font-size="9.00" fill="#a6e3a1">handler.on_inbound dispatches normally</text>
</g>
<!-- upgrade&#45;&gt;ready -->
<g id="edge7" class="edge">
<title>upgrade&#45;&gt;ready</title>
<path fill="none" stroke="#585b70" d="M157.8,-163.19C157.8,-155.61 157.8,-147.56 157.8,-140.21"/>
<polygon fill="#585b70" stroke="#585b70" points="160.25,-140.5 157.8,-133.5 155.35,-140.5 160.25,-140.5"/>
</g>
<!-- note -->
<g id="node9" class="node">
<title>note</title>
<polygon fill="#181825" stroke="#585b70" stroke-width="1.2" points="309.6,-62.52 0,-62.52 0,0 315.6,0 315.6,-56.52 309.6,-62.52"/>
<polyline fill="none" stroke="#585b70" stroke-width="1.2" points="309.6,-62.52 309.6,-56.52"/>
<polyline fill="none" stroke="#585b70" stroke-width="1.2" points="315.6,-56.52 309.6,-56.52"/>
<text text-anchor="middle" x="157.8" y="-48.21" font-family="JetBrains Mono,Fira Code,monospace" font-size="9.00" fill="#585b70">Touchpoints with host_api</text>
<text text-anchor="middle" x="157.8" y="-35.46" font-family="JetBrains Mono,Fira Code,monospace" font-size="9.00" fill="#585b70"> &#160;· kick_handshake(conn) — drives initiator&#39;s first msg</text>
<text text-anchor="middle" x="157.8" y="-22.71" font-family="JetBrains Mono,Fira Code,monospace" font-size="9.00" fill="#585b70"> &#160;· notify_inbound_bytes(conn, bytes) — feeds the cipher</text>
<text text-anchor="middle" x="157.8" y="-9.96" font-family="JetBrains Mono,Fira Code,monospace" font-size="9.00" fill="#585b70"> &#160;· subscribe_conn_state(...) — emits TRUST_UPGRADED</text>
</g>
<!-- ready&#45;&gt;note -->
</g>
</svg>
