<?xml version="1.0" encoding="UTF-8" standalone="no"?>
<!DOCTYPE svg PUBLIC "-//W3C//DTD SVG 1.1//EN"
 "http://www.w3.org/Graphics/SVG/1.1/DTD/svg11.dtd">
<!-- Generated by graphviz version 12.2.1 (0)
 -->
<!-- Title: sharded_registry Pages: 1 -->
<svg width="686pt" height="421pt"
 viewBox="0.00 0.00 686.27 421.14" xmlns="http://www.w3.org/2000/svg" xmlns:xlink="http://www.w3.org/1999/xlink">
<g id="graph0" class="graph" transform="scale(1 1) rotate(0) translate(28.8 392.34)">
<title>sharded_registry</title>
<polygon fill="#1e1e2e" stroke="none" points="-28.8,28.8 -28.8,-392.34 657.47,-392.34 657.47,28.8 -28.8,28.8"/>
<g id="clust1" class="cluster">
<title>cluster_indexes</title>
<path fill="#181825" stroke="#b4befe" stroke-width="1.5" d="M20,-107.27C20,-107.27 535,-107.27 535,-107.27 541,-107.27 547,-113.27 547,-119.27 547,-119.27 547,-180.79 547,-180.79 547,-186.79 541,-192.79 535,-192.79 535,-192.79 20,-192.79 20,-192.79 14,-192.79 8,-186.79 8,-180.79 8,-180.79 8,-119.27 8,-119.27 8,-113.27 14,-107.27 20,-107.27"/>
<text text-anchor="middle" x="277.5" y="-178.34" font-family="JetBrains Mono,Fira Code,monospace" font-size="11.00" fill="#b4befe">Three indexes — record visible under all three keys or none</text>
</g>
<!-- entry -->
<g id="node1" class="node">
<title>entry</title>
<ellipse fill="#45475a" stroke="#89b4fa" stroke-width="1.2" cx="378" cy="-336.3" rx="176.49" ry="27.24"/>
<text text-anchor="middle" x="378" y="-340.3" font-family="JetBrains Mono,Fira Code,monospace" font-size="10.00" fill="#89b4fa">insert_with_index(record, id, uri, pk)</text>
<text text-anchor="middle" x="378" y="-326.8" font-family="JetBrains Mono,Fira Code,monospace" font-size="10.00" fill="#89b4fa">or &#160;erase_with_index(id)</text>
</g>
<!-- locks -->
<g id="node2" class="node">
<title>locks</title>
<path fill="#45475a" stroke="#f9e2af" stroke-width="1.2" d="M339.3,-277.06C339.3,-277.06 194.7,-277.06 194.7,-277.06 188.7,-277.06 182.7,-271.06 182.7,-265.06 182.7,-265.06 182.7,-213.79 182.7,-213.79 182.7,-207.79 188.7,-201.79 194.7,-201.79 194.7,-201.79 339.3,-201.79 339.3,-201.79 345.3,-201.79 351.3,-207.79 351.3,-213.79 351.3,-213.79 351.3,-265.06 351.3,-265.06 351.3,-271.06 345.3,-277.06 339.3,-277.06"/>
<text text-anchor="middle" x="267" y="-262.75" font-family="JetBrains Mono,Fira Code,monospace" font-size="9.00" fill="#f9e2af">Acquire triple of mutexes</text>
<text text-anchor="middle" x="267" y="-250" font-family="JetBrains Mono,Fira Code,monospace" font-size="9.00" fill="#f9e2af">in fixed total order:</text>
<text text-anchor="middle" x="267" y="-237.25" font-family="JetBrains Mono,Fira Code,monospace" font-size="9.00" fill="#f9e2af"> &#160;1. shard mutex (id mod 16)</text>
<text text-anchor="middle" x="267" y="-224.5" font-family="JetBrains Mono,Fira Code,monospace" font-size="9.00" fill="#f9e2af"> &#160;2. URI&#45;index mutex</text>
<text text-anchor="middle" x="267" y="-211.75" font-family="JetBrains Mono,Fira Code,monospace" font-size="9.00" fill="#f9e2af"> &#160;3. pk&#45;index mutex</text>
</g>
<!-- entry&#45;&gt;locks -->
<g id="edge1" class="edge">
<title>entry&#45;&gt;locks</title>
<path fill="none" stroke="#585b70" d="M347.37,-309.12C337.92,-301.04 327.24,-291.91 316.83,-283.02"/>
<polygon fill="#585b70" stroke="#585b70" points="318.47,-281.19 311.55,-278.51 315.28,-284.92 318.47,-281.19"/>
</g>
<!-- plugin_view -->
<g id="node7" class="node">
<title>plugin_view</title>
<polygon fill="#181825" stroke="#585b70" stroke-width="1.2" points="598.8,-270.69 373.2,-270.69 373.2,-208.17 604.8,-208.17 604.8,-264.69 598.8,-270.69"/>
<polyline fill="none" stroke="#585b70" stroke-width="1.2" points="598.8,-270.69 598.8,-264.69"/>
<polyline fill="none" stroke="#585b70" stroke-width="1.2" points="604.8,-264.69 598.8,-264.69"/>
<text text-anchor="middle" x="489" y="-256.38" font-family="JetBrains Mono,Fira Code,monospace" font-size="9.00" fill="#fab387">Plugin&#45;side reads (lock&#45;free):</text>
<text text-anchor="middle" x="489" y="-243.62" font-family="JetBrains Mono,Fira Code,monospace" font-size="9.00" fill="#fab387"> &#160;host_api&#45;&gt;find_conn_by_pk(pk, &amp;conn)</text>
<text text-anchor="middle" x="489" y="-230.88" font-family="JetBrains Mono,Fira Code,monospace" font-size="9.00" fill="#fab387"> &#160;host_api&#45;&gt;get_endpoint(conn, &amp;out)</text>
<text text-anchor="middle" x="489" y="-218.12" font-family="JetBrains Mono,Fira Code,monospace" font-size="9.00" fill="#fab387"> &#160;host_api&#45;&gt;for_each_connection(visitor)</text>
</g>
<!-- entry&#45;&gt;plugin_view -->
<g id="edge6" class="edge">
<title>entry&#45;&gt;plugin_view</title>
<path fill="none" stroke="#fab387" stroke-dasharray="5,2" d="M408.63,-309.12C422.49,-297.28 438.96,-283.2 453.37,-270.88"/>
</g>
<!-- id_idx -->
<g id="node3" class="node">
<title>id_idx</title>
<path fill="#45475a" stroke="#94e2d5" stroke-width="1.2" d="M143.8,-163.41C143.8,-163.41 20.2,-163.41 20.2,-163.41 14.2,-163.41 8.2,-157.41 8.2,-151.41 8.2,-151.41 8.2,-125.65 8.2,-125.65 8.2,-119.65 14.2,-113.65 20.2,-113.65 20.2,-113.65 143.8,-113.65 143.8,-113.65 149.8,-113.65 155.8,-119.65 155.8,-125.65 155.8,-125.65 155.8,-151.41 155.8,-151.41 155.8,-157.41 149.8,-163.41 143.8,-163.41"/>
<text text-anchor="middle" x="82" y="-149.1" font-family="JetBrains Mono,Fira Code,monospace" font-size="9.00" fill="#94e2d5">id index</text>
<text text-anchor="middle" x="82" y="-136.35" font-family="JetBrains Mono,Fira Code,monospace" font-size="9.00" fill="#94e2d5">16 shards by (id mod 16)</text>
<text text-anchor="middle" x="82" y="-123.61" font-family="JetBrains Mono,Fira Code,monospace" font-size="9.00" fill="#94e2d5">shared_mutex per shard</text>
</g>
<!-- locks&#45;&gt;id_idx -->
<g id="edge2" class="edge">
<title>locks&#45;&gt;id_idx</title>
<path fill="none" stroke="#94e2d5" d="M182.52,-201.33C176.89,-198.53 171.33,-195.67 166,-192.79 152.28,-185.39 137.79,-176.58 124.78,-168.29"/>
<polygon fill="#94e2d5" stroke="#94e2d5" points="126.2,-166.29 118.99,-164.56 123.55,-170.41 126.2,-166.29"/>
</g>
<!-- uri_idx -->
<g id="node4" class="node">
<title>uri_idx</title>
<path fill="#45475a" stroke="#cba6f7" stroke-width="1.2" d="M344.55,-163.41C344.55,-163.41 189.45,-163.41 189.45,-163.41 183.45,-163.41 177.45,-157.41 177.45,-151.41 177.45,-151.41 177.45,-125.65 177.45,-125.65 177.45,-119.65 183.45,-113.65 189.45,-113.65 189.45,-113.65 344.55,-113.65 344.55,-113.65 350.55,-113.65 356.55,-119.65 356.55,-125.65 356.55,-125.65 356.55,-151.41 356.55,-151.41 356.55,-157.41 350.55,-163.41 344.55,-163.41"/>
<text text-anchor="middle" x="267" y="-149.1" font-family="JetBrains Mono,Fira Code,monospace" font-size="9.00" fill="#cba6f7">uri index</text>
<text text-anchor="middle" x="267" y="-136.35" font-family="JetBrains Mono,Fira Code,monospace" font-size="9.00" fill="#cba6f7">std::unordered_map&lt;string, id&gt;</text>
<text text-anchor="middle" x="267" y="-123.61" font-family="JetBrains Mono,Fira Code,monospace" font-size="9.00" fill="#cba6f7">global mutex</text>
</g>
<!-- locks&#45;&gt;uri_idx -->
<g id="edge3" class="edge">
<title>locks&#45;&gt;uri_idx</title>
<path fill="none" stroke="#cba6f7" d="M267,-201.32C267,-191.67 267,-181.35 267,-171.96"/>
<polygon fill="#cba6f7" stroke="#cba6f7" points="269.45,-172.16 267,-165.16 264.55,-172.16 269.45,-172.16"/>
</g>
<!-- pk_idx -->
<g id="node5" class="node">
<title>pk_idx</title>
<path fill="#45475a" stroke="#cba6f7" stroke-width="1.2" d="M535.3,-169.79C535.3,-169.79 390.7,-169.79 390.7,-169.79 384.7,-169.79 378.7,-163.79 378.7,-157.79 378.7,-157.79 378.7,-119.27 378.7,-119.27 378.7,-113.27 384.7,-107.27 390.7,-107.27 390.7,-107.27 535.3,-107.27 535.3,-107.27 541.3,-107.27 547.3,-113.27 547.3,-119.27 547.3,-119.27 547.3,-157.79 547.3,-157.79 547.3,-163.79 541.3,-169.79 535.3,-169.79"/>
<text text-anchor="middle" x="463" y="-155.48" font-family="JetBrains Mono,Fira Code,monospace" font-size="9.00" fill="#cba6f7">pk index</text>
<text text-anchor="middle" x="463" y="-142.73" font-family="JetBrains Mono,Fira Code,monospace" font-size="9.00" fill="#cba6f7">std::unordered_map&lt;pk, id&gt;</text>
<text text-anchor="middle" x="463" y="-129.98" font-family="JetBrains Mono,Fira Code,monospace" font-size="9.00" fill="#cba6f7">global mutex</text>
<text text-anchor="middle" x="463" y="-117.23" font-family="JetBrains Mono,Fira Code,monospace" font-size="9.00" fill="#cba6f7">zero&#45;pk skipped (responders)</text>
</g>
<!-- locks&#45;&gt;pk_idx -->
<g id="edge4" class="edge">
<title>locks&#45;&gt;pk_idx</title>
<path fill="none" stroke="#cba6f7" d="M350.5,-201.39C356.45,-198.54 362.33,-195.65 368,-192.79 379.35,-187.06 391.3,-180.66 402.74,-174.34"/>
<polygon fill="#cba6f7" stroke="#cba6f7" points="403.93,-176.49 408.85,-170.95 401.55,-172.2 403.93,-176.49"/>
</g>
<!-- rules -->
<g id="node6" class="node">
<title>rules</title>
<polygon fill="#181825" stroke="#585b70" stroke-width="1.2" points="622.67,-75.27 297.32,-75.27 297.32,0 628.67,0 628.67,-69.27 622.67,-75.27"/>
<polyline fill="none" stroke="#585b70" stroke-width="1.2" points="622.67,-75.27 622.67,-69.27"/>
<polyline fill="none" stroke="#585b70" stroke-width="1.2" points="628.67,-69.27 622.67,-69.27"/>
<text text-anchor="middle" x="463" y="-60.96" font-family="JetBrains Mono,Fira Code,monospace" font-size="9.00" fill="#585b70">All&#45;or&#45;nothing — collision on any key fails before mutation</text>
<text text-anchor="middle" x="463" y="-48.21" font-family="JetBrains Mono,Fira Code,monospace" font-size="9.00" fill="#585b70">No reader&#45;visible intermediate state</text>
<text text-anchor="middle" x="463" y="-35.46" font-family="JetBrains Mono,Fira Code,monospace" font-size="9.00" fill="#585b70">Deadlock&#45;free — fixed acquisition order across callers</text>
<text text-anchor="middle" x="463" y="-22.71" font-family="JetBrains Mono,Fira Code,monospace" font-size="9.00" fill="#585b70">Snapshot variant for notify_disconnect:</text>
<text text-anchor="middle" x="463" y="-9.96" font-family="JetBrains Mono,Fira Code,monospace" font-size="9.00" fill="#585b70"> &#160;capture endpoint + counters, then erase, atomically</text>
</g>
<!-- pk_idx&#45;&gt;rules -->
</g>
</svg>
